ISO-10303-21;
HEADER;
/* Generated by software containing ST-Developer
 * from STEP Tools, Inc. (www.steptools.com) 
 */

FILE_DESCRIPTION(
/* description */ (''),
/* implementation_level */ '2;1');

FILE_NAME(
/* name */ 'Wing SparL.step',
/* time_stamp */ '2026-08-20T16:39:15-05:00',
/* author */ (''),
/* organization */ (''),
/* preprocessor_version */ 'ST-DEVELOPER v20.1',
/* originating_system */ 'Autodesk Translation Framework v15.8.0.0',
/* authorisation */ '');

FILE_SCHEMA (('AUTOMOTIVE_DESIGN { 1 0 10303 214 3 1 1 }'));
ENDSEC;

DATA;
#10=MECHANICAL_DESIGN_GEOMETRIC_PRESENTATION_REPRESENTATION('',(#13),#1817);
#11=SHAPE_REPRESENTATION_RELATIONSHIP('SRR','None',#1824,#12);
#12=ADVANCED_BREP_SHAPE_REPRESENTATION('',(#14),#1816);
#13=STYLED_ITEM('',(#1833),#14);
#14=MANIFOLD_SOLID_BREP('Body1',#1129);
#15=(
BOUNDED_SURFACE()
B_SPLINE_SURFACE(5,1,((#1649,#1650),(#1651,#1652),(#1653,#1654),(#1655,
#1656),(#1657,#1658),(#1659,#1660),(#1661,#1662),(#1663,#1664),(#1665,#1666),
(#1667,#1668)),.UNSPECIFIED.,.F.,.F.,.F.)
B_SPLINE_SURFACE_WITH_KNOTS((6,1,1,1,1,6),(2,2),(-1.,-0.8,-0.6,-0.4,-0.2,
0.),(0.,1.016),.UNSPECIFIED.)
GEOMETRIC_REPRESENTATION_ITEM()
RATIONAL_B_SPLINE_SURFACE(((1.,1.),(1.,1.),(1.,1.),(1.,1.),(1.,1.),(1.,
1.),(1.,1.),(1.,1.),(1.,1.),(1.,1.)))
REPRESENTATION_ITEM('')
SURFACE()
);
#16=FACE_BOUND('',#387,.T.);
#17=FACE_BOUND('',#388,.T.);
#18=FACE_BOUND('',#389,.T.);
#19=FACE_BOUND('',#390,.T.);
#20=FACE_BOUND('',#391,.T.);
#21=FACE_BOUND('',#392,.T.);
#22=FACE_BOUND('',#393,.T.);
#23=FACE_BOUND('',#394,.T.);
#24=FACE_BOUND('',#395,.T.);
#25=FACE_BOUND('',#396,.T.);
#26=FACE_BOUND('',#397,.T.);
#27=FACE_BOUND('',#398,.T.);
#28=FACE_BOUND('',#399,.T.);
#29=FACE_BOUND('',#400,.T.);
#30=FACE_BOUND('',#401,.T.);
#31=FACE_BOUND('',#451,.T.);
#32=FACE_BOUND('',#452,.T.);
#33=FACE_BOUND('',#453,.T.);
#34=FACE_BOUND('',#454,.T.);
#35=FACE_BOUND('',#455,.T.);
#36=FACE_BOUND('',#456,.T.);
#37=FACE_BOUND('',#457,.T.);
#38=FACE_BOUND('',#458,.T.);
#39=FACE_BOUND('',#459,.T.);
#40=FACE_BOUND('',#460,.T.);
#41=FACE_BOUND('',#461,.T.);
#42=FACE_BOUND('',#462,.T.);
#43=FACE_BOUND('',#463,.T.);
#44=FACE_BOUND('',#464,.T.);
#45=FACE_BOUND('',#465,.T.);
#46=(
BOUNDED_CURVE()
B_SPLINE_CURVE(5,(#1486,#1487,#1488,#1489,#1490,#1491,#1492,#1493,#1494,
#1495),.UNSPECIFIED.,.F.,.F.)
B_SPLINE_CURVE_WITH_KNOTS((6,1,1,1,1,6),(0.,0.2,0.4,0.6,0.8,1.),
 .UNSPECIFIED.)
CURVE()
GEOMETRIC_REPRESENTATION_ITEM()
RATIONAL_B_SPLINE_CURVE((1.,1.,1.,1.,1.,1.,1.,1.,1.,1.))
REPRESENTATION_ITEM('')
);
#47=(
BOUNDED_CURVE()
B_SPLINE_CURVE(5,(#1669,#1670,#1671,#1672,#1673,#1674,#1675,#1676,#1677,
#1678),.UNSPECIFIED.,.F.,.F.)
B_SPLINE_CURVE_WITH_KNOTS((6,1,1,1,1,6),(-1.,-0.8,-0.6,-0.4,-0.2,0.),
 .UNSPECIFIED.)
CURVE()
GEOMETRIC_REPRESENTATION_ITEM()
RATIONAL_B_SPLINE_CURVE((1.,1.,1.,1.,1.,1.,1.,1.,1.,1.))
REPRESENTATION_ITEM('')
);
#48=LINE('',#1480,#186);
#49=LINE('',#1497,#187);
#50=LINE('',#1501,#188);
#51=LINE('',#1503,#189);
#52=LINE('',#1505,#190);
#53=LINE('',#1506,#191);
#54=LINE('',#1509,#192);
#55=LINE('',#1511,#193);
#56=LINE('',#1513,#194);
#57=LINE('',#1514,#195);
#58=LINE('',#1517,#196);
#59=LINE('',#1519,#197);
#60=LINE('',#1521,#198);
#61=LINE('',#1522,#199);
#62=LINE('',#1525,#200);
#63=LINE('',#1527,#201);
#64=LINE('',#1529,#202);
#65=LINE('',#1530,#203);
#66=LINE('',#1533,#204);
#67=LINE('',#1535,#205);
#68=LINE('',#1536,#206);
#69=LINE('',#1539,#207);
#70=LINE('',#1541,#208);
#71=LINE('',#1542,#209);
#72=LINE('',#1545,#210);
#73=LINE('',#1547,#211);
#74=LINE('',#1548,#212);
#75=LINE('',#1551,#213);
#76=LINE('',#1553,#214);
#77=LINE('',#1554,#215);
#78=LINE('',#1561,#216);
#79=LINE('',#1563,#217);
#80=LINE('',#1564,#218);
#81=LINE('',#1567,#219);
#82=LINE('',#1569,#220);
#83=LINE('',#1571,#221);
#84=LINE('',#1572,#222);
#85=LINE('',#1575,#223);
#86=LINE('',#1577,#224);
#87=LINE('',#1579,#225);
#88=LINE('',#1580,#226);
#89=LINE('',#1583,#227);
#90=LINE('',#1585,#228);
#91=LINE('',#1587,#229);
#92=LINE('',#1588,#230);
#93=LINE('',#1593,#231);
#94=LINE('',#1595,#232);
#95=LINE('',#1596,#233);
#96=LINE('',#1599,#234);
#97=LINE('',#1600,#235);
#98=LINE('',#1602,#236);
#99=LINE('',#1605,#237);
#100=LINE('',#1607,#238);
#101=LINE('',#1608,#239);
#102=LINE('',#1611,#240);
#103=LINE('',#1612,#241);
#104=LINE('',#1614,#242);
#105=LINE('',#1617,#243);
#106=LINE('',#1619,#244);
#107=LINE('',#1620,#245);
#108=LINE('',#1623,#246);
#109=LINE('',#1624,#247);
#110=LINE('',#1626,#248);
#111=LINE('',#1629,#249);
#112=LINE('',#1631,#250);
#113=LINE('',#1632,#251);
#114=LINE('',#1635,#252);
#115=LINE('',#1636,#253);
#116=LINE('',#1638,#254);
#117=LINE('',#1641,#255);
#118=LINE('',#1643,#256);
#119=LINE('',#1644,#257);
#120=LINE('',#1648,#258);
#121=LINE('',#1682,#259);
#122=LINE('',#1686,#260);
#123=LINE('',#1689,#261);
#124=LINE('',#1691,#262);
#125=LINE('',#1692,#263);
#126=LINE('',#1695,#264);
#127=LINE('',#1696,#265);
#128=LINE('',#1698,#266);
#129=LINE('',#1701,#267);
#130=LINE('',#1703,#268);
#131=LINE('',#1704,#269);
#132=LINE('',#1707,#270);
#133=LINE('',#1708,#271);
#134=LINE('',#1711,#272);
#135=LINE('',#1712,#273);
#136=LINE('',#1714,#274);
#137=LINE('',#1717,#275);
#138=LINE('',#1719,#276);
#139=LINE('',#1720,#277);
#140=LINE('',#1723,#278);
#141=LINE('',#1724,#279);
#142=LINE('',#1727,#280);
#143=LINE('',#1728,#281);
#144=LINE('',#1730,#282);
#145=LINE('',#1733,#283);
#146=LINE('',#1735,#284);
#147=LINE('',#1736,#285);
#148=LINE('',#1739,#286);
#149=LINE('',#1740,#287);
#150=LINE('',#1743,#288);
#151=LINE('',#1744,#289);
#152=LINE('',#1746,#290);
#153=LINE('',#1750,#291);
#154=LINE('',#1751,#292);
#155=LINE('',#1752,#293);
#156=LINE('',#1755,#294);
#157=LINE('',#1756,#295);
#158=LINE('',#1759,#296);
#159=LINE('',#1760,#297);
#160=LINE('',#1762,#298);
#161=LINE('',#1766,#299);
#162=LINE('',#1767,#300);
#163=LINE('',#1768,#301);
#164=LINE('',#1771,#302);
#165=LINE('',#1772,#303);
#166=LINE('',#1775,#304);
#167=LINE('',#1776,#305);
#168=LINE('',#1778,#306);
#169=LINE('',#1782,#307);
#170=LINE('',#1783,#308);
#171=LINE('',#1784,#309);
#172=LINE('',#1787,#310);
#173=LINE('',#1788,#311);
#174=LINE('',#1791,#312);
#175=LINE('',#1792,#313);
#176=LINE('',#1794,#314);
#177=LINE('',#1798,#315);
#178=LINE('',#1799,#316);
#179=LINE('',#1800,#317);
#180=LINE('',#1803,#318);
#181=LINE('',#1804,#319);
#182=LINE('',#1807,#320);
#183=LINE('',#1808,#321);
#184=LINE('',#1810,#322);
#185=LINE('',#1813,#323);
#186=VECTOR('',#1216,3.00000004470348);
#187=VECTOR('',#1223,10.);
#188=VECTOR('',#1226,10.);
#189=VECTOR('',#1227,10.);
#190=VECTOR('',#1228,10.);
#191=VECTOR('',#1229,10.);
#192=VECTOR('',#1230,10.);
#193=VECTOR('',#1231,10.);
#194=VECTOR('',#1232,10.);
#195=VECTOR('',#1233,10.);
#196=VECTOR('',#1234,10.);
#197=VECTOR('',#1235,10.);
#198=VECTOR('',#1236,10.);
#199=VECTOR('',#1237,10.);
#200=VECTOR('',#1238,10.);
#201=VECTOR('',#1239,10.);
#202=VECTOR('',#1240,10.);
#203=VECTOR('',#1241,10.);
#204=VECTOR('',#1242,10.);
#205=VECTOR('',#1243,10.);
#206=VECTOR('',#1244,10.);
#207=VECTOR('',#1245,10.);
#208=VECTOR('',#1246,10.);
#209=VECTOR('',#1247,10.);
#210=VECTOR('',#1248,10.);
#211=VECTOR('',#1249,10.);
#212=VECTOR('',#1250,10.);
#213=VECTOR('',#1251,10.);
#214=VECTOR('',#1252,10.);
#215=VECTOR('',#1253,10.);
#216=VECTOR('',#1258,10.);
#217=VECTOR('',#1259,10.);
#218=VECTOR('',#1260,10.);
#219=VECTOR('',#1261,10.);
#220=VECTOR('',#1262,10.);
#221=VECTOR('',#1263,10.);
#222=VECTOR('',#1264,10.);
#223=VECTOR('',#1265,10.);
#224=VECTOR('',#1266,10.);
#225=VECTOR('',#1267,10.);
#226=VECTOR('',#1268,10.);
#227=VECTOR('',#1269,10.);
#228=VECTOR('',#1270,10.);
#229=VECTOR('',#1271,10.);
#230=VECTOR('',#1272,10.);
#231=VECTOR('',#1277,10.);
#232=VECTOR('',#1278,10.);
#233=VECTOR('',#1279,10.);
#234=VECTOR('',#1282,10.);
#235=VECTOR('',#1283,10.);
#236=VECTOR('',#1286,10.);
#237=VECTOR('',#1289,10.);
#238=VECTOR('',#1290,10.);
#239=VECTOR('',#1291,10.);
#240=VECTOR('',#1294,10.);
#241=VECTOR('',#1295,10.);
#242=VECTOR('',#1298,10.);
#243=VECTOR('',#1301,10.);
#244=VECTOR('',#1302,10.);
#245=VECTOR('',#1303,10.);
#246=VECTOR('',#1306,10.);
#247=VECTOR('',#1307,10.);
#248=VECTOR('',#1310,10.);
#249=VECTOR('',#1313,10.);
#250=VECTOR('',#1314,10.);
#251=VECTOR('',#1315,10.);
#252=VECTOR('',#1318,10.);
#253=VECTOR('',#1319,10.);
#254=VECTOR('',#1322,10.);
#255=VECTOR('',#1325,10.);
#256=VECTOR('',#1326,10.);
#257=VECTOR('',#1327,10.);
#258=VECTOR('',#1332,10.);
#259=VECTOR('',#1337,3.81);
#260=VECTOR('',#1342,6.35);
#261=VECTOR('',#1345,10.);
#262=VECTOR('',#1346,10.);
#263=VECTOR('',#1347,10.);
#264=VECTOR('',#1350,10.);
#265=VECTOR('',#1351,10.);
#266=VECTOR('',#1354,10.);
#267=VECTOR('',#1357,10.);
#268=VECTOR('',#1358,10.);
#269=VECTOR('',#1359,10.);
#270=VECTOR('',#1362,10.);
#271=VECTOR('',#1363,10.);
#272=VECTOR('',#1366,10.);
#273=VECTOR('',#1367,10.);
#274=VECTOR('',#1370,10.);
#275=VECTOR('',#1373,10.);
#276=VECTOR('',#1374,10.);
#277=VECTOR('',#1375,10.);
#278=VECTOR('',#1378,10.);
#279=VECTOR('',#1379,10.);
#280=VECTOR('',#1382,10.);
#281=VECTOR('',#1383,10.);
#282=VECTOR('',#1386,10.);
#283=VECTOR('',#1389,10.);
#284=VECTOR('',#1390,10.);
#285=VECTOR('',#1391,10.);
#286=VECTOR('',#1394,10.);
#287=VECTOR('',#1395,10.);
#288=VECTOR('',#1398,10.);
#289=VECTOR('',#1399,10.);
#290=VECTOR('',#1402,10.);
#291=VECTOR('',#1405,10.);
#292=VECTOR('',#1406,10.);
#293=VECTOR('',#1407,10.);
#294=VECTOR('',#1410,10.);
#295=VECTOR('',#1411,10.);
#296=VECTOR('',#1414,10.);
#297=VECTOR('',#1415,10.);
#298=VECTOR('',#1418,10.);
#299=VECTOR('',#1421,10.);
#300=VECTOR('',#1422,10.);
#301=VECTOR('',#1423,10.);
#302=VECTOR('',#1426,10.);
#303=VECTOR('',#1427,10.);
#304=VECTOR('',#1430,10.);
#305=VECTOR('',#1431,10.);
#306=VECTOR('',#1434,10.);
#307=VECTOR('',#1437,10.);
#308=VECTOR('',#1438,10.);
#309=VECTOR('',#1439,10.);
#310=VECTOR('',#1442,10.);
#311=VECTOR('',#1443,10.);
#312=VECTOR('',#1446,10.);
#313=VECTOR('',#1447,10.);
#314=VECTOR('',#1450,10.);
#315=VECTOR('',#1453,10.);
#316=VECTOR('',#1454,10.);
#317=VECTOR('',#1455,10.);
#318=VECTOR('',#1458,10.);
#319=VECTOR('',#1459,10.);
#320=VECTOR('',#1462,10.);
#321=VECTOR('',#1463,10.);
#322=VECTOR('',#1466,10.);
#323=VECTOR('',#1471,3.00000004470348);
#324=CYLINDRICAL_SURFACE('',#1145,3.00000004470348);
#325=CYLINDRICAL_SURFACE('',#1167,7.60000709864557);
#326=CYLINDRICAL_SURFACE('',#1169,3.81);
#327=CYLINDRICAL_SURFACE('',#1171,6.35);
#328=CYLINDRICAL_SURFACE('',#1205,3.00000004470348);
#329=FACE_OUTER_BOUND('',#383,.T.);
#330=FACE_OUTER_BOUND('',#384,.T.);
#331=FACE_OUTER_BOUND('',#385,.T.);
#332=FACE_OUTER_BOUND('',#386,.T.);
#333=FACE_OUTER_BOUND('',#402,.T.);
#334=FACE_OUTER_BOUND('',#403,.T.);
#335=FACE_OUTER_BOUND('',#404,.T.);
#336=FACE_OUTER_BOUND('',#405,.T.);
#337=FACE_OUTER_BOUND('',#406,.T.);
#338=FACE_OUTER_BOUND('',#407,.T.);
#339=FACE_OUTER_BOUND('',#408,.T.);
#340=FACE_OUTER_BOUND('',#409,.T.);
#341=FACE_OUTER_BOUND('',#410,.T.);
#342=FACE_OUTER_BOUND('',#411,.T.);
#343=FACE_OUTER_BOUND('',#412,.T.);
#344=FACE_OUTER_BOUND('',#413,.T.);
#345=FACE_OUTER_BOUND('',#414,.T.);
#346=FACE_OUTER_BOUND('',#415,.T.);
#347=FACE_OUTER_BOUND('',#416,.T.);
#348=FACE_OUTER_BOUND('',#417,.T.);
#349=FACE_OUTER_BOUND('',#418,.T.);
#350=FACE_OUTER_BOUND('',#419,.T.);
#351=FACE_OUTER_BOUND('',#420,.T.);
#352=FACE_OUTER_BOUND('',#421,.T.);
#353=FACE_OUTER_BOUND('',#422,.T.);
#354=FACE_OUTER_BOUND('',#423,.T.);
#355=FACE_OUTER_BOUND('',#424,.T.);
#356=FACE_OUTER_BOUND('',#425,.T.);
#357=FACE_OUTER_BOUND('',#426,.T.);
#358=FACE_OUTER_BOUND('',#427,.T.);
#359=FACE_OUTER_BOUND('',#428,.T.);
#360=FACE_OUTER_BOUND('',#429,.T.);
#361=FACE_OUTER_BOUND('',#430,.T.);
#362=FACE_OUTER_BOUND('',#431,.T.);
#363=FACE_OUTER_BOUND('',#432,.T.);
#364=FACE_OUTER_BOUND('',#433,.T.);
#365=FACE_OUTER_BOUND('',#434,.T.);
#366=FACE_OUTER_BOUND('',#435,.T.);
#367=FACE_OUTER_BOUND('',#436,.T.);
#368=FACE_OUTER_BOUND('',#437,.T.);
#369=FACE_OUTER_BOUND('',#438,.T.);
#370=FACE_OUTER_BOUND('',#439,.T.);
#371=FACE_OUTER_BOUND('',#440,.T.);
#372=FACE_OUTER_BOUND('',#441,.T.);
#373=FACE_OUTER_BOUND('',#442,.T.);
#374=FACE_OUTER_BOUND('',#443,.T.);
#375=FACE_OUTER_BOUND('',#444,.T.);
#376=FACE_OUTER_BOUND('',#445,.T.);
#377=FACE_OUTER_BOUND('',#446,.T.);
#378=FACE_OUTER_BOUND('',#447,.T.);
#379=FACE_OUTER_BOUND('',#448,.T.);
#380=FACE_OUTER_BOUND('',#449,.T.);
#381=FACE_OUTER_BOUND('',#450,.T.);
#382=FACE_OUTER_BOUND('',#466,.T.);
#383=EDGE_LOOP('',(#727));
#384=EDGE_LOOP('',(#728,#729,#730,#731));
#385=EDGE_LOOP('',(#732));
#386=EDGE_LOOP('',(#733,#734,#735));
#387=EDGE_LOOP('',(#736,#737,#738,#739));
#388=EDGE_LOOP('',(#740,#741,#742,#743));
#389=EDGE_LOOP('',(#744,#745,#746,#747));
#390=EDGE_LOOP('',(#748,#749,#750,#751));
#391=EDGE_LOOP('',(#752,#753,#754));
#392=EDGE_LOOP('',(#755,#756,#757));
#393=EDGE_LOOP('',(#758,#759,#760));
#394=EDGE_LOOP('',(#761,#762,#763));
#395=EDGE_LOOP('',(#764));
#396=EDGE_LOOP('',(#765));
#397=EDGE_LOOP('',(#766,#767,#768));
#398=EDGE_LOOP('',(#769,#770,#771,#772));
#399=EDGE_LOOP('',(#773,#774,#775,#776));
#400=EDGE_LOOP('',(#777,#778,#779,#780));
#401=EDGE_LOOP('',(#781));
#402=EDGE_LOOP('',(#782,#783,#784,#785));
#403=EDGE_LOOP('',(#786,#787,#788,#789));
#404=EDGE_LOOP('',(#790,#791,#792,#793));
#405=EDGE_LOOP('',(#794,#795,#796,#797));
#406=EDGE_LOOP('',(#798,#799,#800,#801));
#407=EDGE_LOOP('',(#802,#803,#804,#805));
#408=EDGE_LOOP('',(#806,#807,#808,#809));
#409=EDGE_LOOP('',(#810,#811,#812,#813));
#410=EDGE_LOOP('',(#814,#815,#816,#817));
#411=EDGE_LOOP('',(#818,#819,#820,#821));
#412=EDGE_LOOP('',(#822,#823,#824,#825));
#413=EDGE_LOOP('',(#826,#827,#828,#829));
#414=EDGE_LOOP('',(#830,#831,#832,#833));
#415=EDGE_LOOP('',(#834,#835,#836,#837));
#416=EDGE_LOOP('',(#838,#839,#840,#841));
#417=EDGE_LOOP('',(#842,#843,#844,#845));
#418=EDGE_LOOP('',(#846,#847,#848,#849));
#419=EDGE_LOOP('',(#850,#851,#852,#853));
#420=EDGE_LOOP('',(#854,#855,#856,#857));
#421=EDGE_LOOP('',(#858,#859,#860,#861));
#422=EDGE_LOOP('',(#862,#863,#864,#865));
#423=EDGE_LOOP('',(#866,#867,#868,#869));
#424=EDGE_LOOP('',(#870,#871,#872,#873));
#425=EDGE_LOOP('',(#874,#875,#876,#877));
#426=EDGE_LOOP('',(#878,#879,#880,#881));
#427=EDGE_LOOP('',(#882,#883,#884,#885));
#428=EDGE_LOOP('',(#886,#887,#888,#889));
#429=EDGE_LOOP('',(#890,#891,#892,#893));
#430=EDGE_LOOP('',(#894,#895,#896,#897));
#431=EDGE_LOOP('',(#898,#899,#900,#901));
#432=EDGE_LOOP('',(#902,#903,#904,#905));
#433=EDGE_LOOP('',(#906,#907,#908,#909));
#434=EDGE_LOOP('',(#910,#911,#912,#913));
#435=EDGE_LOOP('',(#914,#915,#916,#917));
#436=EDGE_LOOP('',(#918,#919,#920,#921));
#437=EDGE_LOOP('',(#922,#923,#924,#925));
#438=EDGE_LOOP('',(#926,#927,#928,#929));
#439=EDGE_LOOP('',(#930,#931,#932,#933));
#440=EDGE_LOOP('',(#934,#935,#936,#937));
#441=EDGE_LOOP('',(#938,#939,#940,#941));
#442=EDGE_LOOP('',(#942,#943,#944,#945));
#443=EDGE_LOOP('',(#946,#947,#948,#949));
#444=EDGE_LOOP('',(#950,#951,#952,#953));
#445=EDGE_LOOP('',(#954,#955,#956,#957));
#446=EDGE_LOOP('',(#958,#959,#960,#961));
#447=EDGE_LOOP('',(#962,#963,#964,#965));
#448=EDGE_LOOP('',(#966,#967,#968,#969));
#449=EDGE_LOOP('',(#970,#971,#972,#973));
#450=EDGE_LOOP('',(#974,#975,#976));
#451=EDGE_LOOP('',(#977,#978,#979,#980));
#452=EDGE_LOOP('',(#981,#982,#983,#984));
#453=EDGE_LOOP('',(#985,#986,#987,#988));
#454=EDGE_LOOP('',(#989,#990,#991,#992));
#455=EDGE_LOOP('',(#993,#994,#995,#996));
#456=EDGE_LOOP('',(#997,#998,#999,#1000));
#457=EDGE_LOOP('',(#1001,#1002,#1003,#1004));
#458=EDGE_LOOP('',(#1005,#1006,#1007));
#459=EDGE_LOOP('',(#1008));
#460=EDGE_LOOP('',(#1009));
#461=EDGE_LOOP('',(#1010,#1011,#1012));
#462=EDGE_LOOP('',(#1013,#1014,#1015));
#463=EDGE_LOOP('',(#1016,#1017,#1018));
#464=EDGE_LOOP('',(#1019,#1020,#1021));
#465=EDGE_LOOP('',(#1022));
#466=EDGE_LOOP('',(#1023,#1024,#1025,#1026));
#467=CIRCLE('',#1144,3.00000004470348);
#468=CIRCLE('',#1146,3.00000004470348);
#469=CIRCLE('',#1147,3.00000004470348);
#470=CIRCLE('',#1150,7.60000709864557);
#471=CIRCLE('',#1151,3.81);
#472=CIRCLE('',#1152,6.35);
#473=CIRCLE('',#1153,3.00000004470348);
#474=CIRCLE('',#1168,7.60000709864557);
#475=CIRCLE('',#1170,3.81);
#476=CIRCLE('',#1172,6.35);
#477=VERTEX_POINT('',#1474);
#478=VERTEX_POINT('',#1477);
#479=VERTEX_POINT('',#1479);
#480=VERTEX_POINT('',#1484);
#481=VERTEX_POINT('',#1485);
#482=VERTEX_POINT('',#1496);
#483=VERTEX_POINT('',#1499);
#484=VERTEX_POINT('',#1500);
#485=VERTEX_POINT('',#1502);
#486=VERTEX_POINT('',#1504);
#487=VERTEX_POINT('',#1507);
#488=VERTEX_POINT('',#1508);
#489=VERTEX_POINT('',#1510);
#490=VERTEX_POINT('',#1512);
#491=VERTEX_POINT('',#1515);
#492=VERTEX_POINT('',#1516);
#493=VERTEX_POINT('',#1518);
#494=VERTEX_POINT('',#1520);
#495=VERTEX_POINT('',#1523);
#496=VERTEX_POINT('',#1524);
#497=VERTEX_POINT('',#1526);
#498=VERTEX_POINT('',#1528);
#499=VERTEX_POINT('',#1531);
#500=VERTEX_POINT('',#1532);
#501=VERTEX_POINT('',#1534);
#502=VERTEX_POINT('',#1537);
#503=VERTEX_POINT('',#1538);
#504=VERTEX_POINT('',#1540);
#505=VERTEX_POINT('',#1543);
#506=VERTEX_POINT('',#1544);
#507=VERTEX_POINT('',#1546);
#508=VERTEX_POINT('',#1549);
#509=VERTEX_POINT('',#1550);
#510=VERTEX_POINT('',#1552);
#511=VERTEX_POINT('',#1555);
#512=VERTEX_POINT('',#1557);
#513=VERTEX_POINT('',#1559);
#514=VERTEX_POINT('',#1560);
#515=VERTEX_POINT('',#1562);
#516=VERTEX_POINT('',#1565);
#517=VERTEX_POINT('',#1566);
#518=VERTEX_POINT('',#1568);
#519=VERTEX_POINT('',#1570);
#520=VERTEX_POINT('',#1573);
#521=VERTEX_POINT('',#1574);
#522=VERTEX_POINT('',#1576);
#523=VERTEX_POINT('',#1578);
#524=VERTEX_POINT('',#1581);
#525=VERTEX_POINT('',#1582);
#526=VERTEX_POINT('',#1584);
#527=VERTEX_POINT('',#1586);
#528=VERTEX_POINT('',#1589);
#529=VERTEX_POINT('',#1592);
#530=VERTEX_POINT('',#1594);
#531=VERTEX_POINT('',#1598);
#532=VERTEX_POINT('',#1604);
#533=VERTEX_POINT('',#1606);
#534=VERTEX_POINT('',#1610);
#535=VERTEX_POINT('',#1616);
#536=VERTEX_POINT('',#1618);
#537=VERTEX_POINT('',#1622);
#538=VERTEX_POINT('',#1628);
#539=VERTEX_POINT('',#1630);
#540=VERTEX_POINT('',#1634);
#541=VERTEX_POINT('',#1640);
#542=VERTEX_POINT('',#1642);
#543=VERTEX_POINT('',#1646);
#544=VERTEX_POINT('',#1680);
#545=VERTEX_POINT('',#1684);
#546=VERTEX_POINT('',#1688);
#547=VERTEX_POINT('',#1690);
#548=VERTEX_POINT('',#1694);
#549=VERTEX_POINT('',#1700);
#550=VERTEX_POINT('',#1702);
#551=VERTEX_POINT('',#1706);
#552=VERTEX_POINT('',#1710);
#553=VERTEX_POINT('',#1716);
#554=VERTEX_POINT('',#1718);
#555=VERTEX_POINT('',#1722);
#556=VERTEX_POINT('',#1726);
#557=VERTEX_POINT('',#1732);
#558=VERTEX_POINT('',#1734);
#559=VERTEX_POINT('',#1738);
#560=VERTEX_POINT('',#1742);
#561=VERTEX_POINT('',#1748);
#562=VERTEX_POINT('',#1749);
#563=VERTEX_POINT('',#1754);
#564=VERTEX_POINT('',#1758);
#565=VERTEX_POINT('',#1764);
#566=VERTEX_POINT('',#1765);
#567=VERTEX_POINT('',#1770);
#568=VERTEX_POINT('',#1774);
#569=VERTEX_POINT('',#1780);
#570=VERTEX_POINT('',#1781);
#571=VERTEX_POINT('',#1786);
#572=VERTEX_POINT('',#1790);
#573=VERTEX_POINT('',#1796);
#574=VERTEX_POINT('',#1797);
#575=VERTEX_POINT('',#1802);
#576=VERTEX_POINT('',#1806);
#577=EDGE_CURVE('',#477,#477,#467,.T.);
#578=EDGE_CURVE('',#478,#478,#468,.T.);
#579=EDGE_CURVE('',#478,#479,#48,.T.);
#580=EDGE_CURVE('',#479,#479,#469,.T.);
#581=EDGE_CURVE('',#480,#481,#46,.T.);
#582=EDGE_CURVE('',#481,#482,#49,.T.);
#583=EDGE_CURVE('',#480,#482,#470,.T.);
#584=EDGE_CURVE('',#483,#484,#50,.T.);
#585=EDGE_CURVE('',#484,#485,#51,.T.);
#586=EDGE_CURVE('',#485,#486,#52,.T.);
#587=EDGE_CURVE('',#486,#483,#53,.T.);
#588=EDGE_CURVE('',#487,#488,#54,.T.);
#589=EDGE_CURVE('',#488,#489,#55,.T.);
#590=EDGE_CURVE('',#489,#490,#56,.T.);
#591=EDGE_CURVE('',#490,#487,#57,.T.);
#592=EDGE_CURVE('',#491,#492,#58,.T.);
#593=EDGE_CURVE('',#492,#493,#59,.T.);
#594=EDGE_CURVE('',#493,#494,#60,.T.);
#595=EDGE_CURVE('',#494,#491,#61,.T.);
#596=EDGE_CURVE('',#495,#496,#62,.T.);
#597=EDGE_CURVE('',#496,#497,#63,.T.);
#598=EDGE_CURVE('',#497,#498,#64,.T.);
#599=EDGE_CURVE('',#498,#495,#65,.T.);
#600=EDGE_CURVE('',#499,#500,#66,.T.);
#601=EDGE_CURVE('',#500,#501,#67,.T.);
#602=EDGE_CURVE('',#501,#499,#68,.T.);
#603=EDGE_CURVE('',#502,#503,#69,.T.);
#604=EDGE_CURVE('',#503,#504,#70,.T.);
#605=EDGE_CURVE('',#504,#502,#71,.T.);
#606=EDGE_CURVE('',#505,#506,#72,.T.);
#607=EDGE_CURVE('',#506,#507,#73,.T.);
#608=EDGE_CURVE('',#507,#505,#74,.T.);
#609=EDGE_CURVE('',#508,#509,#75,.T.);
#610=EDGE_CURVE('',#509,#510,#76,.T.);
#611=EDGE_CURVE('',#510,#508,#77,.T.);
#612=EDGE_CURVE('',#511,#511,#471,.T.);
#613=EDGE_CURVE('',#512,#512,#472,.T.);
#614=EDGE_CURVE('',#513,#514,#78,.T.);
#615=EDGE_CURVE('',#514,#515,#79,.T.);
#616=EDGE_CURVE('',#515,#513,#80,.T.);
#617=EDGE_CURVE('',#516,#517,#81,.T.);
#618=EDGE_CURVE('',#517,#518,#82,.T.);
#619=EDGE_CURVE('',#518,#519,#83,.T.);
#620=EDGE_CURVE('',#519,#516,#84,.T.);
#621=EDGE_CURVE('',#520,#521,#85,.T.);
#622=EDGE_CURVE('',#521,#522,#86,.T.);
#623=EDGE_CURVE('',#522,#523,#87,.T.);
#624=EDGE_CURVE('',#523,#520,#88,.T.);
#625=EDGE_CURVE('',#524,#525,#89,.T.);
#626=EDGE_CURVE('',#525,#526,#90,.T.);
#627=EDGE_CURVE('',#526,#527,#91,.T.);
#628=EDGE_CURVE('',#527,#524,#92,.T.);
#629=EDGE_CURVE('',#528,#528,#473,.T.);
#630=EDGE_CURVE('',#529,#500,#93,.T.);
#631=EDGE_CURVE('',#530,#529,#94,.T.);
#632=EDGE_CURVE('',#530,#501,#95,.T.);
#633=EDGE_CURVE('',#531,#530,#96,.T.);
#634=EDGE_CURVE('',#531,#499,#97,.T.);
#635=EDGE_CURVE('',#529,#531,#98,.T.);
#636=EDGE_CURVE('',#532,#503,#99,.T.);
#637=EDGE_CURVE('',#533,#532,#100,.T.);
#638=EDGE_CURVE('',#533,#504,#101,.T.);
#639=EDGE_CURVE('',#534,#533,#102,.T.);
#640=EDGE_CURVE('',#534,#502,#103,.T.);
#641=EDGE_CURVE('',#532,#534,#104,.T.);
#642=EDGE_CURVE('',#535,#506,#105,.T.);
#643=EDGE_CURVE('',#536,#535,#106,.T.);
#644=EDGE_CURVE('',#536,#507,#107,.T.);
#645=EDGE_CURVE('',#537,#536,#108,.T.);
#646=EDGE_CURVE('',#537,#505,#109,.T.);
#647=EDGE_CURVE('',#535,#537,#110,.T.);
#648=EDGE_CURVE('',#538,#509,#111,.T.);
#649=EDGE_CURVE('',#539,#538,#112,.T.);
#650=EDGE_CURVE('',#539,#510,#113,.T.);
#651=EDGE_CURVE('',#540,#539,#114,.T.);
#652=EDGE_CURVE('',#540,#508,#115,.T.);
#653=EDGE_CURVE('',#538,#540,#116,.T.);
#654=EDGE_CURVE('',#481,#541,#117,.T.);
#655=EDGE_CURVE('',#542,#541,#118,.T.);
#656=EDGE_CURVE('',#482,#542,#119,.T.);
#657=EDGE_CURVE('',#543,#542,#474,.T.);
#658=EDGE_CURVE('',#480,#543,#120,.T.);
#659=EDGE_CURVE('',#541,#543,#47,.T.);
#660=EDGE_CURVE('',#544,#544,#475,.T.);
#661=EDGE_CURVE('',#544,#511,#121,.T.);
#662=EDGE_CURVE('',#545,#545,#476,.T.);
#663=EDGE_CURVE('',#545,#512,#122,.T.);
#664=EDGE_CURVE('',#546,#514,#123,.T.);
#665=EDGE_CURVE('',#547,#546,#124,.T.);
#666=EDGE_CURVE('',#547,#515,#125,.T.);
#667=EDGE_CURVE('',#548,#547,#126,.T.);
#668=EDGE_CURVE('',#548,#513,#127,.T.);
#669=EDGE_CURVE('',#546,#548,#128,.T.);
#670=EDGE_CURVE('',#549,#517,#129,.T.);
#671=EDGE_CURVE('',#550,#549,#130,.T.);
#672=EDGE_CURVE('',#550,#518,#131,.T.);
#673=EDGE_CURVE('',#551,#550,#132,.T.);
#674=EDGE_CURVE('',#551,#519,#133,.T.);
#675=EDGE_CURVE('',#552,#551,#134,.T.);
#676=EDGE_CURVE('',#552,#516,#135,.T.);
#677=EDGE_CURVE('',#549,#552,#136,.T.);
#678=EDGE_CURVE('',#553,#521,#137,.T.);
#679=EDGE_CURVE('',#554,#553,#138,.T.);
#680=EDGE_CURVE('',#554,#522,#139,.T.);
#681=EDGE_CURVE('',#555,#554,#140,.T.);
#682=EDGE_CURVE('',#555,#523,#141,.T.);
#683=EDGE_CURVE('',#556,#555,#142,.T.);
#684=EDGE_CURVE('',#556,#520,#143,.T.);
#685=EDGE_CURVE('',#553,#556,#144,.T.);
#686=EDGE_CURVE('',#557,#525,#145,.T.);
#687=EDGE_CURVE('',#558,#557,#146,.T.);
#688=EDGE_CURVE('',#558,#526,#147,.T.);
#689=EDGE_CURVE('',#559,#558,#148,.T.);
#690=EDGE_CURVE('',#559,#527,#149,.T.);
#691=EDGE_CURVE('',#560,#559,#150,.T.);
#692=EDGE_CURVE('',#560,#524,#151,.T.);
#693=EDGE_CURVE('',#557,#560,#152,.T.);
#694=EDGE_CURVE('',#561,#562,#153,.T.);
#695=EDGE_CURVE('',#497,#561,#154,.T.);
#696=EDGE_CURVE('',#496,#562,#155,.T.);
#697=EDGE_CURVE('',#563,#561,#156,.T.);
#698=EDGE_CURVE('',#498,#563,#157,.T.);
#699=EDGE_CURVE('',#564,#563,#158,.T.);
#700=EDGE_CURVE('',#495,#564,#159,.T.);
#701=EDGE_CURVE('',#562,#564,#160,.T.);
#702=EDGE_CURVE('',#565,#566,#161,.T.);
#703=EDGE_CURVE('',#493,#565,#162,.T.);
#704=EDGE_CURVE('',#492,#566,#163,.T.);
#705=EDGE_CURVE('',#567,#565,#164,.T.);
#706=EDGE_CURVE('',#494,#567,#165,.T.);
#707=EDGE_CURVE('',#568,#567,#166,.T.);
#708=EDGE_CURVE('',#491,#568,#167,.T.);
#709=EDGE_CURVE('',#566,#568,#168,.T.);
#710=EDGE_CURVE('',#569,#570,#169,.T.);
#711=EDGE_CURVE('',#489,#569,#170,.T.);
#712=EDGE_CURVE('',#488,#570,#171,.T.);
#713=EDGE_CURVE('',#571,#569,#172,.T.);
#714=EDGE_CURVE('',#490,#571,#173,.T.);
#715=EDGE_CURVE('',#572,#571,#174,.T.);
#716=EDGE_CURVE('',#487,#572,#175,.T.);
#717=EDGE_CURVE('',#570,#572,#176,.T.);
#718=EDGE_CURVE('',#573,#574,#177,.T.);
#719=EDGE_CURVE('',#485,#573,#178,.T.);
#720=EDGE_CURVE('',#484,#574,#179,.T.);
#721=EDGE_CURVE('',#575,#573,#180,.T.);
#722=EDGE_CURVE('',#486,#575,#181,.T.);
#723=EDGE_CURVE('',#576,#575,#182,.T.);
#724=EDGE_CURVE('',#483,#576,#183,.T.);
#725=EDGE_CURVE('',#574,#576,#184,.T.);
#726=EDGE_CURVE('',#477,#528,#185,.T.);
#727=ORIENTED_EDGE('',*,*,#577,.F.);
#728=ORIENTED_EDGE('',*,*,#578,.F.);
#729=ORIENTED_EDGE('',*,*,#579,.T.);
#730=ORIENTED_EDGE('',*,*,#580,.F.);
#731=ORIENTED_EDGE('',*,*,#579,.F.);
#732=ORIENTED_EDGE('',*,*,#578,.T.);
#733=ORIENTED_EDGE('',*,*,#581,.T.);
#734=ORIENTED_EDGE('',*,*,#582,.T.);
#735=ORIENTED_EDGE('',*,*,#583,.F.);
#736=ORIENTED_EDGE('',*,*,#584,.T.);
#737=ORIENTED_EDGE('',*,*,#585,.T.);
#738=ORIENTED_EDGE('',*,*,#586,.T.);
#739=ORIENTED_EDGE('',*,*,#587,.T.);
#740=ORIENTED_EDGE('',*,*,#588,.T.);
#741=ORIENTED_EDGE('',*,*,#589,.T.);
#742=ORIENTED_EDGE('',*,*,#590,.T.);
#743=ORIENTED_EDGE('',*,*,#591,.T.);
#744=ORIENTED_EDGE('',*,*,#592,.T.);
#745=ORIENTED_EDGE('',*,*,#593,.T.);
#746=ORIENTED_EDGE('',*,*,#594,.T.);
#747=ORIENTED_EDGE('',*,*,#595,.T.);
#748=ORIENTED_EDGE('',*,*,#596,.T.);
#749=ORIENTED_EDGE('',*,*,#597,.T.);
#750=ORIENTED_EDGE('',*,*,#598,.T.);
#751=ORIENTED_EDGE('',*,*,#599,.T.);
#752=ORIENTED_EDGE('',*,*,#600,.T.);
#753=ORIENTED_EDGE('',*,*,#601,.T.);
#754=ORIENTED_EDGE('',*,*,#602,.T.);
#755=ORIENTED_EDGE('',*,*,#603,.T.);
#756=ORIENTED_EDGE('',*,*,#604,.T.);
#757=ORIENTED_EDGE('',*,*,#605,.T.);
#758=ORIENTED_EDGE('',*,*,#606,.T.);
#759=ORIENTED_EDGE('',*,*,#607,.T.);
#760=ORIENTED_EDGE('',*,*,#608,.T.);
#761=ORIENTED_EDGE('',*,*,#609,.T.);
#762=ORIENTED_EDGE('',*,*,#610,.T.);
#763=ORIENTED_EDGE('',*,*,#611,.T.);
#764=ORIENTED_EDGE('',*,*,#612,.T.);
#765=ORIENTED_EDGE('',*,*,#613,.T.);
#766=ORIENTED_EDGE('',*,*,#614,.T.);
#767=ORIENTED_EDGE('',*,*,#615,.T.);
#768=ORIENTED_EDGE('',*,*,#616,.T.);
#769=ORIENTED_EDGE('',*,*,#617,.T.);
#770=ORIENTED_EDGE('',*,*,#618,.T.);
#771=ORIENTED_EDGE('',*,*,#619,.T.);
#772=ORIENTED_EDGE('',*,*,#620,.T.);
#773=ORIENTED_EDGE('',*,*,#621,.T.);
#774=ORIENTED_EDGE('',*,*,#622,.T.);
#775=ORIENTED_EDGE('',*,*,#623,.T.);
#776=ORIENTED_EDGE('',*,*,#624,.T.);
#777=ORIENTED_EDGE('',*,*,#625,.T.);
#778=ORIENTED_EDGE('',*,*,#626,.T.);
#779=ORIENTED_EDGE('',*,*,#627,.T.);
#780=ORIENTED_EDGE('',*,*,#628,.T.);
#781=ORIENTED_EDGE('',*,*,#629,.F.);
#782=ORIENTED_EDGE('',*,*,#601,.F.);
#783=ORIENTED_EDGE('',*,*,#630,.F.);
#784=ORIENTED_EDGE('',*,*,#631,.F.);
#785=ORIENTED_EDGE('',*,*,#632,.T.);
#786=ORIENTED_EDGE('',*,*,#602,.F.);
#787=ORIENTED_EDGE('',*,*,#632,.F.);
#788=ORIENTED_EDGE('',*,*,#633,.F.);
#789=ORIENTED_EDGE('',*,*,#634,.T.);
#790=ORIENTED_EDGE('',*,*,#600,.F.);
#791=ORIENTED_EDGE('',*,*,#634,.F.);
#792=ORIENTED_EDGE('',*,*,#635,.F.);
#793=ORIENTED_EDGE('',*,*,#630,.T.);
#794=ORIENTED_EDGE('',*,*,#604,.F.);
#795=ORIENTED_EDGE('',*,*,#636,.F.);
#796=ORIENTED_EDGE('',*,*,#637,.F.);
#797=ORIENTED_EDGE('',*,*,#638,.T.);
#798=ORIENTED_EDGE('',*,*,#605,.F.);
#799=ORIENTED_EDGE('',*,*,#638,.F.);
#800=ORIENTED_EDGE('',*,*,#639,.F.);
#801=ORIENTED_EDGE('',*,*,#640,.T.);
#802=ORIENTED_EDGE('',*,*,#603,.F.);
#803=ORIENTED_EDGE('',*,*,#640,.F.);
#804=ORIENTED_EDGE('',*,*,#641,.F.);
#805=ORIENTED_EDGE('',*,*,#636,.T.);
#806=ORIENTED_EDGE('',*,*,#607,.F.);
#807=ORIENTED_EDGE('',*,*,#642,.F.);
#808=ORIENTED_EDGE('',*,*,#643,.F.);
#809=ORIENTED_EDGE('',*,*,#644,.T.);
#810=ORIENTED_EDGE('',*,*,#608,.F.);
#811=ORIENTED_EDGE('',*,*,#644,.F.);
#812=ORIENTED_EDGE('',*,*,#645,.F.);
#813=ORIENTED_EDGE('',*,*,#646,.T.);
#814=ORIENTED_EDGE('',*,*,#606,.F.);
#815=ORIENTED_EDGE('',*,*,#646,.F.);
#816=ORIENTED_EDGE('',*,*,#647,.F.);
#817=ORIENTED_EDGE('',*,*,#642,.T.);
#818=ORIENTED_EDGE('',*,*,#610,.F.);
#819=ORIENTED_EDGE('',*,*,#648,.F.);
#820=ORIENTED_EDGE('',*,*,#649,.F.);
#821=ORIENTED_EDGE('',*,*,#650,.T.);
#822=ORIENTED_EDGE('',*,*,#611,.F.);
#823=ORIENTED_EDGE('',*,*,#650,.F.);
#824=ORIENTED_EDGE('',*,*,#651,.F.);
#825=ORIENTED_EDGE('',*,*,#652,.T.);
#826=ORIENTED_EDGE('',*,*,#609,.F.);
#827=ORIENTED_EDGE('',*,*,#652,.F.);
#828=ORIENTED_EDGE('',*,*,#653,.F.);
#829=ORIENTED_EDGE('',*,*,#648,.T.);
#830=ORIENTED_EDGE('',*,*,#582,.F.);
#831=ORIENTED_EDGE('',*,*,#654,.T.);
#832=ORIENTED_EDGE('',*,*,#655,.F.);
#833=ORIENTED_EDGE('',*,*,#656,.F.);
#834=ORIENTED_EDGE('',*,*,#583,.T.);
#835=ORIENTED_EDGE('',*,*,#656,.T.);
#836=ORIENTED_EDGE('',*,*,#657,.F.);
#837=ORIENTED_EDGE('',*,*,#658,.F.);
#838=ORIENTED_EDGE('',*,*,#581,.F.);
#839=ORIENTED_EDGE('',*,*,#658,.T.);
#840=ORIENTED_EDGE('',*,*,#659,.F.);
#841=ORIENTED_EDGE('',*,*,#654,.F.);
#842=ORIENTED_EDGE('',*,*,#660,.F.);
#843=ORIENTED_EDGE('',*,*,#661,.T.);
#844=ORIENTED_EDGE('',*,*,#612,.F.);
#845=ORIENTED_EDGE('',*,*,#661,.F.);
#846=ORIENTED_EDGE('',*,*,#662,.F.);
#847=ORIENTED_EDGE('',*,*,#663,.T.);
#848=ORIENTED_EDGE('',*,*,#613,.F.);
#849=ORIENTED_EDGE('',*,*,#663,.F.);
#850=ORIENTED_EDGE('',*,*,#615,.F.);
#851=ORIENTED_EDGE('',*,*,#664,.F.);
#852=ORIENTED_EDGE('',*,*,#665,.F.);
#853=ORIENTED_EDGE('',*,*,#666,.T.);
#854=ORIENTED_EDGE('',*,*,#616,.F.);
#855=ORIENTED_EDGE('',*,*,#666,.F.);
#856=ORIENTED_EDGE('',*,*,#667,.F.);
#857=ORIENTED_EDGE('',*,*,#668,.T.);
#858=ORIENTED_EDGE('',*,*,#614,.F.);
#859=ORIENTED_EDGE('',*,*,#668,.F.);
#860=ORIENTED_EDGE('',*,*,#669,.F.);
#861=ORIENTED_EDGE('',*,*,#664,.T.);
#862=ORIENTED_EDGE('',*,*,#618,.F.);
#863=ORIENTED_EDGE('',*,*,#670,.F.);
#864=ORIENTED_EDGE('',*,*,#671,.F.);
#865=ORIENTED_EDGE('',*,*,#672,.T.);
#866=ORIENTED_EDGE('',*,*,#619,.F.);
#867=ORIENTED_EDGE('',*,*,#672,.F.);
#868=ORIENTED_EDGE('',*,*,#673,.F.);
#869=ORIENTED_EDGE('',*,*,#674,.T.);
#870=ORIENTED_EDGE('',*,*,#620,.F.);
#871=ORIENTED_EDGE('',*,*,#674,.F.);
#872=ORIENTED_EDGE('',*,*,#675,.F.);
#873=ORIENTED_EDGE('',*,*,#676,.T.);
#874=ORIENTED_EDGE('',*,*,#617,.F.);
#875=ORIENTED_EDGE('',*,*,#676,.F.);
#876=ORIENTED_EDGE('',*,*,#677,.F.);
#877=ORIENTED_EDGE('',*,*,#670,.T.);
#878=ORIENTED_EDGE('',*,*,#622,.F.);
#879=ORIENTED_EDGE('',*,*,#678,.F.);
#880=ORIENTED_EDGE('',*,*,#679,.F.);
#881=ORIENTED_EDGE('',*,*,#680,.T.);
#882=ORIENTED_EDGE('',*,*,#623,.F.);
#883=ORIENTED_EDGE('',*,*,#680,.F.);
#884=ORIENTED_EDGE('',*,*,#681,.F.);
#885=ORIENTED_EDGE('',*,*,#682,.T.);
#886=ORIENTED_EDGE('',*,*,#624,.F.);
#887=ORIENTED_EDGE('',*,*,#682,.F.);
#888=ORIENTED_EDGE('',*,*,#683,.F.);
#889=ORIENTED_EDGE('',*,*,#684,.T.);
#890=ORIENTED_EDGE('',*,*,#621,.F.);
#891=ORIENTED_EDGE('',*,*,#684,.F.);
#892=ORIENTED_EDGE('',*,*,#685,.F.);
#893=ORIENTED_EDGE('',*,*,#678,.T.);
#894=ORIENTED_EDGE('',*,*,#626,.F.);
#895=ORIENTED_EDGE('',*,*,#686,.F.);
#896=ORIENTED_EDGE('',*,*,#687,.F.);
#897=ORIENTED_EDGE('',*,*,#688,.T.);
#898=ORIENTED_EDGE('',*,*,#627,.F.);
#899=ORIENTED_EDGE('',*,*,#688,.F.);
#900=ORIENTED_EDGE('',*,*,#689,.F.);
#901=ORIENTED_EDGE('',*,*,#690,.T.);
#902=ORIENTED_EDGE('',*,*,#628,.F.);
#903=ORIENTED_EDGE('',*,*,#690,.F.);
#904=ORIENTED_EDGE('',*,*,#691,.F.);
#905=ORIENTED_EDGE('',*,*,#692,.T.);
#906=ORIENTED_EDGE('',*,*,#625,.F.);
#907=ORIENTED_EDGE('',*,*,#692,.F.);
#908=ORIENTED_EDGE('',*,*,#693,.F.);
#909=ORIENTED_EDGE('',*,*,#686,.T.);
#910=ORIENTED_EDGE('',*,*,#694,.F.);
#911=ORIENTED_EDGE('',*,*,#695,.F.);
#912=ORIENTED_EDGE('',*,*,#597,.F.);
#913=ORIENTED_EDGE('',*,*,#696,.T.);
#914=ORIENTED_EDGE('',*,*,#697,.F.);
#915=ORIENTED_EDGE('',*,*,#698,.F.);
#916=ORIENTED_EDGE('',*,*,#598,.F.);
#917=ORIENTED_EDGE('',*,*,#695,.T.);
#918=ORIENTED_EDGE('',*,*,#699,.F.);
#919=ORIENTED_EDGE('',*,*,#700,.F.);
#920=ORIENTED_EDGE('',*,*,#599,.F.);
#921=ORIENTED_EDGE('',*,*,#698,.T.);
#922=ORIENTED_EDGE('',*,*,#701,.F.);
#923=ORIENTED_EDGE('',*,*,#696,.F.);
#924=ORIENTED_EDGE('',*,*,#596,.F.);
#925=ORIENTED_EDGE('',*,*,#700,.T.);
#926=ORIENTED_EDGE('',*,*,#702,.F.);
#927=ORIENTED_EDGE('',*,*,#703,.F.);
#928=ORIENTED_EDGE('',*,*,#593,.F.);
#929=ORIENTED_EDGE('',*,*,#704,.T.);
#930=ORIENTED_EDGE('',*,*,#705,.F.);
#931=ORIENTED_EDGE('',*,*,#706,.F.);
#932=ORIENTED_EDGE('',*,*,#594,.F.);
#933=ORIENTED_EDGE('',*,*,#703,.T.);
#934=ORIENTED_EDGE('',*,*,#707,.F.);
#935=ORIENTED_EDGE('',*,*,#708,.F.);
#936=ORIENTED_EDGE('',*,*,#595,.F.);
#937=ORIENTED_EDGE('',*,*,#706,.T.);
#938=ORIENTED_EDGE('',*,*,#709,.F.);
#939=ORIENTED_EDGE('',*,*,#704,.F.);
#940=ORIENTED_EDGE('',*,*,#592,.F.);
#941=ORIENTED_EDGE('',*,*,#708,.T.);
#942=ORIENTED_EDGE('',*,*,#710,.F.);
#943=ORIENTED_EDGE('',*,*,#711,.F.);
#944=ORIENTED_EDGE('',*,*,#589,.F.);
#945=ORIENTED_EDGE('',*,*,#712,.T.);
#946=ORIENTED_EDGE('',*,*,#713,.F.);
#947=ORIENTED_EDGE('',*,*,#714,.F.);
#948=ORIENTED_EDGE('',*,*,#590,.F.);
#949=ORIENTED_EDGE('',*,*,#711,.T.);
#950=ORIENTED_EDGE('',*,*,#715,.F.);
#951=ORIENTED_EDGE('',*,*,#716,.F.);
#952=ORIENTED_EDGE('',*,*,#591,.F.);
#953=ORIENTED_EDGE('',*,*,#714,.T.);
#954=ORIENTED_EDGE('',*,*,#717,.F.);
#955=ORIENTED_EDGE('',*,*,#712,.F.);
#956=ORIENTED_EDGE('',*,*,#588,.F.);
#957=ORIENTED_EDGE('',*,*,#716,.T.);
#958=ORIENTED_EDGE('',*,*,#718,.F.);
#959=ORIENTED_EDGE('',*,*,#719,.F.);
#960=ORIENTED_EDGE('',*,*,#585,.F.);
#961=ORIENTED_EDGE('',*,*,#720,.T.);
#962=ORIENTED_EDGE('',*,*,#721,.F.);
#963=ORIENTED_EDGE('',*,*,#722,.F.);
#964=ORIENTED_EDGE('',*,*,#586,.F.);
#965=ORIENTED_EDGE('',*,*,#719,.T.);
#966=ORIENTED_EDGE('',*,*,#723,.F.);
#967=ORIENTED_EDGE('',*,*,#724,.F.);
#968=ORIENTED_EDGE('',*,*,#587,.F.);
#969=ORIENTED_EDGE('',*,*,#722,.T.);
#970=ORIENTED_EDGE('',*,*,#725,.F.);
#971=ORIENTED_EDGE('',*,*,#720,.F.);
#972=ORIENTED_EDGE('',*,*,#584,.F.);
#973=ORIENTED_EDGE('',*,*,#724,.T.);
#974=ORIENTED_EDGE('',*,*,#659,.T.);
#975=ORIENTED_EDGE('',*,*,#657,.T.);
#976=ORIENTED_EDGE('',*,*,#655,.T.);
#977=ORIENTED_EDGE('',*,*,#725,.T.);
#978=ORIENTED_EDGE('',*,*,#723,.T.);
#979=ORIENTED_EDGE('',*,*,#721,.T.);
#980=ORIENTED_EDGE('',*,*,#718,.T.);
#981=ORIENTED_EDGE('',*,*,#717,.T.);
#982=ORIENTED_EDGE('',*,*,#715,.T.);
#983=ORIENTED_EDGE('',*,*,#713,.T.);
#984=ORIENTED_EDGE('',*,*,#710,.T.);
#985=ORIENTED_EDGE('',*,*,#709,.T.);
#986=ORIENTED_EDGE('',*,*,#707,.T.);
#987=ORIENTED_EDGE('',*,*,#705,.T.);
#988=ORIENTED_EDGE('',*,*,#702,.T.);
#989=ORIENTED_EDGE('',*,*,#701,.T.);
#990=ORIENTED_EDGE('',*,*,#699,.T.);
#991=ORIENTED_EDGE('',*,*,#697,.T.);
#992=ORIENTED_EDGE('',*,*,#694,.T.);
#993=ORIENTED_EDGE('',*,*,#693,.T.);
#994=ORIENTED_EDGE('',*,*,#691,.T.);
#995=ORIENTED_EDGE('',*,*,#689,.T.);
#996=ORIENTED_EDGE('',*,*,#687,.T.);
#997=ORIENTED_EDGE('',*,*,#685,.T.);
#998=ORIENTED_EDGE('',*,*,#683,.T.);
#999=ORIENTED_EDGE('',*,*,#681,.T.);
#1000=ORIENTED_EDGE('',*,*,#679,.T.);
#1001=ORIENTED_EDGE('',*,*,#677,.T.);
#1002=ORIENTED_EDGE('',*,*,#675,.T.);
#1003=ORIENTED_EDGE('',*,*,#673,.T.);
#1004=ORIENTED_EDGE('',*,*,#671,.T.);
#1005=ORIENTED_EDGE('',*,*,#669,.T.);
#1006=ORIENTED_EDGE('',*,*,#667,.T.);
#1007=ORIENTED_EDGE('',*,*,#665,.T.);
#1008=ORIENTED_EDGE('',*,*,#662,.T.);
#1009=ORIENTED_EDGE('',*,*,#660,.T.);
#1010=ORIENTED_EDGE('',*,*,#653,.T.);
#1011=ORIENTED_EDGE('',*,*,#651,.T.);
#1012=ORIENTED_EDGE('',*,*,#649,.T.);
#1013=ORIENTED_EDGE('',*,*,#647,.T.);
#1014=ORIENTED_EDGE('',*,*,#645,.T.);
#1015=ORIENTED_EDGE('',*,*,#643,.T.);
#1016=ORIENTED_EDGE('',*,*,#641,.T.);
#1017=ORIENTED_EDGE('',*,*,#639,.T.);
#1018=ORIENTED_EDGE('',*,*,#637,.T.);
#1019=ORIENTED_EDGE('',*,*,#635,.T.);
#1020=ORIENTED_EDGE('',*,*,#633,.T.);
#1021=ORIENTED_EDGE('',*,*,#631,.T.);
#1022=ORIENTED_EDGE('',*,*,#580,.T.);
#1023=ORIENTED_EDGE('',*,*,#577,.T.);
#1024=ORIENTED_EDGE('',*,*,#726,.T.);
#1025=ORIENTED_EDGE('',*,*,#629,.T.);
#1026=ORIENTED_EDGE('',*,*,#726,.F.);
#1027=PLANE('',#1143);
#1028=PLANE('',#1148);
#1029=PLANE('',#1149);
#1030=PLANE('',#1154);
#1031=PLANE('',#1155);
#1032=PLANE('',#1156);
#1033=PLANE('',#1157);
#1034=PLANE('',#1158);
#1035=PLANE('',#1159);
#1036=PLANE('',#1160);
#1037=PLANE('',#1161);
#1038=PLANE('',#1162);
#1039=PLANE('',#1163);
#1040=PLANE('',#1164);
#1041=PLANE('',#1165);
#1042=PLANE('',#1166);
#1043=PLANE('',#1173);
#1044=PLANE('',#1174);
#1045=PLANE('',#1175);
#1046=PLANE('',#1176);
#1047=PLANE('',#1177);
#1048=PLANE('',#1178);
#1049=PLANE('',#1179);
#1050=PLANE('',#1180);
#1051=PLANE('',#1181);
#1052=PLANE('',#1182);
#1053=PLANE('',#1183);
#1054=PLANE('',#1184);
#1055=PLANE('',#1185);
#1056=PLANE('',#1186);
#1057=PLANE('',#1187);
#1058=PLANE('',#1188);
#1059=PLANE('',#1189);
#1060=PLANE('',#1190);
#1061=PLANE('',#1191);
#1062=PLANE('',#1192);
#1063=PLANE('',#1193);
#1064=PLANE('',#1194);
#1065=PLANE('',#1195);
#1066=PLANE('',#1196);
#1067=PLANE('',#1197);
#1068=PLANE('',#1198);
#1069=PLANE('',#1199);
#1070=PLANE('',#1200);
#1071=PLANE('',#1201);
#1072=PLANE('',#1202);
#1073=PLANE('',#1203);
#1074=PLANE('',#1204);
#1075=ADVANCED_FACE('',(#329),#1027,.F.);
#1076=ADVANCED_FACE('',(#330),#324,.T.);
#1077=ADVANCED_FACE('',(#331),#1028,.T.);
#1078=ADVANCED_FACE('',(#332,#16,#17,#18,#19,#20,#21,#22,#23,#24,#25,#26,
#27,#28,#29,#30),#1029,.F.);
#1079=ADVANCED_FACE('',(#333),#1030,.F.);
#1080=ADVANCED_FACE('',(#334),#1031,.F.);
#1081=ADVANCED_FACE('',(#335),#1032,.F.);
#1082=ADVANCED_FACE('',(#336),#1033,.F.);
#1083=ADVANCED_FACE('',(#337),#1034,.F.);
#1084=ADVANCED_FACE('',(#338),#1035,.F.);
#1085=ADVANCED_FACE('',(#339),#1036,.F.);
#1086=ADVANCED_FACE('',(#340),#1037,.F.);
#1087=ADVANCED_FACE('',(#341),#1038,.F.);
#1088=ADVANCED_FACE('',(#342),#1039,.F.);
#1089=ADVANCED_FACE('',(#343),#1040,.F.);
#1090=ADVANCED_FACE('',(#344),#1041,.F.);
#1091=ADVANCED_FACE('',(#345),#1042,.T.);
#1092=ADVANCED_FACE('',(#346),#325,.T.);
#1093=ADVANCED_FACE('',(#347),#15,.T.);
#1094=ADVANCED_FACE('',(#348),#326,.F.);
#1095=ADVANCED_FACE('',(#349),#327,.F.);
#1096=ADVANCED_FACE('',(#350),#1043,.F.);
#1097=ADVANCED_FACE('',(#351),#1044,.F.);
#1098=ADVANCED_FACE('',(#352),#1045,.F.);
#1099=ADVANCED_FACE('',(#353),#1046,.F.);
#1100=ADVANCED_FACE('',(#354),#1047,.F.);
#1101=ADVANCED_FACE('',(#355),#1048,.F.);
#1102=ADVANCED_FACE('',(#356),#1049,.F.);
#1103=ADVANCED_FACE('',(#357),#1050,.F.);
#1104=ADVANCED_FACE('',(#358),#1051,.F.);
#1105=ADVANCED_FACE('',(#359),#1052,.F.);
#1106=ADVANCED_FACE('',(#360),#1053,.F.);
#1107=ADVANCED_FACE('',(#361),#1054,.F.);
#1108=ADVANCED_FACE('',(#362),#1055,.F.);
#1109=ADVANCED_FACE('',(#363),#1056,.F.);
#1110=ADVANCED_FACE('',(#364),#1057,.F.);
#1111=ADVANCED_FACE('',(#365),#1058,.F.);
#1112=ADVANCED_FACE('',(#366),#1059,.F.);
#1113=ADVANCED_FACE('',(#367),#1060,.F.);
#1114=ADVANCED_FACE('',(#368),#1061,.F.);
#1115=ADVANCED_FACE('',(#369),#1062,.F.);
#1116=ADVANCED_FACE('',(#370),#1063,.F.);
#1117=ADVANCED_FACE('',(#371),#1064,.F.);
#1118=ADVANCED_FACE('',(#372),#1065,.F.);
#1119=ADVANCED_FACE('',(#373),#1066,.F.);
#1120=ADVANCED_FACE('',(#374),#1067,.F.);
#1121=ADVANCED_FACE('',(#375),#1068,.F.);
#1122=ADVANCED_FACE('',(#376),#1069,.F.);
#1123=ADVANCED_FACE('',(#377),#1070,.F.);
#1124=ADVANCED_FACE('',(#378),#1071,.F.);
#1125=ADVANCED_FACE('',(#379),#1072,.F.);
#1126=ADVANCED_FACE('',(#380),#1073,.F.);
#1127=ADVANCED_FACE('',(#381,#31,#32,#33,#34,#35,#36,#37,#38,#39,#40,#41,
#42,#43,#44,#45),#1074,.T.);
#1128=ADVANCED_FACE('',(#382),#328,.F.);
#1129=CLOSED_SHELL('',(#1075,#1076,#1077,#1078,#1079,#1080,#1081,#1082,
#1083,#1084,#1085,#1086,#1087,#1088,#1089,#1090,#1091,#1092,#1093,#1094,
#1095,#1096,#1097,#1098,#1099,#1100,#1101,#1102,#1103,#1104,#1105,#1106,
#1107,#1108,#1109,#1110,#1111,#1112,#1113,#1114,#1115,#1116,#1117,#1118,
#1119,#1120,#1121,#1122,#1123,#1124,#1125,#1126,#1127,#1128));
#1130=DERIVED_UNIT_ELEMENT(#1132,1.);
#1131=DERIVED_UNIT_ELEMENT(#1819,-3.);
#1132=(
MASS_UNIT()
NAMED_UNIT(*)
SI_UNIT(.KILO.,.GRAM.)
);
#1133=DERIVED_UNIT((#1130,#1131));
#1134=MEASURE_REPRESENTATION_ITEM('density measure',
POSITIVE_RATIO_MEASURE(7850.),#1133);
#1135=PROPERTY_DEFINITION_REPRESENTATION(#1140,#1137);
#1136=PROPERTY_DEFINITION_REPRESENTATION(#1141,#1138);
#1137=REPRESENTATION('material name',(#1139),#1816);
#1138=REPRESENTATION('density',(#1134),#1816);
#1139=DESCRIPTIVE_REPRESENTATION_ITEM('Steel','Steel');
#1140=PROPERTY_DEFINITION('material property','material name',#1826);
#1141=PROPERTY_DEFINITION('material property','density of part',#1826);
#1142=AXIS2_PLACEMENT_3D('',#1472,#1206,#1207);
#1143=AXIS2_PLACEMENT_3D('',#1473,#1208,#1209);
#1144=AXIS2_PLACEMENT_3D('',#1475,#1210,#1211);
#1145=AXIS2_PLACEMENT_3D('',#1476,#1212,#1213);
#1146=AXIS2_PLACEMENT_3D('',#1478,#1214,#1215);
#1147=AXIS2_PLACEMENT_3D('',#1481,#1217,#1218);
#1148=AXIS2_PLACEMENT_3D('',#1482,#1219,#1220);
#1149=AXIS2_PLACEMENT_3D('',#1483,#1221,#1222);
#1150=AXIS2_PLACEMENT_3D('',#1498,#1224,#1225);
#1151=AXIS2_PLACEMENT_3D('',#1556,#1254,#1255);
#1152=AXIS2_PLACEMENT_3D('',#1558,#1256,#1257);
#1153=AXIS2_PLACEMENT_3D('',#1590,#1273,#1274);
#1154=AXIS2_PLACEMENT_3D('',#1591,#1275,#1276);
#1155=AXIS2_PLACEMENT_3D('',#1597,#1280,#1281);
#1156=AXIS2_PLACEMENT_3D('',#1601,#1284,#1285);
#1157=AXIS2_PLACEMENT_3D('',#1603,#1287,#1288);
#1158=AXIS2_PLACEMENT_3D('',#1609,#1292,#1293);
#1159=AXIS2_PLACEMENT_3D('',#1613,#1296,#1297);
#1160=AXIS2_PLACEMENT_3D('',#1615,#1299,#1300);
#1161=AXIS2_PLACEMENT_3D('',#1621,#1304,#1305);
#1162=AXIS2_PLACEMENT_3D('',#1625,#1308,#1309);
#1163=AXIS2_PLACEMENT_3D('',#1627,#1311,#1312);
#1164=AXIS2_PLACEMENT_3D('',#1633,#1316,#1317);
#1165=AXIS2_PLACEMENT_3D('',#1637,#1320,#1321);
#1166=AXIS2_PLACEMENT_3D('',#1639,#1323,#1324);
#1167=AXIS2_PLACEMENT_3D('',#1645,#1328,#1329);
#1168=AXIS2_PLACEMENT_3D('',#1647,#1330,#1331);
#1169=AXIS2_PLACEMENT_3D('',#1679,#1333,#1334);
#1170=AXIS2_PLACEMENT_3D('',#1681,#1335,#1336);
#1171=AXIS2_PLACEMENT_3D('',#1683,#1338,#1339);
#1172=AXIS2_PLACEMENT_3D('',#1685,#1340,#1341);
#1173=AXIS2_PLACEMENT_3D('',#1687,#1343,#1344);
#1174=AXIS2_PLACEMENT_3D('',#1693,#1348,#1349);
#1175=AXIS2_PLACEMENT_3D('',#1697,#1352,#1353);
#1176=AXIS2_PLACEMENT_3D('',#1699,#1355,#1356);
#1177=AXIS2_PLACEMENT_3D('',#1705,#1360,#1361);
#1178=AXIS2_PLACEMENT_3D('',#1709,#1364,#1365);
#1179=AXIS2_PLACEMENT_3D('',#1713,#1368,#1369);
#1180=AXIS2_PLACEMENT_3D('',#1715,#1371,#1372);
#1181=AXIS2_PLACEMENT_3D('',#1721,#1376,#1377);
#1182=AXIS2_PLACEMENT_3D('',#1725,#1380,#1381);
#1183=AXIS2_PLACEMENT_3D('',#1729,#1384,#1385);
#1184=AXIS2_PLACEMENT_3D('',#1731,#1387,#1388);
#1185=AXIS2_PLACEMENT_3D('',#1737,#1392,#1393);
#1186=AXIS2_PLACEMENT_3D('',#1741,#1396,#1397);
#1187=AXIS2_PLACEMENT_3D('',#1745,#1400,#1401);
#1188=AXIS2_PLACEMENT_3D('',#1747,#1403,#1404);
#1189=AXIS2_PLACEMENT_3D('',#1753,#1408,#1409);
#1190=AXIS2_PLACEMENT_3D('',#1757,#1412,#1413);
#1191=AXIS2_PLACEMENT_3D('',#1761,#1416,#1417);
#1192=AXIS2_PLACEMENT_3D('',#1763,#1419,#1420);
#1193=AXIS2_PLACEMENT_3D('',#1769,#1424,#1425);
#1194=AXIS2_PLACEMENT_3D('',#1773,#1428,#1429);
#1195=AXIS2_PLACEMENT_3D('',#1777,#1432,#1433);
#1196=AXIS2_PLACEMENT_3D('',#1779,#1435,#1436);
#1197=AXIS2_PLACEMENT_3D('',#1785,#1440,#1441);
#1198=AXIS2_PLACEMENT_3D('',#1789,#1444,#1445);
#1199=AXIS2_PLACEMENT_3D('',#1793,#1448,#1449);
#1200=AXIS2_PLACEMENT_3D('',#1795,#1451,#1452);
#1201=AXIS2_PLACEMENT_3D('',#1801,#1456,#1457);
#1202=AXIS2_PLACEMENT_3D('',#1805,#1460,#1461);
#1203=AXIS2_PLACEMENT_3D('',#1809,#1464,#1465);
#1204=AXIS2_PLACEMENT_3D('',#1811,#1467,#1468);
#1205=AXIS2_PLACEMENT_3D('',#1812,#1469,#1470);
#1206=DIRECTION('axis',(0.,0.,1.));
#1207=DIRECTION('refdir',(1.,0.,0.));
#1208=DIRECTION('center_axis',(0.,1.,0.));
#1209=DIRECTION('ref_axis',(-1.,0.,0.));
#1210=DIRECTION('center_axis',(0.,1.,0.));
#1211=DIRECTION('ref_axis',(-1.,0.,0.));
#1212=DIRECTION('center_axis',(0.,1.,0.));
#1213=DIRECTION('ref_axis',(-1.,0.,0.));
#1214=DIRECTION('center_axis',(0.,1.,0.));
#1215=DIRECTION('ref_axis',(-1.,0.,0.));
#1216=DIRECTION('',(0.,-1.,0.));
#1217=DIRECTION('center_axis',(0.,-1.,0.));
#1218=DIRECTION('ref_axis',(1.,0.,0.));
#1219=DIRECTION('center_axis',(0.,1.,0.));
#1220=DIRECTION('ref_axis',(-1.,0.,0.));
#1221=DIRECTION('center_axis',(0.,1.,0.));
#1222=DIRECTION('ref_axis',(1.,0.,0.));
#1223=DIRECTION('',(1.,0.,0.));
#1224=DIRECTION('center_axis',(0.,1.,0.));
#1225=DIRECTION('ref_axis',(-0.00273353874426739,0.,0.999996263875987));
#1226=DIRECTION('',(0.,0.,1.));
#1227=DIRECTION('',(1.,0.,0.));
#1228=DIRECTION('',(0.,0.,-1.));
#1229=DIRECTION('',(-1.,0.,0.));
#1230=DIRECTION('',(-1.,0.,0.));
#1231=DIRECTION('',(0.,0.,1.));
#1232=DIRECTION('',(1.,0.,0.));
#1233=DIRECTION('',(0.,0.,-1.));
#1234=DIRECTION('',(0.,0.,1.));
#1235=DIRECTION('',(1.,0.,0.));
#1236=DIRECTION('',(0.,0.,-1.));
#1237=DIRECTION('',(-1.,0.,0.));
#1238=DIRECTION('',(0.,0.,1.));
#1239=DIRECTION('',(1.,0.,0.));
#1240=DIRECTION('',(0.,0.,-1.));
#1241=DIRECTION('',(-1.,0.,0.));
#1242=DIRECTION('',(1.,0.,0.));
#1243=DIRECTION('',(-0.74740931868366,0.,-0.66436383882992));
#1244=DIRECTION('',(0.,0.,1.));
#1245=DIRECTION('',(0.907959384500452,0.,0.419058177461747));
#1246=DIRECTION('',(0.,0.,-1.));
#1247=DIRECTION('',(-1.,0.,0.));
#1248=DIRECTION('',(0.74740931868366,0.,0.66436383882992));
#1249=DIRECTION('',(0.,0.,-1.));
#1250=DIRECTION('',(-1.,0.,0.));
#1251=DIRECTION('',(-0.907959384500452,0.,-0.419058177461747));
#1252=DIRECTION('',(0.,0.,1.));
#1253=DIRECTION('',(1.,0.,0.));
#1254=DIRECTION('center_axis',(0.,1.,0.));
#1255=DIRECTION('ref_axis',(-1.,0.,0.));
#1256=DIRECTION('center_axis',(0.,1.,0.));
#1257=DIRECTION('ref_axis',(-1.,0.,0.));
#1258=DIRECTION('',(-1.,0.,-9.10191630206557E-18));
#1259=DIRECTION('',(0.971317143006107,0.,0.237787736652784));
#1260=DIRECTION('',(0.237787736652785,0.,-0.971317143006107));
#1261=DIRECTION('',(-1.,0.,-9.10191630206557E-18));
#1262=DIRECTION('',(-0.237787736652785,0.,0.971317143006107));
#1263=DIRECTION('',(0.971317143006107,0.,0.237787736652784));
#1264=DIRECTION('',(0.237787736652785,0.,-0.971317143006107));
#1265=DIRECTION('',(-1.,0.,-9.10191630206557E-18));
#1266=DIRECTION('',(-0.237787736652784,0.,0.971317143006107));
#1267=DIRECTION('',(0.971317143006107,0.,0.237787736652784));
#1268=DIRECTION('',(0.237787736652785,0.,-0.971317143006107));
#1269=DIRECTION('',(-1.,0.,-9.10191630206557E-18));
#1270=DIRECTION('',(-0.237787736652786,0.,0.971317143006107));
#1271=DIRECTION('',(0.971317143006107,0.,0.237787736652784));
#1272=DIRECTION('',(0.237787736652784,0.,-0.971317143006107));
#1273=DIRECTION('center_axis',(0.,-1.,0.));
#1274=DIRECTION('ref_axis',(-1.,0.,0.));
#1275=DIRECTION('center_axis',(0.66436383882992,0.,-0.74740931868366));
#1276=DIRECTION('ref_axis',(0.74740931868366,0.,0.66436383882992));
#1277=DIRECTION('',(0.,-1.,0.));
#1278=DIRECTION('',(0.74740931868366,0.,0.66436383882992));
#1279=DIRECTION('',(0.,-1.,0.));
#1280=DIRECTION('center_axis',(-1.,0.,0.));
#1281=DIRECTION('ref_axis',(0.,0.,-1.));
#1282=DIRECTION('',(0.,0.,-1.));
#1283=DIRECTION('',(0.,-1.,0.));
#1284=DIRECTION('center_axis',(0.,0.,1.));
#1285=DIRECTION('ref_axis',(-1.,0.,0.));
#1286=DIRECTION('',(-1.,0.,0.));
#1287=DIRECTION('center_axis',(1.,0.,0.));
#1288=DIRECTION('ref_axis',(0.,0.,1.));
#1289=DIRECTION('',(0.,-1.,0.));
#1290=DIRECTION('',(0.,0.,1.));
#1291=DIRECTION('',(0.,-1.,0.));
#1292=DIRECTION('center_axis',(0.,0.,-1.));
#1293=DIRECTION('ref_axis',(1.,0.,0.));
#1294=DIRECTION('',(1.,0.,0.));
#1295=DIRECTION('',(0.,-1.,0.));
#1296=DIRECTION('center_axis',(-0.419058177461747,0.,0.907959384500452));
#1297=DIRECTION('ref_axis',(-0.907959384500452,0.,-0.419058177461747));
#1298=DIRECTION('',(-0.907959384500452,0.,-0.419058177461747));
#1299=DIRECTION('center_axis',(1.,0.,0.));
#1300=DIRECTION('ref_axis',(0.,0.,1.));
#1301=DIRECTION('',(0.,-1.,0.));
#1302=DIRECTION('',(0.,0.,1.));
#1303=DIRECTION('',(0.,-1.,0.));
#1304=DIRECTION('center_axis',(0.,0.,-1.));
#1305=DIRECTION('ref_axis',(1.,0.,0.));
#1306=DIRECTION('',(1.,0.,0.));
#1307=DIRECTION('',(0.,-1.,0.));
#1308=DIRECTION('center_axis',(-0.66436383882992,0.,0.74740931868366));
#1309=DIRECTION('ref_axis',(-0.74740931868366,0.,-0.66436383882992));
#1310=DIRECTION('',(-0.74740931868366,0.,-0.66436383882992));
#1311=DIRECTION('center_axis',(-1.,0.,0.));
#1312=DIRECTION('ref_axis',(0.,0.,-1.));
#1313=DIRECTION('',(0.,-1.,0.));
#1314=DIRECTION('',(0.,0.,-1.));
#1315=DIRECTION('',(0.,-1.,0.));
#1316=DIRECTION('center_axis',(0.,0.,1.));
#1317=DIRECTION('ref_axis',(-1.,0.,0.));
#1318=DIRECTION('',(-1.,0.,0.));
#1319=DIRECTION('',(0.,-1.,0.));
#1320=DIRECTION('center_axis',(0.419058177461747,0.,-0.907959384500452));
#1321=DIRECTION('ref_axis',(0.907959384500452,0.,0.419058177461747));
#1322=DIRECTION('',(0.907959384500452,0.,0.419058177461747));
#1323=DIRECTION('center_axis',(0.,0.,-1.));
#1324=DIRECTION('ref_axis',(-1.,0.,0.));
#1325=DIRECTION('',(0.,1.,0.));
#1326=DIRECTION('',(-1.,0.,0.));
#1327=DIRECTION('',(0.,1.,0.));
#1328=DIRECTION('center_axis',(0.,1.,0.));
#1329=DIRECTION('ref_axis',(0.999999065968561,0.,0.00136677064872298));
#1330=DIRECTION('center_axis',(0.,1.,0.));
#1331=DIRECTION('ref_axis',(-0.00273353874426739,0.,0.999996263875987));
#1332=DIRECTION('',(0.,1.,0.));
#1333=DIRECTION('center_axis',(0.,-1.,0.));
#1334=DIRECTION('ref_axis',(-1.,0.,0.));
#1335=DIRECTION('center_axis',(0.,-1.,0.));
#1336=DIRECTION('ref_axis',(-1.,0.,0.));
#1337=DIRECTION('',(0.,-1.,0.));
#1338=DIRECTION('center_axis',(0.,-1.,0.));
#1339=DIRECTION('ref_axis',(-1.,0.,0.));
#1340=DIRECTION('center_axis',(0.,-1.,0.));
#1341=DIRECTION('ref_axis',(-1.,0.,0.));
#1342=DIRECTION('',(0.,-1.,0.));
#1343=DIRECTION('center_axis',(-0.237787736652784,0.,0.971317143006107));
#1344=DIRECTION('ref_axis',(-0.971317143006107,0.,-0.237787736652784));
#1345=DIRECTION('',(0.,-1.,0.));
#1346=DIRECTION('',(-0.971317143006107,0.,-0.237787736652784));
#1347=DIRECTION('',(0.,-1.,0.));
#1348=DIRECTION('center_axis',(0.971317143006107,0.,0.237787736652785));
#1349=DIRECTION('ref_axis',(-0.237787736652785,0.,0.971317143006107));
#1350=DIRECTION('',(-0.237787736652785,0.,0.971317143006107));
#1351=DIRECTION('',(0.,-1.,0.));
#1352=DIRECTION('center_axis',(9.10191630206557E-18,0.,-1.));
#1353=DIRECTION('ref_axis',(1.,0.,9.10191630206557E-18));
#1354=DIRECTION('',(1.,0.,9.10191630206557E-18));
#1355=DIRECTION('center_axis',(-0.971317143006107,0.,-0.237787736652785));
#1356=DIRECTION('ref_axis',(0.237787736652785,0.,-0.971317143006107));
#1357=DIRECTION('',(0.,-1.,0.));
#1358=DIRECTION('',(0.237787736652785,0.,-0.971317143006107));
#1359=DIRECTION('',(0.,-1.,0.));
#1360=DIRECTION('center_axis',(-0.237787736652784,0.,0.971317143006107));
#1361=DIRECTION('ref_axis',(-0.971317143006107,0.,-0.237787736652784));
#1362=DIRECTION('',(-0.971317143006107,0.,-0.237787736652784));
#1363=DIRECTION('',(0.,-1.,0.));
#1364=DIRECTION('center_axis',(0.971317143006107,0.,0.237787736652785));
#1365=DIRECTION('ref_axis',(-0.237787736652785,0.,0.971317143006107));
#1366=DIRECTION('',(-0.237787736652785,0.,0.971317143006107));
#1367=DIRECTION('',(0.,-1.,0.));
#1368=DIRECTION('center_axis',(9.10191630206557E-18,0.,-1.));
#1369=DIRECTION('ref_axis',(1.,0.,9.10191630206557E-18));
#1370=DIRECTION('',(1.,0.,9.10191630206557E-18));
#1371=DIRECTION('center_axis',(-0.971317143006107,0.,-0.237787736652784));
#1372=DIRECTION('ref_axis',(0.237787736652784,0.,-0.971317143006107));
#1373=DIRECTION('',(0.,-1.,0.));
#1374=DIRECTION('',(0.237787736652784,0.,-0.971317143006107));
#1375=DIRECTION('',(0.,-1.,0.));
#1376=DIRECTION('center_axis',(-0.237787736652784,0.,0.971317143006107));
#1377=DIRECTION('ref_axis',(-0.971317143006107,0.,-0.237787736652784));
#1378=DIRECTION('',(-0.971317143006107,0.,-0.237787736652784));
#1379=DIRECTION('',(0.,-1.,0.));
#1380=DIRECTION('center_axis',(0.971317143006107,0.,0.237787736652785));
#1381=DIRECTION('ref_axis',(-0.237787736652785,0.,0.971317143006107));
#1382=DIRECTION('',(-0.237787736652785,0.,0.971317143006107));
#1383=DIRECTION('',(0.,-1.,0.));
#1384=DIRECTION('center_axis',(9.10191630206557E-18,0.,-1.));
#1385=DIRECTION('ref_axis',(1.,0.,9.10191630206557E-18));
#1386=DIRECTION('',(1.,0.,9.10191630206557E-18));
#1387=DIRECTION('center_axis',(-0.971317143006107,0.,-0.237787736652786));
#1388=DIRECTION('ref_axis',(0.237787736652786,0.,-0.971317143006107));
#1389=DIRECTION('',(0.,-1.,0.));
#1390=DIRECTION('',(0.237787736652786,0.,-0.971317143006107));
#1391=DIRECTION('',(0.,-1.,0.));
#1392=DIRECTION('center_axis',(-0.237787736652784,0.,0.971317143006107));
#1393=DIRECTION('ref_axis',(-0.971317143006107,0.,-0.237787736652784));
#1394=DIRECTION('',(-0.971317143006107,0.,-0.237787736652784));
#1395=DIRECTION('',(0.,-1.,0.));
#1396=DIRECTION('center_axis',(0.971317143006107,0.,0.237787736652784));
#1397=DIRECTION('ref_axis',(-0.237787736652784,0.,0.971317143006107));
#1398=DIRECTION('',(-0.237787736652784,0.,0.971317143006107));
#1399=DIRECTION('',(0.,-1.,0.));
#1400=DIRECTION('center_axis',(9.10191630206557E-18,0.,-1.));
#1401=DIRECTION('ref_axis',(1.,0.,9.10191630206557E-18));
#1402=DIRECTION('',(1.,0.,9.10191630206557E-18));
#1403=DIRECTION('center_axis',(0.,0.,1.));
#1404=DIRECTION('ref_axis',(1.,0.,0.));
#1405=DIRECTION('',(-1.,0.,0.));
#1406=DIRECTION('',(0.,1.,0.));
#1407=DIRECTION('',(0.,1.,0.));
#1408=DIRECTION('center_axis',(1.,0.,0.));
#1409=DIRECTION('ref_axis',(0.,0.,-1.));
#1410=DIRECTION('',(0.,0.,1.));
#1411=DIRECTION('',(0.,1.,0.));
#1412=DIRECTION('center_axis',(0.,0.,-1.));
#1413=DIRECTION('ref_axis',(-1.,0.,0.));
#1414=DIRECTION('',(1.,0.,0.));
#1415=DIRECTION('',(0.,1.,0.));
#1416=DIRECTION('center_axis',(-1.,0.,0.));
#1417=DIRECTION('ref_axis',(0.,0.,1.));
#1418=DIRECTION('',(0.,0.,-1.));
#1419=DIRECTION('center_axis',(0.,0.,1.));
#1420=DIRECTION('ref_axis',(1.,0.,0.));
#1421=DIRECTION('',(-1.,0.,0.));
#1422=DIRECTION('',(0.,1.,0.));
#1423=DIRECTION('',(0.,1.,0.));
#1424=DIRECTION('center_axis',(1.,0.,0.));
#1425=DIRECTION('ref_axis',(0.,0.,-1.));
#1426=DIRECTION('',(0.,0.,1.));
#1427=DIRECTION('',(0.,1.,0.));
#1428=DIRECTION('center_axis',(0.,0.,-1.));
#1429=DIRECTION('ref_axis',(-1.,0.,0.));
#1430=DIRECTION('',(1.,0.,0.));
#1431=DIRECTION('',(0.,1.,0.));
#1432=DIRECTION('center_axis',(-1.,0.,0.));
#1433=DIRECTION('ref_axis',(0.,0.,1.));
#1434=DIRECTION('',(0.,0.,-1.));
#1435=DIRECTION('center_axis',(-1.,0.,0.));
#1436=DIRECTION('ref_axis',(0.,0.,1.));
#1437=DIRECTION('',(0.,0.,-1.));
#1438=DIRECTION('',(0.,1.,0.));
#1439=DIRECTION('',(0.,1.,0.));
#1440=DIRECTION('center_axis',(0.,0.,1.));
#1441=DIRECTION('ref_axis',(1.,0.,0.));
#1442=DIRECTION('',(-1.,0.,0.));
#1443=DIRECTION('',(0.,1.,0.));
#1444=DIRECTION('center_axis',(1.,0.,0.));
#1445=DIRECTION('ref_axis',(0.,0.,-1.));
#1446=DIRECTION('',(0.,0.,1.));
#1447=DIRECTION('',(0.,1.,0.));
#1448=DIRECTION('center_axis',(0.,0.,-1.));
#1449=DIRECTION('ref_axis',(-1.,0.,0.));
#1450=DIRECTION('',(1.,0.,0.));
#1451=DIRECTION('center_axis',(0.,0.,1.));
#1452=DIRECTION('ref_axis',(1.,0.,0.));
#1453=DIRECTION('',(-1.,0.,0.));
#1454=DIRECTION('',(0.,1.,0.));
#1455=DIRECTION('',(0.,1.,0.));
#1456=DIRECTION('center_axis',(1.,0.,0.));
#1457=DIRECTION('ref_axis',(0.,0.,-1.));
#1458=DIRECTION('',(0.,0.,1.));
#1459=DIRECTION('',(0.,1.,0.));
#1460=DIRECTION('center_axis',(0.,0.,-1.));
#1461=DIRECTION('ref_axis',(-1.,0.,0.));
#1462=DIRECTION('',(1.,0.,0.));
#1463=DIRECTION('',(0.,1.,0.));
#1464=DIRECTION('center_axis',(-1.,0.,0.));
#1465=DIRECTION('ref_axis',(0.,0.,1.));
#1466=DIRECTION('',(0.,0.,-1.));
#1467=DIRECTION('center_axis',(0.,1.,0.));
#1468=DIRECTION('ref_axis',(1.,0.,0.));
#1469=DIRECTION('center_axis',(0.,-1.,0.));
#1470=DIRECTION('ref_axis',(-1.,0.,0.));
#1471=DIRECTION('',(0.,-1.,0.));
#1472=CARTESIAN_POINT('',(0.,0.,0.));
#1473=CARTESIAN_POINT('Origin',(110.000001639128,2.54,10.0000001490116));
#1474=CARTESIAN_POINT('',(113.000001683831,2.54,10.0000001490116));
#1475=CARTESIAN_POINT('Origin',(110.000001639128,2.54,10.0000001490116));
#1476=CARTESIAN_POINT('Origin',(110.000001639128,10.16,10.0000001490116));
#1477=CARTESIAN_POINT('',(113.000001683831,27.94,10.0000001490116));
#1478=CARTESIAN_POINT('Origin',(110.000001639128,27.94,10.0000001490116));
#1479=CARTESIAN_POINT('',(113.000001683831,10.16,10.0000001490116));
#1480=CARTESIAN_POINT('',(113.000001683831,10.16,10.0000001490116));
#1481=CARTESIAN_POINT('Origin',(110.000001639128,10.16,10.0000001490116));
#1482=CARTESIAN_POINT('Origin',(110.000001639128,27.94,10.0000001490116));
#1483=CARTESIAN_POINT('Origin',(67.3000035493228,0.,7.60000709864557));
#1484=CARTESIAN_POINT('',(126.979225086139,0.,15.1999858027221));
#1485=CARTESIAN_POINT('',(0.,0.,0.));
#1486=CARTESIAN_POINT('Ctrl Pts',(126.979225086139,0.,15.1999858027221));
#1487=CARTESIAN_POINT('Ctrl Pts',(121.57260385931,0.,15.0689963050866));
#1488=CARTESIAN_POINT('Ctrl Pts',(111.170549275991,0.,14.7409445165113));
#1489=CARTESIAN_POINT('Ctrl Pts',(96.7996209583647,0.,14.0507571593106));
#1490=CARTESIAN_POINT('Ctrl Pts',(79.5027847474144,0.,12.7286989186958));
#1491=CARTESIAN_POINT('Ctrl Pts',(58.1104596962824,0.,10.2039991137619));
#1492=CARTESIAN_POINT('Ctrl Pts',(38.4032465564992,0.,7.12919334381266));
#1493=CARTESIAN_POINT('Ctrl Pts',(20.6159531102848,0.,3.95473663155402));
#1494=CARTESIAN_POINT('Ctrl Pts',(7.14160718246061,0.,1.39261472761053));
#1495=CARTESIAN_POINT('Ctrl Pts',(0.,0.,0.));
#1496=CARTESIAN_POINT('',(127.,0.,-1.33339926556772E-16));
#1497=CARTESIAN_POINT('',(0.,0.,0.));
#1498=CARTESIAN_POINT('Origin',(127.,0.,7.60000709864557));
#1499=CARTESIAN_POINT('',(104.000001549721,0.,0.979772231821491));
#1500=CARTESIAN_POINT('',(104.000001549721,0.,6.00000008940697));
#1501=CARTESIAN_POINT('',(104.000001549721,0.,4.28988966523353));
#1502=CARTESIAN_POINT('',(109.030170159491,0.,6.00000008940697));
#1503=CARTESIAN_POINT('',(85.6500025495218,0.,6.00000008940697));
#1504=CARTESIAN_POINT('',(109.030170159491,0.,0.979772231821491));
#1505=CARTESIAN_POINT('',(109.030170159491,0.,6.80000359402627));
#1506=CARTESIAN_POINT('',(88.1650868544067,0.,0.979772231821491));
#1507=CARTESIAN_POINT('',(115.000001713634,0.,0.979772231821491));
#1508=CARTESIAN_POINT('',(110.000001639128,0.,0.979772231821491));
#1509=CARTESIAN_POINT('',(91.1500026314782,0.,0.979772231821491));
#1510=CARTESIAN_POINT('',(110.000001639128,0.,6.00000008940697));
#1511=CARTESIAN_POINT('',(110.000001639128,0.,4.28988966523353));
#1512=CARTESIAN_POINT('',(115.000001713634,0.,6.00000008940697));
#1513=CARTESIAN_POINT('',(88.6500025942253,0.,6.00000008940697));
#1514=CARTESIAN_POINT('',(115.000001713634,0.,6.80000359402627));
#1515=CARTESIAN_POINT('',(101.000001505017,0.,0.979772231821491));
#1516=CARTESIAN_POINT('',(101.000001505017,0.,6.00000008940697));
#1517=CARTESIAN_POINT('',(101.000001505017,0.,4.28988966523353));
#1518=CARTESIAN_POINT('',(103.00000153482,0.,6.00000008940697));
#1519=CARTESIAN_POINT('',(84.15000252717,0.,6.00000008940697));
#1520=CARTESIAN_POINT('',(103.00000153482,0.,0.979772231821491));
#1521=CARTESIAN_POINT('',(103.00000153482,0.,6.80000359402627));
#1522=CARTESIAN_POINT('',(85.1500025420712,0.,0.979772231821491));
#1523=CARTESIAN_POINT('',(116.000001728535,0.,0.979772231821491));
#1524=CARTESIAN_POINT('',(116.000001728535,0.,6.00000008940697));
#1525=CARTESIAN_POINT('',(116.000001728535,0.,4.28988966523353));
#1526=CARTESIAN_POINT('',(119.563840421187,0.,6.00000008940697));
#1527=CARTESIAN_POINT('',(91.6500026389288,0.,6.00000008940697));
#1528=CARTESIAN_POINT('',(119.563840421187,0.,0.979772231821491));
#1529=CARTESIAN_POINT('',(119.563840421187,0.,6.80000359402627));
#1530=CARTESIAN_POINT('',(93.4319219852547,0.,0.979772231821491));
#1531=CARTESIAN_POINT('',(75.0000011175871,0.,11.0000001639128));
#1532=CARTESIAN_POINT('',(84.0000012516975,0.,11.0000001639128));
#1533=CARTESIAN_POINT('',(75.6500024005102,0.,11.0000001639128));
#1534=CARTESIAN_POINT('',(75.0000011175871,0.,3.00000004470348));
#1535=CARTESIAN_POINT('',(73.9913828584644,0.,2.10345048103887));
#1536=CARTESIAN_POINT('',(75.0000011175871,0.,9.30000363127917));
#1537=CARTESIAN_POINT('',(60.0000008940697,0.,2.00000002980232));
#1538=CARTESIAN_POINT('',(73.0000010877848,0.,8.00000011920929));
#1539=CARTESIAN_POINT('',(70.5743936741164,0.,6.88048900520849));
#1540=CARTESIAN_POINT('',(73.0000010877848,0.,2.00000002980232));
#1541=CARTESIAN_POINT('',(73.0000010877848,0.,4.80000356422395));
#1542=CARTESIAN_POINT('',(63.6500022216962,0.,2.00000002980232));
#1543=CARTESIAN_POINT('',(76.0000011324883,0.,2.00000002980232));
#1544=CARTESIAN_POINT('',(85.0000012665987,0.,10.0000001490116));
#1545=CARTESIAN_POINT('',(79.4603484571997,0.,5.07586431843474));
#1546=CARTESIAN_POINT('',(85.0000012665987,0.,2.00000002980232));
#1547=CARTESIAN_POINT('',(85.0000012665987,0.,4.80000356422395));
#1548=CARTESIAN_POINT('',(71.6500023409055,0.,2.00000002980232));
#1549=CARTESIAN_POINT('',(72.0000010728836,0.,9.00000013411045));
#1550=CARTESIAN_POINT('',(59.0000008791685,0.,3.00000004470348));
#1551=CARTESIAN_POINT('',(63.2963447851772,0.,4.98292800132287));
#1552=CARTESIAN_POINT('',(59.0000008791685,0.,9.00000013411045));
#1553=CARTESIAN_POINT('',(59.0000008791685,0.,8.30000361637801));
#1554=CARTESIAN_POINT('',(69.6500023111032,0.,9.00000013411045));
#1555=CARTESIAN_POINT('',(99.1605529057265,0.,7.60000709864557));
#1556=CARTESIAN_POINT('Origin',(95.3505529057265,0.,7.60000709864557));
#1557=CARTESIAN_POINT('',(133.35,0.,7.60000709864557));
#1558=CARTESIAN_POINT('Origin',(127.,0.,7.60000709864557));
#1559=CARTESIAN_POINT('',(36.987949150999,0.,2.00000002980232));
#1560=CARTESIAN_POINT('',(29.5057899010174,0.,2.00000002980232));
#1561=CARTESIAN_POINT('',(48.4028967251701,0.,2.00000002980232));
#1562=CARTESIAN_POINT('',(36.5648853628963,0.,3.72813418740729));
#1563=CARTESIAN_POINT('',(51.5106544697542,0.,7.38700156563134));
#1564=CARTESIAN_POINT('',(37.1982072433031,0.,1.14113618599988));
#1565=CARTESIAN_POINT('',(53.9837549121187,0.,2.00000002980232));
#1566=CARTESIAN_POINT('',(47.5963815836697,0.,2.00000002980232));
#1567=CARTESIAN_POINT('',(57.4481925664962,0.,2.00000002980232));
#1568=CARTESIAN_POINT('',(46.5734851188155,0.,6.17833523673508));
#1569=CARTESIAN_POINT('',(46.9952751051709,1.11022302462516E-15,4.45540431413017));
#1570=CARTESIAN_POINT('',(52.5996971479556,0.,7.65360964048354));
#1571=CARTESIAN_POINT('',(59.5280603622838,0.,9.34973929216947));
#1572=CARTESIAN_POINT('',(53.7135160163925,0.,3.10387391253802));
#1573=CARTESIAN_POINT('',(41.744772406568,0.,2.00000002980232));
#1574=CARTESIAN_POINT('',(38.0396375099165,0.,2.00000002980232));
#1575=CARTESIAN_POINT('',(52.6698205296196,0.,2.00000002980232));
#1576=CARTESIAN_POINT('',(37.5571080988349,0.,3.97103981337419));
#1577=CARTESIAN_POINT('',(37.9788980851903,0.,2.24810889076927));
#1578=CARTESIAN_POINT('',(41.0527435244865,0.,4.82680483514293));
#1579=CARTESIAN_POINT('',(53.7545835505492,0.,7.93633688949916));
#1580=CARTESIAN_POINT('',(41.8205479518827,0.,1.69047150986771));
#1581=CARTESIAN_POINT('',(46.5734851188155,0.,2.00000002980232));
#1582=CARTESIAN_POINT('',(42.8411910874857,0.,2.00000002980232));
#1583=CARTESIAN_POINT('',(55.0705973184042,0.,2.00000002980232));
#1584=CARTESIAN_POINT('',(42.0871673954839,0.,5.08004170303433));
#1585=CARTESIAN_POINT('',(42.5089573818393,1.11022302462516E-15,3.3571107804294));
#1586=CARTESIAN_POINT('',(45.6084262966524,0.,5.94207959694605));
#1587=CARTESIAN_POINT('',(56.0324249366322,0.,8.49397427040072));
#1588=CARTESIAN_POINT('',(46.5127456940894,0.,2.24810889076927));
#1589=CARTESIAN_POINT('',(113.000001683831,0.,10.0000001490116));
#1590=CARTESIAN_POINT('Origin',(110.000001639128,0.,10.0000001490116));
#1591=CARTESIAN_POINT('Origin',(75.0000011175871,10.16,3.00000004470348));
#1592=CARTESIAN_POINT('',(84.0000012516975,10.16,11.0000001639128));
#1593=CARTESIAN_POINT('',(84.0000012516975,10.16,11.0000001639128));
#1594=CARTESIAN_POINT('',(75.0000011175871,10.16,3.00000004470348));
#1595=CARTESIAN_POINT('',(73.9913828584644,10.16,2.10345048103887));
#1596=CARTESIAN_POINT('',(75.0000011175871,10.16,3.00000004470348));
#1597=CARTESIAN_POINT('Origin',(75.0000011175871,10.16,11.0000001639128));
#1598=CARTESIAN_POINT('',(75.0000011175871,10.16,11.0000001639128));
#1599=CARTESIAN_POINT('',(75.0000011175871,10.16,9.30000363127917));
#1600=CARTESIAN_POINT('',(75.0000011175871,10.16,11.0000001639128));
#1601=CARTESIAN_POINT('Origin',(84.0000012516975,10.16,11.0000001639128));
#1602=CARTESIAN_POINT('',(75.6500024005102,10.16,11.0000001639128));
#1603=CARTESIAN_POINT('Origin',(73.0000010877848,10.16,2.00000002980232));
#1604=CARTESIAN_POINT('',(73.0000010877848,10.16,8.00000011920929));
#1605=CARTESIAN_POINT('',(73.0000010877848,10.16,8.00000011920929));
#1606=CARTESIAN_POINT('',(73.0000010877848,10.16,2.00000002980232));
#1607=CARTESIAN_POINT('',(73.0000010877848,10.16,4.80000356422395));
#1608=CARTESIAN_POINT('',(73.0000010877848,10.16,2.00000002980232));
#1609=CARTESIAN_POINT('Origin',(60.0000008940697,10.16,2.00000002980232));
#1610=CARTESIAN_POINT('',(60.0000008940697,10.16,2.00000002980232));
#1611=CARTESIAN_POINT('',(63.6500022216962,10.16,2.00000002980232));
#1612=CARTESIAN_POINT('',(60.0000008940697,10.16,2.00000002980232));
#1613=CARTESIAN_POINT('Origin',(73.0000010877848,10.16,8.00000011920929));
#1614=CARTESIAN_POINT('',(70.5743936741164,10.16,6.88048900520849));
#1615=CARTESIAN_POINT('Origin',(85.0000012665987,10.16,2.00000002980232));
#1616=CARTESIAN_POINT('',(85.0000012665987,10.16,10.0000001490116));
#1617=CARTESIAN_POINT('',(85.0000012665987,10.16,10.0000001490116));
#1618=CARTESIAN_POINT('',(85.0000012665987,10.16,2.00000002980232));
#1619=CARTESIAN_POINT('',(85.0000012665987,10.16,4.80000356422395));
#1620=CARTESIAN_POINT('',(85.0000012665987,10.16,2.00000002980232));
#1621=CARTESIAN_POINT('Origin',(76.0000011324883,10.16,2.00000002980232));
#1622=CARTESIAN_POINT('',(76.0000011324883,10.16,2.00000002980232));
#1623=CARTESIAN_POINT('',(71.6500023409055,10.16,2.00000002980232));
#1624=CARTESIAN_POINT('',(76.0000011324883,10.16,2.00000002980232));
#1625=CARTESIAN_POINT('Origin',(85.0000012665987,10.16,10.0000001490116));
#1626=CARTESIAN_POINT('',(79.4603484571997,10.16,5.07586431843474));
#1627=CARTESIAN_POINT('Origin',(59.0000008791685,10.16,9.00000013411045));
#1628=CARTESIAN_POINT('',(59.0000008791685,10.16,3.00000004470348));
#1629=CARTESIAN_POINT('',(59.0000008791685,10.16,3.00000004470348));
#1630=CARTESIAN_POINT('',(59.0000008791685,10.16,9.00000013411045));
#1631=CARTESIAN_POINT('',(59.0000008791685,10.16,8.30000361637801));
#1632=CARTESIAN_POINT('',(59.0000008791685,10.16,9.00000013411045));
#1633=CARTESIAN_POINT('Origin',(72.0000010728836,10.16,9.00000013411045));
#1634=CARTESIAN_POINT('',(72.0000010728836,10.16,9.00000013411045));
#1635=CARTESIAN_POINT('',(69.6500023111032,10.16,9.00000013411045));
#1636=CARTESIAN_POINT('',(72.0000010728836,10.16,9.00000013411045));
#1637=CARTESIAN_POINT('Origin',(59.0000008791685,10.16,3.00000004470348));
#1638=CARTESIAN_POINT('',(63.2963447851772,10.16,4.98292800132287));
#1639=CARTESIAN_POINT('Origin',(127.,0.,0.));
#1640=CARTESIAN_POINT('',(0.,10.16,0.));
#1641=CARTESIAN_POINT('',(0.,0.,0.));
#1642=CARTESIAN_POINT('',(127.,10.16,0.));
#1643=CARTESIAN_POINT('',(0.,10.16,0.));
#1644=CARTESIAN_POINT('',(127.,0.,-1.33339926556772E-16));
#1645=CARTESIAN_POINT('Origin',(127.,0.,7.60000709864557));
#1646=CARTESIAN_POINT('',(126.979225086139,10.16,15.1999858027221));
#1647=CARTESIAN_POINT('Origin',(127.,10.16,7.60000709864557));
#1648=CARTESIAN_POINT('',(126.979225086139,0.,15.1999858027221));
#1649=CARTESIAN_POINT('Ctrl Pts',(0.,0.,0.));
#1650=CARTESIAN_POINT('Ctrl Pts',(0.,10.16,0.));
#1651=CARTESIAN_POINT('Ctrl Pts',(7.14160718246061,0.,1.39261472761053));
#1652=CARTESIAN_POINT('Ctrl Pts',(7.14160718246061,10.16,1.39261472761053));
#1653=CARTESIAN_POINT('Ctrl Pts',(20.6159531102848,0.,3.95473663155402));
#1654=CARTESIAN_POINT('Ctrl Pts',(20.6159531102848,10.16,3.95473663155402));
#1655=CARTESIAN_POINT('Ctrl Pts',(38.4032465564992,0.,7.12919334381266));
#1656=CARTESIAN_POINT('Ctrl Pts',(38.4032465564992,10.16,7.12919334381266));
#1657=CARTESIAN_POINT('Ctrl Pts',(58.1104596962824,0.,10.2039991137619));
#1658=CARTESIAN_POINT('Ctrl Pts',(58.1104596962824,10.16,10.2039991137619));
#1659=CARTESIAN_POINT('Ctrl Pts',(79.5027847474144,0.,12.7286989186958));
#1660=CARTESIAN_POINT('Ctrl Pts',(79.5027847474144,10.16,12.7286989186958));
#1661=CARTESIAN_POINT('Ctrl Pts',(96.7996209583647,0.,14.0507571593106));
#1662=CARTESIAN_POINT('Ctrl Pts',(96.7996209583647,10.16,14.0507571593106));
#1663=CARTESIAN_POINT('Ctrl Pts',(111.170549275991,0.,14.7409445165113));
#1664=CARTESIAN_POINT('Ctrl Pts',(111.170549275991,10.16,14.7409445165113));
#1665=CARTESIAN_POINT('Ctrl Pts',(121.57260385931,0.,15.0689963050866));
#1666=CARTESIAN_POINT('Ctrl Pts',(121.57260385931,10.16,15.0689963050866));
#1667=CARTESIAN_POINT('Ctrl Pts',(126.979225086139,0.,15.1999858027221));
#1668=CARTESIAN_POINT('Ctrl Pts',(126.979225086139,10.16,15.1999858027221));
#1669=CARTESIAN_POINT('Ctrl Pts',(0.,10.16,0.));
#1670=CARTESIAN_POINT('Ctrl Pts',(7.14160718246061,10.16,1.39261472761053));
#1671=CARTESIAN_POINT('Ctrl Pts',(20.6159531102848,10.16,3.95473663155402));
#1672=CARTESIAN_POINT('Ctrl Pts',(38.4032465564992,10.16,7.12919334381266));
#1673=CARTESIAN_POINT('Ctrl Pts',(58.1104596962824,10.16,10.2039991137619));
#1674=CARTESIAN_POINT('Ctrl Pts',(79.5027847474144,10.16,12.7286989186958));
#1675=CARTESIAN_POINT('Ctrl Pts',(96.7996209583647,10.16,14.0507571593106));
#1676=CARTESIAN_POINT('Ctrl Pts',(111.170549275991,10.16,14.7409445165113));
#1677=CARTESIAN_POINT('Ctrl Pts',(121.57260385931,10.16,15.0689963050866));
#1678=CARTESIAN_POINT('Ctrl Pts',(126.979225086139,10.16,15.1999858027221));
#1679=CARTESIAN_POINT('Origin',(95.3505529057265,10.16,7.60000709864557));
#1680=CARTESIAN_POINT('',(99.1605529057265,10.16,7.60000709864557));
#1681=CARTESIAN_POINT('Origin',(95.3505529057265,10.16,7.60000709864557));
#1682=CARTESIAN_POINT('',(99.1605529057265,10.16,7.60000709864557));
#1683=CARTESIAN_POINT('Origin',(127.,10.16,7.60000709864557));
#1684=CARTESIAN_POINT('',(133.35,10.16,7.60000709864557));
#1685=CARTESIAN_POINT('Origin',(127.,10.16,7.60000709864557));
#1686=CARTESIAN_POINT('',(133.35,10.16,7.60000709864557));
#1687=CARTESIAN_POINT('Origin',(36.5648853628963,10.16,3.72813418740729));
#1688=CARTESIAN_POINT('',(29.5057899010174,10.16,2.00000002980232));
#1689=CARTESIAN_POINT('',(29.5057899010174,10.16,2.00000002980232));
#1690=CARTESIAN_POINT('',(36.5648853628963,10.16,3.72813418740729));
#1691=CARTESIAN_POINT('',(51.5106544697542,10.16,7.38700156563134));
#1692=CARTESIAN_POINT('',(36.5648853628963,10.16,3.72813418740729));
#1693=CARTESIAN_POINT('Origin',(36.987949150999,10.16,2.00000002980232));
#1694=CARTESIAN_POINT('',(36.987949150999,10.16,2.00000002980232));
#1695=CARTESIAN_POINT('',(37.1982072433031,10.16,1.14113618599988));
#1696=CARTESIAN_POINT('',(36.987949150999,10.16,2.00000002980232));
#1697=CARTESIAN_POINT('Origin',(29.5057899010174,10.16,2.00000002980232));
#1698=CARTESIAN_POINT('',(48.4028967251701,10.16,2.00000002980232));
#1699=CARTESIAN_POINT('Origin',(46.5734851188155,10.16,6.17833523673508));
#1700=CARTESIAN_POINT('',(47.5963815836697,10.16,2.00000002980232));
#1701=CARTESIAN_POINT('',(47.5963815836697,10.16,2.00000002980232));
#1702=CARTESIAN_POINT('',(46.5734851188155,10.16,6.17833523673508));
#1703=CARTESIAN_POINT('',(46.9952751051709,10.16,4.45540431413017));
#1704=CARTESIAN_POINT('',(46.5734851188155,10.16,6.17833523673508));
#1705=CARTESIAN_POINT('Origin',(52.5996971479556,10.16,7.65360964048354));
#1706=CARTESIAN_POINT('',(52.5996971479556,10.16,7.65360964048354));
#1707=CARTESIAN_POINT('',(59.5280603622838,10.16,9.34973929216947));
#1708=CARTESIAN_POINT('',(52.5996971479556,10.16,7.65360964048354));
#1709=CARTESIAN_POINT('Origin',(53.9837549121187,10.16,2.00000002980232));
#1710=CARTESIAN_POINT('',(53.9837549121187,10.16,2.00000002980232));
#1711=CARTESIAN_POINT('',(53.7135160163925,10.16,3.10387391253802));
#1712=CARTESIAN_POINT('',(53.9837549121187,10.16,2.00000002980232));
#1713=CARTESIAN_POINT('Origin',(47.5963815836697,10.16,2.00000002980232));
#1714=CARTESIAN_POINT('',(57.4481925664962,10.16,2.00000002980232));
#1715=CARTESIAN_POINT('Origin',(37.5571080988349,10.16,3.97103981337419));
#1716=CARTESIAN_POINT('',(38.0396375099165,10.16,2.00000002980232));
#1717=CARTESIAN_POINT('',(38.0396375099165,10.16,2.00000002980232));
#1718=CARTESIAN_POINT('',(37.5571080988349,10.16,3.97103981337419));
#1719=CARTESIAN_POINT('',(37.9788980851903,10.16,2.24810889076927));
#1720=CARTESIAN_POINT('',(37.5571080988349,10.16,3.97103981337419));
#1721=CARTESIAN_POINT('Origin',(41.0527435244865,10.16,4.82680483514293));
#1722=CARTESIAN_POINT('',(41.0527435244865,10.16,4.82680483514293));
#1723=CARTESIAN_POINT('',(53.7545835505492,10.16,7.93633688949916));
#1724=CARTESIAN_POINT('',(41.0527435244865,10.16,4.82680483514293));
#1725=CARTESIAN_POINT('Origin',(41.744772406568,10.16,2.00000002980232));
#1726=CARTESIAN_POINT('',(41.744772406568,10.16,2.00000002980232));
#1727=CARTESIAN_POINT('',(41.8205479518827,10.16,1.69047150986771));
#1728=CARTESIAN_POINT('',(41.744772406568,10.16,2.00000002980232));
#1729=CARTESIAN_POINT('Origin',(38.0396375099165,10.16,2.00000002980232));
#1730=CARTESIAN_POINT('',(52.6698205296196,10.16,2.00000002980232));
#1731=CARTESIAN_POINT('Origin',(42.0871673954839,10.16,5.08004170303433));
#1732=CARTESIAN_POINT('',(42.8411910874857,10.16,2.00000002980232));
#1733=CARTESIAN_POINT('',(42.8411910874857,10.16,2.00000002980232));
#1734=CARTESIAN_POINT('',(42.0871673954839,10.16,5.08004170303433));
#1735=CARTESIAN_POINT('',(42.5089573818393,10.16,3.3571107804294));
#1736=CARTESIAN_POINT('',(42.0871673954839,10.16,5.08004170303433));
#1737=CARTESIAN_POINT('Origin',(45.6084262966524,10.16,5.94207959694605));
#1738=CARTESIAN_POINT('',(45.6084262966524,10.16,5.94207959694605));
#1739=CARTESIAN_POINT('',(56.0324249366322,10.16,8.49397427040072));
#1740=CARTESIAN_POINT('',(45.6084262966524,10.16,5.94207959694605));
#1741=CARTESIAN_POINT('Origin',(46.5734851188155,10.16,2.00000002980232));
#1742=CARTESIAN_POINT('',(46.5734851188155,10.16,2.00000002980232));
#1743=CARTESIAN_POINT('',(46.5127456940894,10.16,2.24810889076927));
#1744=CARTESIAN_POINT('',(46.5734851188155,10.16,2.00000002980232));
#1745=CARTESIAN_POINT('Origin',(42.8411910874857,10.16,2.00000002980232));
#1746=CARTESIAN_POINT('',(55.0705973184042,10.16,2.00000002980232));
#1747=CARTESIAN_POINT('Origin',(116.000001728535,0.,6.00000008940697));
#1748=CARTESIAN_POINT('',(119.563840421187,10.16,6.00000008940697));
#1749=CARTESIAN_POINT('',(116.000001728535,10.16,6.00000008940697));
#1750=CARTESIAN_POINT('',(91.6500026389288,10.16,6.00000008940697));
#1751=CARTESIAN_POINT('',(119.563840421187,0.,6.00000008940697));
#1752=CARTESIAN_POINT('',(116.000001728535,0.,6.00000008940697));
#1753=CARTESIAN_POINT('Origin',(119.563840421187,0.,6.00000008940697));
#1754=CARTESIAN_POINT('',(119.563840421187,10.16,0.979772231821491));
#1755=CARTESIAN_POINT('',(119.563840421187,10.16,6.80000359402627));
#1756=CARTESIAN_POINT('',(119.563840421187,0.,0.979772231821491));
#1757=CARTESIAN_POINT('Origin',(119.563840421187,0.,0.979772231821491));
#1758=CARTESIAN_POINT('',(116.000001728535,10.16,0.979772231821491));
#1759=CARTESIAN_POINT('',(93.4319219852547,10.16,0.979772231821491));
#1760=CARTESIAN_POINT('',(116.000001728535,0.,0.979772231821491));
#1761=CARTESIAN_POINT('Origin',(116.000001728535,0.,0.979772231821491));
#1762=CARTESIAN_POINT('',(116.000001728535,10.16,4.28988966523353));
#1763=CARTESIAN_POINT('Origin',(101.000001505017,0.,6.00000008940697));
#1764=CARTESIAN_POINT('',(103.00000153482,10.16,6.00000008940697));
#1765=CARTESIAN_POINT('',(101.000001505017,10.16,6.00000008940697));
#1766=CARTESIAN_POINT('',(84.15000252717,10.16,6.00000008940697));
#1767=CARTESIAN_POINT('',(103.00000153482,0.,6.00000008940697));
#1768=CARTESIAN_POINT('',(101.000001505017,0.,6.00000008940697));
#1769=CARTESIAN_POINT('Origin',(103.00000153482,0.,6.00000008940697));
#1770=CARTESIAN_POINT('',(103.00000153482,10.16,0.979772231821491));
#1771=CARTESIAN_POINT('',(103.00000153482,10.16,6.80000359402627));
#1772=CARTESIAN_POINT('',(103.00000153482,0.,0.979772231821491));
#1773=CARTESIAN_POINT('Origin',(103.00000153482,0.,0.979772231821491));
#1774=CARTESIAN_POINT('',(101.000001505017,10.16,0.979772231821491));
#1775=CARTESIAN_POINT('',(85.1500025420712,10.16,0.979772231821491));
#1776=CARTESIAN_POINT('',(101.000001505017,0.,0.979772231821491));
#1777=CARTESIAN_POINT('Origin',(101.000001505017,0.,0.979772231821491));
#1778=CARTESIAN_POINT('',(101.000001505017,10.16,4.28988966523353));
#1779=CARTESIAN_POINT('Origin',(110.000001639128,0.,0.979772231821491));
#1780=CARTESIAN_POINT('',(110.000001639128,10.16,6.00000008940697));
#1781=CARTESIAN_POINT('',(110.000001639128,10.16,0.979772231821491));
#1782=CARTESIAN_POINT('',(110.000001639128,10.16,4.28988966523353));
#1783=CARTESIAN_POINT('',(110.000001639128,0.,6.00000008940697));
#1784=CARTESIAN_POINT('',(110.000001639128,0.,0.979772231821491));
#1785=CARTESIAN_POINT('Origin',(110.000001639128,0.,6.00000008940697));
#1786=CARTESIAN_POINT('',(115.000001713634,10.16,6.00000008940697));
#1787=CARTESIAN_POINT('',(88.6500025942253,10.16,6.00000008940697));
#1788=CARTESIAN_POINT('',(115.000001713634,0.,6.00000008940697));
#1789=CARTESIAN_POINT('Origin',(115.000001713634,0.,6.00000008940697));
#1790=CARTESIAN_POINT('',(115.000001713634,10.16,0.979772231821491));
#1791=CARTESIAN_POINT('',(115.000001713634,10.16,6.80000359402627));
#1792=CARTESIAN_POINT('',(115.000001713634,0.,0.979772231821491));
#1793=CARTESIAN_POINT('Origin',(115.000001713634,0.,0.979772231821491));
#1794=CARTESIAN_POINT('',(91.1500026314782,10.16,0.979772231821491));
#1795=CARTESIAN_POINT('Origin',(104.000001549721,0.,6.00000008940697));
#1796=CARTESIAN_POINT('',(109.030170159491,10.16,6.00000008940697));
#1797=CARTESIAN_POINT('',(104.000001549721,10.16,6.00000008940697));
#1798=CARTESIAN_POINT('',(85.6500025495218,10.16,6.00000008940697));
#1799=CARTESIAN_POINT('',(109.030170159491,0.,6.00000008940697));
#1800=CARTESIAN_POINT('',(104.000001549721,0.,6.00000008940697));
#1801=CARTESIAN_POINT('Origin',(109.030170159491,0.,6.00000008940697));
#1802=CARTESIAN_POINT('',(109.030170159491,10.16,0.979772231821491));
#1803=CARTESIAN_POINT('',(109.030170159491,10.16,6.80000359402627));
#1804=CARTESIAN_POINT('',(109.030170159491,0.,0.979772231821491));
#1805=CARTESIAN_POINT('Origin',(109.030170159491,0.,0.979772231821491));
#1806=CARTESIAN_POINT('',(104.000001549721,10.16,0.979772231821491));
#1807=CARTESIAN_POINT('',(88.1650868544067,10.16,0.979772231821491));
#1808=CARTESIAN_POINT('',(104.000001549721,0.,0.979772231821491));
#1809=CARTESIAN_POINT('Origin',(104.000001549721,0.,0.979772231821491));
#1810=CARTESIAN_POINT('',(104.000001549721,10.16,4.28988966523353));
#1811=CARTESIAN_POINT('Origin',(67.3000035493228,10.16,7.60000709864557));
#1812=CARTESIAN_POINT('Origin',(110.000001639128,27.94,10.0000001490116));
#1813=CARTESIAN_POINT('',(113.000001683831,27.94,10.0000001490116));
#1814=UNCERTAINTY_MEASURE_WITH_UNIT(LENGTH_MEASURE(0.01),#1818,
'DISTANCE_ACCURACY_VALUE',
'Maximum model space distance between geometric entities at asserted c
onnectivities');
#1815=UNCERTAINTY_MEASURE_WITH_UNIT(LENGTH_MEASURE(0.01),#1818,
'DISTANCE_ACCURACY_VALUE',
'Maximum model space distance between geometric entities at asserted c
onnectivities');
#1816=(
GEOMETRIC_REPRESENTATION_CONTEXT(3)
GLOBAL_UNCERTAINTY_ASSIGNED_CONTEXT((#1814))
GLOBAL_UNIT_ASSIGNED_CONTEXT((#1818,#1820,#1821))
REPRESENTATION_CONTEXT('','3D')
);
#1817=(
GEOMETRIC_REPRESENTATION_CONTEXT(3)
GLOBAL_UNCERTAINTY_ASSIGNED_CONTEXT((#1815))
GLOBAL_UNIT_ASSIGNED_CONTEXT((#1818,#1820,#1821))
REPRESENTATION_CONTEXT('','3D')
);
#1818=(
LENGTH_UNIT()
NAMED_UNIT(*)
SI_UNIT(.MILLI.,.METRE.)
);
#1819=(
LENGTH_UNIT()
NAMED_UNIT(*)
SI_UNIT($,.METRE.)
);
#1820=(
NAMED_UNIT(*)
PLANE_ANGLE_UNIT()
SI_UNIT($,.RADIAN.)
);
#1821=(
NAMED_UNIT(*)
SI_UNIT($,.STERADIAN.)
SOLID_ANGLE_UNIT()
);
#1822=SHAPE_DEFINITION_REPRESENTATION(#1823,#1824);
#1823=PRODUCT_DEFINITION_SHAPE('',$,#1826);
#1824=SHAPE_REPRESENTATION('',(#1142),#1816);
#1825=PRODUCT_DEFINITION_CONTEXT('part definition',#1830,'design');
#1826=PRODUCT_DEFINITION('Wing SparL','Wing SparL v1',#1827,#1825);
#1827=PRODUCT_DEFINITION_FORMATION('',$,#1832);
#1828=PRODUCT_RELATED_PRODUCT_CATEGORY('Wing SparL v1','Wing SparL v1',
(#1832));
#1829=APPLICATION_PROTOCOL_DEFINITION('international standard',
'automotive_design',2009,#1830);
#1830=APPLICATION_CONTEXT(
'Core Data for Automotive Mechanical Design Process');
#1831=PRODUCT_CONTEXT('part definition',#1830,'mechanical');
#1832=PRODUCT('Wing SparL','Wing SparL v1',$,(#1831));
#1833=PRESENTATION_STYLE_ASSIGNMENT((#1834));
#1834=SURFACE_STYLE_USAGE(.BOTH.,#1835);
#1835=SURFACE_SIDE_STYLE('',(#1836));
#1836=SURFACE_STYLE_FILL_AREA(#1837);
#1837=FILL_AREA_STYLE('Steel - Satin',(#1838));
#1838=FILL_AREA_STYLE_COLOUR('Steel - Satin',#1839);
#1839=COLOUR_RGB('Steel - Satin',0.627450980392157,0.627450980392157,0.627450980392157);
ENDSEC;
END-ISO-10303-21;
