# WaveFront *.obj file (generated by Autodesk ATF)

mtllib Wing Spar.mtl

g Body1

v 10.903017 1.016000 0.600000
v 10.903017 1.016000 0.097977
v 10.903017 0.000000 0.097977
v 10.903017 0.000000 0.600000
v 10.400000 1.016000 0.600000
v 10.400000 0.000000 0.600000
v 10.400000 1.016000 0.097977
v 10.400000 0.000000 0.097977
v 11.000000 1.016000 0.600000
v 11.500000 1.016000 0.600000
v 11.500000 0.000000 0.600000
v 11.000000 0.000000 0.600000
v 11.000000 1.016000 0.097977
v 11.000000 0.000000 0.097977
v 11.500000 1.016000 0.097977
v 11.500000 0.000000 0.097977
v 10.300000 1.016000 0.600000
v 10.300000 1.016000 0.097977
v 10.300000 0.000000 0.097977
v 10.300000 0.000000 0.600000
v 10.100000 1.016000 0.600000
v 10.100000 0.000000 0.600000
v 10.100000 1.016000 0.097977
v 10.100000 0.000000 0.097977
v 11.956384 1.016000 0.600000
v 11.956384 1.016000 0.097977
v 11.956384 0.000000 0.097977
v 11.956384 0.000000 0.600000
v 11.600000 1.016000 0.600000
v 11.600000 0.000000 0.600000
v 11.600000 1.016000 0.097977
v 11.600000 0.000000 0.097977
v 11.300000 0.716000 1.000000
v 11.289778 0.716000 1.077646
v 11.259808 0.716000 1.150000
v 11.212132 0.716000 1.212132
v 11.150000 0.716000 1.259808
v 11.077646 0.716000 1.289778
v 11.000000 0.716000 1.300000
v 10.922354 0.716000 1.289778
v 10.850000 0.716000 1.259808
v 10.787868 0.716000 1.212132
v 10.740193 0.716000 1.150000
v 10.710222 0.716000 1.077646
v 10.700000 0.716000 1.000000
v 10.710222 0.716000 0.922354
v 10.740193 0.716000 0.850000
v 10.787868 0.716000 0.787868
v 10.850000 0.716000 0.740192
v 10.922354 0.716000 0.710222
v 11.000000 0.716000 0.700000
v 11.077646 0.716000 0.710222
v 11.150000 0.716000 0.740192
v 11.212132 0.716000 0.787868
v 11.259808 0.716000 0.850000
v 11.289778 0.716000 0.922354
v 11.300000 2.794000 1.000000
v 11.289778 2.794000 1.077646
v 11.259808 2.794000 1.150000
v 11.212132 2.794000 1.212132
v 11.150000 2.794000 1.259808
v 11.077646 2.794000 1.289778
v 11.000000 2.794000 1.300000
v 10.922354 2.794000 1.289778
v 10.850000 2.794000 1.259808
v 10.787868 2.794000 1.212132
v 10.740193 2.794000 1.150000
v 10.710222 2.794000 1.077646
v 10.700000 2.794000 1.000000
v 10.710222 2.794000 0.922354
v 10.740193 2.794000 0.850000
v 10.787868 2.794000 0.787868
v 10.850000 2.794000 0.740192
v 10.922354 2.794000 0.710222
v 11.000000 2.794000 0.700000
v 11.077646 2.794000 0.710222
v 11.150000 2.794000 0.740192
v 11.212132 2.794000 0.787868
v 11.259808 2.794000 0.850000
v 11.289778 2.794000 0.922354
v 11.300000 1.016000 1.000000
v 11.289778 1.016000 0.922354
v 11.259808 1.016000 0.850000
v 11.212132 1.016000 0.787868
v 11.150000 1.016000 0.740192
v 11.077646 1.016000 0.710222
v 11.000000 1.016000 0.700000
v 10.922354 1.016000 0.710222
v 10.850000 1.016000 0.740192
v 10.787868 1.016000 0.787868
v 10.740193 1.016000 0.850000
v 10.710222 1.016000 0.922354
v 10.700000 1.016000 1.000000
v 10.710222 1.016000 1.077646
v 10.740193 1.016000 1.150000
v 10.787868 1.016000 1.212132
v 10.850000 1.016000 1.259808
v 10.922354 1.016000 1.289778
v 11.000000 1.016000 1.300000
v 11.077646 1.016000 1.289778
v 11.150000 1.016000 1.259808
v 11.212132 1.016000 1.212132
v 11.259808 1.016000 1.150000
v 11.289778 1.016000 1.077646
v 11.300000 0.000000 1.000000
v 11.289778 0.000000 1.077646
v 11.259808 0.000000 1.150000
v 11.212132 0.000000 1.212132
v 11.150000 0.000000 1.259808
v 11.077646 0.000000 1.289778
v 11.000000 0.000000 1.300000
v 10.922354 0.000000 1.289778
v 10.850000 0.000000 1.259808
v 10.787868 0.000000 1.212132
v 10.740193 0.000000 1.150000
v 10.710222 0.000000 1.077646
v 10.700000 0.000000 1.000000
v 10.710222 0.000000 0.922354
v 10.740193 0.000000 0.850000
v 10.787868 0.000000 0.787868
v 10.850000 0.000000 0.740192
v 10.922354 0.000000 0.710222
v 11.000000 0.000000 0.700000
v 11.077646 0.000000 0.710222
v 11.150000 0.000000 0.740192
v 11.212132 0.000000 0.787868
v 11.259808 0.000000 0.850000
v 11.289778 0.000000 0.922354
v 7.500000 0.000000 1.100000
v 7.500000 0.000000 0.300000
v 7.500000 1.016000 0.300000
v 7.500000 1.016000 1.100000
v 6.000000 0.000000 0.200000
v 7.300000 0.000000 0.200000
v 7.300000 1.016000 0.200000
v 6.000000 1.016000 0.200000
v 7.300000 0.000000 0.800000
v 7.300000 1.016000 0.800000
v 7.600000 0.000000 0.200000
v 8.500000 0.000000 0.200000
v 8.500000 1.016000 0.200000
v 7.600000 1.016000 0.200000
v 8.500000 0.000000 1.000000
v 8.500000 1.016000 1.000000
v 7.200000 0.000000 0.900000
v 5.900000 0.000000 0.900000
v 5.900000 1.016000 0.900000
v 7.200000 1.016000 0.900000
v 5.900000 0.000000 0.300000
v 5.900000 1.016000 0.300000
v 12.697923 0.000000 1.519999
v 12.880018 0.000000 1.498374
v 13.051632 0.000000 1.433763
v 13.202776 0.000000 1.329928
v 13.324650 0.000000 1.192913
v 13.410159 0.000000 1.030696
v 13.454324 0.000000 0.852719
v 13.454574 0.000000 0.669345
v 13.410896 0.000000 0.491248
v 13.325831 0.000000 0.328797
v 13.204332 0.000000 0.191450
v 13.053473 0.000000 0.087202
v 12.882035 0.000000 0.022123
v 12.700000 0.000000 -0.000000
v 12.700000 1.016000 0.000000
v 12.882035 1.016000 0.022123
v 13.053473 1.016000 0.087202
v 13.204332 1.016000 0.191450
v 13.325831 1.016000 0.328797
v 13.410896 1.016000 0.491248
v 13.454574 1.016000 0.669345
v 13.454324 1.016000 0.852719
v 13.410159 1.016000 1.030696
v 13.324650 1.016000 1.192913
v 13.202776 1.016000 1.329928
v 13.051632 1.016000 1.433763
v 12.880018 1.016000 1.498374
v 12.697923 1.016000 1.519999
v 6.350000 0.000000 0.000000
v 0.000000 0.000000 0.000000
v 0.000000 1.016000 0.000000
v 6.350000 1.016000 0.000000
v 1.076551 0.000000 0.206739
v 2.076282 0.000000 0.392147
v 3.004155 0.000000 0.557240
v 3.867418 0.000000 0.703449
v 4.674829 0.000000 0.832419
v 5.436124 0.000000 0.945872
v 6.161615 0.000000 1.045512
v 6.861817 0.000000 1.132931
v 8.227848 0.000000 1.276606
v 9.613389 0.000000 1.385837
v 10.335470 0.000000 1.429384
v 11.086844 0.000000 1.466132
v 11.873094 0.000000 1.496304
v 11.873094 1.016000 1.496304
v 11.086844 1.016000 1.466132
v 10.335470 1.016000 1.429384
v 9.613389 1.016000 1.385837
v 8.227848 1.016000 1.276606
v 6.861817 1.016000 1.132931
v 6.161615 1.016000 1.045512
v 5.436124 1.016000 0.945872
v 4.674829 1.016000 0.832419
v 3.867418 1.016000 0.703449
v 3.004155 1.016000 0.557240
v 2.076282 1.016000 0.392147
v 1.076551 1.016000 0.206739
v 9.916055 0.000000 0.760001
v 9.903073 0.000000 0.858611
v 9.865011 0.000000 0.950501
v 9.804463 0.000000 1.029408
v 9.725555 0.000000 1.089956
v 9.633665 0.000000 1.128018
v 9.535055 0.000000 1.141001
v 9.436445 0.000000 1.128018
v 9.344555 0.000000 1.089956
v 9.265648 0.000000 1.029408
v 9.205100 0.000000 0.950501
v 9.167038 0.000000 0.858611
v 9.154055 0.000000 0.760001
v 9.167038 0.000000 0.661391
v 9.205100 0.000000 0.569501
v 9.265648 0.000000 0.490593
v 9.344555 0.000000 0.430045
v 9.436445 0.000000 0.391983
v 9.535055 0.000000 0.379001
v 9.633665 0.000000 0.391983
v 9.725555 0.000000 0.430045
v 9.804463 0.000000 0.490593
v 9.865011 0.000000 0.569501
v 9.903073 0.000000 0.661391
v 9.916055 1.016000 0.760001
v 9.903073 1.016000 0.661391
v 9.865011 1.016000 0.569501
v 9.804463 1.016000 0.490593
v 9.725555 1.016000 0.430045
v 9.633665 1.016000 0.391983
v 9.535055 1.016000 0.379001
v 9.436445 1.016000 0.391983
v 9.344555 1.016000 0.430045
v 9.265648 1.016000 0.490593
v 9.205100 1.016000 0.569501
v 9.167038 1.016000 0.661391
v 9.154055 1.016000 0.760001
v 9.167038 1.016000 0.858611
v 9.205100 1.016000 0.950501
v 9.265648 1.016000 1.029408
v 9.344555 1.016000 1.089956
v 9.436445 1.016000 1.128018
v 9.535055 1.016000 1.141001
v 9.633665 1.016000 1.128018
v 9.725555 1.016000 1.089956
v 9.804463 1.016000 1.029408
v 9.865011 1.016000 0.950501
v 9.903073 1.016000 0.858611
v 13.335000 0.000000 0.760001
v 13.313363 0.000000 0.924351
v 13.249926 0.000000 1.077501
v 13.149013 0.000000 1.209014
v 13.017500 0.000000 1.309927
v 12.864350 0.000000 1.373364
v 12.700000 0.000000 1.395001
v 12.535650 0.000000 1.373364
v 12.382500 0.000000 1.309927
v 12.250987 0.000000 1.209014
v 12.150074 0.000000 1.077501
v 12.086637 0.000000 0.924351
v 12.065000 0.000000 0.760001
v 12.086637 0.000000 0.595651
v 12.150074 0.000000 0.442501
v 12.250987 0.000000 0.310988
v 12.382500 0.000000 0.210075
v 12.535650 0.000000 0.146638
v 12.700000 0.000000 0.125001
v 12.864350 0.000000 0.146638
v 13.017500 0.000000 0.210075
v 13.149013 0.000000 0.310988
v 13.249926 0.000000 0.442501
v 13.313363 0.000000 0.595651
v 13.335000 1.016000 0.760001
v 13.313363 1.016000 0.595651
v 13.249926 1.016000 0.442501
v 13.149013 1.016000 0.310988
v 13.017500 1.016000 0.210075
v 12.864350 1.016000 0.146638
v 12.700000 1.016000 0.125001
v 12.535650 1.016000 0.146638
v 12.382500 1.016000 0.210075
v 12.250987 1.016000 0.310988
v 12.150074 1.016000 0.442501
v 12.086637 1.016000 0.595651
v 12.065000 1.016000 0.760001
v 12.086637 1.016000 0.924351
v 12.150074 1.016000 1.077501
v 12.250987 1.016000 1.209014
v 12.382500 1.016000 1.309927
v 12.535650 1.016000 1.373364
v 12.700000 1.016000 1.395001
v 12.864350 1.016000 1.373364
v 13.017500 1.016000 1.309927
v 13.149013 1.016000 1.209014
v 13.249926 1.016000 1.077501
v 13.313363 1.016000 0.924351
v 3.698795 0.000000 0.200000
v 3.656489 0.000000 0.372813
v 3.656489 1.016000 0.372813
v 3.698795 1.016000 0.200000
v 2.950579 0.000000 0.200000
v 2.950579 1.016000 0.200000
v 5.398375 0.000000 0.200000
v 5.259970 0.000000 0.765361
v 5.259970 1.016000 0.765361
v 5.398375 1.016000 0.200000
v 4.657349 0.000000 0.617834
v 4.657349 1.016000 0.617834
v 4.759638 0.000000 0.200000
v 4.759638 1.016000 0.200000
v 4.174477 0.000000 0.200000
v 4.105274 0.000000 0.482680
v 4.105274 1.016000 0.482680
v 4.174477 1.016000 0.200000
v 3.755711 0.000000 0.397104
v 3.755711 1.016000 0.397104
v 3.803964 0.000000 0.200000
v 3.803964 1.016000 0.200000
v 4.657349 0.000000 0.200000
v 4.560843 0.000000 0.594208
v 4.560843 1.016000 0.594208
v 4.657349 1.016000 0.200000
v 4.208717 0.000000 0.508004
v 4.208717 1.016000 0.508004
v 4.284119 0.000000 0.200000
v 4.284119 1.016000 0.200000
v 8.400000 0.000000 1.100000
v 8.400000 1.016000 1.100000
v 6.727287 0.000000 0.912293
vt -0.000000 1.016000 0.000000
vt -0.502023 1.016000 0.000000
vt -0.000000 0.000000 0.000000
vt -0.502023 0.000000 0.000000
vt -0.000000 1.016000 0.000000
vt -0.503017 1.016000 0.000000
vt -0.000000 0.000000 0.000000
vt -0.503017 0.000000 0.000000
vt -0.000000 1.016000 0.000000
vt -0.502023 1.016000 0.000000
vt -0.000000 0.000000 0.000000
vt -0.502023 0.000000 0.000000
vt -0.000000 1.016000 0.000000
vt -0.503017 1.016000 0.000000
vt -0.000000 0.000000 0.000000
vt -0.503017 0.000000 0.000000
vt -0.000000 1.016000 0.000000
vt -0.500000 1.016000 0.000000
vt -0.000000 0.000000 0.000000
vt -0.500000 0.000000 0.000000
vt -0.000000 1.016000 0.000000
vt -0.502023 1.016000 0.000000
vt -0.000000 0.000000 0.000000
vt -0.502023 0.000000 0.000000
vt -0.000000 1.016000 0.000000
vt -0.500000 1.016000 0.000000
vt -0.000000 0.000000 0.000000
vt -0.500000 0.000000 0.000000
vt -0.000000 1.016000 0.000000
vt -0.502023 1.016000 0.000000
vt -0.000000 0.000000 0.000000
vt -0.502023 0.000000 0.000000
vt -0.000000 1.016000 0.000000
vt -0.502023 1.016000 0.000000
vt -0.000000 0.000000 0.000000
vt -0.502023 0.000000 0.000000
vt -0.000000 1.016000 0.000000
vt -0.200000 1.016000 0.000000
vt -0.000000 0.000000 0.000000
vt -0.200000 0.000000 0.000000
vt -0.000000 1.016000 0.000000
vt -0.502023 1.016000 0.000000
vt -0.000000 0.000000 0.000000
vt -0.502023 0.000000 0.000000
vt -0.000000 1.016000 0.000000
vt -0.200000 1.016000 0.000000
vt -0.000000 0.000000 0.000000
vt -0.200000 0.000000 0.000000
vt -0.000000 1.016000 0.000000
vt -0.502023 1.016000 0.000000
vt -0.000000 0.000000 0.000000
vt -0.502023 0.000000 0.000000
vt -0.000000 1.016000 0.000000
vt -0.356384 1.016000 0.000000
vt -0.000000 0.000000 0.000000
vt -0.356384 0.000000 0.000000
vt -0.000000 1.016000 0.000000
vt -0.502023 1.016000 0.000000
vt -0.000000 0.000000 0.000000
vt -0.502023 0.000000 0.000000
vt -0.000000 1.016000 0.000000
vt -0.356384 1.016000 0.000000
vt -0.000000 0.000000 0.000000
vt -0.356384 0.000000 0.000000
vt 0.289778 0.077646 0.000000
vt -0.289778 0.077646 0.000000
vt 0.300000 0.000000 0.000000
vt -0.300000 0.000000 0.000000
vt 0.289778 -0.077646 0.000000
vt -0.289778 -0.077646 0.000000
vt 0.259808 -0.150000 0.000000
vt -0.259808 -0.150000 0.000000
vt 0.212132 -0.212132 0.000000
vt -0.212132 -0.212132 0.000000
vt 0.150000 -0.259808 0.000000
vt -0.150000 -0.259808 0.000000
vt 0.077646 -0.289778 0.000000
vt -0.077646 -0.289778 0.000000
vt -0.000000 -0.300000 0.000000
vt -0.259808 0.150000 0.000000
vt 0.259808 0.150000 0.000000
vt -0.212132 0.212132 0.000000
vt 0.212132 0.212132 0.000000
vt -0.150000 0.259808 0.000000
vt 0.150000 0.259808 0.000000
vt -0.077646 0.289778 0.000000
vt 0.077646 0.289778 0.000000
vt -0.000000 0.300000 0.000000
vt -1.778000 0.863938 0.000000
vt -0.000000 0.863938 0.000000
vt -1.778000 0.942478 0.000000
vt -0.000000 0.942478 0.000000
vt -1.778000 -0.942478 0.000000
vt -0.000000 -0.942478 0.000000
vt -1.778000 -0.863938 0.000000
vt -0.000000 -0.863938 0.000000
vt -1.778000 -0.785398 0.000000
vt -0.000000 -0.785398 0.000000
vt -1.778000 -0.706858 0.000000
vt -0.000000 -0.706858 0.000000
vt -1.778000 -0.628319 0.000000
vt -0.000000 -0.628319 0.000000
vt -1.778000 -0.549779 0.000000
vt -0.000000 -0.549779 0.000000
vt -1.778000 -0.471239 0.000000
vt -0.000000 -0.471239 0.000000
vt -1.778000 -0.392699 0.000000
vt -0.000000 -0.392699 0.000000
vt -1.778000 -0.314159 0.000000
vt -0.000000 -0.314159 0.000000
vt -1.778000 -0.235619 0.000000
vt -0.000000 -0.235619 0.000000
vt -1.778000 -0.157080 0.000000
vt -0.000000 -0.157080 0.000000
vt -1.778000 -0.078540 0.000000
vt -0.000000 -0.078540 0.000000
vt -1.778000 0.000000 0.000000
vt -0.000000 0.000000 0.000000
vt -1.778000 0.078540 0.000000
vt -0.000000 0.078540 0.000000
vt -1.778000 0.157080 0.000000
vt -0.000000 0.157080 0.000000
vt -1.778000 0.235619 0.000000
vt -0.000000 0.235619 0.000000
vt -1.778000 0.314159 0.000000
vt -0.000000 0.314159 0.000000
vt -1.778000 0.392699 0.000000
vt -0.000000 0.392699 0.000000
vt -1.778000 0.471239 0.000000
vt -0.000000 0.471239 0.000000
vt -1.778000 0.549779 0.000000
vt -0.000000 0.549779 0.000000
vt -1.778000 0.628319 0.000000
vt -0.000000 0.628319 0.000000
vt -1.778000 0.706858 0.000000
vt -0.000000 0.706858 0.000000
vt -1.778000 0.785398 0.000000
vt -0.000000 0.785398 0.000000
vt -0.289778 -0.077646 0.000000
vt 0.289778 -0.077646 0.000000
vt -0.300000 0.000000 0.000000
vt 0.300000 0.000000 0.000000
vt -0.289778 0.077646 0.000000
vt 0.289778 0.077646 0.000000
vt -0.259808 0.150000 0.000000
vt 0.259808 0.150000 0.000000
vt -0.212132 0.212132 0.000000
vt 0.212132 0.212132 0.000000
vt -0.150000 0.259808 0.000000
vt 0.150000 0.259808 0.000000
vt -0.077646 0.289778 0.000000
vt 0.077646 0.289778 0.000000
vt 0.000000 0.300000 0.000000
vt 0.259808 -0.150000 0.000000
vt -0.259808 -0.150000 0.000000
vt 0.212132 -0.212132 0.000000
vt -0.212132 -0.212132 0.000000
vt 0.150000 -0.259808 0.000000
vt -0.150000 -0.259808 0.000000
vt 0.077646 -0.289778 0.000000
vt -0.077646 -0.289778 0.000000
vt 0.000000 -0.300000 0.000000
vt 2.078000 0.863938 0.000000
vt 2.794000 0.863938 0.000000
vt 2.078000 0.942478 0.000000
vt 2.794000 0.942478 0.000000
vt 2.078000 -0.942478 0.000000
vt 2.794000 -0.942478 0.000000
vt 2.078000 -0.863938 0.000000
vt 2.794000 -0.863938 0.000000
vt 2.078000 -0.785398 0.000000
vt 2.794000 -0.785398 0.000000
vt 2.078000 -0.706858 0.000000
vt 2.794000 -0.706858 0.000000
vt 2.078000 -0.628319 0.000000
vt 2.794000 -0.628319 0.000000
vt 2.078000 -0.549779 0.000000
vt 2.794000 -0.549779 0.000000
vt 2.078000 -0.471239 0.000000
vt 2.794000 -0.471239 0.000000
vt 2.078000 -0.392699 0.000000
vt 2.794000 -0.392699 0.000000
vt 2.078000 -0.314159 0.000000
vt 2.794000 -0.314159 0.000000
vt 2.078000 -0.235619 0.000000
vt 2.794000 -0.235619 0.000000
vt 2.078000 -0.157080 0.000000
vt 2.794000 -0.157080 0.000000
vt 2.078000 -0.078540 0.000000
vt 2.794000 -0.078540 0.000000
vt 2.078000 0.000000 0.000000
vt 2.794000 0.000000 0.000000
vt 2.078000 0.078540 0.000000
vt 2.794000 0.078540 0.000000
vt 2.078000 0.157080 0.000000
vt 2.794000 0.157080 0.000000
vt 2.078000 0.235619 0.000000
vt 2.794000 0.235619 0.000000
vt 2.078000 0.314159 0.000000
vt 2.794000 0.314159 0.000000
vt 2.078000 0.392699 0.000000
vt 2.794000 0.392699 0.000000
vt 2.078000 0.471239 0.000000
vt 2.794000 0.471239 0.000000
vt 2.078000 0.549779 0.000000
vt 2.794000 0.549779 0.000000
vt 2.078000 0.628319 0.000000
vt 2.794000 0.628319 0.000000
vt 2.078000 0.706858 0.000000
vt 2.794000 0.706858 0.000000
vt 2.078000 0.785398 0.000000
vt 2.794000 0.785398 0.000000
vt -0.000000 1.016000 0.000000
vt -0.800000 1.016000 0.000000
vt -0.000000 0.000000 0.000000
vt -0.800000 0.000000 0.000000
vt -0.000000 1.016000 0.000000
vt -1.300000 1.016000 0.000000
vt -0.000000 0.000000 0.000000
vt -1.300000 0.000000 0.000000
vt -0.000000 1.016000 0.000000
vt -0.600000 1.016000 0.000000
vt -0.000000 0.000000 0.000000
vt -0.600000 0.000000 0.000000
vt 0.000000 1.016000 0.000000
vt -1.431782 1.016000 0.000000
vt 0.000000 0.000000 0.000000
vt -1.431782 -0.000000 0.000000
vt -0.000000 1.016000 0.000000
vt -0.900000 1.016000 0.000000
vt -0.000000 0.000000 0.000000
vt -0.900000 0.000000 0.000000
vt -0.000000 1.016000 0.000000
vt -0.800000 1.016000 0.000000
vt -0.000000 0.000000 0.000000
vt -0.800000 0.000000 0.000000
vt -0.000000 1.016000 0.000000
vt -1.204159 1.016000 0.000000
vt 0.000000 0.000000 0.000000
vt -1.204159 -0.000000 0.000000
vt -0.000000 1.016000 0.000000
vt -1.300000 1.016000 0.000000
vt -0.000000 0.000000 0.000000
vt -1.300000 0.000000 0.000000
vt -0.000000 1.016000 0.000000
vt -0.600000 1.016000 0.000000
vt -0.000000 0.000000 0.000000
vt -0.600000 0.000000 0.000000
vt 0.000000 1.016000 0.000000
vt -1.431782 1.016000 0.000000
vt 0.000000 0.000000 0.000000
vt -1.431782 0.000000 0.000000
vt -1.016000 0.000000 0.000000
vt -0.000000 0.000000 0.000000
vt -1.016000 0.183822 0.000000
vt -0.000000 0.183822 0.000000
vt -0.000000 0.367645 0.000000
vt -1.016000 0.367645 0.000000
vt -0.000000 0.551467 0.000000
vt -1.016000 0.551467 0.000000
vt -0.000000 0.735289 0.000000
vt -1.016000 0.735289 0.000000
vt -0.000000 0.919112 0.000000
vt -1.016000 0.919112 0.000000
vt -0.000000 1.102934 0.000000
vt -1.016000 1.102934 0.000000
vt -0.000000 1.286756 0.000000
vt -1.016000 1.286756 0.000000
vt -0.000000 1.470579 0.000000
vt -1.016000 1.470579 0.000000
vt -0.000000 1.654401 0.000000
vt -1.016000 1.654401 0.000000
vt -0.000000 1.838223 0.000000
vt -1.016000 1.838223 0.000000
vt -0.000000 2.022046 0.000000
vt -1.016000 2.022046 0.000000
vt -0.000000 2.205868 0.000000
vt -1.016000 2.205868 0.000000
vt -1.016000 2.389690 0.000000
vt -0.000000 2.389690 0.000000
vt 0.000000 0.000000 0.000000
vt 6.350000 0.000000 0.000000
vt -0.000000 1.016000 0.000000
vt 6.350000 1.016000 0.000000
vt 12.700000 0.000000 0.000000
vt 12.700000 1.016000 0.000000
vt -11.133838 0.000000 0.000000
vt -10.437973 0.000000 0.000000
vt -11.133838 1.016000 0.000000
vt -10.437973 1.016000 0.000000
vt -9.742108 0.000000 0.000000
vt -9.742108 1.016000 0.000000
vt -9.046244 0.000000 0.000000
vt -9.046244 1.016000 0.000000
vt -8.350379 0.000000 0.000000
vt -8.350379 1.016000 0.000000
vt -7.654514 0.000000 0.000000
vt -7.654514 1.016000 0.000000
vt -6.958649 0.000000 0.000000
vt -6.958649 1.016000 0.000000
vt -6.262784 0.000000 0.000000
vt -6.262784 1.016000 0.000000
vt -5.566919 0.000000 0.000000
vt -5.566919 1.016000 0.000000
vt -4.175189 0.000000 0.000000
vt -4.175189 1.016000 0.000000
vt -2.783460 0.000000 0.000000
vt -2.783460 1.016000 0.000000
vt -2.087595 0.000000 0.000000
vt -2.087595 1.016000 0.000000
vt -1.391730 0.000000 0.000000
vt -1.391730 1.016000 0.000000
vt -0.695865 0.000000 0.000000
vt -0.695865 1.016000 0.000000
vt 0.000000 0.000000 0.000000
vt 0.000000 1.016000 0.000000
vt 1.016000 -1.097201 0.000000
vt 0.000000 -1.097201 0.000000
vt 1.016000 -1.196947 0.000000
vt 0.000000 -1.196947 0.000000
vt 1.016000 1.196947 0.000000
vt 0.000000 1.196947 0.000000
vt 1.016000 1.097201 0.000000
vt 0.000000 1.097201 0.000000
vt 1.016000 0.997456 0.000000
vt 0.000000 0.997456 0.000000
vt 1.016000 0.897710 0.000000
vt 0.000000 0.897710 0.000000
vt 1.016000 0.797965 0.000000
vt 0.000000 0.797965 0.000000
vt 1.016000 0.698219 0.000000
vt 0.000000 0.698219 0.000000
vt 1.016000 0.598473 0.000000
vt 0.000000 0.598473 0.000000
vt 1.016000 0.498728 0.000000
vt 0.000000 0.498728 0.000000
vt 1.016000 0.398982 0.000000
vt -0.000000 0.398982 0.000000
vt 1.016000 0.299237 0.000000
vt -0.000000 0.299237 0.000000
vt 1.016000 0.199491 0.000000
vt 0.000000 0.199491 0.000000
vt 1.016000 0.099746 0.000000
vt 0.000000 0.099746 0.000000
vt 1.016000 0.000000 0.000000
vt 0.000000 0.000000 0.000000
vt 1.016000 -0.099746 0.000000
vt 0.000000 -0.099746 0.000000
vt 1.016000 -0.199491 0.000000
vt 0.000000 -0.199491 0.000000
vt 1.016000 -0.299237 0.000000
vt 0.000000 -0.299237 0.000000
vt 1.016000 -0.398982 0.000000
vt 0.000000 -0.398982 0.000000
vt 1.016000 -0.498728 0.000000
vt 0.000000 -0.498728 0.000000
vt 1.016000 -0.598473 0.000000
vt 0.000000 -0.598473 0.000000
vt 1.016000 -0.698219 0.000000
vt 0.000000 -0.698219 0.000000
vt 1.016000 -0.797965 0.000000
vt 0.000000 -0.797965 0.000000
vt 1.016000 -0.897710 0.000000
vt 0.000000 -0.897710 0.000000
vt 1.016000 -0.997456 0.000000
vt 0.000000 -0.997456 0.000000
vt 1.016000 -1.828669 0.000000
vt 0.000000 -1.828669 0.000000
vt 1.016000 -1.994911 0.000000
vt 0.000000 -1.994911 0.000000
vt 1.016000 1.994911 0.000000
vt 0.000000 1.994911 0.000000
vt 1.016000 1.828669 0.000000
vt 0.000000 1.828669 0.000000
vt 1.016000 1.662426 0.000000
vt 0.000000 1.662426 0.000000
vt 1.016000 1.496184 0.000000
vt 0.000000 1.496184 0.000000
vt 1.016000 1.329941 0.000000
vt 0.000000 1.329941 0.000000
vt 1.016000 1.163698 0.000000
vt 0.000000 1.163698 0.000000
vt 1.016000 0.997456 0.000000
vt 0.000000 0.997456 0.000000
vt 1.016000 0.831213 0.000000
vt -0.000000 0.831213 0.000000
vt 1.016000 0.664970 0.000000
vt 0.000000 0.664970 0.000000
vt 1.016000 0.498728 0.000000
vt 0.000000 0.498728 0.000000
vt 1.016000 0.332485 0.000000
vt 0.000000 0.332485 0.000000
vt 1.016000 0.166243 0.000000
vt -0.000000 0.166243 0.000000
vt 1.016000 0.000000 0.000000
vt 0.000000 0.000000 0.000000
vt 1.016000 -0.166243 0.000000
vt 0.000000 -0.166243 0.000000
vt 1.016000 -0.332485 0.000000
vt 0.000000 -0.332485 0.000000
vt 1.016000 -0.498728 0.000000
vt 0.000000 -0.498728 0.000000
vt 1.016000 -0.664970 0.000000
vt 0.000000 -0.664970 0.000000
vt 1.016000 -0.831213 0.000000
vt 0.000000 -0.831213 0.000000
vt 1.016000 -0.997456 0.000000
vt 0.000000 -0.997456 0.000000
vt 1.016000 -1.163698 0.000000
vt 0.000000 -1.163698 0.000000
vt 1.016000 -1.329941 0.000000
vt 0.000000 -1.329941 0.000000
vt 1.016000 -1.496184 0.000000
vt 0.000000 -1.496184 0.000000
vt 1.016000 -1.662426 0.000000
vt 0.000000 -1.662426 0.000000
vt -0.000000 1.016000 0.000000
vt -0.177917 1.016000 0.000000
vt -0.000000 0.000000 0.000000
vt -0.177917 0.000000 0.000000
vt 0.000000 1.016000 0.000000
vt -0.726755 1.016000 0.000000
vt 0.000000 0.000000 0.000000
vt -0.726755 -0.000000 0.000000
vt -0.000000 1.016000 0.000000
vt -0.748216 1.016000 0.000000
vt -0.000000 0.000000 0.000000
vt -0.748216 0.000000 0.000000
vt -0.000000 1.016000 0.000000
vt -0.582056 1.016000 0.000000
vt -0.000000 0.000000 0.000000
vt -0.582056 0.000000 0.000000
vt -0.000000 1.016000 0.000000
vt -0.620417 1.016000 0.000000
vt 0.000000 0.000000 0.000000
vt -0.620417 -0.000000 0.000000
vt -0.000000 1.016000 0.000000
vt -0.430172 1.016000 0.000000
vt -0.000000 0.000000 0.000000
vt -0.430172 0.000000 0.000000
vt 0.000000 1.016000 0.000000
vt -0.638737 1.016000 0.000000
vt 0.000000 0.000000 0.000000
vt -0.638737 0.000000 0.000000
vt -0.000000 1.016000 0.000000
vt -0.291028 1.016000 0.000000
vt -0.000000 0.000000 0.000000
vt -0.291028 0.000000 0.000000
vt -0.000000 1.016000 0.000000
vt -0.359886 1.016000 0.000000
vt 0.000000 0.000000 0.000000
vt -0.359886 -0.000000 0.000000
vt -0.000000 1.016000 0.000000
vt -0.202924 1.016000 0.000000
vt -0.000000 0.000000 0.000000
vt -0.202924 0.000000 0.000000
vt -0.000000 1.016000 0.000000
vt -0.370513 1.016000 0.000000
vt -0.000000 0.000000 0.000000
vt -0.370513 0.000000 0.000000
vt -0.000000 1.016000 0.000000
vt -0.405849 1.016000 0.000000
vt -0.000000 0.000000 0.000000
vt -0.405849 0.000000 0.000000
vt -0.000000 1.016000 0.000000
vt -0.362524 1.016000 0.000000
vt 0.000000 0.000000 0.000000
vt -0.362524 -0.000000 0.000000
vt -0.000000 1.016000 0.000000
vt -0.317099 1.016000 0.000000
vt -0.000000 0.000000 0.000000
vt -0.317099 0.000000 0.000000
vt -0.000000 1.016000 0.000000
vt -0.373229 1.016000 0.000000
vt -0.000000 0.000000 0.000000
vt -0.373229 0.000000 0.000000
vt -0.000000 1.016000 0.000000
vt -0.900000 1.016000 0.000000
vt -0.000000 0.000000 0.000000
vt -0.900000 0.000000 0.000000
vt 4.559778 -0.317645 0.000000
vt 5.420074 -0.317500 0.000000
vt 4.570000 -0.239999 0.000000
vt 5.356637 -0.164350 0.000000
vt 4.559778 -0.162354 0.000000
vt 4.529807 -0.089999 0.000000
vt 5.335000 0.000000 0.000000
vt 4.482132 -0.027867 0.000000
vt 4.420000 0.019808 0.000000
vt 4.870000 0.160001 0.000000
vt 4.770000 0.160001 0.000000
vt 4.770000 0.662023 0.000000
vt 4.870000 0.662023 0.000000
vt 5.970000 0.760001 0.000000
vt 5.226384 0.662023 0.000000
vt 5.805650 0.613363 0.000000
vt 5.652500 0.549926 0.000000
vt 5.520987 0.449013 0.000000
vt 5.420074 0.317500 0.000000
vt 5.226384 0.160001 0.000000
vt 5.356637 0.164350 0.000000
vt 4.529807 -0.389999 0.000000
vt 5.520987 -0.449013 0.000000
vt 4.482132 -0.452131 0.000000
vt 4.420000 -0.499807 0.000000
vt 4.347646 -0.529777 0.000000
vt 5.143094 -0.736304 0.000000
vt 5.652500 -0.549926 0.000000
vt 4.356843 -0.706131 0.000000
vt 4.270000 -0.539999 0.000000
vt 3.605470 -0.669383 0.000000
vt 4.192354 -0.529777 0.000000
vt 4.120000 -0.499807 0.000000
vt 4.057868 -0.452131 0.000000
vt 2.883389 -0.625836 0.000000
vt 2.903665 -0.368018 0.000000
vt 2.805055 -0.381000 0.000000
vt 4.010192 -0.389999 0.000000
vt 2.995555 -0.329956 0.000000
vt 3.980222 -0.317645 0.000000
vt 3.074463 -0.269408 0.000000
vt 3.970000 -0.239999 0.000000
vt 3.135011 -0.190500 0.000000
vt 3.980222 -0.162354 0.000000
vt 3.173073 -0.098610 0.000000
vt 4.010192 -0.089999 0.000000
vt 3.186055 0.000000 0.000000
vt 4.057868 -0.027867 0.000000
vt 4.120000 0.019808 0.000000
vt 4.192354 0.049778 0.000000
vt 3.670000 0.160001 0.000000
vt 3.173073 0.098610 0.000000
vt 4.173017 0.160001 0.000000
vt 4.270000 0.060001 0.000000
vt 4.270000 0.160001 0.000000
vt 4.347646 0.049778 0.000000
vt 0.770000 -0.339999 0.000000
vt 1.497848 -0.516606 0.000000
vt 1.670000 -0.339999 0.000000
vt 2.706445 -0.368018 0.000000
vt 2.614555 -0.329956 0.000000
vt 0.770000 0.460001 0.000000
vt 0.570000 -0.039999 0.000000
vt 0.470000 -0.139999 0.000000
vt 0.131816 -0.372930 0.000000
vt -0.568385 -0.285511 0.000000
vt -0.830000 -0.139999 0.000000
vt -1.293877 -0.185871 0.000000
vt -1.470031 -0.005360 0.000000
vt -2.055172 -0.072418 0.000000
vt -2.072652 0.142167 0.000000
vt -2.862583 0.056551 0.000000
vt -2.169158 0.165793 0.000000
vt -2.521284 0.251997 0.000000
vt 1.770000 -0.239999 0.000000
vt 0.870000 0.560001 0.000000
vt 0.570000 0.560001 0.000000
vt -0.380000 0.760001 0.000000
vt -0.730000 0.560001 0.000000
vt -1.331625 0.560001 0.000000
vt -0.830000 0.460001 0.000000
vt 1.770000 0.560001 0.000000
vt 2.437037 0.098610 0.000000
vt 2.475099 0.190500 0.000000
vt 2.535647 0.269408 0.000000
vt -6.730000 0.760001 0.000000
vt -3.779421 0.560001 0.000000
vt -5.653450 0.553262 0.000000
vt -4.653719 0.367854 0.000000
vt -3.073512 0.387187 0.000000
vt -3.725845 0.202760 0.000000
vt -2.974290 0.362897 0.000000
vt -2.624726 0.277320 0.000000
vt 5.805650 -0.613363 0.000000
vt 5.967922 -0.759998 0.000000
vt 5.970000 -0.635000 0.000000
vt 6.150017 -0.738373 0.000000
vt 6.321632 -0.673762 0.000000
vt 6.134350 -0.613363 0.000000
vt 6.472776 -0.569927 0.000000
vt 6.287500 -0.549926 0.000000
vt 6.419012 -0.449013 0.000000
vt 6.594650 -0.432913 0.000000
vt 6.519926 -0.317500 0.000000
vt 6.680158 -0.270695 0.000000
vt 6.583363 -0.164350 0.000000
vt 6.724323 -0.092718 0.000000
vt 6.605000 0.000000 0.000000
vt 6.724574 0.090656 0.000000
vt 6.583363 0.164350 0.000000
vt 6.680896 0.268753 0.000000
vt 6.519926 0.317500 0.000000
vt 6.595831 0.431203 0.000000
vt 6.419012 0.449013 0.000000
vt 6.474332 0.568551 0.000000
vt 6.287500 0.549926 0.000000
vt 6.134350 0.613363 0.000000
vt 6.323473 0.672799 0.000000
vt 5.970000 0.635000 0.000000
vt 6.152035 0.737878 0.000000
vt 3.370000 0.662023 0.000000
vt 3.570000 0.662023 0.000000
vt 3.670000 0.662023 0.000000
vt 3.570000 0.160001 0.000000
vt 3.370000 0.160001 0.000000
vt 3.135011 0.190500 0.000000
vt 3.074463 0.269408 0.000000
vt 2.995555 0.329956 0.000000
vt 2.903665 0.368018 0.000000
vt 2.805055 0.381000 0.000000
vt 2.706445 0.368018 0.000000
vt 2.614555 0.329956 0.000000
vt 2.535647 -0.269408 0.000000
vt 2.475099 -0.190500 0.000000
vt 2.437037 -0.098610 0.000000
vt 2.424055 0.000000 0.000000
vt -3.031205 0.560001 0.000000
vt -2.926037 0.560001 0.000000
vt -2.555523 0.560001 0.000000
vt -1.970362 0.560001 0.000000
vt -2.072652 0.560001 0.000000
vt -2.445881 0.560001 0.000000
vt 4.270000 0.662023 0.000000
vt 4.173017 0.662023 0.000000
vt -0.000000 1.016000 0.000000
vt -1.204159 1.016000 0.000000
vt -0.000000 0.000000 0.000000
vt -1.204159 0.000000 0.000000
vt -4.559778 -0.162354 0.000000
vt -5.356637 -0.164350 0.000000
vt -4.570000 -0.239999 0.000000
vt -5.420074 -0.317500 0.000000
vt -4.559778 -0.317645 0.000000
vt -4.529807 -0.389999 0.000000
vt -5.520987 -0.449013 0.000000
vt -4.482132 -0.452131 0.000000
vt -4.420000 -0.499807 0.000000
vt -5.652500 -0.549926 0.000000
vt -5.143094 -0.736304 0.000000
vt -5.805650 -0.613363 0.000000
vt -5.967922 -0.759998 0.000000
vt -5.970000 -0.635000 0.000000
vt -6.150017 -0.738373 0.000000
vt -6.321632 -0.673762 0.000000
vt -6.134350 -0.613363 0.000000
vt -6.472776 -0.569927 0.000000
vt -6.287500 -0.549926 0.000000
vt -6.419012 -0.449013 0.000000
vt -4.529807 -0.089999 0.000000
vt -5.335000 0.000000 0.000000
vt -4.482132 -0.027867 0.000000
vt -4.420000 0.019808 0.000000
vt -4.347646 0.049778 0.000000
vt -4.770000 0.160001 0.000000
vt -4.870000 0.160001 0.000000
vt -5.226384 0.160001 0.000000
vt -5.356637 0.164350 0.000000
vt -5.420074 0.317500 0.000000
vt -5.226384 0.662023 0.000000
vt -5.520987 0.449013 0.000000
vt -5.652500 0.549926 0.000000
vt -5.805650 0.613363 0.000000
vt -5.970000 0.760001 0.000000
vt -5.970000 0.635000 0.000000
vt -6.152035 0.737878 0.000000
vt -6.323473 0.672799 0.000000
vt -4.270000 0.160001 0.000000
vt -4.270000 0.060001 0.000000
vt -4.173017 0.160001 0.000000
vt -4.192354 0.049778 0.000000
vt -3.670000 0.160001 0.000000
vt -4.120000 0.019808 0.000000
vt -3.173073 0.098610 0.000000
vt -3.186055 0.000000 0.000000
vt -4.057868 -0.027867 0.000000
vt -4.010192 -0.089999 0.000000
vt -3.173073 -0.098610 0.000000
vt -3.980222 -0.162354 0.000000
vt -3.135011 -0.190500 0.000000
vt -3.970000 -0.239999 0.000000
vt -3.074463 -0.269408 0.000000
vt -3.980222 -0.317645 0.000000
vt -2.995555 -0.329956 0.000000
vt -4.010192 -0.389999 0.000000
vt -2.903665 -0.368018 0.000000
vt -4.057868 -0.452131 0.000000
vt -2.883389 -0.625836 0.000000
vt -3.605470 -0.669383 0.000000
vt -4.120000 -0.499807 0.000000
vt -4.192354 -0.529777 0.000000
vt -4.270000 -0.539999 0.000000
vt -4.356843 -0.706131 0.000000
vt -4.347646 -0.529777 0.000000
vt 2.445881 0.560001 0.000000
vt 0.380000 0.760001 0.000000
vt 2.072652 0.560001 0.000000
vt 1.970362 0.560001 0.000000
vt 2.169158 0.165793 0.000000
vt 2.072652 0.142167 0.000000
vt 2.862583 0.056551 0.000000
vt 2.055172 -0.072418 0.000000
vt 1.470031 -0.005360 0.000000
vt 1.293877 -0.185871 0.000000
vt 0.830000 -0.139999 0.000000
vt 0.568385 -0.285511 0.000000
vt 0.002713 -0.152293 0.000000
vt -0.131816 -0.372930 0.000000
vt -0.470000 -0.139999 0.000000
vt -0.770000 -0.339999 0.000000
vt -0.570000 -0.039999 0.000000
vt -0.770000 0.460001 0.000000
vt -0.570000 0.560001 0.000000
vt -0.870000 0.560001 0.000000
vt -1.770000 0.560001 0.000000
vt -3.370000 0.662023 0.000000
vt -2.805055 0.381000 0.000000
vt -2.903665 0.368018 0.000000
vt -2.995555 0.329956 0.000000
vt -3.074463 0.269408 0.000000
vt -3.370000 0.160001 0.000000
vt -3.135011 0.190500 0.000000
vt -3.570000 0.160001 0.000000
vt -3.670000 0.662023 0.000000
vt -3.570000 0.662023 0.000000
vt 2.521284 0.251997 0.000000
vt 2.624726 0.277320 0.000000
vt 2.555523 0.560001 0.000000
vt 2.926037 0.560001 0.000000
vt 3.031205 0.560001 0.000000
vt 3.073512 0.387187 0.000000
vt 2.974290 0.362897 0.000000
vt 3.725845 0.202760 0.000000
vt 1.331625 0.560001 0.000000
vt 0.730000 0.560001 0.000000
vt 0.830000 0.460001 0.000000
vt 3.779421 0.560001 0.000000
vt 6.730000 0.760001 0.000000
vt 5.653450 0.553262 0.000000
vt 4.653719 0.367854 0.000000
vt -6.583363 0.164350 0.000000
vt -6.724574 0.090656 0.000000
vt -6.605000 0.000000 0.000000
vt -6.724323 -0.092718 0.000000
vt -6.583363 -0.164350 0.000000
vt -6.680158 -0.270695 0.000000
vt -6.519926 -0.317500 0.000000
vt -6.594650 -0.432913 0.000000
vt -6.680896 0.268753 0.000000
vt -6.519926 0.317500 0.000000
vt -6.595831 0.431203 0.000000
vt -6.419012 0.449013 0.000000
vt -6.474332 0.568551 0.000000
vt -6.287500 0.549926 0.000000
vt -6.134350 0.613363 0.000000
vt -2.706445 0.368018 0.000000
vt -2.614555 0.329956 0.000000
vt -2.535647 0.269408 0.000000
vt -2.475099 0.190500 0.000000
vt -2.437037 0.098610 0.000000
vt -1.770000 -0.239999 0.000000
vt -2.424055 0.000000 0.000000
vt -2.437037 -0.098610 0.000000
vt -2.475099 -0.190500 0.000000
vt -2.535647 -0.269408 0.000000
vt -1.670000 -0.339999 0.000000
vt -2.614555 -0.329956 0.000000
vt -2.706445 -0.368018 0.000000
vt -2.805055 -0.381000 0.000000
vt -1.497848 -0.516606 0.000000
vt -4.870000 0.662023 0.000000
vt -4.770000 0.662023 0.000000
vt -4.270000 0.662023 0.000000
vt -4.173017 0.662023 0.000000
vn -1.000000 0.000000 -0.000000
vn -1.000000 0.000000 -0.000000
vn -1.000000 0.000000 -0.000000
vn -1.000000 0.000000 -0.000000
vn -0.000000 -0.000000 -1.000000
vn -0.000000 -0.000000 -1.000000
vn -0.000000 -0.000000 -1.000000
vn -0.000000 -0.000000 -1.000000
vn 1.000000 -0.000000 -0.000000
vn 1.000000 -0.000000 -0.000000
vn 1.000000 -0.000000 -0.000000
vn 1.000000 -0.000000 -0.000000
vn -0.000000 -0.000000 1.000000
vn -0.000000 -0.000000 1.000000
vn -0.000000 -0.000000 1.000000
vn -0.000000 -0.000000 1.000000
vn -0.000000 -0.000000 -1.000000
vn -0.000000 -0.000000 -1.000000
vn -0.000000 -0.000000 -1.000000
vn -0.000000 -0.000000 -1.000000
vn 1.000000 -0.000000 -0.000000
vn 1.000000 -0.000000 -0.000000
vn 1.000000 -0.000000 -0.000000
vn 1.000000 -0.000000 -0.000000
vn -0.000000 -0.000000 1.000000
vn -0.000000 -0.000000 1.000000
vn -0.000000 -0.000000 1.000000
vn -0.000000 -0.000000 1.000000
vn -1.000000 0.000000 -0.000000
vn -1.000000 0.000000 -0.000000
vn -1.000000 0.000000 -0.000000
vn -1.000000 0.000000 -0.000000
vn -1.000000 0.000000 -0.000000
vn -1.000000 0.000000 -0.000000
vn -1.000000 0.000000 -0.000000
vn -1.000000 0.000000 -0.000000
vn -0.000000 -0.000000 -1.000000
vn -0.000000 -0.000000 -1.000000
vn -0.000000 -0.000000 -1.000000
vn -0.000000 -0.000000 -1.000000
vn 1.000000 -0.000000 -0.000000
vn 1.000000 -0.000000 -0.000000
vn 1.000000 -0.000000 -0.000000
vn 1.000000 -0.000000 -0.000000
vn -0.000000 -0.000000 1.000000
vn -0.000000 -0.000000 1.000000
vn -0.000000 -0.000000 1.000000
vn -0.000000 -0.000000 1.000000
vn -1.000000 0.000000 -0.000000
vn -1.000000 0.000000 -0.000000
vn -1.000000 0.000000 -0.000000
vn -1.000000 0.000000 -0.000000
vn -0.000000 -0.000000 -1.000000
vn -0.000000 -0.000000 -1.000000
vn -0.000000 -0.000000 -1.000000
vn -0.000000 -0.000000 -1.000000
vn 1.000000 -0.000000 -0.000000
vn 1.000000 -0.000000 -0.000000
vn 1.000000 -0.000000 -0.000000
vn 1.000000 -0.000000 -0.000000
vn -0.000000 -0.000000 1.000000
vn -0.000000 -0.000000 1.000000
vn -0.000000 -0.000000 1.000000
vn -0.000000 -0.000000 1.000000
vn -0.000000 -1.000000 -0.000000
vn -0.000000 -1.000000 -0.000000
vn -0.000000 -1.000000 -0.000000
vn -0.000000 -1.000000 -0.000000
vn -0.000000 -1.000000 -0.000000
vn -0.000000 -1.000000 -0.000000
vn -0.000000 -1.000000 -0.000000
vn -0.000000 -1.000000 -0.000000
vn -0.000000 -1.000000 -0.000000
vn -0.000000 -1.000000 -0.000000
vn -0.000000 -1.000000 -0.000000
vn -0.000000 -1.000000 -0.000000
vn -0.000000 -1.000000 -0.000000
vn -0.000000 -1.000000 -0.000000
vn -0.000000 -1.000000 -0.000000
vn -0.000000 -1.000000 -0.000000
vn -0.000000 -1.000000 -0.000000
vn -0.000000 -1.000000 -0.000000
vn -0.000000 -1.000000 -0.000000
vn -0.000000 -1.000000 -0.000000
vn -0.000000 -1.000000 -0.000000
vn -0.000000 -1.000000 -0.000000
vn -0.000000 -1.000000 -0.000000
vn -0.000000 -1.000000 -0.000000
vn 0.965926 -0.000000 0.258819
vn 0.965926 -0.000000 0.258819
vn 1.000000 -0.000000 0.000000
vn 1.000000 -0.000000 0.000000
vn 0.965926 -0.000000 -0.258819
vn 0.965926 -0.000000 -0.258819
vn 0.866025 -0.000000 -0.500000
vn 0.866025 -0.000000 -0.500000
vn 0.707107 -0.000000 -0.707107
vn 0.707107 -0.000000 -0.707107
vn 0.500000 -0.000000 -0.866025
vn 0.500000 -0.000000 -0.866025
vn 0.258819 -0.000000 -0.965926
vn 0.258819 -0.000000 -0.965926
vn -0.000000 0.000000 -1.000000
vn -0.000000 0.000000 -1.000000
vn -0.258819 0.000000 -0.965926
vn -0.258819 0.000000 -0.965926
vn -0.500000 0.000000 -0.866025
vn -0.500000 0.000000 -0.866025
vn -0.707107 0.000000 -0.707107
vn -0.707107 0.000000 -0.707107
vn -0.866025 0.000000 -0.500000
vn -0.866025 0.000000 -0.500000
vn -0.965926 0.000000 -0.258819
vn -0.965926 0.000000 -0.258819
vn -1.000000 -0.000000 0.000000
vn -1.000000 -0.000000 0.000000
vn -0.965926 -0.000000 0.258819
vn -0.965926 -0.000000 0.258819
vn -0.866025 -0.000000 0.500000
vn -0.866025 -0.000000 0.500000
vn -0.707107 -0.000000 0.707107
vn -0.707107 -0.000000 0.707107
vn -0.500000 -0.000000 0.866025
vn -0.500000 -0.000000 0.866025
vn -0.258819 -0.000000 0.965926
vn -0.258819 -0.000000 0.965926
vn -0.000000 -0.000000 1.000000
vn -0.000000 -0.000000 1.000000
vn 0.258819 -0.000000 0.965926
vn 0.258819 -0.000000 0.965926
vn 0.500000 -0.000000 0.866025
vn 0.500000 -0.000000 0.866025
vn 0.707107 -0.000000 0.707107
vn 0.707107 -0.000000 0.707107
vn 0.866025 -0.000000 0.500000
vn 0.866025 -0.000000 0.500000
vn 0.000000 1.000000 0.000000
vn 0.000000 1.000000 0.000000
vn 0.000000 1.000000 0.000000
vn 0.000000 1.000000 0.000000
vn 0.000000 1.000000 0.000000
vn 0.000000 1.000000 0.000000
vn 0.000000 1.000000 0.000000
vn 0.000000 1.000000 0.000000
vn 0.000000 1.000000 0.000000
vn 0.000000 1.000000 0.000000
vn 0.000000 1.000000 0.000000
vn 0.000000 1.000000 0.000000
vn 0.000000 1.000000 0.000000
vn 0.000000 1.000000 0.000000
vn 0.000000 1.000000 0.000000
vn 0.000000 1.000000 0.000000
vn 0.000000 1.000000 0.000000
vn 0.000000 1.000000 0.000000
vn 0.000000 1.000000 0.000000
vn 0.000000 1.000000 0.000000
vn 0.000000 1.000000 0.000000
vn 0.000000 1.000000 0.000000
vn 0.000000 1.000000 0.000000
vn 0.000000 1.000000 0.000000
vn -0.965926 0.000000 0.258819
vn -0.965926 0.000000 0.258819
vn -1.000000 0.000000 0.000000
vn -1.000000 0.000000 0.000000
vn -0.965926 -0.000000 -0.258819
vn -0.965926 -0.000000 -0.258819
vn -0.866025 -0.000000 -0.500000
vn -0.866025 -0.000000 -0.500000
vn -0.707107 -0.000000 -0.707107
vn -0.707107 -0.000000 -0.707107
vn -0.500000 -0.000000 -0.866025
vn -0.500000 -0.000000 -0.866025
vn -0.258819 -0.000000 -0.965926
vn -0.258819 -0.000000 -0.965926
vn 0.000000 0.000000 -1.000000
vn 0.000000 0.000000 -1.000000
vn 0.258819 0.000000 -0.965926
vn 0.258819 0.000000 -0.965926
vn 0.500000 0.000000 -0.866025
vn 0.500000 0.000000 -0.866025
vn 0.707107 0.000000 -0.707107
vn 0.707107 0.000000 -0.707107
vn 0.866025 0.000000 -0.500000
vn 0.866025 0.000000 -0.500000
vn 0.965926 0.000000 -0.258819
vn 0.965926 0.000000 -0.258819
vn 1.000000 0.000000 0.000000
vn 1.000000 0.000000 0.000000
vn 0.965926 0.000000 0.258819
vn 0.965926 0.000000 0.258819
vn 0.866025 0.000000 0.500000
vn 0.866025 0.000000 0.500000
vn 0.707107 0.000000 0.707107
vn 0.707107 0.000000 0.707107
vn 0.500000 0.000000 0.866025
vn 0.500000 0.000000 0.866025
vn 0.258819 0.000000 0.965926
vn 0.258819 0.000000 0.965926
vn 0.000000 0.000000 1.000000
vn 0.000000 0.000000 1.000000
vn -0.258819 0.000000 0.965926
vn -0.258819 0.000000 0.965926
vn -0.500000 0.000000 0.866025
vn -0.500000 0.000000 0.866025
vn -0.707107 0.000000 0.707107
vn -0.707107 0.000000 0.707107
vn -0.866025 0.000000 0.500000
vn -0.866025 0.000000 0.500000
vn 1.000000 0.000000 0.000000
vn 1.000000 0.000000 0.000000
vn 1.000000 0.000000 0.000000
vn 1.000000 0.000000 0.000000
vn 0.000000 0.000000 1.000000
vn 0.000000 0.000000 1.000000
vn 0.000000 0.000000 1.000000
vn 0.000000 0.000000 1.000000
vn -1.000000 -0.000000 0.000000
vn -1.000000 -0.000000 0.000000
vn -1.000000 -0.000000 0.000000
vn -1.000000 -0.000000 0.000000
vn 0.419058 -0.000000 -0.907959
vn 0.419058 -0.000000 -0.907959
vn 0.419058 -0.000000 -0.907959
vn 0.419058 -0.000000 -0.907959
vn 0.000000 0.000000 1.000000
vn 0.000000 0.000000 1.000000
vn 0.000000 0.000000 1.000000
vn 0.000000 0.000000 1.000000
vn -1.000000 -0.000000 0.000000
vn -1.000000 -0.000000 0.000000
vn -1.000000 -0.000000 0.000000
vn -1.000000 -0.000000 0.000000
vn 0.664364 -0.000000 -0.747409
vn 0.664364 -0.000000 -0.747409
vn 0.664364 -0.000000 -0.747409
vn 0.664364 -0.000000 -0.747409
vn -0.000000 -0.000000 -1.000000
vn -0.000000 -0.000000 -1.000000
vn -0.000000 -0.000000 -1.000000
vn -0.000000 -0.000000 -1.000000
vn 1.000000 0.000000 0.000000
vn 1.000000 0.000000 0.000000
vn 1.000000 0.000000 0.000000
vn 1.000000 0.000000 0.000000
vn -0.419058 -0.000000 0.907959
vn -0.419058 -0.000000 0.907959
vn -0.419058 -0.000000 0.907959
vn -0.419058 -0.000000 0.907959
vn -0.002734 -0.000000 0.999996
vn -0.002734 -0.000000 0.999996
vn 0.236865 -0.000000 0.971543
vn 0.236865 -0.000000 0.971543
vn 0.462674 -0.000000 0.886529
vn 0.462674 -0.000000 0.886529
vn 0.661547 -0.000000 0.749903
vn 0.661547 -0.000000 0.749903
vn 0.821907 -0.000000 0.569621
vn 0.821907 -0.000000 0.569621
vn 0.934418 -0.000000 0.356177
vn 0.934418 -0.000000 0.356177
vn 0.992530 -0.000000 0.121998
vn 0.992530 -0.000000 0.121998
vn 0.992860 -0.000000 -0.119284
vn 0.992860 -0.000000 -0.119284
vn 0.935389 -0.000000 -0.353622
vn 0.935389 -0.000000 -0.353622
vn 0.823461 -0.000000 -0.567372
vn 0.823461 -0.000000 -0.567372
vn 0.663595 -0.000000 -0.748092
vn 0.663595 -0.000000 -0.748092
vn 0.465096 -0.000000 -0.885261
vn 0.465096 -0.000000 -0.885261
vn 0.239520 -0.000000 -0.970891
vn 0.239520 -0.000000 -0.970891
vn -0.000000 0.000000 -1.000000
vn -0.000000 0.000000 -1.000000
vn 0.000000 0.000000 -1.000000
vn 0.000000 0.000000 -1.000000
vn 0.000000 0.000000 -1.000000
vn 0.000000 0.000000 -1.000000
vn -0.191395 0.000000 0.981513
vn -0.185578 0.000000 0.982630
vn -0.191395 0.000000 0.981513
vn -0.185578 0.000000 0.982630
vn -0.178879 0.000000 0.983871
vn -0.178879 0.000000 0.983871
vn -0.171207 0.000000 0.985235
vn -0.171207 0.000000 0.985235
vn -0.162489 0.000000 0.986710
vn -0.162489 0.000000 0.986710
vn -0.152688 0.000000 0.988274
vn -0.152688 0.000000 0.988274
vn -0.141840 0.000000 0.989890
vn -0.141840 0.000000 0.989890
vn -0.130060 0.000000 0.991506
vn -0.130060 0.000000 0.991506
vn -0.117547 0.000000 0.993067
vn -0.117547 0.000000 0.993067
vn -0.091492 0.000000 0.995806
vn -0.091492 0.000000 0.995806
vn -0.066166 0.000000 0.997809
vn -0.066166 0.000000 0.997809
vn -0.054425 0.000000 0.998518
vn -0.054425 0.000000 0.998518
vn -0.043493 0.000000 0.999054
vn -0.043493 0.000000 0.999054
vn -0.033424 0.000000 0.999441
vn -0.033424 0.000000 0.999441
vn -0.024221 0.000000 0.999707
vn -0.024221 0.000000 0.999707
vn -0.965926 -0.000000 -0.258819
vn -0.965926 -0.000000 -0.258819
vn -1.000000 -0.000000 -0.000000
vn -1.000000 -0.000000 -0.000000
vn -0.965926 0.000000 0.258819
vn -0.965926 0.000000 0.258819
vn -0.866025 0.000000 0.500000
vn -0.866025 0.000000 0.500000
vn -0.707107 0.000000 0.707107
vn -0.707107 0.000000 0.707107
vn -0.500000 0.000000 0.866025
vn -0.500000 0.000000 0.866025
vn -0.258819 0.000000 0.965926
vn -0.258819 0.000000 0.965926
vn 0.000000 0.000000 1.000000
vn 0.000000 0.000000 1.000000
vn 0.258819 0.000000 0.965926
vn 0.258819 0.000000 0.965926
vn 0.500000 0.000000 0.866025
vn 0.500000 0.000000 0.866025
vn 0.707107 0.000000 0.707107
vn 0.707107 0.000000 0.707107
vn 0.866025 0.000000 0.500000
vn 0.866025 0.000000 0.500000
vn 0.965926 0.000000 0.258819
vn 0.965926 0.000000 0.258819
vn 1.000000 0.000000 0.000000
vn 1.000000 0.000000 0.000000
vn 0.965926 0.000000 -0.258819
vn 0.965926 0.000000 -0.258819
vn 0.866025 0.000000 -0.500000
vn 0.866025 0.000000 -0.500000
vn 0.707107 0.000000 -0.707107
vn 0.707107 0.000000 -0.707107
vn 0.500000 0.000000 -0.866025
vn 0.500000 0.000000 -0.866025
vn 0.258819 0.000000 -0.965926
vn 0.258819 0.000000 -0.965926
vn 0.000000 0.000000 -1.000000
vn 0.000000 0.000000 -1.000000
vn -0.258819 -0.000000 -0.965926
vn -0.258819 -0.000000 -0.965926
vn -0.500000 -0.000000 -0.866025
vn -0.500000 -0.000000 -0.866025
vn -0.707107 -0.000000 -0.707107
vn -0.707107 -0.000000 -0.707107
vn -0.866025 -0.000000 -0.500000
vn -0.866025 -0.000000 -0.500000
vn -0.965926 -0.000000 -0.258819
vn -0.965926 -0.000000 -0.258819
vn -1.000000 -0.000000 -0.000000
vn -1.000000 -0.000000 -0.000000
vn -0.965926 0.000000 0.258819
vn -0.965926 0.000000 0.258819
vn -0.866025 0.000000 0.500000
vn -0.866025 0.000000 0.500000
vn -0.707107 0.000000 0.707107
vn -0.707107 0.000000 0.707107
vn -0.500000 0.000000 0.866025
vn -0.500000 0.000000 0.866025
vn -0.258819 0.000000 0.965926
vn -0.258819 0.000000 0.965926
vn 0.000000 0.000000 1.000000
vn 0.000000 0.000000 1.000000
vn 0.258819 0.000000 0.965926
vn 0.258819 0.000000 0.965926
vn 0.500000 0.000000 0.866025
vn 0.500000 0.000000 0.866025
vn 0.707107 0.000000 0.707107
vn 0.707107 0.000000 0.707107
vn 0.866025 0.000000 0.500000
vn 0.866025 0.000000 0.500000
vn 0.965926 0.000000 0.258819
vn 0.965926 0.000000 0.258819
vn 1.000000 0.000000 0.000000
vn 1.000000 0.000000 0.000000
vn 0.965926 0.000000 -0.258819
vn 0.965926 0.000000 -0.258819
vn 0.866025 0.000000 -0.500000
vn 0.866025 0.000000 -0.500000
vn 0.707107 0.000000 -0.707107
vn 0.707107 0.000000 -0.707107
vn 0.500000 0.000000 -0.866025
vn 0.500000 0.000000 -0.866025
vn 0.258819 0.000000 -0.965926
vn 0.258819 0.000000 -0.965926
vn 0.000000 0.000000 -1.000000
vn 0.000000 0.000000 -1.000000
vn -0.258819 -0.000000 -0.965926
vn -0.258819 -0.000000 -0.965926
vn -0.500000 -0.000000 -0.866025
vn -0.500000 -0.000000 -0.866025
vn -0.707107 -0.000000 -0.707107
vn -0.707107 -0.000000 -0.707107
vn -0.866025 -0.000000 -0.500000
vn -0.866025 -0.000000 -0.500000
vn -0.971317 -0.000000 -0.237788
vn -0.971317 -0.000000 -0.237788
vn -0.971317 -0.000000 -0.237788
vn -0.971317 -0.000000 -0.237788
vn 0.237788 -0.000000 -0.971317
vn 0.237788 -0.000000 -0.971317
vn 0.237788 -0.000000 -0.971317
vn 0.237788 -0.000000 -0.971317
vn -0.000000 -0.000000 1.000000
vn -0.000000 -0.000000 1.000000
vn -0.000000 -0.000000 1.000000
vn -0.000000 -0.000000 1.000000
vn -0.971317 -0.000000 -0.237788
vn -0.971317 -0.000000 -0.237788
vn -0.971317 -0.000000 -0.237788
vn -0.971317 -0.000000 -0.237788
vn 0.237788 -0.000000 -0.971317
vn 0.237788 -0.000000 -0.971317
vn 0.237788 -0.000000 -0.971317
vn 0.237788 -0.000000 -0.971317
vn 0.971317 0.000000 0.237788
vn 0.971317 0.000000 0.237788
vn 0.971317 0.000000 0.237788
vn 0.971317 0.000000 0.237788
vn -0.000000 -0.000000 1.000000
vn -0.000000 -0.000000 1.000000
vn -0.000000 -0.000000 1.000000
vn -0.000000 -0.000000 1.000000
vn -0.971317 -0.000000 -0.237788
vn -0.971317 -0.000000 -0.237788
vn -0.971317 -0.000000 -0.237788
vn -0.971317 -0.000000 -0.237788
vn 0.237788 -0.000000 -0.971317
vn 0.237788 -0.000000 -0.971317
vn 0.237788 -0.000000 -0.971317
vn 0.237788 -0.000000 -0.971317
vn 0.971317 0.000000 0.237788
vn 0.971317 0.000000 0.237788
vn 0.971317 0.000000 0.237788
vn 0.971317 0.000000 0.237788
vn -0.000000 -0.000000 1.000000
vn -0.000000 -0.000000 1.000000
vn -0.000000 -0.000000 1.000000
vn -0.000000 -0.000000 1.000000
vn -0.971317 -0.000000 -0.237788
vn -0.971317 -0.000000 -0.237788
vn -0.971317 -0.000000 -0.237788
vn -0.971317 -0.000000 -0.237788
vn 0.237788 -0.000000 -0.971317
vn 0.237788 -0.000000 -0.971317
vn 0.237788 -0.000000 -0.971317
vn 0.237788 -0.000000 -0.971317
vn 0.971317 0.000000 0.237788
vn 0.971317 0.000000 0.237788
vn 0.971317 0.000000 0.237788
vn 0.971317 0.000000 0.237788
vn -0.000000 -0.000000 1.000000
vn -0.000000 -0.000000 1.000000
vn -0.000000 -0.000000 1.000000
vn -0.000000 -0.000000 1.000000
vn -0.000000 -0.000000 -1.000000
vn -0.000000 -0.000000 -1.000000
vn -0.000000 -0.000000 -1.000000
vn -0.000000 -0.000000 -1.000000
vn 0.000000 1.000000 0.000000
vn 0.000000 1.000000 0.000000
vn 0.000000 1.000000 0.000000
vn 0.000000 1.000000 0.000000
vn 0.000000 1.000000 0.000000
vn 0.000000 1.000000 0.000000
vn 0.000000 1.000000 0.000000
vn 0.000000 1.000000 0.000000
vn 0.000000 1.000000 0.000000
vn 0.000000 1.000000 0.000000
vn 0.000000 1.000000 0.000000
vn 0.000000 1.000000 0.000000
vn 0.000000 1.000000 0.000000
vn 0.000000 1.000000 0.000000
vn 0.000000 1.000000 0.000000
vn 0.000000 1.000000 0.000000
vn 0.000000 1.000000 0.000000
vn 0.000000 1.000000 0.000000
vn 0.000000 1.000000 0.000000
vn 0.000000 1.000000 0.000000
vn 0.000000 1.000000 0.000000
vn 0.000000 1.000000 0.000000
vn 0.000000 1.000000 0.000000
vn 0.000000 1.000000 0.000000
vn 0.000000 1.000000 0.000000
vn 0.000000 1.000000 0.000000
vn 0.000000 1.000000 0.000000
vn 0.000000 1.000000 0.000000
vn 0.000000 1.000000 0.000000
vn 0.000000 1.000000 0.000000
vn 0.000000 1.000000 0.000000
vn 0.000000 1.000000 0.000000
vn 0.000000 1.000000 0.000000
vn 0.000000 1.000000 0.000000
vn 0.000000 1.000000 0.000000
vn 0.000000 1.000000 0.000000
vn 0.000000 1.000000 0.000000
vn 0.000000 1.000000 0.000000
vn 0.000000 1.000000 0.000000
vn 0.000000 1.000000 0.000000
vn 0.000000 1.000000 0.000000
vn 0.000000 1.000000 0.000000
vn 0.000000 1.000000 0.000000
vn 0.000000 1.000000 0.000000
vn 0.000000 1.000000 0.000000
vn 0.000000 1.000000 0.000000
vn 0.000000 1.000000 0.000000
vn 0.000000 1.000000 0.000000
vn 0.000000 1.000000 0.000000
vn 0.000000 1.000000 0.000000
vn 0.000000 1.000000 0.000000
vn 0.000000 1.000000 0.000000
vn 0.000000 1.000000 0.000000
vn 0.000000 1.000000 0.000000
vn 0.000000 1.000000 0.000000
vn 0.000000 1.000000 0.000000
vn 0.000000 1.000000 0.000000
vn 0.000000 1.000000 0.000000
vn 0.000000 1.000000 0.000000
vn 0.000000 1.000000 0.000000
vn 0.000000 1.000000 0.000000
vn 0.000000 1.000000 0.000000
vn 0.000000 1.000000 0.000000
vn 0.000000 1.000000 0.000000
vn 0.000000 1.000000 0.000000
vn 0.000000 1.000000 0.000000
vn 0.000000 1.000000 0.000000
vn 0.000000 1.000000 0.000000
vn 0.000000 1.000000 0.000000
vn 0.000000 1.000000 0.000000
vn 0.000000 1.000000 0.000000
vn 0.000000 1.000000 0.000000
vn 0.000000 1.000000 0.000000
vn 0.000000 1.000000 0.000000
vn 0.000000 1.000000 0.000000
vn 0.000000 1.000000 0.000000
vn 0.000000 1.000000 0.000000
vn 0.000000 1.000000 0.000000
vn 0.000000 1.000000 0.000000
vn 0.000000 1.000000 0.000000
vn 0.000000 1.000000 0.000000
vn 0.000000 1.000000 0.000000
vn 0.000000 1.000000 0.000000
vn 0.000000 1.000000 0.000000
vn 0.000000 1.000000 0.000000
vn 0.000000 1.000000 0.000000
vn 0.000000 1.000000 0.000000
vn 0.000000 1.000000 0.000000
vn 0.000000 1.000000 0.000000
vn 0.000000 1.000000 0.000000
vn 0.000000 1.000000 0.000000
vn 0.000000 1.000000 0.000000
vn 0.000000 1.000000 0.000000
vn 0.000000 1.000000 0.000000
vn 0.000000 1.000000 0.000000
vn 0.000000 1.000000 0.000000
vn 0.000000 1.000000 0.000000
vn 0.000000 1.000000 0.000000
vn 0.000000 1.000000 0.000000
vn 0.000000 1.000000 0.000000
vn 0.000000 1.000000 0.000000
vn 0.000000 1.000000 0.000000
vn 0.000000 1.000000 0.000000
vn 0.000000 1.000000 0.000000
vn 0.000000 1.000000 0.000000
vn 0.000000 1.000000 0.000000
vn 0.000000 1.000000 0.000000
vn 0.000000 1.000000 0.000000
vn 0.000000 1.000000 0.000000
vn 0.000000 1.000000 0.000000
vn 0.000000 1.000000 0.000000
vn 0.000000 1.000000 0.000000
vn 0.000000 1.000000 0.000000
vn 0.000000 1.000000 0.000000
vn 0.000000 1.000000 0.000000
vn 0.000000 1.000000 0.000000
vn 0.000000 1.000000 0.000000
vn 0.000000 1.000000 0.000000
vn 0.000000 1.000000 0.000000
vn 0.000000 1.000000 0.000000
vn 0.000000 1.000000 0.000000
vn 0.000000 1.000000 0.000000
vn 0.000000 1.000000 0.000000
vn 0.000000 1.000000 0.000000
vn 0.000000 1.000000 0.000000
vn 0.000000 1.000000 0.000000
vn 0.000000 1.000000 0.000000
vn 0.000000 1.000000 0.000000
vn 0.000000 1.000000 0.000000
vn 0.000000 1.000000 0.000000
vn 0.000000 1.000000 0.000000
vn 0.000000 1.000000 0.000000
vn 0.000000 1.000000 0.000000
vn 0.000000 1.000000 0.000000
vn 0.000000 1.000000 0.000000
vn 0.000000 1.000000 0.000000
vn 0.000000 1.000000 0.000000
vn 0.000000 1.000000 0.000000
vn 0.000000 1.000000 0.000000
vn 0.000000 1.000000 0.000000
vn 0.000000 1.000000 0.000000
vn 0.000000 1.000000 0.000000
vn 0.000000 1.000000 0.000000
vn 0.000000 1.000000 0.000000
vn -0.664364 -0.000000 0.747409
vn -0.664364 -0.000000 0.747409
vn -0.664364 -0.000000 0.747409
vn -0.664364 -0.000000 0.747409
vn -0.000000 -1.000000 -0.000000
vn -0.000000 -1.000000 -0.000000
vn -0.000000 -1.000000 -0.000000
vn -0.000000 -1.000000 -0.000000
vn -0.000000 -1.000000 -0.000000
vn -0.000000 -1.000000 -0.000000
vn -0.000000 -1.000000 -0.000000
vn -0.000000 -1.000000 -0.000000
vn -0.000000 -1.000000 -0.000000
vn -0.000000 -1.000000 -0.000000
vn -0.000000 -1.000000 -0.000000
vn -0.000000 -1.000000 -0.000000
vn -0.000000 -1.000000 -0.000000
vn -0.000000 -1.000000 -0.000000
vn -0.000000 -1.000000 -0.000000
vn -0.000000 -1.000000 -0.000000
vn -0.000000 -1.000000 -0.000000
vn -0.000000 -1.000000 -0.000000
vn -0.000000 -1.000000 -0.000000
vn -0.000000 -1.000000 -0.000000
vn -0.000000 -1.000000 -0.000000
vn -0.000000 -1.000000 -0.000000
vn -0.000000 -1.000000 -0.000000
vn -0.000000 -1.000000 -0.000000
vn -0.000000 -1.000000 -0.000000
vn -0.000000 -1.000000 -0.000000
vn -0.000000 -1.000000 -0.000000
vn -0.000000 -1.000000 -0.000000
vn -0.000000 -1.000000 -0.000000
vn -0.000000 -1.000000 -0.000000
vn -0.000000 -1.000000 -0.000000
vn -0.000000 -1.000000 -0.000000
vn -0.000000 -1.000000 -0.000000
vn -0.000000 -1.000000 -0.000000
vn -0.000000 -1.000000 -0.000000
vn -0.000000 -1.000000 -0.000000
vn -0.000000 -1.000000 -0.000000
vn -0.000000 -1.000000 -0.000000
vn -0.000000 -1.000000 -0.000000
vn -0.000000 -1.000000 -0.000000
vn -0.000000 -1.000000 -0.000000
vn -0.000000 -1.000000 -0.000000
vn -0.000000 -1.000000 -0.000000
vn -0.000000 -1.000000 -0.000000
vn -0.000000 -1.000000 -0.000000
vn -0.000000 -1.000000 -0.000000
vn -0.000000 -1.000000 -0.000000
vn -0.000000 -1.000000 -0.000000
vn -0.000000 -1.000000 -0.000000
vn -0.000000 -1.000000 -0.000000
vn -0.000000 -1.000000 -0.000000
vn -0.000000 -1.000000 -0.000000
vn -0.000000 -1.000000 -0.000000
vn -0.000000 -1.000000 -0.000000
vn -0.000000 -1.000000 -0.000000
vn -0.000000 -1.000000 -0.000000
vn -0.000000 -1.000000 -0.000000
vn -0.000000 -1.000000 -0.000000
vn -0.000000 -1.000000 -0.000000
vn -0.000000 -1.000000 -0.000000
vn -0.000000 -1.000000 -0.000000
vn -0.000000 -1.000000 -0.000000
vn -0.000000 -1.000000 -0.000000
vn -0.000000 -1.000000 -0.000000
vn -0.000000 -1.000000 -0.000000
vn -0.000000 -1.000000 -0.000000
vn -0.000000 -1.000000 -0.000000
vn -0.000000 -1.000000 -0.000000
vn -0.000000 -1.000000 -0.000000
vn -0.000000 -1.000000 -0.000000
vn -0.000000 -1.000000 -0.000000
vn -0.000000 -1.000000 -0.000000
vn -0.000000 -1.000000 -0.000000
vn -0.000000 -1.000000 -0.000000
vn -0.000000 -1.000000 -0.000000
vn -0.000000 -1.000000 -0.000000
vn -0.000000 -1.000000 -0.000000
vn -0.000000 -1.000000 -0.000000
vn -0.000000 -1.000000 -0.000000
vn -0.000000 -1.000000 -0.000000
vn -0.000000 -1.000000 -0.000000
vn -0.000000 -1.000000 -0.000000
vn -0.000000 -1.000000 -0.000000
vn -0.000000 -1.000000 -0.000000
vn -0.000000 -1.000000 -0.000000
vn -0.000000 -1.000000 -0.000000
vn -0.000000 -1.000000 -0.000000
vn -0.000000 -1.000000 -0.000000
vn -0.000000 -1.000000 -0.000000
vn -0.000000 -1.000000 -0.000000
vn -0.000000 -1.000000 -0.000000
vn -0.000000 -1.000000 -0.000000
vn -0.000000 -1.000000 -0.000000
vn -0.000000 -1.000000 -0.000000
vn -0.000000 -1.000000 -0.000000
vn -0.000000 -1.000000 -0.000000
vn -0.000000 -1.000000 -0.000000
vn -0.000000 -1.000000 -0.000000
vn -0.000000 -1.000000 -0.000000
vn -0.000000 -1.000000 -0.000000
vn -0.000000 -1.000000 -0.000000
vn -0.000000 -1.000000 -0.000000
vn -0.000000 -1.000000 -0.000000
vn -0.000000 -1.000000 -0.000000
vn -0.000000 -1.000000 -0.000000
vn -0.000000 -1.000000 -0.000000
vn -0.000000 -1.000000 -0.000000
vn -0.000000 -1.000000 -0.000000
vn -0.000000 -1.000000 -0.000000
vn -0.000000 -1.000000 -0.000000
vn -0.000000 -1.000000 -0.000000
vn -0.000000 -1.000000 -0.000000
vn -0.000000 -1.000000 -0.000000
vn -0.000000 -1.000000 -0.000000
vn -0.000000 -1.000000 -0.000000
vn -0.000000 -1.000000 -0.000000
vn -0.000000 -1.000000 -0.000000
vn -0.000000 -1.000000 -0.000000
vn -0.000000 -1.000000 -0.000000
vn -0.000000 -1.000000 -0.000000
vn -0.000000 -1.000000 -0.000000
vn -0.000000 -1.000000 -0.000000
vn -0.000000 -1.000000 -0.000000
vn -0.000000 -1.000000 -0.000000
vn -0.000000 -1.000000 -0.000000
vn -0.000000 -1.000000 -0.000000
vn -0.000000 -1.000000 -0.000000
vn -0.000000 -1.000000 -0.000000
vn -0.000000 -1.000000 -0.000000
vn -0.000000 -1.000000 -0.000000
vn -0.000000 -1.000000 -0.000000
vn -0.000000 -1.000000 -0.000000
vn -0.000000 -1.000000 -0.000000
vn -0.000000 -1.000000 -0.000000
vn -0.000000 -1.000000 -0.000000
vn -0.000000 -1.000000 -0.000000
vn -0.000000 -1.000000 -0.000000
vn -0.000000 -1.000000 -0.000000
vn -0.000000 -1.000000 -0.000000
vn -0.000000 -1.000000 -0.000000
vn -0.000000 -1.000000 -0.000000
vn -0.000000 -1.000000 -0.000000
vn -0.000000 -1.000000 -0.000000
vn -0.000000 -1.000000 -0.000000
vn -0.000000 -1.000000 -0.000000
usemtl Steel_-_Satin
f 1/1/1 2/2/2 4/3/3
f 4/3/3 2/2/2 3/4/4
f 5/5/5 1/6/6 6/7/7
f 6/7/7 1/6/6 4/8/8
f 7/9/9 5/10/10 8/11/11
f 8/11/11 5/10/10 6/12/12
f 2/13/13 7/14/14 3/15/15
f 3/15/15 7/14/14 8/16/16
f 9/17/17 10/18/18 12/19/19
f 12/19/19 10/18/18 11/20/20
f 13/21/21 9/22/22 14/23/23
f 14/23/23 9/22/22 12/24/24
f 15/25/25 13/26/26 16/27/27
f 16/27/27 13/26/26 14/28/28
f 10/29/29 15/30/30 11/31/31
f 11/31/31 15/30/30 16/32/32
f 17/33/33 18/34/34 20/35/35
f 20/35/35 18/34/34 19/36/36
f 21/37/37 17/38/38 22/39/39
f 22/39/39 17/38/38 20/40/40
f 23/41/41 21/42/42 24/43/43
f 24/43/43 21/42/42 22/44/44
f 18/45/45 23/46/46 19/47/47
f 19/47/47 23/46/46 24/48/48
f 25/49/49 26/50/50 28/51/51
f 28/51/51 26/50/50 27/52/52
f 29/53/53 25/54/54 30/55/55
f 30/55/55 25/54/54 28/56/56
f 31/57/57 29/58/58 32/59/59
f 32/59/59 29/58/58 30/60/60
f 26/61/61 31/62/62 27/63/63
f 27/63/63 31/62/62 32/64/64
f 34/65/65 44/66/66 33/67/67
f 33/67/67 44/66/66 45/68/68
f 33/67/67 45/68/68 56/69/69
f 56/69/69 45/68/68 46/70/70
f 56/69/69 46/70/70 55/71/71
f 55/71/71 46/70/70 47/72/72
f 55/71/71 47/72/72 54/73/73
f 54/73/73 47/72/72 48/74/74
f 54/73/73 48/74/74 53/75/75
f 53/75/75 48/74/74 49/76/76
f 53/75/75 49/76/76 52/77/77
f 52/77/77 49/76/76 50/78/78
f 52/77/77 50/78/78 51/79/79
f 44/66/66 34/65/65 43/80/80
f 43/80/80 34/65/65 35/81/81
f 43/80/80 35/81/81 42/82/82
f 42/82/82 35/81/81 36/83/83
f 42/82/82 36/83/83 41/84/84
f 41/84/84 36/83/83 37/85/85
f 41/84/84 37/85/85 40/86/86
f 40/86/86 37/85/85 38/87/87
f 40/86/86 38/87/87 39/88/88
f 58/89/89 104/90/90 57/91/91
f 57/91/91 104/90/90 81/92/92
f 57/93/91 81/94/92 80/95/93
f 80/95/93 81/94/92 82/96/94
f 80/95/93 82/96/94 79/97/95
f 79/97/95 82/96/94 83/98/96
f 79/97/95 83/98/96 78/99/97
f 78/99/97 83/98/96 84/100/98
f 78/99/97 84/100/98 77/101/99
f 77/101/99 84/100/98 85/102/100
f 77/101/99 85/102/100 76/103/101
f 76/103/101 85/102/100 86/104/102
f 76/103/101 86/104/102 75/105/103
f 75/105/103 86/104/102 87/106/104
f 75/105/103 87/106/104 74/107/105
f 74/107/105 87/106/104 88/108/106
f 74/107/105 88/108/106 73/109/107
f 73/109/107 88/108/106 89/110/108
f 73/109/107 89/110/108 72/111/109
f 72/111/109 89/110/108 90/112/110
f 72/111/109 90/112/110 71/113/111
f 71/113/111 90/112/110 91/114/112
f 71/113/111 91/114/112 70/115/113
f 70/115/113 91/114/112 92/116/114
f 70/115/113 92/116/114 69/117/115
f 69/117/115 92/116/114 93/118/116
f 69/117/115 93/118/116 68/119/117
f 68/119/117 93/118/116 94/120/118
f 68/119/117 94/120/118 67/121/119
f 67/121/119 94/120/118 95/122/120
f 67/121/119 95/122/120 66/123/121
f 66/123/121 95/122/120 96/124/122
f 66/123/121 96/124/122 65/125/123
f 65/125/123 96/124/122 97/126/124
f 65/125/123 97/126/124 64/127/125
f 64/127/125 97/126/124 98/128/126
f 64/127/125 98/128/126 63/129/127
f 63/129/127 98/128/126 99/130/128
f 63/129/127 99/130/128 62/131/129
f 62/131/129 99/130/128 100/132/130
f 62/131/129 100/132/130 61/133/131
f 61/133/131 100/132/130 101/134/132
f 61/133/131 101/134/132 60/135/133
f 60/135/133 101/134/132 102/136/134
f 60/135/133 102/136/134 59/137/135
f 59/137/135 102/136/134 103/138/136
f 59/137/135 103/138/136 58/89/89
f 58/89/89 103/138/136 104/90/90
f 80/139/137 70/140/138 57/141/139
f 57/141/139 70/140/138 69/142/140
f 57/141/139 69/142/140 58/143/141
f 58/143/141 69/142/140 68/144/142
f 58/143/141 68/144/142 59/145/143
f 59/145/143 68/144/142 67/146/144
f 59/145/143 67/146/144 60/147/145
f 60/147/145 67/146/144 66/148/146
f 60/147/145 66/148/146 61/149/147
f 61/149/147 66/148/146 65/150/148
f 61/149/147 65/150/148 62/151/149
f 62/151/149 65/150/148 64/152/150
f 62/151/149 64/152/150 63/153/151
f 70/140/138 80/139/137 71/154/152
f 71/154/152 80/139/137 79/155/153
f 71/154/152 79/155/153 72/156/154
f 72/156/154 79/155/153 78/157/155
f 72/156/154 78/157/155 73/158/156
f 73/158/156 78/157/155 77/159/157
f 73/158/156 77/159/157 74/160/158
f 74/160/158 77/159/157 76/161/159
f 74/160/158 76/161/159 75/162/160
f 56/163/161 128/164/162 33/165/163
f 33/165/163 128/164/162 105/166/164
f 33/167/163 105/168/164 34/169/165
f 34/169/165 105/168/164 106/170/166
f 34/169/165 106/170/166 35/171/167
f 35/171/167 106/170/166 107/172/168
f 35/171/167 107/172/168 36/173/169
f 36/173/169 107/172/168 108/174/170
f 36/173/169 108/174/170 37/175/171
f 37/175/171 108/174/170 109/176/172
f 37/175/171 109/176/172 38/177/173
f 38/177/173 109/176/172 110/178/174
f 38/177/173 110/178/174 39/179/175
f 39/179/175 110/178/174 111/180/176
f 39/179/175 111/180/176 40/181/177
f 40/181/177 111/180/176 112/182/178
f 40/181/177 112/182/178 41/183/179
f 41/183/179 112/182/178 113/184/180
f 41/183/179 113/184/180 42/185/181
f 42/185/181 113/184/180 114/186/182
f 42/185/181 114/186/182 43/187/183
f 43/187/183 114/186/182 115/188/184
f 43/187/183 115/188/184 44/189/185
f 44/189/185 115/188/184 116/190/186
f 44/189/185 116/190/186 45/191/187
f 45/191/187 116/190/186 117/192/188
f 45/191/187 117/192/188 46/193/189
f 46/193/189 117/192/188 118/194/190
f 46/193/189 118/194/190 47/195/191
f 47/195/191 118/194/190 119/196/192
f 47/195/191 119/196/192 48/197/193
f 48/197/193 119/196/192 120/198/194
f 48/197/193 120/198/194 49/199/195
f 49/199/195 120/198/194 121/200/196
f 49/199/195 121/200/196 50/201/197
f 50/201/197 121/200/196 122/202/198
f 50/201/197 122/202/198 51/203/199
f 51/203/199 122/202/198 123/204/200
f 51/203/199 123/204/200 52/205/201
f 52/205/201 123/204/200 124/206/202
f 52/205/201 124/206/202 53/207/203
f 53/207/203 124/206/202 125/208/204
f 53/207/203 125/208/204 54/209/205
f 54/209/205 125/208/204 126/210/206
f 54/209/205 126/210/206 55/211/207
f 55/211/207 126/210/206 127/212/208
f 55/211/207 127/212/208 56/163/161
f 56/163/161 127/212/208 128/164/162
f 129/213/209 130/214/210 132/215/211
f 132/215/211 130/214/210 131/216/212
f 133/217/213 134/218/214 136/219/215
f 136/219/215 134/218/214 135/220/216
f 134/221/217 137/222/218 135/223/219
f 135/223/219 137/222/218 138/224/220
f 137/225/221 133/226/222 138/227/223
f 138/227/223 133/226/222 136/228/224
f 139/229/225 140/230/226 142/231/227
f 142/231/227 140/230/226 141/232/228
f 140/233/229 143/234/230 141/235/231
f 141/235/231 143/234/230 144/236/232
f 143/237/233 139/238/234 144/239/235
f 144/239/235 139/238/234 142/240/236
f 145/241/237 146/242/238 148/243/239
f 148/243/239 146/242/238 147/244/240
f 146/245/241 149/246/242 147/247/243
f 147/247/243 149/246/242 150/248/244
f 149/249/245 145/250/246 150/251/247
f 150/251/247 145/250/246 148/252/248
f 178/253/249 151/254/250 177/255/251
f 177/255/251 151/254/250 152/256/252
f 177/255/251 152/256/252 153/257/253
f 177/255/251 153/257/253 176/258/254
f 176/258/254 153/257/253 154/259/255
f 176/258/254 154/259/255 175/260/256
f 175/260/256 154/259/255 155/261/257
f 175/260/256 155/261/257 174/262/258
f 174/262/258 155/261/257 156/263/259
f 174/262/258 156/263/259 173/264/260
f 173/264/260 156/263/259 157/265/261
f 173/264/260 157/265/261 172/266/262
f 172/266/262 157/265/261 158/267/263
f 172/266/262 158/267/263 171/268/264
f 171/268/264 158/267/263 159/269/265
f 171/268/264 159/269/265 170/270/266
f 170/270/266 159/269/265 160/271/267
f 170/270/266 160/271/267 169/272/268
f 169/272/268 160/271/267 161/273/269
f 169/272/268 161/273/269 168/274/270
f 168/274/270 161/273/269 162/275/271
f 168/274/270 162/275/271 167/276/272
f 167/276/272 162/275/271 163/277/273
f 167/276/272 163/277/273 166/278/274
f 166/278/274 163/277/273 165/279/275
f 165/279/275 163/277/273 164/280/276
f 164/281/276 179/282/277 165/283/275
f 165/283/275 179/282/277 182/284/278
f 182/284/278 179/282/277 180/285/279
f 182/284/278 180/285/279 181/286/280
f 180/287/281 183/288/282 181/289/283
f 181/289/283 183/288/282 208/290/284
f 208/290/284 183/288/282 184/291/285
f 208/290/284 184/291/285 207/292/286
f 207/292/286 184/291/285 185/293/287
f 207/292/286 185/293/287 206/294/288
f 206/294/288 185/293/287 186/295/289
f 206/294/288 186/295/289 205/296/290
f 205/296/290 186/295/289 187/297/291
f 205/296/290 187/297/291 204/298/292
f 204/298/292 187/297/291 188/299/293
f 204/298/292 188/299/293 203/300/294
f 203/300/294 188/299/293 189/301/295
f 203/300/294 189/301/295 202/302/296
f 202/302/296 189/301/295 190/303/297
f 202/302/296 190/303/297 201/304/298
f 201/304/298 190/303/297 191/305/299
f 201/304/298 191/305/299 200/306/300
f 200/306/300 191/305/299 192/307/301
f 200/306/300 192/307/301 199/308/302
f 199/308/302 192/307/301 193/309/303
f 199/308/302 193/309/303 198/310/304
f 198/310/304 193/309/303 194/311/305
f 198/310/304 194/311/305 197/312/306
f 197/312/306 194/311/305 195/313/307
f 197/312/306 195/313/307 196/314/308
f 196/314/308 195/313/307 151/315/309
f 196/314/308 151/315/309 178/316/310
f 210/317/311 256/318/312 209/319/313
f 209/319/313 256/318/312 233/320/314
f 209/321/313 233/322/314 232/323/315
f 232/323/315 233/322/314 234/324/316
f 232/323/315 234/324/316 231/325/317
f 231/325/317 234/324/316 235/326/318
f 231/325/317 235/326/318 230/327/319
f 230/327/319 235/326/318 236/328/320
f 230/327/319 236/328/320 229/329/321
f 229/329/321 236/328/320 237/330/322
f 229/329/321 237/330/322 228/331/323
f 228/331/323 237/330/322 238/332/324
f 228/331/323 238/332/324 227/333/325
f 227/333/325 238/332/324 239/334/326
f 227/333/325 239/334/326 226/335/327
f 226/335/327 239/334/326 240/336/328
f 226/335/327 240/336/328 225/337/329
f 225/337/329 240/336/328 241/338/330
f 225/337/329 241/338/330 224/339/331
f 224/339/331 241/338/330 242/340/332
f 224/339/331 242/340/332 223/341/333
f 223/341/333 242/340/332 243/342/334
f 223/341/333 243/342/334 222/343/335
f 222/343/335 243/342/334 244/344/336
f 222/343/335 244/344/336 221/345/337
f 221/345/337 244/344/336 245/346/338
f 221/345/337 245/346/338 220/347/339
f 220/347/339 245/346/338 246/348/340
f 220/347/339 246/348/340 219/349/341
f 219/349/341 246/348/340 247/350/342
f 219/349/341 247/350/342 218/351/343
f 218/351/343 247/350/342 248/352/344
f 218/351/343 248/352/344 217/353/345
f 217/353/345 248/352/344 249/354/346
f 217/353/345 249/354/346 216/355/347
f 216/355/347 249/354/346 250/356/348
f 216/355/347 250/356/348 215/357/349
f 215/357/349 250/356/348 251/358/350
f 215/357/349 251/358/350 214/359/351
f 214/359/351 251/358/350 252/360/352
f 214/359/351 252/360/352 213/361/353
f 213/361/353 252/360/352 253/362/354
f 213/361/353 253/362/354 212/363/355
f 212/363/355 253/362/354 254/364/356
f 212/363/355 254/364/356 211/365/357
f 211/365/357 254/364/356 255/366/358
f 211/365/357 255/366/358 210/317/311
f 210/317/311 255/366/358 256/318/312
f 258/367/359 304/368/360 257/369/361
f 257/369/361 304/368/360 281/370/362
f 257/371/361 281/372/362 280/373/363
f 280/373/363 281/372/362 282/374/364
f 280/373/363 282/374/364 279/375/365
f 279/375/365 282/374/364 283/376/366
f 279/375/365 283/376/366 278/377/367
f 278/377/367 283/376/366 284/378/368
f 278/377/367 284/378/368 277/379/369
f 277/379/369 284/378/368 285/380/370
f 277/379/369 285/380/370 276/381/371
f 276/381/371 285/380/370 286/382/372
f 276/381/371 286/382/372 275/383/373
f 275/383/373 286/382/372 287/384/374
f 275/383/373 287/384/374 274/385/375
f 274/385/375 287/384/374 288/386/376
f 274/385/375 288/386/376 273/387/377
f 273/387/377 288/386/376 289/388/378
f 273/387/377 289/388/378 272/389/379
f 272/389/379 289/388/378 290/390/380
f 272/389/379 290/390/380 271/391/381
f 271/391/381 290/390/380 291/392/382
f 271/391/381 291/392/382 270/393/383
f 270/393/383 291/392/382 292/394/384
f 270/393/383 292/394/384 269/395/385
f 269/395/385 292/394/384 293/396/386
f 269/395/385 293/396/386 268/397/387
f 268/397/387 293/396/386 294/398/388
f 268/397/387 294/398/388 267/399/389
f 267/399/389 294/398/388 295/400/390
f 267/399/389 295/400/390 266/401/391
f 266/401/391 295/400/390 296/402/392
f 266/401/391 296/402/392 265/403/393
f 265/403/393 296/402/392 297/404/394
f 265/403/393 297/404/394 264/405/395
f 264/405/395 297/404/394 298/406/396
f 264/405/395 298/406/396 263/407/397
f 263/407/397 298/406/396 299/408/398
f 263/407/397 299/408/398 262/409/399
f 262/409/399 299/408/398 300/410/400
f 262/409/399 300/410/400 261/411/401
f 261/411/401 300/410/400 301/412/402
f 261/411/401 301/412/402 260/413/403
f 260/413/403 301/412/402 302/414/404
f 260/413/403 302/414/404 259/415/405
f 259/415/405 302/414/404 303/416/406
f 259/415/405 303/416/406 258/367/359
f 258/367/359 303/416/406 304/368/360
f 305/417/407 306/418/408 308/419/409
f 308/419/409 306/418/408 307/420/410
f 306/421/411 309/422/412 307/423/413
f 307/423/413 309/422/412 310/424/414
f 309/425/415 305/426/416 310/427/417
f 310/427/417 305/426/416 308/428/418
f 311/429/419 312/430/420 314/431/421
f 314/431/421 312/430/420 313/432/422
f 312/433/423 315/434/424 313/435/425
f 313/435/425 315/434/424 316/436/426
f 315/437/427 317/438/428 316/439/429
f 316/439/429 317/438/428 318/440/430
f 317/441/431 311/442/432 318/443/433
f 318/443/433 311/442/432 314/444/434
f 319/445/435 320/446/436 322/447/437
f 322/447/437 320/446/436 321/448/438
f 320/449/439 323/450/440 321/451/441
f 321/451/441 323/450/440 324/452/442
f 323/453/443 325/454/444 324/455/445
f 324/455/445 325/454/444 326/456/446
f 325/457/447 319/458/448 326/459/449
f 326/459/449 319/458/448 322/460/450
f 327/461/451 328/462/452 330/463/453
f 330/463/453 328/462/452 329/464/454
f 328/465/455 331/466/456 329/467/457
f 329/467/457 331/466/456 332/468/458
f 331/469/459 333/470/460 332/471/461
f 332/471/461 333/470/460 334/472/462
f 333/473/463 327/474/464 334/475/465
f 334/475/465 327/474/464 330/476/466
f 335/477/467 129/478/468 336/479/469
f 336/479/469 129/478/468 132/480/470
f 104/481/471 295/482/472 81/483/473
f 81/483/473 295/482/472 294/484/474
f 81/483/473 294/484/474 82/485/475
f 82/485/475 294/484/474 83/486/476
f 83/486/476 294/484/474 293/487/477
f 83/486/476 293/487/477 84/488/478
f 84/488/478 293/487/477 85/489/479
f 85/489/479 293/487/477 29/490/480
f 85/489/479 29/490/480 10/491/481
f 10/491/481 29/490/480 15/492/482
f 15/492/482 29/490/480 31/493/483
f 15/492/482 31/493/483 165/494/484
f 165/494/484 31/493/483 26/495/485
f 165/494/484 26/495/485 288/496/486
f 288/496/486 26/495/485 289/497/487
f 289/497/487 26/495/485 290/498/488
f 290/498/488 26/495/485 291/499/489
f 291/499/489 26/495/485 25/500/490
f 291/499/489 25/500/490 292/501/491
f 292/501/491 25/500/490 293/487/477
f 293/487/477 25/500/490 29/490/480
f 104/481/471 103/502/492 295/482/472
f 295/482/472 103/502/492 296/503/493
f 296/503/493 103/502/492 102/504/494
f 296/503/493 102/504/494 101/505/495
f 100/506/496 196/507/497 101/505/495
f 101/505/495 196/507/497 297/508/498
f 101/505/495 297/508/498 296/503/493
f 196/507/497 100/506/496 197/509/499
f 197/509/499 100/506/496 99/510/500
f 197/509/499 99/510/500 198/511/501
f 198/511/501 99/510/500 98/512/502
f 198/511/501 98/512/502 97/513/503
f 97/513/503 96/514/504 198/511/501
f 198/511/501 96/514/504 199/515/505
f 199/515/505 96/514/504 252/516/506
f 199/515/505 252/516/506 251/517/507
f 96/514/504 95/518/508 252/516/506
f 252/516/506 95/518/508 253/519/509
f 253/519/509 95/518/508 94/520/510
f 253/519/509 94/520/510 254/521/511
f 254/521/511 94/520/510 93/522/512
f 254/521/511 93/522/512 255/523/513
f 255/523/513 93/522/512 92/524/514
f 255/523/513 92/524/514 256/525/515
f 256/525/515 92/524/514 91/526/516
f 256/525/515 91/526/516 233/527/517
f 233/527/517 91/526/516 90/528/518
f 233/527/517 90/528/518 89/529/519
f 88/530/520 5/531/521 89/529/519
f 89/529/519 5/531/521 234/532/522
f 89/529/519 234/532/522 233/527/517
f 5/531/521 88/530/520 1/533/523
f 1/533/523 88/530/520 87/534/524
f 1/533/523 87/534/524 9/535/525
f 9/535/525 87/534/524 86/536/526
f 9/535/525 86/536/526 10/491/481
f 10/491/481 86/536/526 85/489/479
f 132/537/527 200/538/528 336/539/529
f 336/539/529 200/538/528 250/540/530
f 336/539/529 250/540/530 249/541/531
f 131/542/532 138/543/533 132/537/527
f 132/537/527 138/543/533 148/544/534
f 132/537/527 148/544/534 201/545/535
f 201/545/535 148/544/534 202/546/536
f 202/546/536 148/544/534 147/547/537
f 202/546/536 147/547/537 203/548/538
f 203/548/538 147/547/537 313/549/539
f 203/548/538 313/549/539 204/550/540
f 204/550/540 313/549/539 316/551/541
f 204/550/540 316/551/541 205/552/542
f 205/552/542 316/551/541 329/553/543
f 205/552/542 329/553/543 332/554/544
f 336/539/529 144/555/545 131/542/532
f 131/542/532 144/555/545 142/556/546
f 131/542/532 142/556/546 135/557/547
f 135/557/547 142/556/546 182/558/548
f 135/557/547 182/558/548 136/559/549
f 136/559/549 182/558/548 314/560/550
f 136/559/549 314/560/550 150/561/551
f 150/561/551 314/560/550 313/549/539
f 150/561/551 313/549/539 147/547/537
f 148/544/534 138/543/533 150/561/551
f 150/561/551 138/543/533 136/559/549
f 131/542/532 135/557/547 138/543/533
f 182/558/548 142/556/546 141/562/552
f 144/555/545 244/563/553 141/562/552
f 141/562/552 244/563/553 243/564/554
f 141/562/552 243/564/554 242/565/555
f 182/558/548 181/566/556 310/567/557
f 310/567/557 181/566/556 208/568/558
f 310/567/557 208/568/558 207/569/559
f 310/567/557 207/569/559 307/570/560
f 307/570/560 207/569/559 206/571/561
f 307/570/560 206/571/561 324/572/562
f 324/572/562 206/571/561 321/573/563
f 321/573/563 206/571/561 205/552/542
f 321/573/563 205/552/542 332/554/544
f 201/545/535 200/538/528 132/537/527
f 200/538/528 199/515/505 250/540/530
f 250/540/530 199/515/505 251/517/507
f 297/508/498 196/507/497 298/574/564
f 298/574/564 196/507/497 178/575/565
f 298/574/564 178/575/565 299/576/566
f 299/576/566 178/575/565 177/577/567
f 299/576/566 177/577/567 176/578/568
f 299/576/566 176/578/568 300/579/569
f 300/579/569 176/578/568 175/580/570
f 300/579/569 175/580/570 301/581/571
f 301/581/571 175/580/570 302/582/572
f 302/582/572 175/580/570 174/583/573
f 302/582/572 174/583/573 303/584/574
f 303/584/574 174/583/573 173/585/575
f 303/584/574 173/585/575 304/586/576
f 304/586/576 173/585/575 172/587/577
f 304/586/576 172/587/577 281/588/578
f 281/588/578 172/587/577 171/589/579
f 281/588/578 171/589/579 282/590/580
f 282/590/580 171/589/579 170/591/581
f 282/590/580 170/591/581 283/592/582
f 283/592/582 170/591/581 169/593/583
f 283/592/582 169/593/583 284/594/584
f 284/594/584 169/593/583 168/595/585
f 284/594/584 168/595/585 285/596/586
f 285/596/586 168/595/585 286/597/587
f 286/597/587 168/595/585 167/598/588
f 286/597/587 167/598/588 287/599/589
f 287/599/589 167/598/588 166/600/590
f 287/599/589 166/600/590 165/494/484
f 182/558/548 23/601/591 165/494/484
f 165/494/484 23/601/591 18/602/592
f 165/494/484 18/602/592 7/603/593
f 7/603/593 18/602/592 5/531/521
f 5/531/521 18/602/592 17/604/594
f 5/531/521 17/604/594 234/532/522
f 234/532/522 17/604/594 21/605/595
f 234/532/522 21/605/595 235/606/596
f 235/606/596 21/605/595 236/607/597
f 236/607/597 21/605/595 23/601/591
f 236/607/597 23/601/591 237/608/598
f 237/608/598 23/601/591 238/609/599
f 238/609/599 23/601/591 239/610/600
f 239/610/600 23/601/591 141/562/552
f 239/610/600 141/562/552 240/611/601
f 240/611/601 141/562/552 241/612/602
f 241/612/602 141/562/552 242/565/555
f 249/541/531 248/613/603 336/539/529
f 336/539/529 248/613/603 144/555/545
f 248/613/603 247/614/604 144/555/545
f 144/555/545 247/614/604 246/615/605
f 144/555/545 246/615/605 245/616/606
f 245/616/606 244/563/553 144/555/545
f 288/496/486 287/599/589 165/494/484
f 310/567/557 308/617/607 182/558/548
f 182/558/548 308/617/607 326/618/608
f 182/558/548 326/618/608 322/619/609
f 326/618/608 308/617/607 307/570/560
f 314/560/550 182/558/548 318/620/610
f 318/620/610 182/558/548 330/621/611
f 318/620/610 330/621/611 329/553/543
f 316/551/541 318/620/610 329/553/543
f 182/558/548 322/619/609 334/622/612
f 334/622/612 322/619/609 321/573/563
f 334/622/612 321/573/563 332/554/544
f 324/572/562 326/618/608 307/570/560
f 334/622/612 330/621/611 182/558/548
f 15/492/482 165/494/484 13/623/613
f 13/623/613 165/494/484 2/624/614
f 13/623/613 2/624/614 9/535/525
f 9/535/525 2/624/614 1/533/523
f 7/603/593 2/624/614 165/494/484
f 141/562/552 23/601/591 182/558/548
f 130/625/615 335/626/616 131/627/617
f 131/627/617 335/626/616 336/628/618
f 128/629/619 268/630/620 105/631/621
f 105/631/621 268/630/620 267/632/622
f 105/631/621 267/632/622 106/633/623
f 106/633/623 267/632/622 107/634/624
f 107/634/624 267/632/622 266/635/625
f 107/634/624 266/635/625 108/636/626
f 108/636/626 266/635/625 109/637/627
f 109/637/627 266/635/625 265/638/628
f 109/637/627 265/638/628 195/639/629
f 195/639/629 265/638/628 264/640/630
f 195/639/629 264/640/630 151/641/631
f 151/641/631 264/640/630 263/642/632
f 151/641/631 263/642/632 152/643/633
f 152/643/633 263/642/632 153/644/634
f 153/644/634 263/642/632 262/645/635
f 153/644/634 262/645/635 154/646/636
f 154/646/636 262/645/635 261/647/637
f 154/646/636 261/647/637 260/648/638
f 128/629/619 127/649/639 268/630/620
f 268/630/620 127/649/639 269/650/640
f 269/650/640 127/649/639 126/651/641
f 269/650/640 126/651/641 125/652/642
f 124/653/643 11/654/644 125/652/642
f 125/652/642 11/654/644 30/655/645
f 125/652/642 30/655/645 269/650/640
f 269/650/640 30/655/645 28/656/646
f 269/650/640 28/656/646 270/657/647
f 270/657/647 28/656/646 271/658/648
f 271/658/648 28/656/646 27/659/649
f 271/658/648 27/659/649 272/660/650
f 272/660/650 27/659/649 273/661/651
f 273/661/651 27/659/649 274/662/652
f 274/662/652 27/659/649 164/663/653
f 274/662/652 164/663/653 275/664/654
f 275/664/654 164/663/653 163/665/655
f 275/664/654 163/665/655 162/666/656
f 11/654/644 124/653/643 12/667/657
f 12/667/657 124/653/643 123/668/658
f 12/667/657 123/668/658 4/669/659
f 4/669/659 123/668/658 122/670/660
f 4/669/659 122/670/660 6/671/661
f 6/671/661 122/670/660 121/672/662
f 6/671/661 121/672/662 232/673/663
f 232/673/663 121/672/662 209/674/664
f 209/674/664 121/672/662 120/675/665
f 209/674/664 120/675/665 119/676/666
f 209/674/664 119/676/666 210/677/667
f 210/677/667 119/676/666 118/678/668
f 210/677/667 118/678/668 211/679/669
f 211/679/669 118/678/668 117/680/670
f 211/679/669 117/680/670 212/681/671
f 212/681/671 117/680/670 116/682/672
f 212/681/671 116/682/672 213/683/673
f 213/683/673 116/682/672 115/684/674
f 213/683/673 115/684/674 214/685/675
f 214/685/675 115/684/674 114/686/676
f 214/685/675 114/686/676 192/687/677
f 192/687/677 114/686/676 193/688/678
f 193/688/678 114/686/676 113/689/679
f 193/688/678 113/689/679 112/690/680
f 112/690/680 111/691/681 193/688/678
f 193/688/678 111/691/681 194/692/682
f 194/692/682 111/691/681 110/693/683
f 194/692/682 110/693/683 195/639/629
f 195/639/629 110/693/683 109/637/627
f 333/694/684 179/695/685 327/696/686
f 327/696/686 179/695/685 317/697/687
f 327/696/686 317/697/687 328/698/688
f 328/698/688 317/697/687 315/699/689
f 328/698/688 315/699/689 186/700/690
f 186/700/690 315/699/689 187/701/691
f 187/701/691 315/699/689 312/702/692
f 187/701/691 312/702/692 188/703/693
f 188/703/693 312/702/692 146/704/694
f 188/703/693 146/704/694 189/705/695
f 189/705/695 146/704/694 337/706/696
f 189/705/695 337/706/696 190/707/697
f 190/707/697 337/706/696 145/708/698
f 190/707/697 145/708/698 129/709/699
f 129/709/699 145/708/698 137/710/700
f 129/709/699 137/710/700 130/711/701
f 130/711/701 137/710/700 134/712/702
f 130/711/701 134/712/702 139/713/703
f 139/713/703 134/712/702 179/695/685
f 139/713/703 179/695/685 140/714/704
f 140/714/704 179/695/685 24/715/705
f 140/714/704 24/715/705 227/716/706
f 227/716/706 24/715/705 228/717/707
f 228/717/707 24/715/705 229/718/708
f 229/718/708 24/715/705 230/719/709
f 230/719/709 24/715/705 22/720/710
f 230/719/709 22/720/710 231/721/711
f 231/721/711 22/720/710 232/673/663
f 232/673/663 22/720/710 20/722/712
f 232/673/663 20/722/712 6/671/661
f 6/671/661 20/722/712 8/723/713
f 8/723/713 20/722/712 19/724/714
f 8/723/713 19/724/714 164/663/653
f 164/663/653 19/724/714 24/715/705
f 164/663/653 24/715/705 179/695/685
f 331/725/715 320/726/716 333/694/684
f 333/694/684 320/726/716 319/727/717
f 333/694/684 319/727/717 179/695/685
f 179/695/685 319/727/717 325/728/718
f 179/695/685 325/728/718 305/729/719
f 305/729/719 325/728/718 306/730/720
f 306/730/720 325/728/718 323/731/721
f 306/730/720 323/731/721 185/732/722
f 185/732/722 323/731/721 320/726/716
f 185/732/722 320/726/716 186/700/690
f 186/700/690 320/726/716 331/725/715
f 186/700/690 331/725/715 328/698/688
f 317/697/687 179/695/685 311/733/723
f 311/733/723 179/695/685 133/734/724
f 311/733/723 133/734/724 149/735/725
f 149/735/725 133/734/724 137/710/700
f 149/735/725 137/710/700 145/708/698
f 146/704/694 312/702/692 149/735/725
f 149/735/725 312/702/692 311/733/723
f 305/729/719 309/736/726 179/695/685
f 179/695/685 309/736/726 180/737/727
f 180/737/727 309/736/726 183/738/728
f 183/738/728 309/736/726 184/739/729
f 184/739/729 309/736/726 306/730/720
f 184/739/729 306/730/720 185/732/722
f 280/740/730 158/741/731 257/742/732
f 257/742/732 158/741/731 157/743/733
f 257/742/732 157/743/733 258/744/734
f 258/744/734 157/743/733 156/745/735
f 258/744/734 156/745/735 259/746/736
f 259/746/736 156/745/735 155/747/737
f 259/746/736 155/747/737 260/648/638
f 260/648/638 155/747/737 154/646/636
f 158/741/731 280/740/730 159/748/738
f 159/748/738 280/740/730 279/749/739
f 159/748/738 279/749/739 160/750/740
f 160/750/740 279/749/739 278/751/741
f 160/750/740 278/751/741 161/752/742
f 161/752/742 278/751/741 277/753/743
f 161/752/742 277/753/743 276/754/744
f 161/752/742 276/754/744 162/666/656
f 162/666/656 276/754/744 275/664/654
f 227/716/706 226/755/745 140/714/704
f 140/714/704 226/755/745 225/756/746
f 140/714/704 225/756/746 224/757/747
f 224/757/747 223/758/748 140/714/704
f 140/714/704 223/758/748 222/759/749
f 140/714/704 222/759/749 143/760/750
f 143/760/750 222/759/749 221/761/751
f 143/760/750 221/761/751 220/762/752
f 220/762/752 219/763/753 143/760/750
f 143/760/750 219/763/753 218/764/754
f 143/760/750 218/764/754 335/765/755
f 335/765/755 218/764/754 217/766/756
f 335/765/755 217/766/756 216/767/757
f 215/768/758 192/687/677 216/767/757
f 216/767/757 192/687/677 191/769/759
f 216/767/757 191/769/759 335/765/755
f 335/765/755 191/769/759 129/709/699
f 129/709/699 191/769/759 190/707/697
f 215/768/758 214/685/675 192/687/677
f 337/706/696 146/704/694 145/708/698
f 139/713/703 143/760/750 130/711/701
f 130/711/701 143/760/750 335/765/755
f 179/695/685 134/712/702 133/734/724
f 30/655/645 11/654/644 32/770/760
f 32/770/760 11/654/644 16/771/761
f 32/770/760 16/771/761 164/663/653
f 164/663/653 16/771/761 14/772/762
f 164/663/653 14/772/762 3/773/763
f 3/773/763 14/772/762 4/669/659
f 4/669/659 14/772/762 12/667/657
f 27/659/649 32/770/760 164/663/653
f 3/773/763 8/723/713 164/663/653
# 337 vertices
# 773 texture params
# 763 normals
# 726 facets

# 1 groups
