# WaveFront *.obj file (generated by Autodesk ATF)

mtllib Wing Spar Ending.mtl

g Body1

v 10.903017 1.016000 0.600000
v 10.903017 1.016000 0.097977
v 10.903017 0.000000 0.097977
v 10.903017 0.000000 0.600000
v 11.300000 0.716000 1.000000
v 11.289778 0.716000 1.077646
v 11.259808 0.716000 1.150000
v 11.212132 0.716000 1.212132
v 11.150000 0.716000 1.259808
v 11.077646 0.716000 1.289778
v 11.000000 0.716000 1.300000
v 10.922354 0.716000 1.289778
v 10.850000 0.716000 1.259808
v 10.787868 0.716000 1.212132
v 10.740193 0.716000 1.150000
v 10.710222 0.716000 1.077646
v 10.700000 0.716000 1.000000
v 10.710222 0.716000 0.922354
v 10.740193 0.716000 0.850000
v 10.787868 0.716000 0.787868
v 10.850000 0.716000 0.740192
v 10.922354 0.716000 0.710222
v 11.000000 0.716000 0.700000
v 11.077646 0.716000 0.710222
v 11.150000 0.716000 0.740192
v 11.212132 0.716000 0.787868
v 11.259808 0.716000 0.850000
v 11.289778 0.716000 0.922354
v 11.300000 0.000000 1.000000
v 11.289778 0.000000 1.077646
v 11.259808 0.000000 1.150000
v 11.212132 0.000000 1.212132
v 11.150000 0.000000 1.259808
v 11.077646 0.000000 1.289778
v 11.000000 0.000000 1.300000
v 10.922354 0.000000 1.289778
v 10.850000 0.000000 1.259808
v 10.787868 0.000000 1.212132
v 10.740193 0.000000 1.150000
v 10.710222 0.000000 1.077646
v 10.700000 0.000000 1.000000
v 10.710222 0.000000 0.922354
v 10.740193 0.000000 0.850000
v 10.787868 0.000000 0.787868
v 10.850000 0.000000 0.740192
v 10.922354 0.000000 0.710222
v 11.000000 0.000000 0.700000
v 11.077646 0.000000 0.710222
v 11.150000 0.000000 0.740192
v 11.212132 0.000000 0.787868
v 11.259808 0.000000 0.850000
v 11.289778 0.000000 0.922354
v 10.400000 1.016000 0.097977
v 10.400000 1.016000 0.600000
v 10.400000 0.000000 0.600000
v 10.400000 0.000000 0.097977
v 11.000000 1.016000 0.097977
v 11.000000 1.016000 0.600000
v 11.000000 0.000000 0.600000
v 11.000000 0.000000 0.097977
v 11.500000 1.016000 0.600000
v 11.500000 0.000000 0.600000
v 11.500000 1.016000 0.097977
v 11.500000 0.000000 0.097977
v 10.100000 1.016000 0.600000
v 10.300000 1.016000 0.600000
v 10.300000 0.000000 0.600000
v 10.100000 0.000000 0.600000
v 10.300000 1.016000 0.097977
v 10.300000 0.000000 0.097977
v 10.100000 1.016000 0.097977
v 10.100000 0.000000 0.097977
v 11.600000 1.016000 0.600000
v 11.956384 1.016000 0.600000
v 11.956384 0.000000 0.600000
v 11.600000 0.000000 0.600000
v 11.956384 1.016000 0.097977
v 11.956384 0.000000 0.097977
v 11.600000 1.016000 0.097977
v 11.600000 0.000000 0.097977
v 4.208717 0.000000 0.508004
v 4.284119 0.000000 0.200000
v 4.284119 1.016000 0.200000
v 4.208717 1.016000 0.508004
v 4.560843 0.000000 0.594208
v 4.560843 1.016000 0.594208
v 4.657349 0.000000 0.200000
v 4.657349 1.016000 0.200000
v 3.755711 0.000000 0.397104
v 3.803964 0.000000 0.200000
v 3.803964 1.016000 0.200000
v 3.755711 1.016000 0.397104
v 4.105274 0.000000 0.482680
v 4.105274 1.016000 0.482680
v 4.174477 0.000000 0.200000
v 4.174477 1.016000 0.200000
v 4.657349 0.000000 0.617834
v 4.759638 0.000000 0.200000
v 4.759638 1.016000 0.200000
v 4.657349 1.016000 0.617834
v 5.259970 0.000000 0.765361
v 5.259970 1.016000 0.765361
v 5.398375 0.000000 0.200000
v 5.398375 1.016000 0.200000
v 3.656489 0.000000 0.372813
v 2.950579 0.000000 0.200000
v 2.950579 1.016000 0.200000
v 3.656489 1.016000 0.372813
v 3.698795 0.000000 0.200000
v 3.698795 1.016000 0.200000
v 13.335000 0.000000 0.760001
v 13.313363 0.000000 0.924351
v 13.249926 0.000000 1.077501
v 13.149013 0.000000 1.209014
v 13.017500 0.000000 1.309927
v 12.864350 0.000000 1.373364
v 12.700000 0.000000 1.395001
v 12.535650 0.000000 1.373364
v 12.382500 0.000000 1.309927
v 12.250987 0.000000 1.209014
v 12.150074 0.000000 1.077501
v 12.086637 0.000000 0.924351
v 12.065000 0.000000 0.760001
v 12.086637 0.000000 0.595651
v 12.150074 0.000000 0.442501
v 12.250987 0.000000 0.310988
v 12.382500 0.000000 0.210075
v 12.535650 0.000000 0.146638
v 12.700000 0.000000 0.125001
v 12.864350 0.000000 0.146638
v 13.017500 0.000000 0.210075
v 13.149013 0.000000 0.310988
v 13.249926 0.000000 0.442501
v 13.313363 0.000000 0.595651
v 13.335000 1.016000 0.760001
v 13.313363 1.016000 0.595651
v 13.249926 1.016000 0.442501
v 13.149013 1.016000 0.310988
v 13.017500 1.016000 0.210075
v 12.864350 1.016000 0.146638
v 12.700000 1.016000 0.125001
v 12.535650 1.016000 0.146638
v 12.382500 1.016000 0.210075
v 12.250987 1.016000 0.310988
v 12.150074 1.016000 0.442501
v 12.086637 1.016000 0.595651
v 12.065000 1.016000 0.760001
v 12.086637 1.016000 0.924351
v 12.150074 1.016000 1.077501
v 12.250987 1.016000 1.209014
v 12.382500 1.016000 1.309927
v 12.535650 1.016000 1.373364
v 12.700000 1.016000 1.395001
v 12.864350 1.016000 1.373364
v 13.017500 1.016000 1.309927
v 13.149013 1.016000 1.209014
v 13.249926 1.016000 1.077501
v 13.313363 1.016000 0.924351
v 9.916055 0.000000 0.760001
v 9.903073 0.000000 0.858611
v 9.865011 0.000000 0.950501
v 9.804463 0.000000 1.029408
v 9.725555 0.000000 1.089956
v 9.633665 0.000000 1.128018
v 9.535055 0.000000 1.141001
v 9.436445 0.000000 1.128018
v 9.344555 0.000000 1.089956
v 9.265648 0.000000 1.029408
v 9.205100 0.000000 0.950501
v 9.167038 0.000000 0.858611
v 9.154055 0.000000 0.760001
v 9.167038 0.000000 0.661391
v 9.205100 0.000000 0.569501
v 9.265648 0.000000 0.490593
v 9.344555 0.000000 0.430045
v 9.436445 0.000000 0.391983
v 9.535055 0.000000 0.379001
v 9.633665 0.000000 0.391983
v 9.725555 0.000000 0.430045
v 9.804463 0.000000 0.490593
v 9.865011 0.000000 0.569501
v 9.903073 0.000000 0.661391
v 9.916055 1.016000 0.760001
v 9.903073 1.016000 0.661391
v 9.865011 1.016000 0.569501
v 9.804463 1.016000 0.490593
v 9.725555 1.016000 0.430045
v 9.633665 1.016000 0.391983
v 9.535055 1.016000 0.379001
v 9.436445 1.016000 0.391983
v 9.344555 1.016000 0.430045
v 9.265648 1.016000 0.490593
v 9.205100 1.016000 0.569501
v 9.167038 1.016000 0.661391
v 9.154055 1.016000 0.760001
v 9.167038 1.016000 0.858611
v 9.205100 1.016000 0.950501
v 9.265648 1.016000 1.029408
v 9.344555 1.016000 1.089956
v 9.436445 1.016000 1.128018
v 9.535055 1.016000 1.141001
v 9.633665 1.016000 1.128018
v 9.725555 1.016000 1.089956
v 9.804463 1.016000 1.029408
v 9.865011 1.016000 0.950501
v 9.903073 1.016000 0.858611
v 12.700000 0.000000 -0.000000
v 6.350000 0.000000 0.000000
v 0.000000 0.000000 0.000000
v 0.000000 1.016000 0.000000
v 6.350000 1.016000 0.000000
v 12.700000 1.016000 0.000000
v 12.697923 0.000000 1.519999
v 12.880018 0.000000 1.498374
v 13.051632 0.000000 1.433763
v 13.202776 0.000000 1.329928
v 13.324650 0.000000 1.192913
v 13.410159 0.000000 1.030696
v 13.454324 0.000000 0.852719
v 13.454574 0.000000 0.669345
v 13.410896 0.000000 0.491248
v 13.325831 0.000000 0.328797
v 13.204332 0.000000 0.191450
v 13.053473 0.000000 0.087202
v 12.882035 0.000000 0.022123
v 12.882035 1.016000 0.022123
v 13.053473 1.016000 0.087202
v 13.204332 1.016000 0.191450
v 13.325831 1.016000 0.328797
v 13.410896 1.016000 0.491248
v 13.454574 1.016000 0.669345
v 13.454324 1.016000 0.852719
v 13.410159 1.016000 1.030696
v 13.324650 1.016000 1.192913
v 13.202776 1.016000 1.329928
v 13.051632 1.016000 1.433763
v 12.880018 1.016000 1.498374
v 12.697923 1.016000 1.519999
v 1.076551 0.000000 0.206739
v 2.076282 0.000000 0.392147
v 3.004155 0.000000 0.557240
v 3.867418 0.000000 0.703449
v 4.674829 0.000000 0.832419
v 5.436124 0.000000 0.945872
v 6.161615 0.000000 1.045512
v 6.861817 0.000000 1.132931
v 8.227848 0.000000 1.276606
v 9.613389 0.000000 1.385837
v 10.335470 0.000000 1.429384
v 11.086844 0.000000 1.466132
v 11.873094 0.000000 1.496304
v 11.873094 1.016000 1.496304
v 11.086844 1.016000 1.466132
v 10.335470 1.016000 1.429384
v 9.613389 1.016000 1.385837
v 8.227848 1.016000 1.276606
v 6.861817 1.016000 1.132931
v 6.161615 1.016000 1.045512
v 5.436124 1.016000 0.945872
v 4.674829 1.016000 0.832419
v 3.867418 1.016000 0.703449
v 3.004155 1.016000 0.557240
v 2.076282 1.016000 0.392147
v 1.076551 1.016000 0.206739
v 5.900000 0.000000 0.900000
v 5.900000 0.000000 0.300000
v 5.900000 1.016000 0.300000
v 5.900000 1.016000 0.900000
v 7.200000 0.000000 0.900000
v 7.200000 1.016000 0.900000
v 8.500000 0.000000 0.200000
v 8.500000 0.000000 1.000000
v 8.500000 1.016000 1.000000
v 8.500000 1.016000 0.200000
v 7.600000 0.000000 0.200000
v 7.600000 1.016000 0.200000
v 7.300000 0.000000 0.200000
v 7.300000 0.000000 0.800000
v 7.300000 1.016000 0.800000
v 7.300000 1.016000 0.200000
v 6.000000 0.000000 0.200000
v 6.000000 1.016000 0.200000
v 7.500000 0.000000 0.300000
v 8.400000 0.000000 1.100000
v 8.400000 1.016000 1.100000
v 7.500000 1.016000 0.300000
v 7.500000 0.000000 1.100000
v 7.500000 1.016000 1.100000
v 6.727287 0.000000 0.912293
vt -0.000000 1.016000 0.000000
vt -0.502023 1.016000 0.000000
vt -0.000000 0.000000 0.000000
vt -0.502023 0.000000 0.000000
vt 0.289778 0.077646 0.000000
vt -0.289778 0.077646 0.000000
vt 0.300000 0.000000 0.000000
vt -0.300000 0.000000 0.000000
vt 0.289778 -0.077646 0.000000
vt -0.289778 -0.077646 0.000000
vt 0.259808 -0.150000 0.000000
vt -0.259808 -0.150000 0.000000
vt 0.212132 -0.212132 0.000000
vt -0.212132 -0.212132 0.000000
vt 0.150000 -0.259808 0.000000
vt -0.150000 -0.259808 0.000000
vt 0.077646 -0.289778 0.000000
vt -0.077646 -0.289778 0.000000
vt -0.000000 -0.300000 0.000000
vt -0.259808 0.150000 0.000000
vt 0.259808 0.150000 0.000000
vt -0.212132 0.212132 0.000000
vt 0.212132 0.212132 0.000000
vt -0.150000 0.259808 0.000000
vt 0.150000 0.259808 0.000000
vt -0.077646 0.289778 0.000000
vt 0.077646 0.289778 0.000000
vt -0.000000 0.300000 0.000000
vt 2.078000 0.863938 0.000000
vt 2.794000 0.863938 0.000000
vt 2.078000 0.942478 0.000000
vt 2.794000 0.942478 0.000000
vt 2.078000 -0.942478 0.000000
vt 2.794000 -0.942478 0.000000
vt 2.078000 -0.863938 0.000000
vt 2.794000 -0.863938 0.000000
vt 2.078000 -0.785398 0.000000
vt 2.794000 -0.785398 0.000000
vt 2.078000 -0.706858 0.000000
vt 2.794000 -0.706858 0.000000
vt 2.078000 -0.628319 0.000000
vt 2.794000 -0.628319 0.000000
vt 2.078000 -0.549779 0.000000
vt 2.794000 -0.549779 0.000000
vt 2.078000 -0.471239 0.000000
vt 2.794000 -0.471239 0.000000
vt 2.078000 -0.392699 0.000000
vt 2.794000 -0.392699 0.000000
vt 2.078000 -0.314159 0.000000
vt 2.794000 -0.314159 0.000000
vt 2.078000 -0.235619 0.000000
vt 2.794000 -0.235619 0.000000
vt 2.078000 -0.157080 0.000000
vt 2.794000 -0.157080 0.000000
vt 2.078000 -0.078540 0.000000
vt 2.794000 -0.078540 0.000000
vt 2.078000 0.000000 0.000000
vt 2.794000 0.000000 0.000000
vt 2.078000 0.078540 0.000000
vt 2.794000 0.078540 0.000000
vt 2.078000 0.157080 0.000000
vt 2.794000 0.157080 0.000000
vt 2.078000 0.235619 0.000000
vt 2.794000 0.235619 0.000000
vt 2.078000 0.314159 0.000000
vt 2.794000 0.314159 0.000000
vt 2.078000 0.392699 0.000000
vt 2.794000 0.392699 0.000000
vt 2.078000 0.471239 0.000000
vt 2.794000 0.471239 0.000000
vt 2.078000 0.549779 0.000000
vt 2.794000 0.549779 0.000000
vt 2.078000 0.628319 0.000000
vt 2.794000 0.628319 0.000000
vt 2.078000 0.706858 0.000000
vt 2.794000 0.706858 0.000000
vt 2.078000 0.785398 0.000000
vt 2.794000 0.785398 0.000000
vt -0.000000 1.016000 0.000000
vt -0.502023 1.016000 0.000000
vt -0.000000 0.000000 0.000000
vt -0.502023 0.000000 0.000000
vt -0.000000 1.016000 0.000000
vt -0.502023 1.016000 0.000000
vt -0.000000 0.000000 0.000000
vt -0.502023 0.000000 0.000000
vt -0.000000 1.016000 0.000000
vt -0.500000 1.016000 0.000000
vt -0.000000 0.000000 0.000000
vt -0.500000 0.000000 0.000000
vt -0.000000 1.016000 0.000000
vt -0.502023 1.016000 0.000000
vt -0.000000 0.000000 0.000000
vt -0.502023 0.000000 0.000000
vt -0.000000 1.016000 0.000000
vt -0.500000 1.016000 0.000000
vt -0.000000 0.000000 0.000000
vt -0.500000 0.000000 0.000000
vt -0.000000 1.016000 0.000000
vt -0.200000 1.016000 0.000000
vt -0.000000 0.000000 0.000000
vt -0.200000 0.000000 0.000000
vt -0.000000 1.016000 0.000000
vt -0.502023 1.016000 0.000000
vt -0.000000 0.000000 0.000000
vt -0.502023 0.000000 0.000000
vt -0.000000 1.016000 0.000000
vt -0.200000 1.016000 0.000000
vt -0.000000 0.000000 0.000000
vt -0.200000 0.000000 0.000000
vt -0.000000 1.016000 0.000000
vt -0.502023 1.016000 0.000000
vt -0.000000 0.000000 0.000000
vt -0.502023 0.000000 0.000000
vt -0.000000 1.016000 0.000000
vt -0.356384 1.016000 0.000000
vt -0.000000 0.000000 0.000000
vt -0.356384 0.000000 0.000000
vt -0.000000 1.016000 0.000000
vt -0.502023 1.016000 0.000000
vt -0.000000 0.000000 0.000000
vt -0.502023 0.000000 0.000000
vt -0.000000 1.016000 0.000000
vt -0.356384 1.016000 0.000000
vt -0.000000 0.000000 0.000000
vt -0.356384 0.000000 0.000000
vt -0.000000 1.016000 0.000000
vt -0.502023 1.016000 0.000000
vt -0.000000 0.000000 0.000000
vt -0.502023 0.000000 0.000000
vt -0.000000 1.016000 0.000000
vt -0.317099 1.016000 0.000000
vt -0.000000 0.000000 0.000000
vt -0.317099 0.000000 0.000000
vt -0.000000 1.016000 0.000000
vt -0.362524 1.016000 0.000000
vt 0.000000 0.000000 0.000000
vt -0.362524 -0.000000 0.000000
vt -0.000000 1.016000 0.000000
vt -0.405849 1.016000 0.000000
vt -0.000000 0.000000 0.000000
vt -0.405849 0.000000 0.000000
vt -0.000000 1.016000 0.000000
vt -0.373229 1.016000 0.000000
vt -0.000000 0.000000 0.000000
vt -0.373229 0.000000 0.000000
vt -0.000000 1.016000 0.000000
vt -0.202924 1.016000 0.000000
vt -0.000000 0.000000 0.000000
vt -0.202924 0.000000 0.000000
vt -0.000000 1.016000 0.000000
vt -0.359886 1.016000 0.000000
vt 0.000000 0.000000 0.000000
vt -0.359886 -0.000000 0.000000
vt -0.000000 1.016000 0.000000
vt -0.291028 1.016000 0.000000
vt -0.000000 0.000000 0.000000
vt -0.291028 0.000000 0.000000
vt -0.000000 1.016000 0.000000
vt -0.370513 1.016000 0.000000
vt -0.000000 0.000000 0.000000
vt -0.370513 0.000000 0.000000
vt -0.000000 1.016000 0.000000
vt -0.430172 1.016000 0.000000
vt -0.000000 0.000000 0.000000
vt -0.430172 0.000000 0.000000
vt -0.000000 1.016000 0.000000
vt -0.620417 1.016000 0.000000
vt 0.000000 0.000000 0.000000
vt -0.620417 -0.000000 0.000000
vt -0.000000 1.016000 0.000000
vt -0.582056 1.016000 0.000000
vt -0.000000 0.000000 0.000000
vt -0.582056 0.000000 0.000000
vt 0.000000 1.016000 0.000000
vt -0.638737 1.016000 0.000000
vt 0.000000 0.000000 0.000000
vt -0.638737 0.000000 0.000000
vt 0.000000 1.016000 0.000000
vt -0.726755 1.016000 0.000000
vt 0.000000 0.000000 0.000000
vt -0.726755 -0.000000 0.000000
vt -0.000000 1.016000 0.000000
vt -0.177917 1.016000 0.000000
vt -0.000000 0.000000 0.000000
vt -0.177917 0.000000 0.000000
vt -0.000000 1.016000 0.000000
vt -0.748216 1.016000 0.000000
vt -0.000000 0.000000 0.000000
vt -0.748216 0.000000 0.000000
vt 1.016000 -1.828669 0.000000
vt 0.000000 -1.828669 0.000000
vt 1.016000 -1.994911 0.000000
vt 0.000000 -1.994911 0.000000
vt 1.016000 1.994911 0.000000
vt 0.000000 1.994911 0.000000
vt 1.016000 1.828669 0.000000
vt 0.000000 1.828669 0.000000
vt 1.016000 1.662426 0.000000
vt 0.000000 1.662426 0.000000
vt 1.016000 1.496184 0.000000
vt 0.000000 1.496184 0.000000
vt 1.016000 1.329941 0.000000
vt 0.000000 1.329941 0.000000
vt 1.016000 1.163698 0.000000
vt 0.000000 1.163698 0.000000
vt 1.016000 0.997456 0.000000
vt 0.000000 0.997456 0.000000
vt 1.016000 0.831213 0.000000
vt -0.000000 0.831213 0.000000
vt 1.016000 0.664970 0.000000
vt 0.000000 0.664970 0.000000
vt 1.016000 0.498728 0.000000
vt 0.000000 0.498728 0.000000
vt 1.016000 0.332485 0.000000
vt 0.000000 0.332485 0.000000
vt 1.016000 0.166243 0.000000
vt -0.000000 0.166243 0.000000
vt 1.016000 0.000000 0.000000
vt 0.000000 0.000000 0.000000
vt 1.016000 -0.166243 0.000000
vt 0.000000 -0.166243 0.000000
vt 1.016000 -0.332485 0.000000
vt 0.000000 -0.332485 0.000000
vt 1.016000 -0.498728 0.000000
vt 0.000000 -0.498728 0.000000
vt 1.016000 -0.664970 0.000000
vt 0.000000 -0.664970 0.000000
vt 1.016000 -0.831213 0.000000
vt 0.000000 -0.831213 0.000000
vt 1.016000 -0.997456 0.000000
vt 0.000000 -0.997456 0.000000
vt 1.016000 -1.163698 0.000000
vt 0.000000 -1.163698 0.000000
vt 1.016000 -1.329941 0.000000
vt 0.000000 -1.329941 0.000000
vt 1.016000 -1.496184 0.000000
vt 0.000000 -1.496184 0.000000
vt 1.016000 -1.662426 0.000000
vt 0.000000 -1.662426 0.000000
vt 1.016000 -1.097201 0.000000
vt 0.000000 -1.097201 0.000000
vt 1.016000 -1.196947 0.000000
vt 0.000000 -1.196947 0.000000
vt 1.016000 1.196947 0.000000
vt 0.000000 1.196947 0.000000
vt 1.016000 1.097201 0.000000
vt 0.000000 1.097201 0.000000
vt 1.016000 0.997456 0.000000
vt 0.000000 0.997456 0.000000
vt 1.016000 0.897710 0.000000
vt 0.000000 0.897710 0.000000
vt 1.016000 0.797965 0.000000
vt 0.000000 0.797965 0.000000
vt 1.016000 0.698219 0.000000
vt 0.000000 0.698219 0.000000
vt 1.016000 0.598473 0.000000
vt 0.000000 0.598473 0.000000
vt 1.016000 0.498728 0.000000
vt 0.000000 0.498728 0.000000
vt 1.016000 0.398982 0.000000
vt -0.000000 0.398982 0.000000
vt 1.016000 0.299237 0.000000
vt -0.000000 0.299237 0.000000
vt 1.016000 0.199491 0.000000
vt 0.000000 0.199491 0.000000
vt 1.016000 0.099746 0.000000
vt 0.000000 0.099746 0.000000
vt 1.016000 0.000000 0.000000
vt 0.000000 0.000000 0.000000
vt 1.016000 -0.099746 0.000000
vt 0.000000 -0.099746 0.000000
vt 1.016000 -0.199491 0.000000
vt 0.000000 -0.199491 0.000000
vt 1.016000 -0.299237 0.000000
vt 0.000000 -0.299237 0.000000
vt 1.016000 -0.398982 0.000000
vt 0.000000 -0.398982 0.000000
vt 1.016000 -0.498728 0.000000
vt 0.000000 -0.498728 0.000000
vt 1.016000 -0.598473 0.000000
vt 0.000000 -0.598473 0.000000
vt 1.016000 -0.698219 0.000000
vt 0.000000 -0.698219 0.000000
vt 1.016000 -0.797965 0.000000
vt 0.000000 -0.797965 0.000000
vt 1.016000 -0.897710 0.000000
vt 0.000000 -0.897710 0.000000
vt 1.016000 -0.997456 0.000000
vt 0.000000 -0.997456 0.000000
vt 0.000000 0.000000 0.000000
vt 6.350000 0.000000 0.000000
vt -0.000000 1.016000 0.000000
vt 6.350000 1.016000 0.000000
vt 12.700000 0.000000 0.000000
vt 12.700000 1.016000 0.000000
vt -1.016000 0.000000 0.000000
vt -0.000000 0.000000 0.000000
vt -1.016000 0.183822 0.000000
vt -0.000000 0.183822 0.000000
vt -0.000000 0.367645 0.000000
vt -1.016000 0.367645 0.000000
vt -0.000000 0.551467 0.000000
vt -1.016000 0.551467 0.000000
vt -0.000000 0.735289 0.000000
vt -1.016000 0.735289 0.000000
vt -0.000000 0.919112 0.000000
vt -1.016000 0.919112 0.000000
vt -0.000000 1.102934 0.000000
vt -1.016000 1.102934 0.000000
vt -0.000000 1.286756 0.000000
vt -1.016000 1.286756 0.000000
vt -0.000000 1.470579 0.000000
vt -1.016000 1.470579 0.000000
vt -0.000000 1.654401 0.000000
vt -1.016000 1.654401 0.000000
vt -0.000000 1.838223 0.000000
vt -1.016000 1.838223 0.000000
vt -0.000000 2.022046 0.000000
vt -1.016000 2.022046 0.000000
vt -0.000000 2.205868 0.000000
vt -1.016000 2.205868 0.000000
vt -1.016000 2.389690 0.000000
vt -0.000000 2.389690 0.000000
vt -11.133838 0.000000 0.000000
vt -10.437973 0.000000 0.000000
vt -11.133838 1.016000 0.000000
vt -10.437973 1.016000 0.000000
vt -9.742108 0.000000 0.000000
vt -9.742108 1.016000 0.000000
vt -9.046244 0.000000 0.000000
vt -9.046244 1.016000 0.000000
vt -8.350379 0.000000 0.000000
vt -8.350379 1.016000 0.000000
vt -7.654514 0.000000 0.000000
vt -7.654514 1.016000 0.000000
vt -6.958649 0.000000 0.000000
vt -6.958649 1.016000 0.000000
vt -6.262784 0.000000 0.000000
vt -6.262784 1.016000 0.000000
vt -5.566919 0.000000 0.000000
vt -5.566919 1.016000 0.000000
vt -4.175189 0.000000 0.000000
vt -4.175189 1.016000 0.000000
vt -2.783460 0.000000 0.000000
vt -2.783460 1.016000 0.000000
vt -2.087595 0.000000 0.000000
vt -2.087595 1.016000 0.000000
vt -1.391730 0.000000 0.000000
vt -1.391730 1.016000 0.000000
vt -0.695865 0.000000 0.000000
vt -0.695865 1.016000 0.000000
vt 0.000000 0.000000 0.000000
vt 0.000000 1.016000 0.000000
vt -0.000000 1.016000 0.000000
vt -0.600000 1.016000 0.000000
vt -0.000000 0.000000 0.000000
vt -0.600000 0.000000 0.000000
vt -0.000000 1.016000 0.000000
vt -1.300000 1.016000 0.000000
vt -0.000000 0.000000 0.000000
vt -1.300000 0.000000 0.000000
vt 0.000000 1.016000 0.000000
vt -1.431782 1.016000 0.000000
vt 0.000000 0.000000 0.000000
vt -1.431782 0.000000 0.000000
vt -0.000000 1.016000 0.000000
vt -0.800000 1.016000 0.000000
vt -0.000000 0.000000 0.000000
vt -0.800000 0.000000 0.000000
vt -0.000000 1.016000 0.000000
vt -0.900000 1.016000 0.000000
vt -0.000000 0.000000 0.000000
vt -0.900000 0.000000 0.000000
vt -0.000000 1.016000 0.000000
vt -1.204159 1.016000 0.000000
vt 0.000000 0.000000 0.000000
vt -1.204159 -0.000000 0.000000
vt -0.000000 1.016000 0.000000
vt -0.600000 1.016000 0.000000
vt -0.000000 0.000000 0.000000
vt -0.600000 0.000000 0.000000
vt -0.000000 1.016000 0.000000
vt -1.300000 1.016000 0.000000
vt -0.000000 0.000000 0.000000
vt -1.300000 0.000000 0.000000
vt 0.000000 1.016000 0.000000
vt -1.431782 1.016000 0.000000
vt 0.000000 0.000000 0.000000
vt -1.431782 -0.000000 0.000000
vt -0.000000 1.016000 0.000000
vt -1.204159 1.016000 0.000000
vt -0.000000 0.000000 0.000000
vt -1.204159 0.000000 0.000000
vt -0.000000 1.016000 0.000000
vt -0.800000 1.016000 0.000000
vt -0.000000 0.000000 0.000000
vt -0.800000 0.000000 0.000000
vt -0.000000 1.016000 0.000000
vt -0.900000 1.016000 0.000000
vt -0.000000 0.000000 0.000000
vt -0.900000 0.000000 0.000000
vt -0.000000 1.016000 0.000000
vt -0.503017 1.016000 0.000000
vt -0.000000 0.000000 0.000000
vt -0.503017 0.000000 0.000000
vt -4.559778 -0.162354 0.000000
vt -5.356637 -0.164350 0.000000
vt -4.570000 -0.239999 0.000000
vt -5.420074 -0.317500 0.000000
vt -4.559778 -0.317645 0.000000
vt -4.529807 -0.389999 0.000000
vt -5.520987 -0.449013 0.000000
vt -4.482132 -0.452131 0.000000
vt -4.420000 -0.499807 0.000000
vt -5.652500 -0.549926 0.000000
vt -5.143094 -0.736304 0.000000
vt -5.805650 -0.613363 0.000000
vt -5.967922 -0.759998 0.000000
vt -5.970000 -0.635000 0.000000
vt -6.150017 -0.738373 0.000000
vt -6.321632 -0.673762 0.000000
vt -6.134350 -0.613363 0.000000
vt -6.472776 -0.569927 0.000000
vt -6.287500 -0.549926 0.000000
vt -6.419012 -0.449013 0.000000
vt -4.529807 -0.089999 0.000000
vt -5.335000 0.000000 0.000000
vt -4.482132 -0.027867 0.000000
vt -4.420000 0.019808 0.000000
vt -4.347646 0.049778 0.000000
vt -4.770000 0.160001 0.000000
vt -4.870000 0.160001 0.000000
vt -5.226384 0.160001 0.000000
vt -5.356637 0.164350 0.000000
vt -5.420074 0.317500 0.000000
vt -5.226384 0.662023 0.000000
vt -5.520987 0.449013 0.000000
vt -5.652500 0.549926 0.000000
vt -5.805650 0.613363 0.000000
vt -5.970000 0.760001 0.000000
vt -5.970000 0.635000 0.000000
vt -6.152035 0.737878 0.000000
vt -6.323473 0.672799 0.000000
vt -4.270000 0.160001 0.000000
vt -4.270000 0.060001 0.000000
vt -4.173017 0.160001 0.000000
vt -4.192354 0.049778 0.000000
vt -3.670000 0.160001 0.000000
vt -4.120000 0.019808 0.000000
vt -3.173073 0.098610 0.000000
vt -3.186055 0.000000 0.000000
vt -4.057868 -0.027867 0.000000
vt -4.010192 -0.089999 0.000000
vt -3.173073 -0.098610 0.000000
vt -3.980222 -0.162354 0.000000
vt -3.135011 -0.190500 0.000000
vt -3.970000 -0.239999 0.000000
vt -3.074463 -0.269408 0.000000
vt -3.980222 -0.317645 0.000000
vt -2.995555 -0.329956 0.000000
vt -4.010192 -0.389999 0.000000
vt -2.903665 -0.368018 0.000000
vt -4.057868 -0.452131 0.000000
vt -2.883389 -0.625836 0.000000
vt -3.605470 -0.669383 0.000000
vt -4.120000 -0.499807 0.000000
vt -4.192354 -0.529777 0.000000
vt -4.270000 -0.539999 0.000000
vt -4.356843 -0.706131 0.000000
vt -4.347646 -0.529777 0.000000
vt 2.445881 0.560001 0.000000
vt 0.380000 0.760001 0.000000
vt 2.072652 0.560001 0.000000
vt 1.970362 0.560001 0.000000
vt 2.169158 0.165793 0.000000
vt 2.072652 0.142167 0.000000
vt 2.862583 0.056551 0.000000
vt 2.055172 -0.072418 0.000000
vt 1.470031 -0.005360 0.000000
vt 1.293877 -0.185871 0.000000
vt 0.830000 -0.139999 0.000000
vt 0.568385 -0.285511 0.000000
vt 0.002713 -0.152293 0.000000
vt -0.131816 -0.372930 0.000000
vt -0.470000 -0.139999 0.000000
vt -0.770000 -0.339999 0.000000
vt -0.570000 -0.039999 0.000000
vt -0.770000 0.460001 0.000000
vt -0.570000 0.560001 0.000000
vt -0.870000 0.560001 0.000000
vt -1.770000 0.560001 0.000000
vt -3.370000 0.662023 0.000000
vt -2.805055 0.381000 0.000000
vt -2.903665 0.368018 0.000000
vt -2.995555 0.329956 0.000000
vt -3.074463 0.269408 0.000000
vt -3.370000 0.160001 0.000000
vt -3.135011 0.190500 0.000000
vt -3.570000 0.160001 0.000000
vt -3.670000 0.662023 0.000000
vt -3.570000 0.662023 0.000000
vt 2.521284 0.251997 0.000000
vt 2.624726 0.277320 0.000000
vt 2.555523 0.560001 0.000000
vt 2.926037 0.560001 0.000000
vt 3.031205 0.560001 0.000000
vt 3.073512 0.387187 0.000000
vt 2.974290 0.362897 0.000000
vt 3.725845 0.202760 0.000000
vt 1.331625 0.560001 0.000000
vt 0.730000 0.560001 0.000000
vt 0.830000 0.460001 0.000000
vt 3.779421 0.560001 0.000000
vt 6.730000 0.760001 0.000000
vt 5.653450 0.553262 0.000000
vt 4.653719 0.367854 0.000000
vt -6.583363 0.164350 0.000000
vt -6.724574 0.090656 0.000000
vt -6.605000 0.000000 0.000000
vt -6.724323 -0.092718 0.000000
vt -6.583363 -0.164350 0.000000
vt -6.680158 -0.270695 0.000000
vt -6.519926 -0.317500 0.000000
vt -6.594650 -0.432913 0.000000
vt -6.680896 0.268753 0.000000
vt -6.519926 0.317500 0.000000
vt -6.595831 0.431203 0.000000
vt -6.419012 0.449013 0.000000
vt -6.474332 0.568551 0.000000
vt -6.287500 0.549926 0.000000
vt -6.134350 0.613363 0.000000
vt -2.706445 0.368018 0.000000
vt -2.614555 0.329956 0.000000
vt -2.535647 0.269408 0.000000
vt -2.475099 0.190500 0.000000
vt -2.437037 0.098610 0.000000
vt -1.770000 -0.239999 0.000000
vt -2.424055 0.000000 0.000000
vt -2.437037 -0.098610 0.000000
vt -2.475099 -0.190500 0.000000
vt -2.535647 -0.269408 0.000000
vt -1.670000 -0.339999 0.000000
vt -2.614555 -0.329956 0.000000
vt -2.706445 -0.368018 0.000000
vt -2.805055 -0.381000 0.000000
vt -1.497848 -0.516606 0.000000
vt -4.870000 0.662023 0.000000
vt -4.770000 0.662023 0.000000
vt -4.270000 0.662023 0.000000
vt -4.173017 0.662023 0.000000
vt -0.000000 1.016000 0.000000
vt -0.503017 1.016000 0.000000
vt -0.000000 0.000000 0.000000
vt -0.503017 0.000000 0.000000
vt 0.770000 -0.339999 0.000000
vt 1.497848 -0.516606 0.000000
vt 1.670000 -0.339999 0.000000
vt 2.706445 -0.368018 0.000000
vt 2.614555 -0.329956 0.000000
vt 0.770000 0.460001 0.000000
vt 0.570000 -0.039999 0.000000
vt 0.470000 -0.139999 0.000000
vt 0.131816 -0.372930 0.000000
vt -0.568385 -0.285511 0.000000
vt -0.830000 -0.139999 0.000000
vt -1.293877 -0.185871 0.000000
vt -1.470031 -0.005360 0.000000
vt -2.055172 -0.072418 0.000000
vt -2.072652 0.142167 0.000000
vt -2.862583 0.056551 0.000000
vt -2.169158 0.165793 0.000000
vt -2.521284 0.251997 0.000000
vt 1.770000 -0.239999 0.000000
vt 0.870000 0.560001 0.000000
vt 0.570000 0.560001 0.000000
vt -0.380000 0.760001 0.000000
vt -0.730000 0.560001 0.000000
vt -1.331625 0.560001 0.000000
vt -0.830000 0.460001 0.000000
vt 1.770000 0.560001 0.000000
vt 2.437037 0.098610 0.000000
vt 2.475099 0.190500 0.000000
vt 2.535647 0.269408 0.000000
vt -6.730000 0.760001 0.000000
vt -3.779421 0.560001 0.000000
vt -5.653450 0.553262 0.000000
vt -4.653719 0.367854 0.000000
vt -3.073512 0.387187 0.000000
vt -3.725845 0.202760 0.000000
vt -2.974290 0.362897 0.000000
vt -2.624726 0.277320 0.000000
vt 2.883389 -0.625836 0.000000
vt 2.805055 -0.381000 0.000000
vt 2.903665 -0.368018 0.000000
vt 3.605470 -0.669383 0.000000
vt 2.995555 -0.329956 0.000000
vt 5.420074 -0.317500 0.000000
vt 3.074463 -0.269408 0.000000
vt 3.135011 -0.190500 0.000000
vt 5.356637 -0.164350 0.000000
vt 3.173073 -0.098610 0.000000
vt 5.335000 0.000000 0.000000
vt 4.270000 0.160001 0.000000
vt 4.770000 0.160001 0.000000
vt 4.870000 0.160001 0.000000
vt 4.770000 0.662023 0.000000
vt 4.870000 0.662023 0.000000
vt 5.970000 0.760001 0.000000
vt 5.226384 0.662023 0.000000
vt 5.805650 0.613363 0.000000
vt 5.652500 0.549926 0.000000
vt 5.520987 0.449013 0.000000
vt 5.420074 0.317500 0.000000
vt 5.226384 0.160001 0.000000
vt 5.356637 0.164350 0.000000
vt 5.520987 -0.449013 0.000000
vt 4.356843 -0.706131 0.000000
vt 5.652500 -0.549926 0.000000
vt 5.143094 -0.736304 0.000000
vt 5.805650 -0.613363 0.000000
vt 5.967922 -0.759998 0.000000
vt 5.970000 -0.635000 0.000000
vt 6.150017 -0.738373 0.000000
vt 6.321632 -0.673762 0.000000
vt 6.134350 -0.613363 0.000000
vt 6.472776 -0.569927 0.000000
vt 6.287500 -0.549926 0.000000
vt 6.419012 -0.449013 0.000000
vt 6.594650 -0.432913 0.000000
vt 6.519926 -0.317500 0.000000
vt 6.680158 -0.270695 0.000000
vt 6.583363 -0.164350 0.000000
vt 6.724323 -0.092718 0.000000
vt 6.605000 0.000000 0.000000
vt 6.724574 0.090656 0.000000
vt 6.583363 0.164350 0.000000
vt 6.680896 0.268753 0.000000
vt 6.519926 0.317500 0.000000
vt 6.595831 0.431203 0.000000
vt 6.419012 0.449013 0.000000
vt 6.474332 0.568551 0.000000
vt 6.287500 0.549926 0.000000
vt 6.134350 0.613363 0.000000
vt 6.323473 0.672799 0.000000
vt 5.970000 0.635000 0.000000
vt 6.152035 0.737878 0.000000
vt 3.370000 0.662023 0.000000
vt 3.570000 0.662023 0.000000
vt 3.670000 0.662023 0.000000
vt 3.670000 0.160001 0.000000
vt 3.570000 0.160001 0.000000
vt 3.186055 0.000000 0.000000
vt 3.173073 0.098610 0.000000
vt 3.370000 0.160001 0.000000
vt 3.135011 0.190500 0.000000
vt 3.074463 0.269408 0.000000
vt 2.995555 0.329956 0.000000
vt 2.903665 0.368018 0.000000
vt 2.805055 0.381000 0.000000
vt 2.706445 0.368018 0.000000
vt 2.614555 0.329956 0.000000
vt 4.173017 0.160001 0.000000
vt 2.535647 -0.269408 0.000000
vt 2.475099 -0.190500 0.000000
vt 2.437037 -0.098610 0.000000
vt 2.424055 0.000000 0.000000
vt -3.031205 0.560001 0.000000
vt -2.926037 0.560001 0.000000
vt -2.555523 0.560001 0.000000
vt -1.970362 0.560001 0.000000
vt -2.072652 0.560001 0.000000
vt -2.445881 0.560001 0.000000
vt 4.270000 0.662023 0.000000
vt 4.173017 0.662023 0.000000
vn -1.000000 0.000000 -0.000000
vn -1.000000 0.000000 -0.000000
vn -1.000000 0.000000 -0.000000
vn -1.000000 0.000000 -0.000000
vn -0.000000 -1.000000 -0.000000
vn -0.000000 -1.000000 -0.000000
vn -0.000000 -1.000000 -0.000000
vn -0.000000 -1.000000 -0.000000
vn -0.000000 -1.000000 -0.000000
vn -0.000000 -1.000000 -0.000000
vn -0.000000 -1.000000 -0.000000
vn -0.000000 -1.000000 -0.000000
vn -0.000000 -1.000000 -0.000000
vn -0.000000 -1.000000 -0.000000
vn -0.000000 -1.000000 -0.000000
vn -0.000000 -1.000000 -0.000000
vn -0.000000 -1.000000 -0.000000
vn -0.000000 -1.000000 -0.000000
vn -0.000000 -1.000000 -0.000000
vn -0.000000 -1.000000 -0.000000
vn -0.000000 -1.000000 -0.000000
vn -0.000000 -1.000000 -0.000000
vn -0.000000 -1.000000 -0.000000
vn -0.000000 -1.000000 -0.000000
vn -0.000000 -1.000000 -0.000000
vn -0.000000 -1.000000 -0.000000
vn -0.000000 -1.000000 -0.000000
vn -0.000000 -1.000000 -0.000000
vn -0.965926 0.000000 0.258819
vn -0.965926 0.000000 0.258819
vn -1.000000 0.000000 0.000000
vn -1.000000 0.000000 0.000000
vn -0.965926 -0.000000 -0.258819
vn -0.965926 -0.000000 -0.258819
vn -0.866025 -0.000000 -0.500000
vn -0.866025 -0.000000 -0.500000
vn -0.707107 -0.000000 -0.707107
vn -0.707107 -0.000000 -0.707107
vn -0.500000 -0.000000 -0.866025
vn -0.500000 -0.000000 -0.866025
vn -0.258819 -0.000000 -0.965926
vn -0.258819 -0.000000 -0.965926
vn 0.000000 0.000000 -1.000000
vn 0.000000 0.000000 -1.000000
vn 0.258819 0.000000 -0.965926
vn 0.258819 0.000000 -0.965926
vn 0.500000 0.000000 -0.866025
vn 0.500000 0.000000 -0.866025
vn 0.707107 0.000000 -0.707107
vn 0.707107 0.000000 -0.707107
vn 0.866025 0.000000 -0.500000
vn 0.866025 0.000000 -0.500000
vn 0.965926 0.000000 -0.258819
vn 0.965926 0.000000 -0.258819
vn 1.000000 0.000000 0.000000
vn 1.000000 0.000000 0.000000
vn 0.965926 0.000000 0.258819
vn 0.965926 0.000000 0.258819
vn 0.866025 0.000000 0.500000
vn 0.866025 0.000000 0.500000
vn 0.707107 0.000000 0.707107
vn 0.707107 0.000000 0.707107
vn 0.500000 0.000000 0.866025
vn 0.500000 0.000000 0.866025
vn 0.258819 0.000000 0.965926
vn 0.258819 0.000000 0.965926
vn 0.000000 0.000000 1.000000
vn 0.000000 0.000000 1.000000
vn -0.258819 0.000000 0.965926
vn -0.258819 0.000000 0.965926
vn -0.500000 0.000000 0.866025
vn -0.500000 0.000000 0.866025
vn -0.707107 0.000000 0.707107
vn -0.707107 0.000000 0.707107
vn -0.866025 0.000000 0.500000
vn -0.866025 0.000000 0.500000
vn 1.000000 -0.000000 -0.000000
vn 1.000000 -0.000000 -0.000000
vn 1.000000 -0.000000 -0.000000
vn 1.000000 -0.000000 -0.000000
vn 1.000000 -0.000000 -0.000000
vn 1.000000 -0.000000 -0.000000
vn 1.000000 -0.000000 -0.000000
vn 1.000000 -0.000000 -0.000000
vn -0.000000 -0.000000 -1.000000
vn -0.000000 -0.000000 -1.000000
vn -0.000000 -0.000000 -1.000000
vn -0.000000 -0.000000 -1.000000
vn -1.000000 0.000000 -0.000000
vn -1.000000 0.000000 -0.000000
vn -1.000000 0.000000 -0.000000
vn -1.000000 0.000000 -0.000000
vn -0.000000 -0.000000 1.000000
vn -0.000000 -0.000000 1.000000
vn -0.000000 -0.000000 1.000000
vn -0.000000 -0.000000 1.000000
vn -0.000000 -0.000000 -1.000000
vn -0.000000 -0.000000 -1.000000
vn -0.000000 -0.000000 -1.000000
vn -0.000000 -0.000000 -1.000000
vn -1.000000 0.000000 -0.000000
vn -1.000000 0.000000 -0.000000
vn -1.000000 0.000000 -0.000000
vn -1.000000 0.000000 -0.000000
vn -0.000000 -0.000000 1.000000
vn -0.000000 -0.000000 1.000000
vn -0.000000 -0.000000 1.000000
vn -0.000000 -0.000000 1.000000
vn 1.000000 -0.000000 -0.000000
vn 1.000000 -0.000000 -0.000000
vn 1.000000 -0.000000 -0.000000
vn 1.000000 -0.000000 -0.000000
vn -0.000000 -0.000000 -1.000000
vn -0.000000 -0.000000 -1.000000
vn -0.000000 -0.000000 -1.000000
vn -0.000000 -0.000000 -1.000000
vn -1.000000 0.000000 -0.000000
vn -1.000000 0.000000 -0.000000
vn -1.000000 0.000000 -0.000000
vn -1.000000 0.000000 -0.000000
vn -0.000000 -0.000000 1.000000
vn -0.000000 -0.000000 1.000000
vn -0.000000 -0.000000 1.000000
vn -0.000000 -0.000000 1.000000
vn 1.000000 -0.000000 -0.000000
vn 1.000000 -0.000000 -0.000000
vn 1.000000 -0.000000 -0.000000
vn 1.000000 -0.000000 -0.000000
vn 0.971317 0.000000 0.237788
vn 0.971317 0.000000 0.237788
vn 0.971317 0.000000 0.237788
vn 0.971317 0.000000 0.237788
vn 0.237788 -0.000000 -0.971317
vn 0.237788 -0.000000 -0.971317
vn 0.237788 -0.000000 -0.971317
vn 0.237788 -0.000000 -0.971317
vn -0.971317 -0.000000 -0.237788
vn -0.971317 -0.000000 -0.237788
vn -0.971317 -0.000000 -0.237788
vn -0.971317 -0.000000 -0.237788
vn -0.000000 -0.000000 1.000000
vn -0.000000 -0.000000 1.000000
vn -0.000000 -0.000000 1.000000
vn -0.000000 -0.000000 1.000000
vn 0.971317 0.000000 0.237788
vn 0.971317 0.000000 0.237788
vn 0.971317 0.000000 0.237788
vn 0.971317 0.000000 0.237788
vn 0.237788 -0.000000 -0.971317
vn 0.237788 -0.000000 -0.971317
vn 0.237788 -0.000000 -0.971317
vn 0.237788 -0.000000 -0.971317
vn -0.971317 -0.000000 -0.237788
vn -0.971317 -0.000000 -0.237788
vn -0.971317 -0.000000 -0.237788
vn -0.971317 -0.000000 -0.237788
vn -0.000000 -0.000000 1.000000
vn -0.000000 -0.000000 1.000000
vn -0.000000 -0.000000 1.000000
vn -0.000000 -0.000000 1.000000
vn 0.971317 0.000000 0.237788
vn 0.971317 0.000000 0.237788
vn 0.971317 0.000000 0.237788
vn 0.971317 0.000000 0.237788
vn 0.237788 -0.000000 -0.971317
vn 0.237788 -0.000000 -0.971317
vn 0.237788 -0.000000 -0.971317
vn 0.237788 -0.000000 -0.971317
vn -0.971317 -0.000000 -0.237788
vn -0.971317 -0.000000 -0.237788
vn -0.971317 -0.000000 -0.237788
vn -0.971317 -0.000000 -0.237788
vn -0.000000 -0.000000 1.000000
vn -0.000000 -0.000000 1.000000
vn -0.000000 -0.000000 1.000000
vn -0.000000 -0.000000 1.000000
vn 0.237788 -0.000000 -0.971317
vn 0.237788 -0.000000 -0.971317
vn 0.237788 -0.000000 -0.971317
vn 0.237788 -0.000000 -0.971317
vn -0.971317 -0.000000 -0.237788
vn -0.971317 -0.000000 -0.237788
vn -0.971317 -0.000000 -0.237788
vn -0.971317 -0.000000 -0.237788
vn -0.000000 -0.000000 1.000000
vn -0.000000 -0.000000 1.000000
vn -0.000000 -0.000000 1.000000
vn -0.000000 -0.000000 1.000000
vn -0.965926 -0.000000 -0.258819
vn -0.965926 -0.000000 -0.258819
vn -1.000000 -0.000000 -0.000000
vn -1.000000 -0.000000 -0.000000
vn -0.965926 0.000000 0.258819
vn -0.965926 0.000000 0.258819
vn -0.866025 0.000000 0.500000
vn -0.866025 0.000000 0.500000
vn -0.707107 0.000000 0.707107
vn -0.707107 0.000000 0.707107
vn -0.500000 0.000000 0.866025
vn -0.500000 0.000000 0.866025
vn -0.258819 0.000000 0.965926
vn -0.258819 0.000000 0.965926
vn 0.000000 0.000000 1.000000
vn 0.000000 0.000000 1.000000
vn 0.258819 0.000000 0.965926
vn 0.258819 0.000000 0.965926
vn 0.500000 0.000000 0.866025
vn 0.500000 0.000000 0.866025
vn 0.707107 0.000000 0.707107
vn 0.707107 0.000000 0.707107
vn 0.866025 0.000000 0.500000
vn 0.866025 0.000000 0.500000
vn 0.965926 0.000000 0.258819
vn 0.965926 0.000000 0.258819
vn 1.000000 0.000000 0.000000
vn 1.000000 0.000000 0.000000
vn 0.965926 0.000000 -0.258819
vn 0.965926 0.000000 -0.258819
vn 0.866025 0.000000 -0.500000
vn 0.866025 0.000000 -0.500000
vn 0.707107 0.000000 -0.707107
vn 0.707107 0.000000 -0.707107
vn 0.500000 0.000000 -0.866025
vn 0.500000 0.000000 -0.866025
vn 0.258819 0.000000 -0.965926
vn 0.258819 0.000000 -0.965926
vn 0.000000 0.000000 -1.000000
vn 0.000000 0.000000 -1.000000
vn -0.258819 -0.000000 -0.965926
vn -0.258819 -0.000000 -0.965926
vn -0.500000 -0.000000 -0.866025
vn -0.500000 -0.000000 -0.866025
vn -0.707107 -0.000000 -0.707107
vn -0.707107 -0.000000 -0.707107
vn -0.866025 -0.000000 -0.500000
vn -0.866025 -0.000000 -0.500000
vn -0.965926 -0.000000 -0.258819
vn -0.965926 -0.000000 -0.258819
vn -1.000000 -0.000000 -0.000000
vn -1.000000 -0.000000 -0.000000
vn -0.965926 0.000000 0.258819
vn -0.965926 0.000000 0.258819
vn -0.866025 0.000000 0.500000
vn -0.866025 0.000000 0.500000
vn -0.707107 0.000000 0.707107
vn -0.707107 0.000000 0.707107
vn -0.500000 0.000000 0.866025
vn -0.500000 0.000000 0.866025
vn -0.258819 0.000000 0.965926
vn -0.258819 0.000000 0.965926
vn 0.000000 0.000000 1.000000
vn 0.000000 0.000000 1.000000
vn 0.258819 0.000000 0.965926
vn 0.258819 0.000000 0.965926
vn 0.500000 0.000000 0.866025
vn 0.500000 0.000000 0.866025
vn 0.707107 0.000000 0.707107
vn 0.707107 0.000000 0.707107
vn 0.866025 0.000000 0.500000
vn 0.866025 0.000000 0.500000
vn 0.965926 0.000000 0.258819
vn 0.965926 0.000000 0.258819
vn 1.000000 0.000000 0.000000
vn 1.000000 0.000000 0.000000
vn 0.965926 0.000000 -0.258819
vn 0.965926 0.000000 -0.258819
vn 0.866025 0.000000 -0.500000
vn 0.866025 0.000000 -0.500000
vn 0.707107 0.000000 -0.707107
vn 0.707107 0.000000 -0.707107
vn 0.500000 0.000000 -0.866025
vn 0.500000 0.000000 -0.866025
vn 0.258819 0.000000 -0.965926
vn 0.258819 0.000000 -0.965926
vn 0.000000 0.000000 -1.000000
vn 0.000000 0.000000 -1.000000
vn -0.258819 -0.000000 -0.965926
vn -0.258819 -0.000000 -0.965926
vn -0.500000 -0.000000 -0.866025
vn -0.500000 -0.000000 -0.866025
vn -0.707107 -0.000000 -0.707107
vn -0.707107 -0.000000 -0.707107
vn -0.866025 -0.000000 -0.500000
vn -0.866025 -0.000000 -0.500000
vn 0.000000 0.000000 -1.000000
vn 0.000000 0.000000 -1.000000
vn 0.000000 0.000000 -1.000000
vn 0.000000 0.000000 -1.000000
vn 0.000000 0.000000 -1.000000
vn 0.000000 0.000000 -1.000000
vn -0.002734 -0.000000 0.999996
vn -0.002734 -0.000000 0.999996
vn 0.236865 -0.000000 0.971543
vn 0.236865 -0.000000 0.971543
vn 0.462674 -0.000000 0.886529
vn 0.462674 -0.000000 0.886529
vn 0.661547 -0.000000 0.749903
vn 0.661547 -0.000000 0.749903
vn 0.821907 -0.000000 0.569621
vn 0.821907 -0.000000 0.569621
vn 0.934418 -0.000000 0.356177
vn 0.934418 -0.000000 0.356177
vn 0.992530 -0.000000 0.121998
vn 0.992530 -0.000000 0.121998
vn 0.992860 -0.000000 -0.119284
vn 0.992860 -0.000000 -0.119284
vn 0.935389 -0.000000 -0.353622
vn 0.935389 -0.000000 -0.353622
vn 0.823461 -0.000000 -0.567372
vn 0.823461 -0.000000 -0.567372
vn 0.663595 -0.000000 -0.748092
vn 0.663595 -0.000000 -0.748092
vn 0.465096 -0.000000 -0.885261
vn 0.465096 -0.000000 -0.885261
vn 0.239520 -0.000000 -0.970891
vn 0.239520 -0.000000 -0.970891
vn -0.191395 0.000000 0.981513
vn -0.185578 0.000000 0.982630
vn -0.191395 0.000000 0.981513
vn -0.185578 0.000000 0.982630
vn -0.178879 0.000000 0.983871
vn -0.178879 0.000000 0.983871
vn -0.171207 0.000000 0.985235
vn -0.171207 0.000000 0.985235
vn -0.162489 0.000000 0.986710
vn -0.162489 0.000000 0.986710
vn -0.152688 0.000000 0.988274
vn -0.152688 0.000000 0.988274
vn -0.141840 0.000000 0.989890
vn -0.141840 0.000000 0.989890
vn -0.130060 0.000000 0.991506
vn -0.130060 0.000000 0.991506
vn -0.117547 0.000000 0.993067
vn -0.117547 0.000000 0.993067
vn -0.091492 0.000000 0.995806
vn -0.091492 0.000000 0.995806
vn -0.066166 0.000000 0.997809
vn -0.066166 0.000000 0.997809
vn -0.054425 0.000000 0.998518
vn -0.054425 0.000000 0.998518
vn -0.043493 0.000000 0.999054
vn -0.043493 0.000000 0.999054
vn -0.033424 0.000000 0.999441
vn -0.033424 0.000000 0.999441
vn -0.024221 0.000000 0.999707
vn -0.024221 0.000000 0.999707
vn 1.000000 0.000000 0.000000
vn 1.000000 0.000000 0.000000
vn 1.000000 0.000000 0.000000
vn 1.000000 0.000000 0.000000
vn -0.000000 -0.000000 -1.000000
vn -0.000000 -0.000000 -1.000000
vn -0.000000 -0.000000 -1.000000
vn -0.000000 -0.000000 -1.000000
vn -0.419058 -0.000000 0.907959
vn -0.419058 -0.000000 0.907959
vn -0.419058 -0.000000 0.907959
vn -0.419058 -0.000000 0.907959
vn -1.000000 -0.000000 0.000000
vn -1.000000 -0.000000 0.000000
vn -1.000000 -0.000000 0.000000
vn -1.000000 -0.000000 0.000000
vn 0.000000 0.000000 1.000000
vn 0.000000 0.000000 1.000000
vn 0.000000 0.000000 1.000000
vn 0.000000 0.000000 1.000000
vn 0.664364 -0.000000 -0.747409
vn 0.664364 -0.000000 -0.747409
vn 0.664364 -0.000000 -0.747409
vn 0.664364 -0.000000 -0.747409
vn -1.000000 -0.000000 0.000000
vn -1.000000 -0.000000 0.000000
vn -1.000000 -0.000000 0.000000
vn -1.000000 -0.000000 0.000000
vn 0.000000 0.000000 1.000000
vn 0.000000 0.000000 1.000000
vn 0.000000 0.000000 1.000000
vn 0.000000 0.000000 1.000000
vn 0.419058 -0.000000 -0.907959
vn 0.419058 -0.000000 -0.907959
vn 0.419058 -0.000000 -0.907959
vn 0.419058 -0.000000 -0.907959
vn -0.664364 -0.000000 0.747409
vn -0.664364 -0.000000 0.747409
vn -0.664364 -0.000000 0.747409
vn -0.664364 -0.000000 0.747409
vn 1.000000 0.000000 0.000000
vn 1.000000 0.000000 0.000000
vn 1.000000 0.000000 0.000000
vn 1.000000 0.000000 0.000000
vn -0.000000 -0.000000 -1.000000
vn -0.000000 -0.000000 -1.000000
vn -0.000000 -0.000000 -1.000000
vn -0.000000 -0.000000 -1.000000
vn -0.000000 -0.000000 -1.000000
vn -0.000000 -0.000000 -1.000000
vn -0.000000 -0.000000 -1.000000
vn -0.000000 -0.000000 -1.000000
vn -0.000000 -1.000000 -0.000000
vn -0.000000 -1.000000 -0.000000
vn -0.000000 -1.000000 -0.000000
vn -0.000000 -1.000000 -0.000000
vn -0.000000 -1.000000 -0.000000
vn -0.000000 -1.000000 -0.000000
vn -0.000000 -1.000000 -0.000000
vn -0.000000 -1.000000 -0.000000
vn -0.000000 -1.000000 -0.000000
vn -0.000000 -1.000000 -0.000000
vn -0.000000 -1.000000 -0.000000
vn -0.000000 -1.000000 -0.000000
vn -0.000000 -1.000000 -0.000000
vn -0.000000 -1.000000 -0.000000
vn -0.000000 -1.000000 -0.000000
vn -0.000000 -1.000000 -0.000000
vn -0.000000 -1.000000 -0.000000
vn -0.000000 -1.000000 -0.000000
vn -0.000000 -1.000000 -0.000000
vn -0.000000 -1.000000 -0.000000
vn -0.000000 -1.000000 -0.000000
vn -0.000000 -1.000000 -0.000000
vn -0.000000 -1.000000 -0.000000
vn -0.000000 -1.000000 -0.000000
vn -0.000000 -1.000000 -0.000000
vn -0.000000 -1.000000 -0.000000
vn -0.000000 -1.000000 -0.000000
vn -0.000000 -1.000000 -0.000000
vn -0.000000 -1.000000 -0.000000
vn -0.000000 -1.000000 -0.000000
vn -0.000000 -1.000000 -0.000000
vn -0.000000 -1.000000 -0.000000
vn -0.000000 -1.000000 -0.000000
vn -0.000000 -1.000000 -0.000000
vn -0.000000 -1.000000 -0.000000
vn -0.000000 -1.000000 -0.000000
vn -0.000000 -1.000000 -0.000000
vn -0.000000 -1.000000 -0.000000
vn -0.000000 -1.000000 -0.000000
vn -0.000000 -1.000000 -0.000000
vn -0.000000 -1.000000 -0.000000
vn -0.000000 -1.000000 -0.000000
vn -0.000000 -1.000000 -0.000000
vn -0.000000 -1.000000 -0.000000
vn -0.000000 -1.000000 -0.000000
vn -0.000000 -1.000000 -0.000000
vn -0.000000 -1.000000 -0.000000
vn -0.000000 -1.000000 -0.000000
vn -0.000000 -1.000000 -0.000000
vn -0.000000 -1.000000 -0.000000
vn -0.000000 -1.000000 -0.000000
vn -0.000000 -1.000000 -0.000000
vn -0.000000 -1.000000 -0.000000
vn -0.000000 -1.000000 -0.000000
vn -0.000000 -1.000000 -0.000000
vn -0.000000 -1.000000 -0.000000
vn -0.000000 -1.000000 -0.000000
vn -0.000000 -1.000000 -0.000000
vn -0.000000 -1.000000 -0.000000
vn -0.000000 -1.000000 -0.000000
vn -0.000000 -1.000000 -0.000000
vn -0.000000 -1.000000 -0.000000
vn -0.000000 -1.000000 -0.000000
vn -0.000000 -1.000000 -0.000000
vn -0.000000 -1.000000 -0.000000
vn -0.000000 -1.000000 -0.000000
vn -0.000000 -1.000000 -0.000000
vn -0.000000 -1.000000 -0.000000
vn -0.000000 -1.000000 -0.000000
vn -0.000000 -1.000000 -0.000000
vn -0.000000 -1.000000 -0.000000
vn -0.000000 -1.000000 -0.000000
vn -0.000000 -1.000000 -0.000000
vn -0.000000 -1.000000 -0.000000
vn -0.000000 -1.000000 -0.000000
vn -0.000000 -1.000000 -0.000000
vn -0.000000 -1.000000 -0.000000
vn -0.000000 -1.000000 -0.000000
vn -0.000000 -1.000000 -0.000000
vn -0.000000 -1.000000 -0.000000
vn -0.000000 -1.000000 -0.000000
vn -0.000000 -1.000000 -0.000000
vn -0.000000 -1.000000 -0.000000
vn -0.000000 -1.000000 -0.000000
vn -0.000000 -1.000000 -0.000000
vn -0.000000 -1.000000 -0.000000
vn -0.000000 -1.000000 -0.000000
vn -0.000000 -1.000000 -0.000000
vn -0.000000 -1.000000 -0.000000
vn -0.000000 -1.000000 -0.000000
vn -0.000000 -1.000000 -0.000000
vn -0.000000 -1.000000 -0.000000
vn -0.000000 -1.000000 -0.000000
vn -0.000000 -1.000000 -0.000000
vn -0.000000 -1.000000 -0.000000
vn -0.000000 -1.000000 -0.000000
vn -0.000000 -1.000000 -0.000000
vn -0.000000 -1.000000 -0.000000
vn -0.000000 -1.000000 -0.000000
vn -0.000000 -1.000000 -0.000000
vn -0.000000 -1.000000 -0.000000
vn -0.000000 -1.000000 -0.000000
vn -0.000000 -1.000000 -0.000000
vn -0.000000 -1.000000 -0.000000
vn -0.000000 -1.000000 -0.000000
vn -0.000000 -1.000000 -0.000000
vn -0.000000 -1.000000 -0.000000
vn -0.000000 -1.000000 -0.000000
vn -0.000000 -1.000000 -0.000000
vn -0.000000 -1.000000 -0.000000
vn -0.000000 -1.000000 -0.000000
vn -0.000000 -1.000000 -0.000000
vn -0.000000 -1.000000 -0.000000
vn -0.000000 -1.000000 -0.000000
vn -0.000000 -1.000000 -0.000000
vn -0.000000 -1.000000 -0.000000
vn -0.000000 -1.000000 -0.000000
vn -0.000000 -1.000000 -0.000000
vn -0.000000 -1.000000 -0.000000
vn -0.000000 -1.000000 -0.000000
vn -0.000000 -1.000000 -0.000000
vn -0.000000 -1.000000 -0.000000
vn -0.000000 -1.000000 -0.000000
vn -0.000000 -1.000000 -0.000000
vn -0.000000 -1.000000 -0.000000
vn -0.000000 -1.000000 -0.000000
vn -0.000000 -1.000000 -0.000000
vn -0.000000 -1.000000 -0.000000
vn -0.000000 -1.000000 -0.000000
vn -0.000000 -1.000000 -0.000000
vn -0.000000 -1.000000 -0.000000
vn -0.000000 -1.000000 -0.000000
vn -0.000000 -1.000000 -0.000000
vn -0.000000 -1.000000 -0.000000
vn -0.000000 -1.000000 -0.000000
vn -0.000000 -1.000000 -0.000000
vn -0.000000 -1.000000 -0.000000
vn -0.000000 -1.000000 -0.000000
vn -0.000000 -1.000000 -0.000000
vn -0.000000 -1.000000 -0.000000
vn -0.000000 -1.000000 -0.000000
vn -0.000000 -1.000000 -0.000000
vn -0.000000 -1.000000 -0.000000
vn -0.000000 -1.000000 -0.000000
vn -0.000000 -1.000000 -0.000000
vn -0.000000 -0.000000 1.000000
vn -0.000000 -0.000000 1.000000
vn -0.000000 -0.000000 1.000000
vn -0.000000 -0.000000 1.000000
vn 0.000000 1.000000 0.000000
vn 0.000000 1.000000 0.000000
vn 0.000000 1.000000 0.000000
vn 0.000000 1.000000 0.000000
vn 0.000000 1.000000 0.000000
vn 0.000000 1.000000 0.000000
vn 0.000000 1.000000 0.000000
vn 0.000000 1.000000 0.000000
vn 0.000000 1.000000 0.000000
vn 0.000000 1.000000 0.000000
vn 0.000000 1.000000 0.000000
vn 0.000000 1.000000 0.000000
vn 0.000000 1.000000 0.000000
vn 0.000000 1.000000 0.000000
vn 0.000000 1.000000 0.000000
vn 0.000000 1.000000 0.000000
vn 0.000000 1.000000 0.000000
vn 0.000000 1.000000 0.000000
vn 0.000000 1.000000 0.000000
vn 0.000000 1.000000 0.000000
vn 0.000000 1.000000 0.000000
vn 0.000000 1.000000 0.000000
vn 0.000000 1.000000 0.000000
vn 0.000000 1.000000 0.000000
vn 0.000000 1.000000 0.000000
vn 0.000000 1.000000 0.000000
vn 0.000000 1.000000 0.000000
vn 0.000000 1.000000 0.000000
vn 0.000000 1.000000 0.000000
vn 0.000000 1.000000 0.000000
vn 0.000000 1.000000 0.000000
vn 0.000000 1.000000 0.000000
vn 0.000000 1.000000 0.000000
vn 0.000000 1.000000 0.000000
vn 0.000000 1.000000 0.000000
vn 0.000000 1.000000 0.000000
vn 0.000000 1.000000 0.000000
vn 0.000000 1.000000 0.000000
vn 0.000000 1.000000 0.000000
vn 0.000000 1.000000 0.000000
vn 0.000000 1.000000 0.000000
vn 0.000000 1.000000 0.000000
vn 0.000000 1.000000 0.000000
vn 0.000000 1.000000 0.000000
vn 0.000000 1.000000 0.000000
vn 0.000000 1.000000 0.000000
vn 0.000000 1.000000 0.000000
vn 0.000000 1.000000 0.000000
vn 0.000000 1.000000 0.000000
vn 0.000000 1.000000 0.000000
vn 0.000000 1.000000 0.000000
vn 0.000000 1.000000 0.000000
vn 0.000000 1.000000 0.000000
vn 0.000000 1.000000 0.000000
vn 0.000000 1.000000 0.000000
vn 0.000000 1.000000 0.000000
vn 0.000000 1.000000 0.000000
vn 0.000000 1.000000 0.000000
vn 0.000000 1.000000 0.000000
vn 0.000000 1.000000 0.000000
vn 0.000000 1.000000 0.000000
vn 0.000000 1.000000 0.000000
vn 0.000000 1.000000 0.000000
vn 0.000000 1.000000 0.000000
vn 0.000000 1.000000 0.000000
vn 0.000000 1.000000 0.000000
vn 0.000000 1.000000 0.000000
vn 0.000000 1.000000 0.000000
vn 0.000000 1.000000 0.000000
vn 0.000000 1.000000 0.000000
vn 0.000000 1.000000 0.000000
vn 0.000000 1.000000 0.000000
vn 0.000000 1.000000 0.000000
vn 0.000000 1.000000 0.000000
vn 0.000000 1.000000 0.000000
vn 0.000000 1.000000 0.000000
vn 0.000000 1.000000 0.000000
vn 0.000000 1.000000 0.000000
vn 0.000000 1.000000 0.000000
vn 0.000000 1.000000 0.000000
vn 0.000000 1.000000 0.000000
vn 0.000000 1.000000 0.000000
vn 0.000000 1.000000 0.000000
vn 0.000000 1.000000 0.000000
vn 0.000000 1.000000 0.000000
vn 0.000000 1.000000 0.000000
vn 0.000000 1.000000 0.000000
vn 0.000000 1.000000 0.000000
vn 0.000000 1.000000 0.000000
vn 0.000000 1.000000 0.000000
vn 0.000000 1.000000 0.000000
vn 0.000000 1.000000 0.000000
vn 0.000000 1.000000 0.000000
vn 0.000000 1.000000 0.000000
vn 0.000000 1.000000 0.000000
vn 0.000000 1.000000 0.000000
vn 0.000000 1.000000 0.000000
vn 0.000000 1.000000 0.000000
vn 0.000000 1.000000 0.000000
vn 0.000000 1.000000 0.000000
vn 0.000000 1.000000 0.000000
vn 0.000000 1.000000 0.000000
vn 0.000000 1.000000 0.000000
vn 0.000000 1.000000 0.000000
vn 0.000000 1.000000 0.000000
vn 0.000000 1.000000 0.000000
vn 0.000000 1.000000 0.000000
vn 0.000000 1.000000 0.000000
vn 0.000000 1.000000 0.000000
vn 0.000000 1.000000 0.000000
vn 0.000000 1.000000 0.000000
vn 0.000000 1.000000 0.000000
vn 0.000000 1.000000 0.000000
vn 0.000000 1.000000 0.000000
vn 0.000000 1.000000 0.000000
vn 0.000000 1.000000 0.000000
vn 0.000000 1.000000 0.000000
vn 0.000000 1.000000 0.000000
vn 0.000000 1.000000 0.000000
vn 0.000000 1.000000 0.000000
usemtl Steel_-_Satin
f 1/1/1 2/2/2 4/3/3
f 4/3/3 2/2/2 3/4/4
f 6/5/5 16/6/6 5/7/7
f 5/7/7 16/6/6 17/8/8
f 5/7/7 17/8/8 28/9/9
f 28/9/9 17/8/8 18/10/10
f 28/9/9 18/10/10 27/11/11
f 27/11/11 18/10/10 19/12/12
f 27/11/11 19/12/12 26/13/13
f 26/13/13 19/12/12 20/14/14
f 26/13/13 20/14/14 25/15/15
f 25/15/15 20/14/14 21/16/16
f 25/15/15 21/16/16 24/17/17
f 24/17/17 21/16/16 22/18/18
f 24/17/17 22/18/18 23/19/19
f 16/6/6 6/5/5 15/20/20
f 15/20/20 6/5/5 7/21/21
f 15/20/20 7/21/21 14/22/22
f 14/22/22 7/21/21 8/23/23
f 14/22/22 8/23/23 13/24/24
f 13/24/24 8/23/23 9/25/25
f 13/24/24 9/25/25 12/26/26
f 12/26/26 9/25/25 10/27/27
f 12/26/26 10/27/27 11/28/28
f 28/29/29 52/30/30 5/31/31
f 5/31/31 52/30/30 29/32/32
f 5/33/31 29/34/32 6/35/33
f 6/35/33 29/34/32 30/36/34
f 6/35/33 30/36/34 7/37/35
f 7/37/35 30/36/34 31/38/36
f 7/37/35 31/38/36 8/39/37
f 8/39/37 31/38/36 32/40/38
f 8/39/37 32/40/38 9/41/39
f 9/41/39 32/40/38 33/42/40
f 9/41/39 33/42/40 10/43/41
f 10/43/41 33/42/40 34/44/42
f 10/43/41 34/44/42 11/45/43
f 11/45/43 34/44/42 35/46/44
f 11/45/43 35/46/44 12/47/45
f 12/47/45 35/46/44 36/48/46
f 12/47/45 36/48/46 13/49/47
f 13/49/47 36/48/46 37/50/48
f 13/49/47 37/50/48 14/51/49
f 14/51/49 37/50/48 38/52/50
f 14/51/49 38/52/50 15/53/51
f 15/53/51 38/52/50 39/54/52
f 15/53/51 39/54/52 16/55/53
f 16/55/53 39/54/52 40/56/54
f 16/55/53 40/56/54 17/57/55
f 17/57/55 40/56/54 41/58/56
f 17/57/55 41/58/56 18/59/57
f 18/59/57 41/58/56 42/60/58
f 18/59/57 42/60/58 19/61/59
f 19/61/59 42/60/58 43/62/60
f 19/61/59 43/62/60 20/63/61
f 20/63/61 43/62/60 44/64/62
f 20/63/61 44/64/62 21/65/63
f 21/65/63 44/64/62 45/66/64
f 21/65/63 45/66/64 22/67/65
f 22/67/65 45/66/64 46/68/66
f 22/67/65 46/68/66 23/69/67
f 23/69/67 46/68/66 47/70/68
f 23/69/67 47/70/68 24/71/69
f 24/71/69 47/70/68 48/72/70
f 24/71/69 48/72/70 25/73/71
f 25/73/71 48/72/70 49/74/72
f 25/73/71 49/74/72 26/75/73
f 26/75/73 49/74/72 50/76/74
f 26/75/73 50/76/74 27/77/75
f 27/77/75 50/76/74 51/78/76
f 27/77/75 51/78/76 28/29/29
f 28/29/29 51/78/76 52/30/30
f 53/79/77 54/80/78 56/81/79
f 56/81/79 54/80/78 55/82/80
f 57/83/81 58/84/82 60/85/83
f 60/85/83 58/84/82 59/86/84
f 58/87/85 61/88/86 59/89/87
f 59/89/87 61/88/86 62/90/88
f 61/91/89 63/92/90 62/93/91
f 62/93/91 63/92/90 64/94/92
f 63/95/93 57/96/94 64/97/95
f 64/97/95 57/96/94 60/98/96
f 65/99/97 66/100/98 68/101/99
f 68/101/99 66/100/98 67/102/100
f 66/103/101 69/104/102 67/105/103
f 67/105/103 69/104/102 70/106/104
f 69/107/105 71/108/106 70/109/107
f 70/109/107 71/108/106 72/110/108
f 71/111/109 65/112/110 72/113/111
f 72/113/111 65/112/110 68/114/112
f 73/115/113 74/116/114 76/117/115
f 76/117/115 74/116/114 75/118/116
f 74/119/117 77/120/118 75/121/119
f 75/121/119 77/120/118 78/122/120
f 77/123/121 79/124/122 78/125/123
f 78/125/123 79/124/122 80/126/124
f 79/127/125 73/128/126 80/129/127
f 80/129/127 73/128/126 76/130/128
f 81/131/129 82/132/130 84/133/131
f 84/133/131 82/132/130 83/134/132
f 85/135/133 81/136/134 86/137/135
f 86/137/135 81/136/134 84/138/136
f 87/139/137 85/140/138 88/141/139
f 88/141/139 85/140/138 86/142/140
f 82/143/141 87/144/142 83/145/143
f 83/145/143 87/144/142 88/146/144
f 89/147/145 90/148/146 92/149/147
f 92/149/147 90/148/146 91/150/148
f 93/151/149 89/152/150 94/153/151
f 94/153/151 89/152/150 92/154/152
f 95/155/153 93/156/154 96/157/155
f 96/157/155 93/156/154 94/158/156
f 90/159/157 95/160/158 91/161/159
f 91/161/159 95/160/158 96/162/160
f 97/163/161 98/164/162 100/165/163
f 100/165/163 98/164/162 99/166/164
f 101/167/165 97/168/166 102/169/167
f 102/169/167 97/168/166 100/170/168
f 103/171/169 101/172/170 104/173/171
f 104/173/171 101/172/170 102/174/172
f 98/175/173 103/176/174 99/177/175
f 99/177/175 103/176/174 104/178/176
f 105/179/177 106/180/178 108/181/179
f 108/181/179 106/180/178 107/182/180
f 109/183/181 105/184/182 110/185/183
f 110/185/183 105/184/182 108/186/184
f 106/187/185 109/188/186 107/189/187
f 107/189/187 109/188/186 110/190/188
f 112/191/189 158/192/190 111/193/191
f 111/193/191 158/192/190 135/194/192
f 111/195/191 135/196/192 134/197/193
f 134/197/193 135/196/192 136/198/194
f 134/197/193 136/198/194 133/199/195
f 133/199/195 136/198/194 137/200/196
f 133/199/195 137/200/196 132/201/197
f 132/201/197 137/200/196 138/202/198
f 132/201/197 138/202/198 131/203/199
f 131/203/199 138/202/198 139/204/200
f 131/203/199 139/204/200 130/205/201
f 130/205/201 139/204/200 140/206/202
f 130/205/201 140/206/202 129/207/203
f 129/207/203 140/206/202 141/208/204
f 129/207/203 141/208/204 128/209/205
f 128/209/205 141/208/204 142/210/206
f 128/209/205 142/210/206 127/211/207
f 127/211/207 142/210/206 143/212/208
f 127/211/207 143/212/208 126/213/209
f 126/213/209 143/212/208 144/214/210
f 126/213/209 144/214/210 125/215/211
f 125/215/211 144/214/210 145/216/212
f 125/215/211 145/216/212 124/217/213
f 124/217/213 145/216/212 146/218/214
f 124/217/213 146/218/214 123/219/215
f 123/219/215 146/218/214 147/220/216
f 123/219/215 147/220/216 122/221/217
f 122/221/217 147/220/216 148/222/218
f 122/221/217 148/222/218 121/223/219
f 121/223/219 148/222/218 149/224/220
f 121/223/219 149/224/220 120/225/221
f 120/225/221 149/224/220 150/226/222
f 120/225/221 150/226/222 119/227/223
f 119/227/223 150/226/222 151/228/224
f 119/227/223 151/228/224 118/229/225
f 118/229/225 151/228/224 152/230/226
f 118/229/225 152/230/226 117/231/227
f 117/231/227 152/230/226 153/232/228
f 117/231/227 153/232/228 116/233/229
f 116/233/229 153/232/228 154/234/230
f 116/233/229 154/234/230 115/235/231
f 115/235/231 154/234/230 155/236/232
f 115/235/231 155/236/232 114/237/233
f 114/237/233 155/236/232 156/238/234
f 114/237/233 156/238/234 113/239/235
f 113/239/235 156/238/234 157/240/236
f 113/239/235 157/240/236 112/191/189
f 112/191/189 157/240/236 158/192/190
f 160/241/237 206/242/238 159/243/239
f 159/243/239 206/242/238 183/244/240
f 159/245/239 183/246/240 182/247/241
f 182/247/241 183/246/240 184/248/242
f 182/247/241 184/248/242 181/249/243
f 181/249/243 184/248/242 185/250/244
f 181/249/243 185/250/244 180/251/245
f 180/251/245 185/250/244 186/252/246
f 180/251/245 186/252/246 179/253/247
f 179/253/247 186/252/246 187/254/248
f 179/253/247 187/254/248 178/255/249
f 178/255/249 187/254/248 188/256/250
f 178/255/249 188/256/250 177/257/251
f 177/257/251 188/256/250 189/258/252
f 177/257/251 189/258/252 176/259/253
f 176/259/253 189/258/252 190/260/254
f 176/259/253 190/260/254 175/261/255
f 175/261/255 190/260/254 191/262/256
f 175/261/255 191/262/256 174/263/257
f 174/263/257 191/262/256 192/264/258
f 174/263/257 192/264/258 173/265/259
f 173/265/259 192/264/258 193/266/260
f 173/265/259 193/266/260 172/267/261
f 172/267/261 193/266/260 194/268/262
f 172/267/261 194/268/262 171/269/263
f 171/269/263 194/268/262 195/270/264
f 171/269/263 195/270/264 170/271/265
f 170/271/265 195/270/264 196/272/266
f 170/271/265 196/272/266 169/273/267
f 169/273/267 196/272/266 197/274/268
f 169/273/267 197/274/268 168/275/269
f 168/275/269 197/274/268 198/276/270
f 168/275/269 198/276/270 167/277/271
f 167/277/271 198/276/270 199/278/272
f 167/277/271 199/278/272 166/279/273
f 166/279/273 199/278/272 200/280/274
f 166/279/273 200/280/274 165/281/275
f 165/281/275 200/280/274 201/282/276
f 165/281/275 201/282/276 164/283/277
f 164/283/277 201/282/276 202/284/278
f 164/283/277 202/284/278 163/285/279
f 163/285/279 202/284/278 203/286/280
f 163/285/279 203/286/280 162/287/281
f 162/287/281 203/286/280 204/288/282
f 162/287/281 204/288/282 161/289/283
f 161/289/283 204/288/282 205/290/284
f 161/289/283 205/290/284 160/241/237
f 160/241/237 205/290/284 206/242/238
f 207/291/285 208/292/286 212/293/287
f 212/293/287 208/292/286 211/294/288
f 211/294/288 208/292/286 209/295/289
f 211/294/288 209/295/289 210/296/290
f 238/297/291 213/298/292 237/299/293
f 237/299/293 213/298/292 214/300/294
f 237/299/293 214/300/294 215/301/295
f 237/299/293 215/301/295 236/302/296
f 236/302/296 215/301/295 216/303/297
f 236/302/296 216/303/297 235/304/298
f 235/304/298 216/303/297 217/305/299
f 235/304/298 217/305/299 234/306/300
f 234/306/300 217/305/299 218/307/301
f 234/306/300 218/307/301 233/308/302
f 233/308/302 218/307/301 219/309/303
f 233/308/302 219/309/303 232/310/304
f 232/310/304 219/309/303 220/311/305
f 232/310/304 220/311/305 231/312/306
f 231/312/306 220/311/305 221/313/307
f 231/312/306 221/313/307 230/314/308
f 230/314/308 221/313/307 222/315/309
f 230/314/308 222/315/309 229/316/310
f 229/316/310 222/315/309 223/317/311
f 229/316/310 223/317/311 228/318/312
f 228/318/312 223/317/311 224/319/313
f 228/318/312 224/319/313 227/320/314
f 227/320/314 224/319/313 225/321/315
f 227/320/314 225/321/315 226/322/316
f 226/322/316 225/321/315 212/323/287
f 212/323/287 225/321/315 207/324/285
f 209/325/317 239/326/318 210/327/319
f 210/327/319 239/326/318 264/328/320
f 264/328/320 239/326/318 240/329/321
f 264/328/320 240/329/321 263/330/322
f 263/330/322 240/329/321 241/331/323
f 263/330/322 241/331/323 262/332/324
f 262/332/324 241/331/323 242/333/325
f 262/332/324 242/333/325 261/334/326
f 261/334/326 242/333/325 243/335/327
f 261/334/326 243/335/327 260/336/328
f 260/336/328 243/335/327 244/337/329
f 260/336/328 244/337/329 259/338/330
f 259/338/330 244/337/329 245/339/331
f 259/338/330 245/339/331 258/340/332
f 258/340/332 245/339/331 246/341/333
f 258/340/332 246/341/333 257/342/334
f 257/342/334 246/341/333 247/343/335
f 257/342/334 247/343/335 256/344/336
f 256/344/336 247/343/335 248/345/337
f 256/344/336 248/345/337 255/346/338
f 255/346/338 248/345/337 249/347/339
f 255/346/338 249/347/339 254/348/340
f 254/348/340 249/347/339 250/349/341
f 254/348/340 250/349/341 253/350/342
f 253/350/342 250/349/341 251/351/343
f 253/350/342 251/351/343 252/352/344
f 252/352/344 251/351/343 213/353/345
f 252/352/344 213/353/345 238/354/346
f 265/355/347 266/356/348 268/357/349
f 268/357/349 266/356/348 267/358/350
f 269/359/351 265/360/352 270/361/353
f 270/361/353 265/360/352 268/362/354
f 266/363/355 269/364/356 267/365/357
f 267/365/357 269/364/356 270/366/358
f 271/367/359 272/368/360 274/369/361
f 274/369/361 272/368/360 273/370/362
f 275/371/363 271/372/364 276/373/365
f 276/373/365 271/372/364 274/374/366
f 272/375/367 275/376/368 273/377/369
f 273/377/369 275/376/368 276/378/370
f 277/379/371 278/380/372 280/381/373
f 280/381/373 278/380/372 279/382/374
f 281/383/375 277/384/376 282/385/377
f 282/385/377 277/384/376 280/386/378
f 278/387/379 281/388/380 279/389/381
f 279/389/381 281/388/380 282/390/382
f 283/391/383 284/392/384 286/393/385
f 286/393/385 284/392/384 285/394/386
f 287/395/387 283/396/388 288/397/389
f 288/397/389 283/396/388 286/398/390
f 284/399/391 287/400/392 285/401/393
f 285/401/393 287/400/392 288/402/394
f 54/403/395 1/404/396 55/405/397
f 55/405/397 1/404/396 4/406/398
f 52/407/399 122/408/400 29/409/401
f 29/409/401 122/408/400 121/410/402
f 29/409/401 121/410/402 30/411/403
f 30/411/403 121/410/402 31/412/404
f 31/412/404 121/410/402 120/413/405
f 31/412/404 120/413/405 32/414/406
f 32/414/406 120/413/405 33/415/407
f 33/415/407 120/413/405 119/416/408
f 33/415/407 119/416/408 251/417/409
f 251/417/409 119/416/408 118/418/410
f 251/417/409 118/418/410 213/419/411
f 213/419/411 118/418/410 117/420/412
f 213/419/411 117/420/412 214/421/413
f 214/421/413 117/420/412 215/422/414
f 215/422/414 117/420/412 116/423/415
f 215/422/414 116/423/415 216/424/416
f 216/424/416 116/423/415 115/425/417
f 216/424/416 115/425/417 114/426/418
f 52/407/399 51/427/419 122/408/400
f 122/408/400 51/427/419 123/428/420
f 123/428/420 51/427/419 50/429/421
f 123/428/420 50/429/421 49/430/422
f 48/431/423 62/432/424 49/430/422
f 49/430/422 62/432/424 76/433/425
f 49/430/422 76/433/425 123/428/420
f 123/428/420 76/433/425 75/434/426
f 123/428/420 75/434/426 124/435/427
f 124/435/427 75/434/426 125/436/428
f 125/436/428 75/434/426 78/437/429
f 125/436/428 78/437/429 126/438/430
f 126/438/430 78/437/429 127/439/431
f 127/439/431 78/437/429 128/440/432
f 128/440/432 78/437/429 207/441/433
f 128/440/432 207/441/433 129/442/434
f 129/442/434 207/441/433 225/443/435
f 129/442/434 225/443/435 224/444/436
f 62/432/424 48/431/423 59/445/437
f 59/445/437 48/431/423 47/446/438
f 59/445/437 47/446/438 4/447/439
f 4/447/439 47/446/438 46/448/440
f 4/447/439 46/448/440 55/449/441
f 55/449/441 46/448/440 45/450/442
f 55/449/441 45/450/442 182/451/443
f 182/451/443 45/450/442 159/452/444
f 159/452/444 45/450/442 44/453/445
f 159/452/444 44/453/445 43/454/446
f 159/452/444 43/454/446 160/455/447
f 160/455/447 43/454/446 42/456/448
f 160/455/447 42/456/448 161/457/449
f 161/457/449 42/456/448 41/458/450
f 161/457/449 41/458/450 162/459/451
f 162/459/451 41/458/450 40/460/452
f 162/459/451 40/460/452 163/461/453
f 163/461/453 40/460/452 39/462/454
f 163/461/453 39/462/454 164/463/455
f 164/463/455 39/462/454 38/464/456
f 164/463/455 38/464/456 248/465/457
f 248/465/457 38/464/456 249/466/458
f 249/466/458 38/464/456 37/467/459
f 249/466/458 37/467/459 36/468/460
f 36/468/460 35/469/461 249/466/458
f 249/466/458 35/469/461 250/470/462
f 250/470/462 35/469/461 34/471/463
f 250/470/462 34/471/463 251/417/409
f 251/417/409 34/471/463 33/415/407
f 82/472/464 208/473/465 87/474/466
f 87/474/466 208/473/465 98/475/467
f 87/474/466 98/475/467 85/476/468
f 85/476/468 98/475/467 97/477/469
f 85/476/468 97/477/469 242/478/470
f 242/478/470 97/477/469 243/479/471
f 243/479/471 97/477/469 101/480/472
f 243/479/471 101/480/472 244/481/473
f 244/481/473 101/480/472 265/482/474
f 244/481/473 265/482/474 245/483/475
f 245/483/475 265/482/474 289/484/476
f 245/483/475 289/484/476 246/485/477
f 246/485/477 289/484/476 269/486/478
f 246/485/477 269/486/478 287/487/479
f 287/487/479 269/486/478 278/488/480
f 287/487/479 278/488/480 283/489/481
f 283/489/481 278/488/480 277/490/482
f 283/489/481 277/490/482 275/491/483
f 275/491/483 277/490/482 208/473/465
f 275/491/483 208/473/465 271/492/484
f 271/492/484 208/473/465 72/493/485
f 271/492/484 72/493/485 177/494/486
f 177/494/486 72/493/485 178/495/487
f 178/495/487 72/493/485 179/496/488
f 179/496/488 72/493/485 180/497/489
f 180/497/489 72/493/485 68/498/490
f 180/497/489 68/498/490 181/499/491
f 181/499/491 68/498/490 182/451/443
f 182/451/443 68/498/490 67/500/492
f 182/451/443 67/500/492 55/449/441
f 55/449/441 67/500/492 56/501/493
f 56/501/493 67/500/492 70/502/494
f 56/501/493 70/502/494 207/441/433
f 207/441/433 70/502/494 72/493/485
f 207/441/433 72/493/485 208/473/465
f 81/503/495 93/504/496 82/472/464
f 82/472/464 93/504/496 95/505/497
f 82/472/464 95/505/497 208/473/465
f 208/473/465 95/505/497 90/506/498
f 208/473/465 90/506/498 109/507/499
f 109/507/499 90/506/498 105/508/500
f 105/508/500 90/506/498 89/509/501
f 105/508/500 89/509/501 241/510/502
f 241/510/502 89/509/501 93/504/496
f 241/510/502 93/504/496 242/478/470
f 242/478/470 93/504/496 81/503/495
f 242/478/470 81/503/495 85/476/468
f 98/475/467 208/473/465 103/511/503
f 103/511/503 208/473/465 281/512/504
f 103/511/503 281/512/504 266/513/505
f 266/513/505 281/512/504 278/488/480
f 266/513/505 278/488/480 269/486/478
f 265/482/474 101/480/472 266/513/505
f 266/513/505 101/480/472 103/511/503
f 109/507/499 106/514/506 208/473/465
f 208/473/465 106/514/506 209/515/507
f 209/515/507 106/514/506 239/516/508
f 239/516/508 106/514/506 240/517/509
f 240/517/509 106/514/506 105/508/500
f 240/517/509 105/508/500 241/510/502
f 134/518/510 220/519/511 111/520/512
f 111/520/512 220/519/511 219/521/513
f 111/520/512 219/521/513 112/522/514
f 112/522/514 219/521/513 218/523/515
f 112/522/514 218/523/515 113/524/516
f 113/524/516 218/523/515 217/525/517
f 113/524/516 217/525/517 114/426/418
f 114/426/418 217/525/517 216/424/416
f 220/519/511 134/518/510 221/526/518
f 221/526/518 134/518/510 133/527/519
f 221/526/518 133/527/519 222/528/520
f 222/528/520 133/527/519 132/529/521
f 222/528/520 132/529/521 223/530/522
f 223/530/522 132/529/521 131/531/523
f 223/530/522 131/531/523 130/532/524
f 223/530/522 130/532/524 224/444/436
f 224/444/436 130/532/524 129/442/434
f 177/494/486 176/533/525 271/492/484
f 271/492/484 176/533/525 175/534/526
f 271/492/484 175/534/526 174/535/527
f 174/535/527 173/536/528 271/492/484
f 271/492/484 173/536/528 172/537/529
f 271/492/484 172/537/529 272/538/530
f 272/538/530 172/537/529 171/539/531
f 272/538/530 171/539/531 170/540/532
f 170/540/532 169/541/533 272/538/530
f 272/538/530 169/541/533 168/542/534
f 272/538/530 168/542/534 284/543/535
f 284/543/535 168/542/534 167/544/536
f 284/543/535 167/544/536 166/545/537
f 165/546/538 248/465/457 166/545/537
f 166/545/537 248/465/457 247/547/539
f 166/545/537 247/547/539 284/543/535
f 284/543/535 247/547/539 287/487/479
f 287/487/479 247/547/539 246/485/477
f 165/546/538 164/463/455 248/465/457
f 289/484/476 265/482/474 269/486/478
f 275/491/483 272/538/530 283/489/481
f 283/489/481 272/538/530 284/543/535
f 208/473/465 277/490/482 281/512/504
f 76/433/425 62/432/424 80/548/540
f 80/548/540 62/432/424 64/549/541
f 80/548/540 64/549/541 207/441/433
f 207/441/433 64/549/541 60/550/542
f 207/441/433 60/550/542 3/551/543
f 3/551/543 60/550/542 4/447/439
f 4/447/439 60/550/542 59/445/437
f 78/437/429 80/548/540 207/441/433
f 3/551/543 56/501/493 207/441/433
f 2/552/544 53/553/545 3/554/546
f 3/554/546 53/553/545 56/555/547
f 288/556/548 256/557/549 285/558/550
f 285/558/550 256/557/549 200/559/551
f 285/558/550 200/559/551 199/560/552
f 286/561/553 279/562/554 288/556/548
f 288/556/548 279/562/554 270/563/555
f 288/556/548 270/563/555 257/564/556
f 257/564/556 270/563/555 258/565/557
f 258/565/557 270/563/555 268/566/558
f 258/565/557 268/566/558 259/567/559
f 259/567/559 268/566/558 102/568/560
f 259/567/559 102/568/560 260/569/561
f 260/569/561 102/568/560 100/570/562
f 260/569/561 100/570/562 261/571/563
f 261/571/563 100/570/562 86/572/564
f 261/571/563 86/572/564 84/573/565
f 285/558/550 273/574/566 286/561/553
f 286/561/553 273/574/566 276/575/567
f 286/561/553 276/575/567 280/576/568
f 280/576/568 276/575/567 211/577/569
f 280/576/568 211/577/569 282/578/570
f 282/578/570 211/577/569 104/579/571
f 282/578/570 104/579/571 267/580/572
f 267/580/572 104/579/571 102/568/560
f 267/580/572 102/568/560 268/566/558
f 270/563/555 279/562/554 267/580/572
f 267/580/572 279/562/554 282/578/570
f 286/561/553 280/576/568 279/562/554
f 211/577/569 276/575/567 274/581/573
f 273/574/566 194/582/574 274/581/573
f 274/581/573 194/582/574 193/583/575
f 274/581/573 193/583/575 192/584/576
f 211/577/569 210/585/577 107/586/578
f 107/586/578 210/585/577 264/587/579
f 107/586/578 264/587/579 263/588/580
f 107/586/578 263/588/580 108/589/581
f 108/589/581 263/588/580 262/590/582
f 108/589/581 262/590/582 92/591/583
f 92/591/583 262/590/582 94/592/584
f 94/592/584 262/590/582 261/571/563
f 94/592/584 261/571/563 84/573/565
f 257/564/556 256/557/549 288/556/548
f 256/557/549 255/593/585 200/559/551
f 200/559/551 255/593/585 201/594/586
f 201/594/586 255/593/585 202/595/587
f 202/595/587 255/593/585 254/596/588
f 202/595/587 254/596/588 203/597/589
f 203/597/589 254/596/588 149/598/590
f 203/597/589 149/598/590 204/599/591
f 204/599/591 149/598/590 205/600/592
f 205/600/592 149/598/590 148/601/593
f 205/600/592 148/601/593 206/602/594
f 206/602/594 148/601/593 147/603/595
f 206/602/594 147/603/595 58/604/596
f 58/604/596 147/603/595 61/605/597
f 61/605/597 147/603/595 73/606/598
f 61/605/597 73/606/598 63/607/599
f 63/607/599 73/606/598 79/608/600
f 63/607/599 79/608/600 212/609/601
f 212/609/601 79/608/600 77/610/602
f 212/609/601 77/610/602 142/611/603
f 142/611/603 77/610/602 143/612/604
f 143/612/604 77/610/602 144/613/605
f 144/613/605 77/610/602 145/614/606
f 145/614/606 77/610/602 74/615/607
f 145/614/606 74/615/607 146/616/608
f 146/616/608 74/615/607 147/603/595
f 147/603/595 74/615/607 73/606/598
f 149/598/590 254/596/588 150/617/609
f 150/617/609 254/596/588 253/618/610
f 150/617/609 253/618/610 151/619/611
f 151/619/611 253/618/610 252/620/612
f 151/619/611 252/620/612 152/621/613
f 152/621/613 252/620/612 238/622/614
f 152/621/613 238/622/614 153/623/615
f 153/623/615 238/622/614 237/624/616
f 153/623/615 237/624/616 236/625/617
f 153/623/615 236/625/617 154/626/618
f 154/626/618 236/625/617 235/627/619
f 154/626/618 235/627/619 155/628/620
f 155/628/620 235/627/619 156/629/621
f 156/629/621 235/627/619 234/630/622
f 156/629/621 234/630/622 157/631/623
f 157/631/623 234/630/622 233/632/624
f 157/631/623 233/632/624 158/633/625
f 158/633/625 233/632/624 232/634/626
f 158/633/625 232/634/626 135/635/627
f 135/635/627 232/634/626 231/636/628
f 135/635/627 231/636/628 136/637/629
f 136/637/629 231/636/628 230/638/630
f 136/637/629 230/638/630 137/639/631
f 137/639/631 230/638/630 229/640/632
f 137/639/631 229/640/632 138/641/633
f 138/641/633 229/640/632 228/642/634
f 138/641/633 228/642/634 139/643/635
f 139/643/635 228/642/634 140/644/636
f 140/644/636 228/642/634 227/645/637
f 140/644/636 227/645/637 141/646/638
f 141/646/638 227/645/637 226/647/639
f 141/646/638 226/647/639 212/609/601
f 211/577/569 71/648/640 212/609/601
f 212/609/601 71/648/640 69/649/641
f 212/609/601 69/649/641 53/650/642
f 53/650/642 69/649/641 54/651/643
f 54/651/643 69/649/641 66/652/644
f 54/651/643 66/652/644 183/653/645
f 183/653/645 66/652/644 184/654/646
f 184/654/646 66/652/644 65/655/647
f 184/654/646 65/655/647 185/656/648
f 185/656/648 65/655/647 186/657/649
f 186/657/649 65/655/647 71/648/640
f 186/657/649 71/648/640 187/658/650
f 187/658/650 71/648/640 188/659/651
f 188/659/651 71/648/640 189/660/652
f 189/660/652 71/648/640 274/581/573
f 189/660/652 274/581/573 190/661/653
f 190/661/653 274/581/573 191/662/654
f 191/662/654 274/581/573 192/584/576
f 54/651/643 183/653/645 1/663/655
f 1/663/655 183/653/645 206/602/594
f 1/663/655 206/602/594 58/604/596
f 199/560/552 198/664/656 285/558/550
f 285/558/550 198/664/656 273/574/566
f 198/664/656 197/665/657 273/574/566
f 273/574/566 197/665/657 196/666/658
f 273/574/566 196/666/658 195/667/659
f 195/667/659 194/582/574 273/574/566
f 142/611/603 141/646/638 212/609/601
f 107/586/578 110/668/660 211/577/569
f 211/577/569 110/668/660 91/669/661
f 211/577/569 91/669/661 96/670/662
f 91/669/661 110/668/660 108/589/581
f 104/579/571 211/577/569 99/671/663
f 99/671/663 211/577/569 88/672/664
f 99/671/663 88/672/664 86/572/564
f 100/570/562 99/671/663 86/572/564
f 211/577/569 96/670/662 83/673/665
f 83/673/665 96/670/662 94/592/584
f 83/673/665 94/592/584 84/573/565
f 92/591/583 91/669/661 108/589/581
f 83/673/665 88/672/664 211/577/569
f 63/607/599 212/609/601 57/674/666
f 57/674/666 212/609/601 2/675/667
f 57/674/666 2/675/667 58/604/596
f 58/604/596 2/675/667 1/663/655
f 53/650/642 2/675/667 212/609/601
f 274/581/573 71/648/640 211/577/569
# 289 vertices
# 675 texture params
# 667 normals
# 630 facets

# 1 groups
