ISO-10303-21;
HEADER;
/* Generated by software containing ST-Developer
 * from STEP Tools, Inc. (www.steptools.com) 
 */

FILE_DESCRIPTION(
/* description */ (''),
/* implementation_level */ '2;1');

FILE_NAME(
/* name */ 'Wing SparR.step',
/* time_stamp */ '2026-08-20T16:39:30-05:00',
/* author */ (''),
/* organization */ (''),
/* preprocessor_version */ 'ST-DEVELOPER v20.1',
/* originating_system */ 'Autodesk Translation Framework v15.8.0.0',
/* authorisation */ '');

FILE_SCHEMA (('AUTOMOTIVE_DESIGN { 1 0 10303 214 3 1 1 }'));
ENDSEC;

DATA;
#10=MECHANICAL_DESIGN_GEOMETRIC_PRESENTATION_REPRESENTATION('',(#13),#1817);
#11=SHAPE_REPRESENTATION_RELATIONSHIP('SRR','None',#1824,#12);
#12=ADVANCED_BREP_SHAPE_REPRESENTATION('',(#14),#1816);
#13=STYLED_ITEM('',(#1833),#14);
#14=MANIFOLD_SOLID_BREP('Body1',#1129);
#15=FACE_BOUND('',#435,.T.);
#16=FACE_BOUND('',#436,.T.);
#17=FACE_BOUND('',#437,.T.);
#18=FACE_BOUND('',#438,.T.);
#19=FACE_BOUND('',#439,.T.);
#20=FACE_BOUND('',#440,.T.);
#21=FACE_BOUND('',#441,.T.);
#22=FACE_BOUND('',#442,.T.);
#23=FACE_BOUND('',#443,.T.);
#24=FACE_BOUND('',#444,.T.);
#25=FACE_BOUND('',#445,.T.);
#26=FACE_BOUND('',#446,.T.);
#27=FACE_BOUND('',#447,.T.);
#28=FACE_BOUND('',#448,.T.);
#29=FACE_BOUND('',#449,.T.);
#30=FACE_BOUND('',#452,.T.);
#31=FACE_BOUND('',#453,.T.);
#32=FACE_BOUND('',#454,.T.);
#33=FACE_BOUND('',#455,.T.);
#34=FACE_BOUND('',#456,.T.);
#35=FACE_BOUND('',#457,.T.);
#36=FACE_BOUND('',#458,.T.);
#37=FACE_BOUND('',#459,.T.);
#38=FACE_BOUND('',#460,.T.);
#39=FACE_BOUND('',#461,.T.);
#40=FACE_BOUND('',#462,.T.);
#41=FACE_BOUND('',#463,.T.);
#42=FACE_BOUND('',#464,.T.);
#43=FACE_BOUND('',#465,.T.);
#44=FACE_BOUND('',#466,.T.);
#45=(
BOUNDED_CURVE()
B_SPLINE_CURVE(5,(#1714,#1715,#1716,#1717,#1718,#1719,#1720,#1721,#1722,
#1723),.UNSPECIFIED.,.F.,.F.)
B_SPLINE_CURVE_WITH_KNOTS((6,1,1,1,1,6),(0.,0.2,0.4,0.6,0.8,1.),
 .UNSPECIFIED.)
CURVE()
GEOMETRIC_REPRESENTATION_ITEM()
RATIONAL_B_SPLINE_CURVE((1.,1.,1.,1.,1.,1.,1.,1.,1.,1.))
REPRESENTATION_ITEM('')
);
#46=(
BOUNDED_CURVE()
B_SPLINE_CURVE(5,(#1724,#1725,#1726,#1727,#1728,#1729,#1730,#1731,#1732,
#1733),.UNSPECIFIED.,.F.,.F.)
B_SPLINE_CURVE_WITH_KNOTS((6,1,1,1,1,6),(-1.,-0.8,-0.6,-0.4,-0.2,0.),
 .UNSPECIFIED.)
CURVE()
GEOMETRIC_REPRESENTATION_ITEM()
RATIONAL_B_SPLINE_CURVE((1.,1.,1.,1.,1.,1.,1.,1.,1.,1.))
REPRESENTATION_ITEM('')
);
#47=(
BOUNDED_SURFACE()
B_SPLINE_SURFACE(5,1,((#1694,#1695),(#1696,#1697),(#1698,#1699),(#1700,
#1701),(#1702,#1703),(#1704,#1705),(#1706,#1707),(#1708,#1709),(#1710,#1711),
(#1712,#1713)),.UNSPECIFIED.,.F.,.F.,.F.)
B_SPLINE_SURFACE_WITH_KNOTS((6,1,1,1,1,6),(2,2),(-1.,-0.8,-0.6,-0.4,-0.2,
0.),(0.,1.016),.UNSPECIFIED.)
GEOMETRIC_REPRESENTATION_ITEM()
RATIONAL_B_SPLINE_SURFACE(((1.,1.),(1.,1.),(1.,1.),(1.,1.),(1.,1.),(1.,
1.),(1.,1.),(1.,1.),(1.,1.),(1.,1.)))
REPRESENTATION_ITEM('')
SURFACE()
);
#48=LINE('',#1480,#186);
#49=LINE('',#1486,#187);
#50=LINE('',#1488,#188);
#51=LINE('',#1490,#189);
#52=LINE('',#1491,#190);
#53=LINE('',#1495,#191);
#54=LINE('',#1499,#192);
#55=LINE('',#1501,#193);
#56=LINE('',#1503,#194);
#57=LINE('',#1504,#195);
#58=LINE('',#1508,#196);
#59=LINE('',#1510,#197);
#60=LINE('',#1512,#198);
#61=LINE('',#1513,#199);
#62=LINE('',#1516,#200);
#63=LINE('',#1518,#201);
#64=LINE('',#1519,#202);
#65=LINE('',#1522,#203);
#66=LINE('',#1524,#204);
#67=LINE('',#1525,#205);
#68=LINE('',#1527,#206);
#69=LINE('',#1528,#207);
#70=LINE('',#1532,#208);
#71=LINE('',#1534,#209);
#72=LINE('',#1536,#210);
#73=LINE('',#1537,#211);
#74=LINE('',#1540,#212);
#75=LINE('',#1542,#213);
#76=LINE('',#1543,#214);
#77=LINE('',#1546,#215);
#78=LINE('',#1548,#216);
#79=LINE('',#1549,#217);
#80=LINE('',#1551,#218);
#81=LINE('',#1552,#219);
#82=LINE('',#1556,#220);
#83=LINE('',#1558,#221);
#84=LINE('',#1560,#222);
#85=LINE('',#1561,#223);
#86=LINE('',#1564,#224);
#87=LINE('',#1566,#225);
#88=LINE('',#1567,#226);
#89=LINE('',#1570,#227);
#90=LINE('',#1572,#228);
#91=LINE('',#1573,#229);
#92=LINE('',#1575,#230);
#93=LINE('',#1576,#231);
#94=LINE('',#1580,#232);
#95=LINE('',#1582,#233);
#96=LINE('',#1584,#234);
#97=LINE('',#1585,#235);
#98=LINE('',#1588,#236);
#99=LINE('',#1590,#237);
#100=LINE('',#1591,#238);
#101=LINE('',#1594,#239);
#102=LINE('',#1596,#240);
#103=LINE('',#1597,#241);
#104=LINE('',#1599,#242);
#105=LINE('',#1600,#243);
#106=LINE('',#1604,#244);
#107=LINE('',#1606,#245);
#108=LINE('',#1608,#246);
#109=LINE('',#1609,#247);
#110=LINE('',#1612,#248);
#111=LINE('',#1614,#249);
#112=LINE('',#1615,#250);
#113=LINE('',#1618,#251);
#114=LINE('',#1620,#252);
#115=LINE('',#1621,#253);
#116=LINE('',#1623,#254);
#117=LINE('',#1624,#255);
#118=LINE('',#1628,#256);
#119=LINE('',#1630,#257);
#120=LINE('',#1632,#258);
#121=LINE('',#1633,#259);
#122=LINE('',#1636,#260);
#123=LINE('',#1638,#261);
#124=LINE('',#1639,#262);
#125=LINE('',#1642,#263);
#126=LINE('',#1644,#264);
#127=LINE('',#1645,#265);
#128=LINE('',#1647,#266);
#129=LINE('',#1648,#267);
#130=LINE('',#1652,#268);
#131=LINE('',#1654,#269);
#132=LINE('',#1656,#270);
#133=LINE('',#1657,#271);
#134=LINE('',#1660,#272);
#135=LINE('',#1662,#273);
#136=LINE('',#1663,#274);
#137=LINE('',#1665,#275);
#138=LINE('',#1666,#276);
#139=LINE('',#1671,#277);
#140=LINE('',#1677,#278);
#141=LINE('',#1682,#279);
#142=LINE('',#1684,#280);
#143=LINE('',#1686,#281);
#144=LINE('',#1687,#282);
#145=LINE('',#1693,#283);
#146=LINE('',#1737,#284);
#147=LINE('',#1739,#285);
#148=LINE('',#1741,#286);
#149=LINE('',#1742,#287);
#150=LINE('',#1745,#288);
#151=LINE('',#1747,#289);
#152=LINE('',#1748,#290);
#153=LINE('',#1750,#291);
#154=LINE('',#1751,#292);
#155=LINE('',#1755,#293);
#156=LINE('',#1757,#294);
#157=LINE('',#1759,#295);
#158=LINE('',#1760,#296);
#159=LINE('',#1763,#297);
#160=LINE('',#1765,#298);
#161=LINE('',#1766,#299);
#162=LINE('',#1768,#300);
#163=LINE('',#1769,#301);
#164=LINE('',#1773,#302);
#165=LINE('',#1775,#303);
#166=LINE('',#1777,#304);
#167=LINE('',#1778,#305);
#168=LINE('',#1781,#306);
#169=LINE('',#1783,#307);
#170=LINE('',#1784,#308);
#171=LINE('',#1786,#309);
#172=LINE('',#1787,#310);
#173=LINE('',#1791,#311);
#174=LINE('',#1793,#312);
#175=LINE('',#1795,#313);
#176=LINE('',#1796,#314);
#177=LINE('',#1799,#315);
#178=LINE('',#1801,#316);
#179=LINE('',#1802,#317);
#180=LINE('',#1804,#318);
#181=LINE('',#1805,#319);
#182=LINE('',#1807,#320);
#183=LINE('',#1808,#321);
#184=LINE('',#1810,#322);
#185=LINE('',#1812,#323);
#186=VECTOR('',#1216,3.00000004470348);
#187=VECTOR('',#1223,10.);
#188=VECTOR('',#1224,10.);
#189=VECTOR('',#1225,10.);
#190=VECTOR('',#1226,10.);
#191=VECTOR('',#1231,3.00000004470348);
#192=VECTOR('',#1234,10.);
#193=VECTOR('',#1235,10.);
#194=VECTOR('',#1236,10.);
#195=VECTOR('',#1237,10.);
#196=VECTOR('',#1240,10.);
#197=VECTOR('',#1241,10.);
#198=VECTOR('',#1242,10.);
#199=VECTOR('',#1243,10.);
#200=VECTOR('',#1246,10.);
#201=VECTOR('',#1247,10.);
#202=VECTOR('',#1248,10.);
#203=VECTOR('',#1251,10.);
#204=VECTOR('',#1252,10.);
#205=VECTOR('',#1253,10.);
#206=VECTOR('',#1256,10.);
#207=VECTOR('',#1257,10.);
#208=VECTOR('',#1260,10.);
#209=VECTOR('',#1261,10.);
#210=VECTOR('',#1262,10.);
#211=VECTOR('',#1263,10.);
#212=VECTOR('',#1266,10.);
#213=VECTOR('',#1267,10.);
#214=VECTOR('',#1268,10.);
#215=VECTOR('',#1271,10.);
#216=VECTOR('',#1272,10.);
#217=VECTOR('',#1273,10.);
#218=VECTOR('',#1276,10.);
#219=VECTOR('',#1277,10.);
#220=VECTOR('',#1280,10.);
#221=VECTOR('',#1281,10.);
#222=VECTOR('',#1282,10.);
#223=VECTOR('',#1283,10.);
#224=VECTOR('',#1286,10.);
#225=VECTOR('',#1287,10.);
#226=VECTOR('',#1288,10.);
#227=VECTOR('',#1291,10.);
#228=VECTOR('',#1292,10.);
#229=VECTOR('',#1293,10.);
#230=VECTOR('',#1296,10.);
#231=VECTOR('',#1297,10.);
#232=VECTOR('',#1300,10.);
#233=VECTOR('',#1301,10.);
#234=VECTOR('',#1302,10.);
#235=VECTOR('',#1303,10.);
#236=VECTOR('',#1306,10.);
#237=VECTOR('',#1307,10.);
#238=VECTOR('',#1308,10.);
#239=VECTOR('',#1311,10.);
#240=VECTOR('',#1312,10.);
#241=VECTOR('',#1313,10.);
#242=VECTOR('',#1316,10.);
#243=VECTOR('',#1317,10.);
#244=VECTOR('',#1320,10.);
#245=VECTOR('',#1321,10.);
#246=VECTOR('',#1322,10.);
#247=VECTOR('',#1323,10.);
#248=VECTOR('',#1326,10.);
#249=VECTOR('',#1327,10.);
#250=VECTOR('',#1328,10.);
#251=VECTOR('',#1331,10.);
#252=VECTOR('',#1332,10.);
#253=VECTOR('',#1333,10.);
#254=VECTOR('',#1336,10.);
#255=VECTOR('',#1337,10.);
#256=VECTOR('',#1340,10.);
#257=VECTOR('',#1341,10.);
#258=VECTOR('',#1342,10.);
#259=VECTOR('',#1343,10.);
#260=VECTOR('',#1346,10.);
#261=VECTOR('',#1347,10.);
#262=VECTOR('',#1348,10.);
#263=VECTOR('',#1351,10.);
#264=VECTOR('',#1352,10.);
#265=VECTOR('',#1353,10.);
#266=VECTOR('',#1356,10.);
#267=VECTOR('',#1357,10.);
#268=VECTOR('',#1360,10.);
#269=VECTOR('',#1361,10.);
#270=VECTOR('',#1362,10.);
#271=VECTOR('',#1363,10.);
#272=VECTOR('',#1366,10.);
#273=VECTOR('',#1367,10.);
#274=VECTOR('',#1368,10.);
#275=VECTOR('',#1371,10.);
#276=VECTOR('',#1372,10.);
#277=VECTOR('',#1377,6.35);
#278=VECTOR('',#1384,3.81);
#279=VECTOR('',#1389,10.);
#280=VECTOR('',#1390,10.);
#281=VECTOR('',#1391,10.);
#282=VECTOR('',#1392,10.);
#283=VECTOR('',#1399,10.);
#284=VECTOR('',#1402,10.);
#285=VECTOR('',#1403,10.);
#286=VECTOR('',#1404,10.);
#287=VECTOR('',#1405,10.);
#288=VECTOR('',#1408,10.);
#289=VECTOR('',#1409,10.);
#290=VECTOR('',#1410,10.);
#291=VECTOR('',#1413,10.);
#292=VECTOR('',#1414,10.);
#293=VECTOR('',#1417,10.);
#294=VECTOR('',#1418,10.);
#295=VECTOR('',#1419,10.);
#296=VECTOR('',#1420,10.);
#297=VECTOR('',#1423,10.);
#298=VECTOR('',#1424,10.);
#299=VECTOR('',#1425,10.);
#300=VECTOR('',#1428,10.);
#301=VECTOR('',#1429,10.);
#302=VECTOR('',#1432,10.);
#303=VECTOR('',#1433,10.);
#304=VECTOR('',#1434,10.);
#305=VECTOR('',#1435,10.);
#306=VECTOR('',#1438,10.);
#307=VECTOR('',#1439,10.);
#308=VECTOR('',#1440,10.);
#309=VECTOR('',#1443,10.);
#310=VECTOR('',#1444,10.);
#311=VECTOR('',#1447,10.);
#312=VECTOR('',#1448,10.);
#313=VECTOR('',#1449,10.);
#314=VECTOR('',#1450,10.);
#315=VECTOR('',#1453,10.);
#316=VECTOR('',#1454,10.);
#317=VECTOR('',#1455,10.);
#318=VECTOR('',#1458,10.);
#319=VECTOR('',#1459,10.);
#320=VECTOR('',#1462,10.);
#321=VECTOR('',#1463,10.);
#322=VECTOR('',#1466,10.);
#323=VECTOR('',#1469,10.);
#324=CYLINDRICAL_SURFACE('',#1145,3.00000004470348);
#325=CYLINDRICAL_SURFACE('',#1150,3.00000004470348);
#326=CYLINDRICAL_SURFACE('',#1180,6.35);
#327=CYLINDRICAL_SURFACE('',#1183,3.81);
#328=CYLINDRICAL_SURFACE('',#1187,7.60000709864557);
#329=FACE_OUTER_BOUND('',#383,.T.);
#330=FACE_OUTER_BOUND('',#384,.T.);
#331=FACE_OUTER_BOUND('',#385,.T.);
#332=FACE_OUTER_BOUND('',#386,.T.);
#333=FACE_OUTER_BOUND('',#387,.T.);
#334=FACE_OUTER_BOUND('',#388,.T.);
#335=FACE_OUTER_BOUND('',#389,.T.);
#336=FACE_OUTER_BOUND('',#390,.T.);
#337=FACE_OUTER_BOUND('',#391,.T.);
#338=FACE_OUTER_BOUND('',#392,.T.);
#339=FACE_OUTER_BOUND('',#393,.T.);
#340=FACE_OUTER_BOUND('',#394,.T.);
#341=FACE_OUTER_BOUND('',#395,.T.);
#342=FACE_OUTER_BOUND('',#396,.T.);
#343=FACE_OUTER_BOUND('',#397,.T.);
#344=FACE_OUTER_BOUND('',#398,.T.);
#345=FACE_OUTER_BOUND('',#399,.T.);
#346=FACE_OUTER_BOUND('',#400,.T.);
#347=FACE_OUTER_BOUND('',#401,.T.);
#348=FACE_OUTER_BOUND('',#402,.T.);
#349=FACE_OUTER_BOUND('',#403,.T.);
#350=FACE_OUTER_BOUND('',#404,.T.);
#351=FACE_OUTER_BOUND('',#405,.T.);
#352=FACE_OUTER_BOUND('',#406,.T.);
#353=FACE_OUTER_BOUND('',#407,.T.);
#354=FACE_OUTER_BOUND('',#408,.T.);
#355=FACE_OUTER_BOUND('',#409,.T.);
#356=FACE_OUTER_BOUND('',#410,.T.);
#357=FACE_OUTER_BOUND('',#411,.T.);
#358=FACE_OUTER_BOUND('',#412,.T.);
#359=FACE_OUTER_BOUND('',#413,.T.);
#360=FACE_OUTER_BOUND('',#414,.T.);
#361=FACE_OUTER_BOUND('',#415,.T.);
#362=FACE_OUTER_BOUND('',#416,.T.);
#363=FACE_OUTER_BOUND('',#417,.T.);
#364=FACE_OUTER_BOUND('',#418,.T.);
#365=FACE_OUTER_BOUND('',#419,.T.);
#366=FACE_OUTER_BOUND('',#420,.T.);
#367=FACE_OUTER_BOUND('',#421,.T.);
#368=FACE_OUTER_BOUND('',#422,.T.);
#369=FACE_OUTER_BOUND('',#423,.T.);
#370=FACE_OUTER_BOUND('',#424,.T.);
#371=FACE_OUTER_BOUND('',#425,.T.);
#372=FACE_OUTER_BOUND('',#426,.T.);
#373=FACE_OUTER_BOUND('',#427,.T.);
#374=FACE_OUTER_BOUND('',#428,.T.);
#375=FACE_OUTER_BOUND('',#429,.T.);
#376=FACE_OUTER_BOUND('',#430,.T.);
#377=FACE_OUTER_BOUND('',#431,.T.);
#378=FACE_OUTER_BOUND('',#432,.T.);
#379=FACE_OUTER_BOUND('',#433,.T.);
#380=FACE_OUTER_BOUND('',#434,.T.);
#381=FACE_OUTER_BOUND('',#450,.T.);
#382=FACE_OUTER_BOUND('',#451,.T.);
#383=EDGE_LOOP('',(#727));
#384=EDGE_LOOP('',(#728,#729,#730,#731));
#385=EDGE_LOOP('',(#732));
#386=EDGE_LOOP('',(#733,#734,#735,#736));
#387=EDGE_LOOP('',(#737,#738,#739,#740));
#388=EDGE_LOOP('',(#741,#742,#743,#744));
#389=EDGE_LOOP('',(#745,#746,#747,#748));
#390=EDGE_LOOP('',(#749,#750,#751,#752));
#391=EDGE_LOOP('',(#753,#754,#755,#756));
#392=EDGE_LOOP('',(#757,#758,#759,#760));
#393=EDGE_LOOP('',(#761,#762,#763,#764));
#394=EDGE_LOOP('',(#765,#766,#767,#768));
#395=EDGE_LOOP('',(#769,#770,#771,#772));
#396=EDGE_LOOP('',(#773,#774,#775,#776));
#397=EDGE_LOOP('',(#777,#778,#779,#780));
#398=EDGE_LOOP('',(#781,#782,#783,#784));
#399=EDGE_LOOP('',(#785,#786,#787,#788));
#400=EDGE_LOOP('',(#789,#790,#791,#792));
#401=EDGE_LOOP('',(#793,#794,#795,#796));
#402=EDGE_LOOP('',(#797,#798,#799,#800));
#403=EDGE_LOOP('',(#801,#802,#803,#804));
#404=EDGE_LOOP('',(#805,#806,#807,#808));
#405=EDGE_LOOP('',(#809,#810,#811,#812));
#406=EDGE_LOOP('',(#813,#814,#815,#816));
#407=EDGE_LOOP('',(#817,#818,#819,#820));
#408=EDGE_LOOP('',(#821,#822,#823,#824));
#409=EDGE_LOOP('',(#825,#826,#827,#828));
#410=EDGE_LOOP('',(#829,#830,#831,#832));
#411=EDGE_LOOP('',(#833,#834,#835,#836));
#412=EDGE_LOOP('',(#837,#838,#839,#840));
#413=EDGE_LOOP('',(#841,#842,#843,#844));
#414=EDGE_LOOP('',(#845,#846,#847,#848));
#415=EDGE_LOOP('',(#849,#850,#851,#852));
#416=EDGE_LOOP('',(#853,#854,#855,#856));
#417=EDGE_LOOP('',(#857,#858,#859,#860));
#418=EDGE_LOOP('',(#861,#862,#863,#864));
#419=EDGE_LOOP('',(#865,#866,#867,#868));
#420=EDGE_LOOP('',(#869,#870,#871,#872));
#421=EDGE_LOOP('',(#873,#874,#875,#876));
#422=EDGE_LOOP('',(#877,#878,#879,#880));
#423=EDGE_LOOP('',(#881,#882,#883,#884));
#424=EDGE_LOOP('',(#885,#886,#887,#888));
#425=EDGE_LOOP('',(#889,#890,#891,#892));
#426=EDGE_LOOP('',(#893,#894,#895,#896));
#427=EDGE_LOOP('',(#897,#898,#899,#900));
#428=EDGE_LOOP('',(#901,#902,#903,#904));
#429=EDGE_LOOP('',(#905,#906,#907,#908));
#430=EDGE_LOOP('',(#909,#910,#911,#912));
#431=EDGE_LOOP('',(#913,#914,#915,#916));
#432=EDGE_LOOP('',(#917,#918,#919,#920));
#433=EDGE_LOOP('',(#921,#922,#923,#924));
#434=EDGE_LOOP('',(#925,#926,#927));
#435=EDGE_LOOP('',(#928));
#436=EDGE_LOOP('',(#929,#930,#931,#932));
#437=EDGE_LOOP('',(#933,#934,#935,#936));
#438=EDGE_LOOP('',(#937,#938,#939,#940));
#439=EDGE_LOOP('',(#941,#942,#943));
#440=EDGE_LOOP('',(#944));
#441=EDGE_LOOP('',(#945));
#442=EDGE_LOOP('',(#946,#947,#948));
#443=EDGE_LOOP('',(#949,#950,#951));
#444=EDGE_LOOP('',(#952,#953,#954));
#445=EDGE_LOOP('',(#955,#956,#957));
#446=EDGE_LOOP('',(#958,#959,#960,#961));
#447=EDGE_LOOP('',(#962,#963,#964,#965));
#448=EDGE_LOOP('',(#966,#967,#968,#969));
#449=EDGE_LOOP('',(#970,#971,#972,#973));
#450=EDGE_LOOP('',(#974,#975,#976,#977));
#451=EDGE_LOOP('',(#978,#979,#980));
#452=EDGE_LOOP('',(#981,#982,#983,#984));
#453=EDGE_LOOP('',(#985,#986,#987,#988));
#454=EDGE_LOOP('',(#989,#990,#991,#992));
#455=EDGE_LOOP('',(#993,#994,#995,#996));
#456=EDGE_LOOP('',(#997,#998,#999,#1000));
#457=EDGE_LOOP('',(#1001,#1002,#1003,#1004));
#458=EDGE_LOOP('',(#1005,#1006,#1007,#1008));
#459=EDGE_LOOP('',(#1009,#1010,#1011));
#460=EDGE_LOOP('',(#1012));
#461=EDGE_LOOP('',(#1013));
#462=EDGE_LOOP('',(#1014,#1015,#1016));
#463=EDGE_LOOP('',(#1017,#1018,#1019));
#464=EDGE_LOOP('',(#1020,#1021,#1022));
#465=EDGE_LOOP('',(#1023,#1024,#1025));
#466=EDGE_LOOP('',(#1026));
#467=CIRCLE('',#1144,3.00000004470348);
#468=CIRCLE('',#1146,3.00000004470348);
#469=CIRCLE('',#1147,3.00000004470348);
#470=CIRCLE('',#1151,3.00000004470348);
#471=CIRCLE('',#1181,6.35);
#472=CIRCLE('',#1182,6.35);
#473=CIRCLE('',#1184,3.81);
#474=CIRCLE('',#1185,3.81);
#475=CIRCLE('',#1188,7.60000709864557);
#476=CIRCLE('',#1189,7.60000709864557);
#477=VERTEX_POINT('',#1474);
#478=VERTEX_POINT('',#1477);
#479=VERTEX_POINT('',#1479);
#480=VERTEX_POINT('',#1484);
#481=VERTEX_POINT('',#1485);
#482=VERTEX_POINT('',#1487);
#483=VERTEX_POINT('',#1489);
#484=VERTEX_POINT('',#1493);
#485=VERTEX_POINT('',#1497);
#486=VERTEX_POINT('',#1498);
#487=VERTEX_POINT('',#1500);
#488=VERTEX_POINT('',#1502);
#489=VERTEX_POINT('',#1506);
#490=VERTEX_POINT('',#1507);
#491=VERTEX_POINT('',#1509);
#492=VERTEX_POINT('',#1511);
#493=VERTEX_POINT('',#1515);
#494=VERTEX_POINT('',#1517);
#495=VERTEX_POINT('',#1521);
#496=VERTEX_POINT('',#1523);
#497=VERTEX_POINT('',#1530);
#498=VERTEX_POINT('',#1531);
#499=VERTEX_POINT('',#1533);
#500=VERTEX_POINT('',#1535);
#501=VERTEX_POINT('',#1539);
#502=VERTEX_POINT('',#1541);
#503=VERTEX_POINT('',#1545);
#504=VERTEX_POINT('',#1547);
#505=VERTEX_POINT('',#1554);
#506=VERTEX_POINT('',#1555);
#507=VERTEX_POINT('',#1557);
#508=VERTEX_POINT('',#1559);
#509=VERTEX_POINT('',#1563);
#510=VERTEX_POINT('',#1565);
#511=VERTEX_POINT('',#1569);
#512=VERTEX_POINT('',#1571);
#513=VERTEX_POINT('',#1578);
#514=VERTEX_POINT('',#1579);
#515=VERTEX_POINT('',#1581);
#516=VERTEX_POINT('',#1583);
#517=VERTEX_POINT('',#1587);
#518=VERTEX_POINT('',#1589);
#519=VERTEX_POINT('',#1593);
#520=VERTEX_POINT('',#1595);
#521=VERTEX_POINT('',#1602);
#522=VERTEX_POINT('',#1603);
#523=VERTEX_POINT('',#1605);
#524=VERTEX_POINT('',#1607);
#525=VERTEX_POINT('',#1611);
#526=VERTEX_POINT('',#1613);
#527=VERTEX_POINT('',#1617);
#528=VERTEX_POINT('',#1619);
#529=VERTEX_POINT('',#1626);
#530=VERTEX_POINT('',#1627);
#531=VERTEX_POINT('',#1629);
#532=VERTEX_POINT('',#1631);
#533=VERTEX_POINT('',#1635);
#534=VERTEX_POINT('',#1637);
#535=VERTEX_POINT('',#1641);
#536=VERTEX_POINT('',#1643);
#537=VERTEX_POINT('',#1650);
#538=VERTEX_POINT('',#1651);
#539=VERTEX_POINT('',#1653);
#540=VERTEX_POINT('',#1655);
#541=VERTEX_POINT('',#1659);
#542=VERTEX_POINT('',#1661);
#543=VERTEX_POINT('',#1668);
#544=VERTEX_POINT('',#1670);
#545=VERTEX_POINT('',#1674);
#546=VERTEX_POINT('',#1676);
#547=VERTEX_POINT('',#1680);
#548=VERTEX_POINT('',#1681);
#549=VERTEX_POINT('',#1683);
#550=VERTEX_POINT('',#1685);
#551=VERTEX_POINT('',#1689);
#552=VERTEX_POINT('',#1691);
#553=VERTEX_POINT('',#1735);
#554=VERTEX_POINT('',#1736);
#555=VERTEX_POINT('',#1738);
#556=VERTEX_POINT('',#1740);
#557=VERTEX_POINT('',#1744);
#558=VERTEX_POINT('',#1746);
#559=VERTEX_POINT('',#1753);
#560=VERTEX_POINT('',#1754);
#561=VERTEX_POINT('',#1756);
#562=VERTEX_POINT('',#1758);
#563=VERTEX_POINT('',#1762);
#564=VERTEX_POINT('',#1764);
#565=VERTEX_POINT('',#1771);
#566=VERTEX_POINT('',#1772);
#567=VERTEX_POINT('',#1774);
#568=VERTEX_POINT('',#1776);
#569=VERTEX_POINT('',#1780);
#570=VERTEX_POINT('',#1782);
#571=VERTEX_POINT('',#1789);
#572=VERTEX_POINT('',#1790);
#573=VERTEX_POINT('',#1792);
#574=VERTEX_POINT('',#1794);
#575=VERTEX_POINT('',#1798);
#576=VERTEX_POINT('',#1800);
#577=EDGE_CURVE('',#477,#477,#467,.T.);
#578=EDGE_CURVE('',#478,#478,#468,.T.);
#579=EDGE_CURVE('',#478,#479,#48,.T.);
#580=EDGE_CURVE('',#479,#479,#469,.T.);
#581=EDGE_CURVE('',#480,#481,#49,.T.);
#582=EDGE_CURVE('',#482,#480,#50,.T.);
#583=EDGE_CURVE('',#483,#482,#51,.T.);
#584=EDGE_CURVE('',#483,#481,#52,.T.);
#585=EDGE_CURVE('',#484,#484,#470,.T.);
#586=EDGE_CURVE('',#484,#477,#53,.T.);
#587=EDGE_CURVE('',#485,#486,#54,.T.);
#588=EDGE_CURVE('',#487,#485,#55,.T.);
#589=EDGE_CURVE('',#488,#487,#56,.T.);
#590=EDGE_CURVE('',#488,#486,#57,.T.);
#591=EDGE_CURVE('',#489,#490,#58,.T.);
#592=EDGE_CURVE('',#491,#489,#59,.T.);
#593=EDGE_CURVE('',#492,#491,#60,.T.);
#594=EDGE_CURVE('',#492,#490,#61,.T.);
#595=EDGE_CURVE('',#493,#489,#62,.T.);
#596=EDGE_CURVE('',#494,#493,#63,.T.);
#597=EDGE_CURVE('',#491,#494,#64,.T.);
#598=EDGE_CURVE('',#495,#493,#65,.T.);
#599=EDGE_CURVE('',#496,#495,#66,.T.);
#600=EDGE_CURVE('',#494,#496,#67,.T.);
#601=EDGE_CURVE('',#490,#495,#68,.T.);
#602=EDGE_CURVE('',#496,#492,#69,.T.);
#603=EDGE_CURVE('',#497,#498,#70,.T.);
#604=EDGE_CURVE('',#499,#497,#71,.T.);
#605=EDGE_CURVE('',#500,#499,#72,.T.);
#606=EDGE_CURVE('',#500,#498,#73,.T.);
#607=EDGE_CURVE('',#501,#497,#74,.T.);
#608=EDGE_CURVE('',#502,#501,#75,.T.);
#609=EDGE_CURVE('',#499,#502,#76,.T.);
#610=EDGE_CURVE('',#503,#501,#77,.T.);
#611=EDGE_CURVE('',#504,#503,#78,.T.);
#612=EDGE_CURVE('',#502,#504,#79,.T.);
#613=EDGE_CURVE('',#498,#503,#80,.T.);
#614=EDGE_CURVE('',#504,#500,#81,.T.);
#615=EDGE_CURVE('',#505,#506,#82,.T.);
#616=EDGE_CURVE('',#507,#505,#83,.T.);
#617=EDGE_CURVE('',#508,#507,#84,.T.);
#618=EDGE_CURVE('',#508,#506,#85,.T.);
#619=EDGE_CURVE('',#509,#505,#86,.T.);
#620=EDGE_CURVE('',#510,#509,#87,.T.);
#621=EDGE_CURVE('',#507,#510,#88,.T.);
#622=EDGE_CURVE('',#511,#509,#89,.T.);
#623=EDGE_CURVE('',#512,#511,#90,.T.);
#624=EDGE_CURVE('',#510,#512,#91,.T.);
#625=EDGE_CURVE('',#506,#511,#92,.T.);
#626=EDGE_CURVE('',#512,#508,#93,.T.);
#627=EDGE_CURVE('',#513,#514,#94,.T.);
#628=EDGE_CURVE('',#515,#513,#95,.T.);
#629=EDGE_CURVE('',#516,#515,#96,.T.);
#630=EDGE_CURVE('',#516,#514,#97,.T.);
#631=EDGE_CURVE('',#514,#517,#98,.T.);
#632=EDGE_CURVE('',#518,#516,#99,.T.);
#633=EDGE_CURVE('',#518,#517,#100,.T.);
#634=EDGE_CURVE('',#517,#519,#101,.T.);
#635=EDGE_CURVE('',#520,#518,#102,.T.);
#636=EDGE_CURVE('',#520,#519,#103,.T.);
#637=EDGE_CURVE('',#519,#513,#104,.T.);
#638=EDGE_CURVE('',#515,#520,#105,.T.);
#639=EDGE_CURVE('',#521,#522,#106,.T.);
#640=EDGE_CURVE('',#523,#521,#107,.T.);
#641=EDGE_CURVE('',#524,#523,#108,.T.);
#642=EDGE_CURVE('',#524,#522,#109,.T.);
#643=EDGE_CURVE('',#522,#525,#110,.T.);
#644=EDGE_CURVE('',#526,#524,#111,.T.);
#645=EDGE_CURVE('',#526,#525,#112,.T.);
#646=EDGE_CURVE('',#525,#527,#113,.T.);
#647=EDGE_CURVE('',#528,#526,#114,.T.);
#648=EDGE_CURVE('',#528,#527,#115,.T.);
#649=EDGE_CURVE('',#527,#521,#116,.T.);
#650=EDGE_CURVE('',#523,#528,#117,.T.);
#651=EDGE_CURVE('',#529,#530,#118,.T.);
#652=EDGE_CURVE('',#531,#529,#119,.T.);
#653=EDGE_CURVE('',#532,#531,#120,.T.);
#654=EDGE_CURVE('',#532,#530,#121,.T.);
#655=EDGE_CURVE('',#530,#533,#122,.T.);
#656=EDGE_CURVE('',#534,#532,#123,.T.);
#657=EDGE_CURVE('',#534,#533,#124,.T.);
#658=EDGE_CURVE('',#533,#535,#125,.T.);
#659=EDGE_CURVE('',#536,#534,#126,.T.);
#660=EDGE_CURVE('',#536,#535,#127,.T.);
#661=EDGE_CURVE('',#535,#529,#128,.T.);
#662=EDGE_CURVE('',#531,#536,#129,.T.);
#663=EDGE_CURVE('',#537,#538,#130,.T.);
#664=EDGE_CURVE('',#539,#537,#131,.T.);
#665=EDGE_CURVE('',#540,#539,#132,.T.);
#666=EDGE_CURVE('',#540,#538,#133,.T.);
#667=EDGE_CURVE('',#538,#541,#134,.T.);
#668=EDGE_CURVE('',#542,#540,#135,.T.);
#669=EDGE_CURVE('',#542,#541,#136,.T.);
#670=EDGE_CURVE('',#541,#537,#137,.T.);
#671=EDGE_CURVE('',#539,#542,#138,.T.);
#672=EDGE_CURVE('',#543,#543,#471,.T.);
#673=EDGE_CURVE('',#543,#544,#139,.T.);
#674=EDGE_CURVE('',#544,#544,#472,.T.);
#675=EDGE_CURVE('',#545,#545,#473,.T.);
#676=EDGE_CURVE('',#545,#546,#140,.T.);
#677=EDGE_CURVE('',#546,#546,#474,.T.);
#678=EDGE_CURVE('',#547,#548,#141,.T.);
#679=EDGE_CURVE('',#547,#549,#142,.T.);
#680=EDGE_CURVE('',#550,#549,#143,.T.);
#681=EDGE_CURVE('',#548,#550,#144,.T.);
#682=EDGE_CURVE('',#551,#548,#475,.T.);
#683=EDGE_CURVE('',#552,#550,#476,.T.);
#684=EDGE_CURVE('',#551,#552,#145,.T.);
#685=EDGE_CURVE('',#551,#547,#45,.T.);
#686=EDGE_CURVE('',#549,#552,#46,.T.);
#687=EDGE_CURVE('',#553,#554,#146,.T.);
#688=EDGE_CURVE('',#555,#553,#147,.T.);
#689=EDGE_CURVE('',#556,#555,#148,.T.);
#690=EDGE_CURVE('',#556,#554,#149,.T.);
#691=EDGE_CURVE('',#554,#557,#150,.T.);
#692=EDGE_CURVE('',#558,#556,#151,.T.);
#693=EDGE_CURVE('',#558,#557,#152,.T.);
#694=EDGE_CURVE('',#557,#553,#153,.T.);
#695=EDGE_CURVE('',#555,#558,#154,.T.);
#696=EDGE_CURVE('',#559,#560,#155,.T.);
#697=EDGE_CURVE('',#561,#559,#156,.T.);
#698=EDGE_CURVE('',#562,#561,#157,.T.);
#699=EDGE_CURVE('',#562,#560,#158,.T.);
#700=EDGE_CURVE('',#560,#563,#159,.T.);
#701=EDGE_CURVE('',#564,#562,#160,.T.);
#702=EDGE_CURVE('',#564,#563,#161,.T.);
#703=EDGE_CURVE('',#563,#559,#162,.T.);
#704=EDGE_CURVE('',#561,#564,#163,.T.);
#705=EDGE_CURVE('',#565,#566,#164,.T.);
#706=EDGE_CURVE('',#567,#565,#165,.T.);
#707=EDGE_CURVE('',#568,#567,#166,.T.);
#708=EDGE_CURVE('',#568,#566,#167,.T.);
#709=EDGE_CURVE('',#566,#569,#168,.T.);
#710=EDGE_CURVE('',#570,#568,#169,.T.);
#711=EDGE_CURVE('',#570,#569,#170,.T.);
#712=EDGE_CURVE('',#569,#565,#171,.T.);
#713=EDGE_CURVE('',#567,#570,#172,.T.);
#714=EDGE_CURVE('',#571,#572,#173,.T.);
#715=EDGE_CURVE('',#573,#571,#174,.T.);
#716=EDGE_CURVE('',#574,#573,#175,.T.);
#717=EDGE_CURVE('',#574,#572,#176,.T.);
#718=EDGE_CURVE('',#572,#575,#177,.T.);
#719=EDGE_CURVE('',#576,#574,#178,.T.);
#720=EDGE_CURVE('',#576,#575,#179,.T.);
#721=EDGE_CURVE('',#575,#571,#180,.T.);
#722=EDGE_CURVE('',#573,#576,#181,.T.);
#723=EDGE_CURVE('',#481,#485,#182,.T.);
#724=EDGE_CURVE('',#487,#483,#183,.T.);
#725=EDGE_CURVE('',#482,#488,#184,.T.);
#726=EDGE_CURVE('',#486,#480,#185,.T.);
#727=ORIENTED_EDGE('',*,*,#577,.F.);
#728=ORIENTED_EDGE('',*,*,#578,.F.);
#729=ORIENTED_EDGE('',*,*,#579,.T.);
#730=ORIENTED_EDGE('',*,*,#580,.F.);
#731=ORIENTED_EDGE('',*,*,#579,.F.);
#732=ORIENTED_EDGE('',*,*,#578,.T.);
#733=ORIENTED_EDGE('',*,*,#581,.F.);
#734=ORIENTED_EDGE('',*,*,#582,.F.);
#735=ORIENTED_EDGE('',*,*,#583,.F.);
#736=ORIENTED_EDGE('',*,*,#584,.T.);
#737=ORIENTED_EDGE('',*,*,#585,.F.);
#738=ORIENTED_EDGE('',*,*,#586,.T.);
#739=ORIENTED_EDGE('',*,*,#577,.T.);
#740=ORIENTED_EDGE('',*,*,#586,.F.);
#741=ORIENTED_EDGE('',*,*,#587,.F.);
#742=ORIENTED_EDGE('',*,*,#588,.F.);
#743=ORIENTED_EDGE('',*,*,#589,.F.);
#744=ORIENTED_EDGE('',*,*,#590,.T.);
#745=ORIENTED_EDGE('',*,*,#591,.F.);
#746=ORIENTED_EDGE('',*,*,#592,.F.);
#747=ORIENTED_EDGE('',*,*,#593,.F.);
#748=ORIENTED_EDGE('',*,*,#594,.T.);
#749=ORIENTED_EDGE('',*,*,#595,.F.);
#750=ORIENTED_EDGE('',*,*,#596,.F.);
#751=ORIENTED_EDGE('',*,*,#597,.F.);
#752=ORIENTED_EDGE('',*,*,#592,.T.);
#753=ORIENTED_EDGE('',*,*,#598,.F.);
#754=ORIENTED_EDGE('',*,*,#599,.F.);
#755=ORIENTED_EDGE('',*,*,#600,.F.);
#756=ORIENTED_EDGE('',*,*,#596,.T.);
#757=ORIENTED_EDGE('',*,*,#601,.F.);
#758=ORIENTED_EDGE('',*,*,#594,.F.);
#759=ORIENTED_EDGE('',*,*,#602,.F.);
#760=ORIENTED_EDGE('',*,*,#599,.T.);
#761=ORIENTED_EDGE('',*,*,#603,.F.);
#762=ORIENTED_EDGE('',*,*,#604,.F.);
#763=ORIENTED_EDGE('',*,*,#605,.F.);
#764=ORIENTED_EDGE('',*,*,#606,.T.);
#765=ORIENTED_EDGE('',*,*,#607,.F.);
#766=ORIENTED_EDGE('',*,*,#608,.F.);
#767=ORIENTED_EDGE('',*,*,#609,.F.);
#768=ORIENTED_EDGE('',*,*,#604,.T.);
#769=ORIENTED_EDGE('',*,*,#610,.F.);
#770=ORIENTED_EDGE('',*,*,#611,.F.);
#771=ORIENTED_EDGE('',*,*,#612,.F.);
#772=ORIENTED_EDGE('',*,*,#608,.T.);
#773=ORIENTED_EDGE('',*,*,#613,.F.);
#774=ORIENTED_EDGE('',*,*,#606,.F.);
#775=ORIENTED_EDGE('',*,*,#614,.F.);
#776=ORIENTED_EDGE('',*,*,#611,.T.);
#777=ORIENTED_EDGE('',*,*,#615,.F.);
#778=ORIENTED_EDGE('',*,*,#616,.F.);
#779=ORIENTED_EDGE('',*,*,#617,.F.);
#780=ORIENTED_EDGE('',*,*,#618,.T.);
#781=ORIENTED_EDGE('',*,*,#619,.F.);
#782=ORIENTED_EDGE('',*,*,#620,.F.);
#783=ORIENTED_EDGE('',*,*,#621,.F.);
#784=ORIENTED_EDGE('',*,*,#616,.T.);
#785=ORIENTED_EDGE('',*,*,#622,.F.);
#786=ORIENTED_EDGE('',*,*,#623,.F.);
#787=ORIENTED_EDGE('',*,*,#624,.F.);
#788=ORIENTED_EDGE('',*,*,#620,.T.);
#789=ORIENTED_EDGE('',*,*,#625,.F.);
#790=ORIENTED_EDGE('',*,*,#618,.F.);
#791=ORIENTED_EDGE('',*,*,#626,.F.);
#792=ORIENTED_EDGE('',*,*,#623,.T.);
#793=ORIENTED_EDGE('',*,*,#627,.F.);
#794=ORIENTED_EDGE('',*,*,#628,.F.);
#795=ORIENTED_EDGE('',*,*,#629,.F.);
#796=ORIENTED_EDGE('',*,*,#630,.T.);
#797=ORIENTED_EDGE('',*,*,#631,.F.);
#798=ORIENTED_EDGE('',*,*,#630,.F.);
#799=ORIENTED_EDGE('',*,*,#632,.F.);
#800=ORIENTED_EDGE('',*,*,#633,.T.);
#801=ORIENTED_EDGE('',*,*,#634,.F.);
#802=ORIENTED_EDGE('',*,*,#633,.F.);
#803=ORIENTED_EDGE('',*,*,#635,.F.);
#804=ORIENTED_EDGE('',*,*,#636,.T.);
#805=ORIENTED_EDGE('',*,*,#637,.F.);
#806=ORIENTED_EDGE('',*,*,#636,.F.);
#807=ORIENTED_EDGE('',*,*,#638,.F.);
#808=ORIENTED_EDGE('',*,*,#628,.T.);
#809=ORIENTED_EDGE('',*,*,#639,.F.);
#810=ORIENTED_EDGE('',*,*,#640,.F.);
#811=ORIENTED_EDGE('',*,*,#641,.F.);
#812=ORIENTED_EDGE('',*,*,#642,.T.);
#813=ORIENTED_EDGE('',*,*,#643,.F.);
#814=ORIENTED_EDGE('',*,*,#642,.F.);
#815=ORIENTED_EDGE('',*,*,#644,.F.);
#816=ORIENTED_EDGE('',*,*,#645,.T.);
#817=ORIENTED_EDGE('',*,*,#646,.F.);
#818=ORIENTED_EDGE('',*,*,#645,.F.);
#819=ORIENTED_EDGE('',*,*,#647,.F.);
#820=ORIENTED_EDGE('',*,*,#648,.T.);
#821=ORIENTED_EDGE('',*,*,#649,.F.);
#822=ORIENTED_EDGE('',*,*,#648,.F.);
#823=ORIENTED_EDGE('',*,*,#650,.F.);
#824=ORIENTED_EDGE('',*,*,#640,.T.);
#825=ORIENTED_EDGE('',*,*,#651,.F.);
#826=ORIENTED_EDGE('',*,*,#652,.F.);
#827=ORIENTED_EDGE('',*,*,#653,.F.);
#828=ORIENTED_EDGE('',*,*,#654,.T.);
#829=ORIENTED_EDGE('',*,*,#655,.F.);
#830=ORIENTED_EDGE('',*,*,#654,.F.);
#831=ORIENTED_EDGE('',*,*,#656,.F.);
#832=ORIENTED_EDGE('',*,*,#657,.T.);
#833=ORIENTED_EDGE('',*,*,#658,.F.);
#834=ORIENTED_EDGE('',*,*,#657,.F.);
#835=ORIENTED_EDGE('',*,*,#659,.F.);
#836=ORIENTED_EDGE('',*,*,#660,.T.);
#837=ORIENTED_EDGE('',*,*,#661,.F.);
#838=ORIENTED_EDGE('',*,*,#660,.F.);
#839=ORIENTED_EDGE('',*,*,#662,.F.);
#840=ORIENTED_EDGE('',*,*,#652,.T.);
#841=ORIENTED_EDGE('',*,*,#663,.F.);
#842=ORIENTED_EDGE('',*,*,#664,.F.);
#843=ORIENTED_EDGE('',*,*,#665,.F.);
#844=ORIENTED_EDGE('',*,*,#666,.T.);
#845=ORIENTED_EDGE('',*,*,#667,.F.);
#846=ORIENTED_EDGE('',*,*,#666,.F.);
#847=ORIENTED_EDGE('',*,*,#668,.F.);
#848=ORIENTED_EDGE('',*,*,#669,.T.);
#849=ORIENTED_EDGE('',*,*,#670,.F.);
#850=ORIENTED_EDGE('',*,*,#669,.F.);
#851=ORIENTED_EDGE('',*,*,#671,.F.);
#852=ORIENTED_EDGE('',*,*,#664,.T.);
#853=ORIENTED_EDGE('',*,*,#672,.F.);
#854=ORIENTED_EDGE('',*,*,#673,.T.);
#855=ORIENTED_EDGE('',*,*,#674,.F.);
#856=ORIENTED_EDGE('',*,*,#673,.F.);
#857=ORIENTED_EDGE('',*,*,#675,.F.);
#858=ORIENTED_EDGE('',*,*,#676,.T.);
#859=ORIENTED_EDGE('',*,*,#677,.F.);
#860=ORIENTED_EDGE('',*,*,#676,.F.);
#861=ORIENTED_EDGE('',*,*,#678,.F.);
#862=ORIENTED_EDGE('',*,*,#679,.T.);
#863=ORIENTED_EDGE('',*,*,#680,.F.);
#864=ORIENTED_EDGE('',*,*,#681,.F.);
#865=ORIENTED_EDGE('',*,*,#682,.T.);
#866=ORIENTED_EDGE('',*,*,#681,.T.);
#867=ORIENTED_EDGE('',*,*,#683,.F.);
#868=ORIENTED_EDGE('',*,*,#684,.F.);
#869=ORIENTED_EDGE('',*,*,#685,.F.);
#870=ORIENTED_EDGE('',*,*,#684,.T.);
#871=ORIENTED_EDGE('',*,*,#686,.F.);
#872=ORIENTED_EDGE('',*,*,#679,.F.);
#873=ORIENTED_EDGE('',*,*,#687,.F.);
#874=ORIENTED_EDGE('',*,*,#688,.F.);
#875=ORIENTED_EDGE('',*,*,#689,.F.);
#876=ORIENTED_EDGE('',*,*,#690,.T.);
#877=ORIENTED_EDGE('',*,*,#691,.F.);
#878=ORIENTED_EDGE('',*,*,#690,.F.);
#879=ORIENTED_EDGE('',*,*,#692,.F.);
#880=ORIENTED_EDGE('',*,*,#693,.T.);
#881=ORIENTED_EDGE('',*,*,#694,.F.);
#882=ORIENTED_EDGE('',*,*,#693,.F.);
#883=ORIENTED_EDGE('',*,*,#695,.F.);
#884=ORIENTED_EDGE('',*,*,#688,.T.);
#885=ORIENTED_EDGE('',*,*,#696,.F.);
#886=ORIENTED_EDGE('',*,*,#697,.F.);
#887=ORIENTED_EDGE('',*,*,#698,.F.);
#888=ORIENTED_EDGE('',*,*,#699,.T.);
#889=ORIENTED_EDGE('',*,*,#700,.F.);
#890=ORIENTED_EDGE('',*,*,#699,.F.);
#891=ORIENTED_EDGE('',*,*,#701,.F.);
#892=ORIENTED_EDGE('',*,*,#702,.T.);
#893=ORIENTED_EDGE('',*,*,#703,.F.);
#894=ORIENTED_EDGE('',*,*,#702,.F.);
#895=ORIENTED_EDGE('',*,*,#704,.F.);
#896=ORIENTED_EDGE('',*,*,#697,.T.);
#897=ORIENTED_EDGE('',*,*,#705,.F.);
#898=ORIENTED_EDGE('',*,*,#706,.F.);
#899=ORIENTED_EDGE('',*,*,#707,.F.);
#900=ORIENTED_EDGE('',*,*,#708,.T.);
#901=ORIENTED_EDGE('',*,*,#709,.F.);
#902=ORIENTED_EDGE('',*,*,#708,.F.);
#903=ORIENTED_EDGE('',*,*,#710,.F.);
#904=ORIENTED_EDGE('',*,*,#711,.T.);
#905=ORIENTED_EDGE('',*,*,#712,.F.);
#906=ORIENTED_EDGE('',*,*,#711,.F.);
#907=ORIENTED_EDGE('',*,*,#713,.F.);
#908=ORIENTED_EDGE('',*,*,#706,.T.);
#909=ORIENTED_EDGE('',*,*,#714,.F.);
#910=ORIENTED_EDGE('',*,*,#715,.F.);
#911=ORIENTED_EDGE('',*,*,#716,.F.);
#912=ORIENTED_EDGE('',*,*,#717,.T.);
#913=ORIENTED_EDGE('',*,*,#718,.F.);
#914=ORIENTED_EDGE('',*,*,#717,.F.);
#915=ORIENTED_EDGE('',*,*,#719,.F.);
#916=ORIENTED_EDGE('',*,*,#720,.T.);
#917=ORIENTED_EDGE('',*,*,#721,.F.);
#918=ORIENTED_EDGE('',*,*,#720,.F.);
#919=ORIENTED_EDGE('',*,*,#722,.F.);
#920=ORIENTED_EDGE('',*,*,#715,.T.);
#921=ORIENTED_EDGE('',*,*,#723,.F.);
#922=ORIENTED_EDGE('',*,*,#584,.F.);
#923=ORIENTED_EDGE('',*,*,#724,.F.);
#924=ORIENTED_EDGE('',*,*,#588,.T.);
#925=ORIENTED_EDGE('',*,*,#685,.T.);
#926=ORIENTED_EDGE('',*,*,#678,.T.);
#927=ORIENTED_EDGE('',*,*,#682,.F.);
#928=ORIENTED_EDGE('',*,*,#580,.T.);
#929=ORIENTED_EDGE('',*,*,#637,.T.);
#930=ORIENTED_EDGE('',*,*,#627,.T.);
#931=ORIENTED_EDGE('',*,*,#631,.T.);
#932=ORIENTED_EDGE('',*,*,#634,.T.);
#933=ORIENTED_EDGE('',*,*,#649,.T.);
#934=ORIENTED_EDGE('',*,*,#639,.T.);
#935=ORIENTED_EDGE('',*,*,#643,.T.);
#936=ORIENTED_EDGE('',*,*,#646,.T.);
#937=ORIENTED_EDGE('',*,*,#661,.T.);
#938=ORIENTED_EDGE('',*,*,#651,.T.);
#939=ORIENTED_EDGE('',*,*,#655,.T.);
#940=ORIENTED_EDGE('',*,*,#658,.T.);
#941=ORIENTED_EDGE('',*,*,#670,.T.);
#942=ORIENTED_EDGE('',*,*,#663,.T.);
#943=ORIENTED_EDGE('',*,*,#667,.T.);
#944=ORIENTED_EDGE('',*,*,#674,.T.);
#945=ORIENTED_EDGE('',*,*,#677,.T.);
#946=ORIENTED_EDGE('',*,*,#694,.T.);
#947=ORIENTED_EDGE('',*,*,#687,.T.);
#948=ORIENTED_EDGE('',*,*,#691,.T.);
#949=ORIENTED_EDGE('',*,*,#703,.T.);
#950=ORIENTED_EDGE('',*,*,#696,.T.);
#951=ORIENTED_EDGE('',*,*,#700,.T.);
#952=ORIENTED_EDGE('',*,*,#712,.T.);
#953=ORIENTED_EDGE('',*,*,#705,.T.);
#954=ORIENTED_EDGE('',*,*,#709,.T.);
#955=ORIENTED_EDGE('',*,*,#721,.T.);
#956=ORIENTED_EDGE('',*,*,#714,.T.);
#957=ORIENTED_EDGE('',*,*,#718,.T.);
#958=ORIENTED_EDGE('',*,*,#626,.T.);
#959=ORIENTED_EDGE('',*,*,#617,.T.);
#960=ORIENTED_EDGE('',*,*,#621,.T.);
#961=ORIENTED_EDGE('',*,*,#624,.T.);
#962=ORIENTED_EDGE('',*,*,#614,.T.);
#963=ORIENTED_EDGE('',*,*,#605,.T.);
#964=ORIENTED_EDGE('',*,*,#609,.T.);
#965=ORIENTED_EDGE('',*,*,#612,.T.);
#966=ORIENTED_EDGE('',*,*,#602,.T.);
#967=ORIENTED_EDGE('',*,*,#593,.T.);
#968=ORIENTED_EDGE('',*,*,#597,.T.);
#969=ORIENTED_EDGE('',*,*,#600,.T.);
#970=ORIENTED_EDGE('',*,*,#589,.T.);
#971=ORIENTED_EDGE('',*,*,#724,.T.);
#972=ORIENTED_EDGE('',*,*,#583,.T.);
#973=ORIENTED_EDGE('',*,*,#725,.T.);
#974=ORIENTED_EDGE('',*,*,#726,.F.);
#975=ORIENTED_EDGE('',*,*,#590,.F.);
#976=ORIENTED_EDGE('',*,*,#725,.F.);
#977=ORIENTED_EDGE('',*,*,#582,.T.);
#978=ORIENTED_EDGE('',*,*,#686,.T.);
#979=ORIENTED_EDGE('',*,*,#683,.T.);
#980=ORIENTED_EDGE('',*,*,#680,.T.);
#981=ORIENTED_EDGE('',*,*,#587,.T.);
#982=ORIENTED_EDGE('',*,*,#726,.T.);
#983=ORIENTED_EDGE('',*,*,#581,.T.);
#984=ORIENTED_EDGE('',*,*,#723,.T.);
#985=ORIENTED_EDGE('',*,*,#601,.T.);
#986=ORIENTED_EDGE('',*,*,#598,.T.);
#987=ORIENTED_EDGE('',*,*,#595,.T.);
#988=ORIENTED_EDGE('',*,*,#591,.T.);
#989=ORIENTED_EDGE('',*,*,#613,.T.);
#990=ORIENTED_EDGE('',*,*,#610,.T.);
#991=ORIENTED_EDGE('',*,*,#607,.T.);
#992=ORIENTED_EDGE('',*,*,#603,.T.);
#993=ORIENTED_EDGE('',*,*,#625,.T.);
#994=ORIENTED_EDGE('',*,*,#622,.T.);
#995=ORIENTED_EDGE('',*,*,#619,.T.);
#996=ORIENTED_EDGE('',*,*,#615,.T.);
#997=ORIENTED_EDGE('',*,*,#638,.T.);
#998=ORIENTED_EDGE('',*,*,#635,.T.);
#999=ORIENTED_EDGE('',*,*,#632,.T.);
#1000=ORIENTED_EDGE('',*,*,#629,.T.);
#1001=ORIENTED_EDGE('',*,*,#650,.T.);
#1002=ORIENTED_EDGE('',*,*,#647,.T.);
#1003=ORIENTED_EDGE('',*,*,#644,.T.);
#1004=ORIENTED_EDGE('',*,*,#641,.T.);
#1005=ORIENTED_EDGE('',*,*,#662,.T.);
#1006=ORIENTED_EDGE('',*,*,#659,.T.);
#1007=ORIENTED_EDGE('',*,*,#656,.T.);
#1008=ORIENTED_EDGE('',*,*,#653,.T.);
#1009=ORIENTED_EDGE('',*,*,#671,.T.);
#1010=ORIENTED_EDGE('',*,*,#668,.T.);
#1011=ORIENTED_EDGE('',*,*,#665,.T.);
#1012=ORIENTED_EDGE('',*,*,#672,.T.);
#1013=ORIENTED_EDGE('',*,*,#675,.T.);
#1014=ORIENTED_EDGE('',*,*,#695,.T.);
#1015=ORIENTED_EDGE('',*,*,#692,.T.);
#1016=ORIENTED_EDGE('',*,*,#689,.T.);
#1017=ORIENTED_EDGE('',*,*,#704,.T.);
#1018=ORIENTED_EDGE('',*,*,#701,.T.);
#1019=ORIENTED_EDGE('',*,*,#698,.T.);
#1020=ORIENTED_EDGE('',*,*,#713,.T.);
#1021=ORIENTED_EDGE('',*,*,#710,.T.);
#1022=ORIENTED_EDGE('',*,*,#707,.T.);
#1023=ORIENTED_EDGE('',*,*,#722,.T.);
#1024=ORIENTED_EDGE('',*,*,#719,.T.);
#1025=ORIENTED_EDGE('',*,*,#716,.T.);
#1026=ORIENTED_EDGE('',*,*,#585,.T.);
#1027=PLANE('',#1143);
#1028=PLANE('',#1148);
#1029=PLANE('',#1149);
#1030=PLANE('',#1152);
#1031=PLANE('',#1153);
#1032=PLANE('',#1154);
#1033=PLANE('',#1155);
#1034=PLANE('',#1156);
#1035=PLANE('',#1157);
#1036=PLANE('',#1158);
#1037=PLANE('',#1159);
#1038=PLANE('',#1160);
#1039=PLANE('',#1161);
#1040=PLANE('',#1162);
#1041=PLANE('',#1163);
#1042=PLANE('',#1164);
#1043=PLANE('',#1165);
#1044=PLANE('',#1166);
#1045=PLANE('',#1167);
#1046=PLANE('',#1168);
#1047=PLANE('',#1169);
#1048=PLANE('',#1170);
#1049=PLANE('',#1171);
#1050=PLANE('',#1172);
#1051=PLANE('',#1173);
#1052=PLANE('',#1174);
#1053=PLANE('',#1175);
#1054=PLANE('',#1176);
#1055=PLANE('',#1177);
#1056=PLANE('',#1178);
#1057=PLANE('',#1179);
#1058=PLANE('',#1186);
#1059=PLANE('',#1190);
#1060=PLANE('',#1191);
#1061=PLANE('',#1192);
#1062=PLANE('',#1193);
#1063=PLANE('',#1194);
#1064=PLANE('',#1195);
#1065=PLANE('',#1196);
#1066=PLANE('',#1197);
#1067=PLANE('',#1198);
#1068=PLANE('',#1199);
#1069=PLANE('',#1200);
#1070=PLANE('',#1201);
#1071=PLANE('',#1202);
#1072=PLANE('',#1203);
#1073=PLANE('',#1204);
#1074=PLANE('',#1205);
#1075=ADVANCED_FACE('',(#329),#1027,.F.);
#1076=ADVANCED_FACE('',(#330),#324,.T.);
#1077=ADVANCED_FACE('',(#331),#1028,.T.);
#1078=ADVANCED_FACE('',(#332),#1029,.F.);
#1079=ADVANCED_FACE('',(#333),#325,.F.);
#1080=ADVANCED_FACE('',(#334),#1030,.F.);
#1081=ADVANCED_FACE('',(#335),#1031,.F.);
#1082=ADVANCED_FACE('',(#336),#1032,.F.);
#1083=ADVANCED_FACE('',(#337),#1033,.F.);
#1084=ADVANCED_FACE('',(#338),#1034,.F.);
#1085=ADVANCED_FACE('',(#339),#1035,.F.);
#1086=ADVANCED_FACE('',(#340),#1036,.F.);
#1087=ADVANCED_FACE('',(#341),#1037,.F.);
#1088=ADVANCED_FACE('',(#342),#1038,.F.);
#1089=ADVANCED_FACE('',(#343),#1039,.F.);
#1090=ADVANCED_FACE('',(#344),#1040,.F.);
#1091=ADVANCED_FACE('',(#345),#1041,.F.);
#1092=ADVANCED_FACE('',(#346),#1042,.F.);
#1093=ADVANCED_FACE('',(#347),#1043,.F.);
#1094=ADVANCED_FACE('',(#348),#1044,.F.);
#1095=ADVANCED_FACE('',(#349),#1045,.F.);
#1096=ADVANCED_FACE('',(#350),#1046,.F.);
#1097=ADVANCED_FACE('',(#351),#1047,.F.);
#1098=ADVANCED_FACE('',(#352),#1048,.F.);
#1099=ADVANCED_FACE('',(#353),#1049,.F.);
#1100=ADVANCED_FACE('',(#354),#1050,.F.);
#1101=ADVANCED_FACE('',(#355),#1051,.F.);
#1102=ADVANCED_FACE('',(#356),#1052,.F.);
#1103=ADVANCED_FACE('',(#357),#1053,.F.);
#1104=ADVANCED_FACE('',(#358),#1054,.F.);
#1105=ADVANCED_FACE('',(#359),#1055,.F.);
#1106=ADVANCED_FACE('',(#360),#1056,.F.);
#1107=ADVANCED_FACE('',(#361),#1057,.F.);
#1108=ADVANCED_FACE('',(#362),#326,.F.);
#1109=ADVANCED_FACE('',(#363),#327,.F.);
#1110=ADVANCED_FACE('',(#364),#1058,.T.);
#1111=ADVANCED_FACE('',(#365),#328,.T.);
#1112=ADVANCED_FACE('',(#366),#47,.T.);
#1113=ADVANCED_FACE('',(#367),#1059,.F.);
#1114=ADVANCED_FACE('',(#368),#1060,.F.);
#1115=ADVANCED_FACE('',(#369),#1061,.F.);
#1116=ADVANCED_FACE('',(#370),#1062,.F.);
#1117=ADVANCED_FACE('',(#371),#1063,.F.);
#1118=ADVANCED_FACE('',(#372),#1064,.F.);
#1119=ADVANCED_FACE('',(#373),#1065,.F.);
#1120=ADVANCED_FACE('',(#374),#1066,.F.);
#1121=ADVANCED_FACE('',(#375),#1067,.F.);
#1122=ADVANCED_FACE('',(#376),#1068,.F.);
#1123=ADVANCED_FACE('',(#377),#1069,.F.);
#1124=ADVANCED_FACE('',(#378),#1070,.F.);
#1125=ADVANCED_FACE('',(#379),#1071,.F.);
#1126=ADVANCED_FACE('',(#380,#15,#16,#17,#18,#19,#20,#21,#22,#23,#24,#25,
#26,#27,#28,#29),#1072,.F.);
#1127=ADVANCED_FACE('',(#381),#1073,.F.);
#1128=ADVANCED_FACE('',(#382,#30,#31,#32,#33,#34,#35,#36,#37,#38,#39,#40,
#41,#42,#43,#44),#1074,.T.);
#1129=CLOSED_SHELL('',(#1075,#1076,#1077,#1078,#1079,#1080,#1081,#1082,
#1083,#1084,#1085,#1086,#1087,#1088,#1089,#1090,#1091,#1092,#1093,#1094,
#1095,#1096,#1097,#1098,#1099,#1100,#1101,#1102,#1103,#1104,#1105,#1106,
#1107,#1108,#1109,#1110,#1111,#1112,#1113,#1114,#1115,#1116,#1117,#1118,
#1119,#1120,#1121,#1122,#1123,#1124,#1125,#1126,#1127,#1128));
#1130=DERIVED_UNIT_ELEMENT(#1132,1.);
#1131=DERIVED_UNIT_ELEMENT(#1819,-3.);
#1132=(
MASS_UNIT()
NAMED_UNIT(*)
SI_UNIT(.KILO.,.GRAM.)
);
#1133=DERIVED_UNIT((#1130,#1131));
#1134=MEASURE_REPRESENTATION_ITEM('density measure',
POSITIVE_RATIO_MEASURE(7850.),#1133);
#1135=PROPERTY_DEFINITION_REPRESENTATION(#1140,#1137);
#1136=PROPERTY_DEFINITION_REPRESENTATION(#1141,#1138);
#1137=REPRESENTATION('material name',(#1139),#1816);
#1138=REPRESENTATION('density',(#1134),#1816);
#1139=DESCRIPTIVE_REPRESENTATION_ITEM('Steel','Steel');
#1140=PROPERTY_DEFINITION('material property','material name',#1826);
#1141=PROPERTY_DEFINITION('material property','density of part',#1826);
#1142=AXIS2_PLACEMENT_3D('',#1472,#1206,#1207);
#1143=AXIS2_PLACEMENT_3D('',#1473,#1208,#1209);
#1144=AXIS2_PLACEMENT_3D('',#1475,#1210,#1211);
#1145=AXIS2_PLACEMENT_3D('',#1476,#1212,#1213);
#1146=AXIS2_PLACEMENT_3D('',#1478,#1214,#1215);
#1147=AXIS2_PLACEMENT_3D('',#1481,#1217,#1218);
#1148=AXIS2_PLACEMENT_3D('',#1482,#1219,#1220);
#1149=AXIS2_PLACEMENT_3D('',#1483,#1221,#1222);
#1150=AXIS2_PLACEMENT_3D('',#1492,#1227,#1228);
#1151=AXIS2_PLACEMENT_3D('',#1494,#1229,#1230);
#1152=AXIS2_PLACEMENT_3D('',#1496,#1232,#1233);
#1153=AXIS2_PLACEMENT_3D('',#1505,#1238,#1239);
#1154=AXIS2_PLACEMENT_3D('',#1514,#1244,#1245);
#1155=AXIS2_PLACEMENT_3D('',#1520,#1249,#1250);
#1156=AXIS2_PLACEMENT_3D('',#1526,#1254,#1255);
#1157=AXIS2_PLACEMENT_3D('',#1529,#1258,#1259);
#1158=AXIS2_PLACEMENT_3D('',#1538,#1264,#1265);
#1159=AXIS2_PLACEMENT_3D('',#1544,#1269,#1270);
#1160=AXIS2_PLACEMENT_3D('',#1550,#1274,#1275);
#1161=AXIS2_PLACEMENT_3D('',#1553,#1278,#1279);
#1162=AXIS2_PLACEMENT_3D('',#1562,#1284,#1285);
#1163=AXIS2_PLACEMENT_3D('',#1568,#1289,#1290);
#1164=AXIS2_PLACEMENT_3D('',#1574,#1294,#1295);
#1165=AXIS2_PLACEMENT_3D('',#1577,#1298,#1299);
#1166=AXIS2_PLACEMENT_3D('',#1586,#1304,#1305);
#1167=AXIS2_PLACEMENT_3D('',#1592,#1309,#1310);
#1168=AXIS2_PLACEMENT_3D('',#1598,#1314,#1315);
#1169=AXIS2_PLACEMENT_3D('',#1601,#1318,#1319);
#1170=AXIS2_PLACEMENT_3D('',#1610,#1324,#1325);
#1171=AXIS2_PLACEMENT_3D('',#1616,#1329,#1330);
#1172=AXIS2_PLACEMENT_3D('',#1622,#1334,#1335);
#1173=AXIS2_PLACEMENT_3D('',#1625,#1338,#1339);
#1174=AXIS2_PLACEMENT_3D('',#1634,#1344,#1345);
#1175=AXIS2_PLACEMENT_3D('',#1640,#1349,#1350);
#1176=AXIS2_PLACEMENT_3D('',#1646,#1354,#1355);
#1177=AXIS2_PLACEMENT_3D('',#1649,#1358,#1359);
#1178=AXIS2_PLACEMENT_3D('',#1658,#1364,#1365);
#1179=AXIS2_PLACEMENT_3D('',#1664,#1369,#1370);
#1180=AXIS2_PLACEMENT_3D('',#1667,#1373,#1374);
#1181=AXIS2_PLACEMENT_3D('',#1669,#1375,#1376);
#1182=AXIS2_PLACEMENT_3D('',#1672,#1378,#1379);
#1183=AXIS2_PLACEMENT_3D('',#1673,#1380,#1381);
#1184=AXIS2_PLACEMENT_3D('',#1675,#1382,#1383);
#1185=AXIS2_PLACEMENT_3D('',#1678,#1385,#1386);
#1186=AXIS2_PLACEMENT_3D('',#1679,#1387,#1388);
#1187=AXIS2_PLACEMENT_3D('',#1688,#1393,#1394);
#1188=AXIS2_PLACEMENT_3D('',#1690,#1395,#1396);
#1189=AXIS2_PLACEMENT_3D('',#1692,#1397,#1398);
#1190=AXIS2_PLACEMENT_3D('',#1734,#1400,#1401);
#1191=AXIS2_PLACEMENT_3D('',#1743,#1406,#1407);
#1192=AXIS2_PLACEMENT_3D('',#1749,#1411,#1412);
#1193=AXIS2_PLACEMENT_3D('',#1752,#1415,#1416);
#1194=AXIS2_PLACEMENT_3D('',#1761,#1421,#1422);
#1195=AXIS2_PLACEMENT_3D('',#1767,#1426,#1427);
#1196=AXIS2_PLACEMENT_3D('',#1770,#1430,#1431);
#1197=AXIS2_PLACEMENT_3D('',#1779,#1436,#1437);
#1198=AXIS2_PLACEMENT_3D('',#1785,#1441,#1442);
#1199=AXIS2_PLACEMENT_3D('',#1788,#1445,#1446);
#1200=AXIS2_PLACEMENT_3D('',#1797,#1451,#1452);
#1201=AXIS2_PLACEMENT_3D('',#1803,#1456,#1457);
#1202=AXIS2_PLACEMENT_3D('',#1806,#1460,#1461);
#1203=AXIS2_PLACEMENT_3D('',#1809,#1464,#1465);
#1204=AXIS2_PLACEMENT_3D('',#1811,#1467,#1468);
#1205=AXIS2_PLACEMENT_3D('',#1813,#1470,#1471);
#1206=DIRECTION('axis',(0.,0.,1.));
#1207=DIRECTION('refdir',(1.,0.,0.));
#1208=DIRECTION('center_axis',(0.,-1.,0.));
#1209=DIRECTION('ref_axis',(1.,0.,0.));
#1210=DIRECTION('center_axis',(0.,-1.,0.));
#1211=DIRECTION('ref_axis',(-1.,0.,0.));
#1212=DIRECTION('center_axis',(0.,-1.,0.));
#1213=DIRECTION('ref_axis',(1.,0.,0.));
#1214=DIRECTION('center_axis',(0.,-1.,0.));
#1215=DIRECTION('ref_axis',(1.,0.,0.));
#1216=DIRECTION('',(0.,1.,0.));
#1217=DIRECTION('center_axis',(0.,1.,0.));
#1218=DIRECTION('ref_axis',(-1.,0.,0.));
#1219=DIRECTION('center_axis',(0.,-1.,0.));
#1220=DIRECTION('ref_axis',(1.,0.,0.));
#1221=DIRECTION('center_axis',(1.,0.,0.));
#1222=DIRECTION('ref_axis',(0.,0.,-1.));
#1223=DIRECTION('',(0.,0.,1.));
#1224=DIRECTION('',(0.,1.,0.));
#1225=DIRECTION('',(0.,0.,-1.));
#1226=DIRECTION('',(0.,1.,0.));
#1227=DIRECTION('center_axis',(0.,-1.,0.));
#1228=DIRECTION('ref_axis',(-1.,0.,0.));
#1229=DIRECTION('center_axis',(0.,-1.,0.));
#1230=DIRECTION('ref_axis',(1.,0.,0.));
#1231=DIRECTION('',(0.,-1.,0.));
#1232=DIRECTION('center_axis',(-1.,0.,0.));
#1233=DIRECTION('ref_axis',(0.,0.,1.));
#1234=DIRECTION('',(0.,0.,-1.));
#1235=DIRECTION('',(0.,1.,0.));
#1236=DIRECTION('',(0.,0.,1.));
#1237=DIRECTION('',(0.,1.,0.));
#1238=DIRECTION('center_axis',(-1.,0.,0.));
#1239=DIRECTION('ref_axis',(0.,0.,1.));
#1240=DIRECTION('',(0.,0.,-1.));
#1241=DIRECTION('',(0.,1.,0.));
#1242=DIRECTION('',(0.,0.,1.));
#1243=DIRECTION('',(0.,1.,0.));
#1244=DIRECTION('center_axis',(0.,0.,1.));
#1245=DIRECTION('ref_axis',(1.,0.,0.));
#1246=DIRECTION('',(-1.,0.,0.));
#1247=DIRECTION('',(0.,1.,0.));
#1248=DIRECTION('',(1.,0.,0.));
#1249=DIRECTION('center_axis',(1.,0.,0.));
#1250=DIRECTION('ref_axis',(0.,0.,-1.));
#1251=DIRECTION('',(0.,0.,1.));
#1252=DIRECTION('',(0.,1.,0.));
#1253=DIRECTION('',(0.,0.,-1.));
#1254=DIRECTION('center_axis',(0.,0.,-1.));
#1255=DIRECTION('ref_axis',(-1.,0.,0.));
#1256=DIRECTION('',(1.,0.,0.));
#1257=DIRECTION('',(-1.,0.,0.));
#1258=DIRECTION('center_axis',(0.,0.,1.));
#1259=DIRECTION('ref_axis',(1.,0.,0.));
#1260=DIRECTION('',(-1.,0.,0.));
#1261=DIRECTION('',(0.,1.,0.));
#1262=DIRECTION('',(1.,0.,0.));
#1263=DIRECTION('',(0.,1.,0.));
#1264=DIRECTION('center_axis',(1.,0.,0.));
#1265=DIRECTION('ref_axis',(0.,0.,-1.));
#1266=DIRECTION('',(0.,0.,1.));
#1267=DIRECTION('',(0.,1.,0.));
#1268=DIRECTION('',(0.,0.,-1.));
#1269=DIRECTION('center_axis',(0.,0.,-1.));
#1270=DIRECTION('ref_axis',(-1.,0.,0.));
#1271=DIRECTION('',(1.,0.,0.));
#1272=DIRECTION('',(0.,1.,0.));
#1273=DIRECTION('',(-1.,0.,0.));
#1274=DIRECTION('center_axis',(-1.,0.,0.));
#1275=DIRECTION('ref_axis',(0.,0.,1.));
#1276=DIRECTION('',(0.,0.,-1.));
#1277=DIRECTION('',(0.,0.,1.));
#1278=DIRECTION('center_axis',(0.,0.,1.));
#1279=DIRECTION('ref_axis',(1.,0.,0.));
#1280=DIRECTION('',(-1.,0.,0.));
#1281=DIRECTION('',(0.,1.,0.));
#1282=DIRECTION('',(1.,0.,0.));
#1283=DIRECTION('',(0.,1.,0.));
#1284=DIRECTION('center_axis',(1.,0.,0.));
#1285=DIRECTION('ref_axis',(0.,0.,-1.));
#1286=DIRECTION('',(0.,0.,1.));
#1287=DIRECTION('',(0.,1.,0.));
#1288=DIRECTION('',(0.,0.,-1.));
#1289=DIRECTION('center_axis',(0.,0.,-1.));
#1290=DIRECTION('ref_axis',(-1.,0.,0.));
#1291=DIRECTION('',(1.,0.,0.));
#1292=DIRECTION('',(0.,1.,0.));
#1293=DIRECTION('',(-1.,0.,0.));
#1294=DIRECTION('center_axis',(-1.,0.,0.));
#1295=DIRECTION('ref_axis',(0.,0.,1.));
#1296=DIRECTION('',(0.,0.,-1.));
#1297=DIRECTION('',(0.,0.,1.));
#1298=DIRECTION('center_axis',(-0.971317143006107,0.,-0.237787736652786));
#1299=DIRECTION('ref_axis',(0.237787736652786,0.,-0.971317143006107));
#1300=DIRECTION('',(-0.237787736652786,0.,0.971317143006107));
#1301=DIRECTION('',(0.,-1.,0.));
#1302=DIRECTION('',(0.237787736652786,0.,-0.971317143006107));
#1303=DIRECTION('',(0.,-1.,0.));
#1304=DIRECTION('center_axis',(-0.237787736652784,0.,0.971317143006107));
#1305=DIRECTION('ref_axis',(-0.971317143006107,0.,-0.237787736652784));
#1306=DIRECTION('',(0.971317143006107,0.,0.237787736652784));
#1307=DIRECTION('',(-0.971317143006107,0.,-0.237787736652784));
#1308=DIRECTION('',(0.,-1.,0.));
#1309=DIRECTION('center_axis',(0.971317143006107,0.,0.237787736652784));
#1310=DIRECTION('ref_axis',(-0.237787736652784,0.,0.971317143006107));
#1311=DIRECTION('',(0.237787736652784,0.,-0.971317143006107));
#1312=DIRECTION('',(-0.237787736652784,0.,0.971317143006107));
#1313=DIRECTION('',(0.,-1.,0.));
#1314=DIRECTION('center_axis',(9.10191630206557E-18,0.,-1.));
#1315=DIRECTION('ref_axis',(1.,0.,9.10191630206557E-18));
#1316=DIRECTION('',(-1.,0.,-9.10191630206557E-18));
#1317=DIRECTION('',(1.,0.,9.10191630206557E-18));
#1318=DIRECTION('center_axis',(-0.971317143006107,0.,-0.237787736652784));
#1319=DIRECTION('ref_axis',(0.237787736652784,0.,-0.971317143006107));
#1320=DIRECTION('',(-0.237787736652784,0.,0.971317143006107));
#1321=DIRECTION('',(0.,-1.,0.));
#1322=DIRECTION('',(0.237787736652784,0.,-0.971317143006107));
#1323=DIRECTION('',(0.,-1.,0.));
#1324=DIRECTION('center_axis',(-0.237787736652784,0.,0.971317143006107));
#1325=DIRECTION('ref_axis',(-0.971317143006107,0.,-0.237787736652784));
#1326=DIRECTION('',(0.971317143006107,0.,0.237787736652784));
#1327=DIRECTION('',(-0.971317143006107,0.,-0.237787736652784));
#1328=DIRECTION('',(0.,-1.,0.));
#1329=DIRECTION('center_axis',(0.971317143006107,0.,0.237787736652785));
#1330=DIRECTION('ref_axis',(-0.237787736652785,0.,0.971317143006107));
#1331=DIRECTION('',(0.237787736652785,0.,-0.971317143006107));
#1332=DIRECTION('',(-0.237787736652785,0.,0.971317143006107));
#1333=DIRECTION('',(0.,-1.,0.));
#1334=DIRECTION('center_axis',(9.10191630206557E-18,0.,-1.));
#1335=DIRECTION('ref_axis',(1.,0.,9.10191630206557E-18));
#1336=DIRECTION('',(-1.,0.,-9.10191630206557E-18));
#1337=DIRECTION('',(1.,0.,9.10191630206557E-18));
#1338=DIRECTION('center_axis',(-0.971317143006107,0.,-0.237787736652785));
#1339=DIRECTION('ref_axis',(0.237787736652785,0.,-0.971317143006107));
#1340=DIRECTION('',(-0.237787736652785,0.,0.971317143006107));
#1341=DIRECTION('',(0.,-1.,0.));
#1342=DIRECTION('',(0.237787736652785,0.,-0.971317143006107));
#1343=DIRECTION('',(0.,-1.,0.));
#1344=DIRECTION('center_axis',(-0.237787736652784,0.,0.971317143006107));
#1345=DIRECTION('ref_axis',(-0.971317143006107,0.,-0.237787736652784));
#1346=DIRECTION('',(0.971317143006107,0.,0.237787736652784));
#1347=DIRECTION('',(-0.971317143006107,0.,-0.237787736652784));
#1348=DIRECTION('',(0.,-1.,0.));
#1349=DIRECTION('center_axis',(0.971317143006107,0.,0.237787736652785));
#1350=DIRECTION('ref_axis',(-0.237787736652785,0.,0.971317143006107));
#1351=DIRECTION('',(0.237787736652785,0.,-0.971317143006107));
#1352=DIRECTION('',(-0.237787736652785,0.,0.971317143006107));
#1353=DIRECTION('',(0.,-1.,0.));
#1354=DIRECTION('center_axis',(9.10191630206557E-18,0.,-1.));
#1355=DIRECTION('ref_axis',(1.,0.,9.10191630206557E-18));
#1356=DIRECTION('',(-1.,0.,-9.10191630206557E-18));
#1357=DIRECTION('',(1.,0.,9.10191630206557E-18));
#1358=DIRECTION('center_axis',(-0.237787736652784,0.,0.971317143006107));
#1359=DIRECTION('ref_axis',(-0.971317143006107,0.,-0.237787736652784));
#1360=DIRECTION('',(0.971317143006107,0.,0.237787736652784));
#1361=DIRECTION('',(0.,-1.,0.));
#1362=DIRECTION('',(-0.971317143006107,0.,-0.237787736652784));
#1363=DIRECTION('',(0.,-1.,0.));
#1364=DIRECTION('center_axis',(0.971317143006107,0.,0.237787736652785));
#1365=DIRECTION('ref_axis',(-0.237787736652785,0.,0.971317143006107));
#1366=DIRECTION('',(0.237787736652785,0.,-0.971317143006107));
#1367=DIRECTION('',(-0.237787736652785,0.,0.971317143006107));
#1368=DIRECTION('',(0.,-1.,0.));
#1369=DIRECTION('center_axis',(9.10191630206557E-18,0.,-1.));
#1370=DIRECTION('ref_axis',(1.,0.,9.10191630206557E-18));
#1371=DIRECTION('',(-1.,0.,-9.10191630206557E-18));
#1372=DIRECTION('',(1.,0.,9.10191630206557E-18));
#1373=DIRECTION('center_axis',(0.,-1.,0.));
#1374=DIRECTION('ref_axis',(-1.,0.,0.));
#1375=DIRECTION('center_axis',(0.,-1.,0.));
#1376=DIRECTION('ref_axis',(-1.,0.,0.));
#1377=DIRECTION('',(0.,-1.,0.));
#1378=DIRECTION('center_axis',(0.,1.,0.));
#1379=DIRECTION('ref_axis',(-1.,0.,0.));
#1380=DIRECTION('center_axis',(0.,-1.,0.));
#1381=DIRECTION('ref_axis',(-1.,0.,0.));
#1382=DIRECTION('center_axis',(0.,-1.,0.));
#1383=DIRECTION('ref_axis',(-1.,0.,0.));
#1384=DIRECTION('',(0.,-1.,0.));
#1385=DIRECTION('center_axis',(0.,1.,0.));
#1386=DIRECTION('ref_axis',(-1.,0.,0.));
#1387=DIRECTION('center_axis',(0.,0.,-1.));
#1388=DIRECTION('ref_axis',(-1.,0.,0.));
#1389=DIRECTION('',(1.,0.,0.));
#1390=DIRECTION('',(0.,1.,0.));
#1391=DIRECTION('',(-1.,0.,0.));
#1392=DIRECTION('',(0.,1.,0.));
#1393=DIRECTION('center_axis',(0.,1.,0.));
#1394=DIRECTION('ref_axis',(0.999999065968561,0.,0.00136677064872298));
#1395=DIRECTION('center_axis',(0.,1.,0.));
#1396=DIRECTION('ref_axis',(-0.00273353874426739,0.,0.999996263875987));
#1397=DIRECTION('center_axis',(0.,1.,0.));
#1398=DIRECTION('ref_axis',(-0.00273353874426739,0.,0.999996263875987));
#1399=DIRECTION('',(0.,1.,0.));
#1400=DIRECTION('center_axis',(-1.,0.,0.));
#1401=DIRECTION('ref_axis',(0.,0.,-1.));
#1402=DIRECTION('',(0.,0.,1.));
#1403=DIRECTION('',(0.,-1.,0.));
#1404=DIRECTION('',(0.,0.,-1.));
#1405=DIRECTION('',(0.,-1.,0.));
#1406=DIRECTION('center_axis',(0.,0.,1.));
#1407=DIRECTION('ref_axis',(-1.,0.,0.));
#1408=DIRECTION('',(1.,0.,0.));
#1409=DIRECTION('',(-1.,0.,0.));
#1410=DIRECTION('',(0.,-1.,0.));
#1411=DIRECTION('center_axis',(0.419058177461747,0.,-0.907959384500452));
#1412=DIRECTION('ref_axis',(0.907959384500452,0.,0.419058177461747));
#1413=DIRECTION('',(-0.907959384500452,0.,-0.419058177461747));
#1414=DIRECTION('',(0.907959384500452,0.,0.419058177461747));
#1415=DIRECTION('center_axis',(1.,0.,0.));
#1416=DIRECTION('ref_axis',(0.,0.,1.));
#1417=DIRECTION('',(0.,0.,-1.));
#1418=DIRECTION('',(0.,-1.,0.));
#1419=DIRECTION('',(0.,0.,1.));
#1420=DIRECTION('',(0.,-1.,0.));
#1421=DIRECTION('center_axis',(0.,0.,-1.));
#1422=DIRECTION('ref_axis',(1.,0.,0.));
#1423=DIRECTION('',(-1.,0.,0.));
#1424=DIRECTION('',(1.,0.,0.));
#1425=DIRECTION('',(0.,-1.,0.));
#1426=DIRECTION('center_axis',(-0.66436383882992,0.,0.74740931868366));
#1427=DIRECTION('ref_axis',(-0.74740931868366,0.,-0.66436383882992));
#1428=DIRECTION('',(0.74740931868366,0.,0.66436383882992));
#1429=DIRECTION('',(-0.74740931868366,0.,-0.66436383882992));
#1430=DIRECTION('center_axis',(1.,0.,0.));
#1431=DIRECTION('ref_axis',(0.,0.,1.));
#1432=DIRECTION('',(0.,0.,-1.));
#1433=DIRECTION('',(0.,-1.,0.));
#1434=DIRECTION('',(0.,0.,1.));
#1435=DIRECTION('',(0.,-1.,0.));
#1436=DIRECTION('center_axis',(0.,0.,-1.));
#1437=DIRECTION('ref_axis',(1.,0.,0.));
#1438=DIRECTION('',(-1.,0.,0.));
#1439=DIRECTION('',(1.,0.,0.));
#1440=DIRECTION('',(0.,-1.,0.));
#1441=DIRECTION('center_axis',(-0.419058177461747,0.,0.907959384500452));
#1442=DIRECTION('ref_axis',(-0.907959384500452,0.,-0.419058177461747));
#1443=DIRECTION('',(0.907959384500452,0.,0.419058177461747));
#1444=DIRECTION('',(-0.907959384500452,0.,-0.419058177461747));
#1445=DIRECTION('center_axis',(0.66436383882992,0.,-0.74740931868366));
#1446=DIRECTION('ref_axis',(0.74740931868366,0.,0.66436383882992));
#1447=DIRECTION('',(-0.74740931868366,0.,-0.66436383882992));
#1448=DIRECTION('',(0.,-1.,0.));
#1449=DIRECTION('',(0.74740931868366,0.,0.66436383882992));
#1450=DIRECTION('',(0.,-1.,0.));
#1451=DIRECTION('center_axis',(-1.,0.,0.));
#1452=DIRECTION('ref_axis',(0.,0.,-1.));
#1453=DIRECTION('',(0.,0.,1.));
#1454=DIRECTION('',(0.,0.,-1.));
#1455=DIRECTION('',(0.,-1.,0.));
#1456=DIRECTION('center_axis',(0.,0.,1.));
#1457=DIRECTION('ref_axis',(-1.,0.,0.));
#1458=DIRECTION('',(1.,0.,0.));
#1459=DIRECTION('',(-1.,0.,0.));
#1460=DIRECTION('center_axis',(0.,0.,1.));
#1461=DIRECTION('ref_axis',(1.,0.,0.));
#1462=DIRECTION('',(-1.,0.,0.));
#1463=DIRECTION('',(1.,0.,0.));
#1464=DIRECTION('center_axis',(0.,1.,0.));
#1465=DIRECTION('ref_axis',(1.,0.,0.));
#1466=DIRECTION('',(-1.,0.,0.));
#1467=DIRECTION('center_axis',(0.,0.,-1.));
#1468=DIRECTION('ref_axis',(-1.,0.,0.));
#1469=DIRECTION('',(1.,0.,0.));
#1470=DIRECTION('center_axis',(0.,1.,0.));
#1471=DIRECTION('ref_axis',(1.,0.,0.));
#1472=CARTESIAN_POINT('',(0.,0.,0.));
#1473=CARTESIAN_POINT('Origin',(110.000001639128,5.08,10.0000001490116));
#1474=CARTESIAN_POINT('',(113.000001683831,5.08,10.0000001490116));
#1475=CARTESIAN_POINT('Origin',(110.000001639128,5.08,10.0000001490116));
#1476=CARTESIAN_POINT('Origin',(110.000001639128,0.,10.0000001490116));
#1477=CARTESIAN_POINT('',(107.000001594424,-17.78,10.0000001490116));
#1478=CARTESIAN_POINT('Origin',(110.000001639128,-17.78,10.0000001490116));
#1479=CARTESIAN_POINT('',(107.000001594424,0.,10.0000001490116));
#1480=CARTESIAN_POINT('',(107.000001594424,0.,10.0000001490116));
#1481=CARTESIAN_POINT('Origin',(110.000001639128,0.,10.0000001490116));
#1482=CARTESIAN_POINT('Origin',(110.000001639128,-17.78,10.0000001490116));
#1483=CARTESIAN_POINT('Origin',(109.030170159491,0.,6.00000008940697));
#1484=CARTESIAN_POINT('',(109.030170159491,10.16,0.979772231821491));
#1485=CARTESIAN_POINT('',(109.030170159491,10.16,6.00000008940697));
#1486=CARTESIAN_POINT('',(109.030170159491,10.16,6.80000359402627));
#1487=CARTESIAN_POINT('',(109.030170159491,0.,0.979772231821491));
#1488=CARTESIAN_POINT('',(109.030170159491,0.,0.979772231821491));
#1489=CARTESIAN_POINT('',(109.030170159491,0.,6.00000008940697));
#1490=CARTESIAN_POINT('',(109.030170159491,0.,6.80000359402627));
#1491=CARTESIAN_POINT('',(109.030170159491,0.,6.00000008940697));
#1492=CARTESIAN_POINT('Origin',(110.000001639128,27.94,10.0000001490116));
#1493=CARTESIAN_POINT('',(113.000001683831,10.16,10.0000001490116));
#1494=CARTESIAN_POINT('Origin',(110.000001639128,10.16,10.0000001490116));
#1495=CARTESIAN_POINT('',(113.000001683831,27.94,10.0000001490116));
#1496=CARTESIAN_POINT('Origin',(104.000001549721,0.,0.979772231821491));
#1497=CARTESIAN_POINT('',(104.000001549721,10.16,6.00000008940697));
#1498=CARTESIAN_POINT('',(104.000001549721,10.16,0.979772231821491));
#1499=CARTESIAN_POINT('',(104.000001549721,10.16,4.28988966523353));
#1500=CARTESIAN_POINT('',(104.000001549721,0.,6.00000008940697));
#1501=CARTESIAN_POINT('',(104.000001549721,0.,6.00000008940697));
#1502=CARTESIAN_POINT('',(104.000001549721,0.,0.979772231821491));
#1503=CARTESIAN_POINT('',(104.000001549721,0.,4.28988966523353));
#1504=CARTESIAN_POINT('',(104.000001549721,0.,0.979772231821491));
#1505=CARTESIAN_POINT('Origin',(110.000001639128,0.,0.979772231821491));
#1506=CARTESIAN_POINT('',(110.000001639128,10.16,6.00000008940697));
#1507=CARTESIAN_POINT('',(110.000001639128,10.16,0.979772231821491));
#1508=CARTESIAN_POINT('',(110.000001639128,10.16,4.28988966523353));
#1509=CARTESIAN_POINT('',(110.000001639128,0.,6.00000008940697));
#1510=CARTESIAN_POINT('',(110.000001639128,0.,6.00000008940697));
#1511=CARTESIAN_POINT('',(110.000001639128,0.,0.979772231821491));
#1512=CARTESIAN_POINT('',(110.000001639128,0.,4.28988966523353));
#1513=CARTESIAN_POINT('',(110.000001639128,0.,0.979772231821491));
#1514=CARTESIAN_POINT('Origin',(110.000001639128,0.,6.00000008940697));
#1515=CARTESIAN_POINT('',(115.000001713634,10.16,6.00000008940697));
#1516=CARTESIAN_POINT('',(88.6500025942253,10.16,6.00000008940697));
#1517=CARTESIAN_POINT('',(115.000001713634,0.,6.00000008940697));
#1518=CARTESIAN_POINT('',(115.000001713634,0.,6.00000008940697));
#1519=CARTESIAN_POINT('',(88.6500025942253,0.,6.00000008940697));
#1520=CARTESIAN_POINT('Origin',(115.000001713634,0.,6.00000008940697));
#1521=CARTESIAN_POINT('',(115.000001713634,10.16,0.979772231821491));
#1522=CARTESIAN_POINT('',(115.000001713634,10.16,6.80000359402627));
#1523=CARTESIAN_POINT('',(115.000001713634,0.,0.979772231821491));
#1524=CARTESIAN_POINT('',(115.000001713634,0.,0.979772231821491));
#1525=CARTESIAN_POINT('',(115.000001713634,0.,6.80000359402627));
#1526=CARTESIAN_POINT('Origin',(115.000001713634,0.,0.979772231821491));
#1527=CARTESIAN_POINT('',(91.1500026314782,10.16,0.979772231821491));
#1528=CARTESIAN_POINT('',(91.1500026314782,0.,0.979772231821491));
#1529=CARTESIAN_POINT('Origin',(101.000001505017,0.,6.00000008940697));
#1530=CARTESIAN_POINT('',(103.00000153482,10.16,6.00000008940697));
#1531=CARTESIAN_POINT('',(101.000001505017,10.16,6.00000008940697));
#1532=CARTESIAN_POINT('',(84.15000252717,10.16,6.00000008940697));
#1533=CARTESIAN_POINT('',(103.00000153482,0.,6.00000008940697));
#1534=CARTESIAN_POINT('',(103.00000153482,0.,6.00000008940697));
#1535=CARTESIAN_POINT('',(101.000001505017,0.,6.00000008940697));
#1536=CARTESIAN_POINT('',(84.15000252717,0.,6.00000008940697));
#1537=CARTESIAN_POINT('',(101.000001505017,0.,6.00000008940697));
#1538=CARTESIAN_POINT('Origin',(103.00000153482,0.,6.00000008940697));
#1539=CARTESIAN_POINT('',(103.00000153482,10.16,0.979772231821491));
#1540=CARTESIAN_POINT('',(103.00000153482,10.16,6.80000359402627));
#1541=CARTESIAN_POINT('',(103.00000153482,0.,0.979772231821491));
#1542=CARTESIAN_POINT('',(103.00000153482,0.,0.979772231821491));
#1543=CARTESIAN_POINT('',(103.00000153482,0.,6.80000359402627));
#1544=CARTESIAN_POINT('Origin',(103.00000153482,0.,0.979772231821491));
#1545=CARTESIAN_POINT('',(101.000001505017,10.16,0.979772231821491));
#1546=CARTESIAN_POINT('',(85.1500025420712,10.16,0.979772231821491));
#1547=CARTESIAN_POINT('',(101.000001505017,0.,0.979772231821491));
#1548=CARTESIAN_POINT('',(101.000001505017,0.,0.979772231821491));
#1549=CARTESIAN_POINT('',(85.1500025420712,0.,0.979772231821491));
#1550=CARTESIAN_POINT('Origin',(101.000001505017,0.,0.979772231821491));
#1551=CARTESIAN_POINT('',(101.000001505017,10.16,4.28988966523353));
#1552=CARTESIAN_POINT('',(101.000001505017,0.,4.28988966523353));
#1553=CARTESIAN_POINT('Origin',(116.000001728535,0.,6.00000008940697));
#1554=CARTESIAN_POINT('',(119.563840421187,10.16,6.00000008940697));
#1555=CARTESIAN_POINT('',(116.000001728535,10.16,6.00000008940697));
#1556=CARTESIAN_POINT('',(91.6500026389288,10.16,6.00000008940697));
#1557=CARTESIAN_POINT('',(119.563840421187,0.,6.00000008940697));
#1558=CARTESIAN_POINT('',(119.563840421187,0.,6.00000008940697));
#1559=CARTESIAN_POINT('',(116.000001728535,0.,6.00000008940697));
#1560=CARTESIAN_POINT('',(91.6500026389288,0.,6.00000008940697));
#1561=CARTESIAN_POINT('',(116.000001728535,0.,6.00000008940697));
#1562=CARTESIAN_POINT('Origin',(119.563840421187,0.,6.00000008940697));
#1563=CARTESIAN_POINT('',(119.563840421187,10.16,0.979772231821491));
#1564=CARTESIAN_POINT('',(119.563840421187,10.16,6.80000359402627));
#1565=CARTESIAN_POINT('',(119.563840421187,0.,0.979772231821491));
#1566=CARTESIAN_POINT('',(119.563840421187,0.,0.979772231821491));
#1567=CARTESIAN_POINT('',(119.563840421187,0.,6.80000359402627));
#1568=CARTESIAN_POINT('Origin',(119.563840421187,0.,0.979772231821491));
#1569=CARTESIAN_POINT('',(116.000001728535,10.16,0.979772231821491));
#1570=CARTESIAN_POINT('',(93.4319219852547,10.16,0.979772231821491));
#1571=CARTESIAN_POINT('',(116.000001728535,0.,0.979772231821491));
#1572=CARTESIAN_POINT('',(116.000001728535,0.,0.979772231821491));
#1573=CARTESIAN_POINT('',(93.4319219852547,0.,0.979772231821491));
#1574=CARTESIAN_POINT('Origin',(116.000001728535,0.,0.979772231821491));
#1575=CARTESIAN_POINT('',(116.000001728535,10.16,4.28988966523353));
#1576=CARTESIAN_POINT('',(116.000001728535,0.,4.28988966523353));
#1577=CARTESIAN_POINT('Origin',(42.0871673954839,10.16,5.08004170303433));
#1578=CARTESIAN_POINT('',(42.8411910874857,0.,2.00000002980232));
#1579=CARTESIAN_POINT('',(42.0871673954839,0.,5.08004170303433));
#1580=CARTESIAN_POINT('',(42.5089573818393,1.11022302462516E-15,3.3571107804294));
#1581=CARTESIAN_POINT('',(42.8411910874857,10.16,2.00000002980232));
#1582=CARTESIAN_POINT('',(42.8411910874857,10.16,2.00000002980232));
#1583=CARTESIAN_POINT('',(42.0871673954839,10.16,5.08004170303433));
#1584=CARTESIAN_POINT('',(42.5089573818393,10.16,3.3571107804294));
#1585=CARTESIAN_POINT('',(42.0871673954839,10.16,5.08004170303433));
#1586=CARTESIAN_POINT('Origin',(45.6084262966524,10.16,5.94207959694605));
#1587=CARTESIAN_POINT('',(45.6084262966524,0.,5.94207959694605));
#1588=CARTESIAN_POINT('',(56.0324249366322,0.,8.49397427040072));
#1589=CARTESIAN_POINT('',(45.6084262966524,10.16,5.94207959694605));
#1590=CARTESIAN_POINT('',(56.0324249366322,10.16,8.49397427040072));
#1591=CARTESIAN_POINT('',(45.6084262966524,10.16,5.94207959694605));
#1592=CARTESIAN_POINT('Origin',(46.5734851188155,10.16,2.00000002980232));
#1593=CARTESIAN_POINT('',(46.5734851188155,0.,2.00000002980232));
#1594=CARTESIAN_POINT('',(46.5127456940894,0.,2.24810889076927));
#1595=CARTESIAN_POINT('',(46.5734851188155,10.16,2.00000002980232));
#1596=CARTESIAN_POINT('',(46.5127456940894,10.16,2.24810889076927));
#1597=CARTESIAN_POINT('',(46.5734851188155,10.16,2.00000002980232));
#1598=CARTESIAN_POINT('Origin',(42.8411910874857,10.16,2.00000002980232));
#1599=CARTESIAN_POINT('',(55.0705973184042,0.,2.00000002980232));
#1600=CARTESIAN_POINT('',(55.0705973184042,10.16,2.00000002980232));
#1601=CARTESIAN_POINT('Origin',(37.5571080988349,10.16,3.97103981337419));
#1602=CARTESIAN_POINT('',(38.0396375099165,0.,2.00000002980232));
#1603=CARTESIAN_POINT('',(37.5571080988349,0.,3.97103981337419));
#1604=CARTESIAN_POINT('',(37.9788980851903,0.,2.24810889076927));
#1605=CARTESIAN_POINT('',(38.0396375099165,10.16,2.00000002980232));
#1606=CARTESIAN_POINT('',(38.0396375099165,10.16,2.00000002980232));
#1607=CARTESIAN_POINT('',(37.5571080988349,10.16,3.97103981337419));
#1608=CARTESIAN_POINT('',(37.9788980851903,10.16,2.24810889076927));
#1609=CARTESIAN_POINT('',(37.5571080988349,10.16,3.97103981337419));
#1610=CARTESIAN_POINT('Origin',(41.0527435244865,10.16,4.82680483514293));
#1611=CARTESIAN_POINT('',(41.0527435244865,0.,4.82680483514293));
#1612=CARTESIAN_POINT('',(53.7545835505492,0.,7.93633688949916));
#1613=CARTESIAN_POINT('',(41.0527435244865,10.16,4.82680483514293));
#1614=CARTESIAN_POINT('',(53.7545835505492,10.16,7.93633688949916));
#1615=CARTESIAN_POINT('',(41.0527435244865,10.16,4.82680483514293));
#1616=CARTESIAN_POINT('Origin',(41.744772406568,10.16,2.00000002980232));
#1617=CARTESIAN_POINT('',(41.744772406568,0.,2.00000002980232));
#1618=CARTESIAN_POINT('',(41.8205479518827,0.,1.69047150986771));
#1619=CARTESIAN_POINT('',(41.744772406568,10.16,2.00000002980232));
#1620=CARTESIAN_POINT('',(41.8205479518827,10.16,1.69047150986771));
#1621=CARTESIAN_POINT('',(41.744772406568,10.16,2.00000002980232));
#1622=CARTESIAN_POINT('Origin',(38.0396375099165,10.16,2.00000002980232));
#1623=CARTESIAN_POINT('',(52.6698205296196,0.,2.00000002980232));
#1624=CARTESIAN_POINT('',(52.6698205296196,10.16,2.00000002980232));
#1625=CARTESIAN_POINT('Origin',(46.5734851188155,10.16,6.17833523673508));
#1626=CARTESIAN_POINT('',(47.5963815836697,0.,2.00000002980232));
#1627=CARTESIAN_POINT('',(46.5734851188155,0.,6.17833523673508));
#1628=CARTESIAN_POINT('',(46.9952751051709,1.11022302462516E-15,4.45540431413017));
#1629=CARTESIAN_POINT('',(47.5963815836697,10.16,2.00000002980232));
#1630=CARTESIAN_POINT('',(47.5963815836697,10.16,2.00000002980232));
#1631=CARTESIAN_POINT('',(46.5734851188155,10.16,6.17833523673508));
#1632=CARTESIAN_POINT('',(46.9952751051709,10.16,4.45540431413017));
#1633=CARTESIAN_POINT('',(46.5734851188155,10.16,6.17833523673508));
#1634=CARTESIAN_POINT('Origin',(52.5996971479556,10.16,7.65360964048354));
#1635=CARTESIAN_POINT('',(52.5996971479556,0.,7.65360964048354));
#1636=CARTESIAN_POINT('',(59.5280603622838,0.,9.34973929216947));
#1637=CARTESIAN_POINT('',(52.5996971479556,10.16,7.65360964048354));
#1638=CARTESIAN_POINT('',(59.5280603622838,10.16,9.34973929216947));
#1639=CARTESIAN_POINT('',(52.5996971479556,10.16,7.65360964048354));
#1640=CARTESIAN_POINT('Origin',(53.9837549121187,10.16,2.00000002980232));
#1641=CARTESIAN_POINT('',(53.9837549121187,0.,2.00000002980232));
#1642=CARTESIAN_POINT('',(53.7135160163925,0.,3.10387391253802));
#1643=CARTESIAN_POINT('',(53.9837549121187,10.16,2.00000002980232));
#1644=CARTESIAN_POINT('',(53.7135160163925,10.16,3.10387391253802));
#1645=CARTESIAN_POINT('',(53.9837549121187,10.16,2.00000002980232));
#1646=CARTESIAN_POINT('Origin',(47.5963815836697,10.16,2.00000002980232));
#1647=CARTESIAN_POINT('',(57.4481925664962,0.,2.00000002980232));
#1648=CARTESIAN_POINT('',(57.4481925664962,10.16,2.00000002980232));
#1649=CARTESIAN_POINT('Origin',(36.5648853628963,10.16,3.72813418740729));
#1650=CARTESIAN_POINT('',(29.5057899010174,0.,2.00000002980232));
#1651=CARTESIAN_POINT('',(36.5648853628963,0.,3.72813418740729));
#1652=CARTESIAN_POINT('',(51.5106544697542,0.,7.38700156563134));
#1653=CARTESIAN_POINT('',(29.5057899010174,10.16,2.00000002980232));
#1654=CARTESIAN_POINT('',(29.5057899010174,10.16,2.00000002980232));
#1655=CARTESIAN_POINT('',(36.5648853628963,10.16,3.72813418740729));
#1656=CARTESIAN_POINT('',(51.5106544697542,10.16,7.38700156563134));
#1657=CARTESIAN_POINT('',(36.5648853628963,10.16,3.72813418740729));
#1658=CARTESIAN_POINT('Origin',(36.987949150999,10.16,2.00000002980232));
#1659=CARTESIAN_POINT('',(36.987949150999,0.,2.00000002980232));
#1660=CARTESIAN_POINT('',(37.1982072433031,0.,1.14113618599988));
#1661=CARTESIAN_POINT('',(36.987949150999,10.16,2.00000002980232));
#1662=CARTESIAN_POINT('',(37.1982072433031,10.16,1.14113618599988));
#1663=CARTESIAN_POINT('',(36.987949150999,10.16,2.00000002980232));
#1664=CARTESIAN_POINT('Origin',(29.5057899010174,10.16,2.00000002980232));
#1665=CARTESIAN_POINT('',(48.4028967251701,0.,2.00000002980232));
#1666=CARTESIAN_POINT('',(48.4028967251701,10.16,2.00000002980232));
#1667=CARTESIAN_POINT('Origin',(127.,10.16,7.60000709864557));
#1668=CARTESIAN_POINT('',(133.35,10.16,7.60000709864557));
#1669=CARTESIAN_POINT('Origin',(127.,10.16,7.60000709864557));
#1670=CARTESIAN_POINT('',(133.35,0.,7.60000709864557));
#1671=CARTESIAN_POINT('',(133.35,10.16,7.60000709864557));
#1672=CARTESIAN_POINT('Origin',(127.,0.,7.60000709864557));
#1673=CARTESIAN_POINT('Origin',(95.3505529057265,10.16,7.60000709864557));
#1674=CARTESIAN_POINT('',(99.1605529057265,10.16,7.60000709864557));
#1675=CARTESIAN_POINT('Origin',(95.3505529057265,10.16,7.60000709864557));
#1676=CARTESIAN_POINT('',(99.1605529057265,0.,7.60000709864557));
#1677=CARTESIAN_POINT('',(99.1605529057265,10.16,7.60000709864557));
#1678=CARTESIAN_POINT('Origin',(95.3505529057265,0.,7.60000709864557));
#1679=CARTESIAN_POINT('Origin',(127.,0.,0.));
#1680=CARTESIAN_POINT('',(0.,0.,0.));
#1681=CARTESIAN_POINT('',(127.,0.,-1.33339926556772E-16));
#1682=CARTESIAN_POINT('',(0.,0.,0.));
#1683=CARTESIAN_POINT('',(0.,10.16,0.));
#1684=CARTESIAN_POINT('',(0.,0.,0.));
#1685=CARTESIAN_POINT('',(127.,10.16,0.));
#1686=CARTESIAN_POINT('',(0.,10.16,0.));
#1687=CARTESIAN_POINT('',(127.,0.,-1.33339926556772E-16));
#1688=CARTESIAN_POINT('Origin',(127.,0.,7.60000709864557));
#1689=CARTESIAN_POINT('',(126.979225086139,0.,15.1999858027221));
#1690=CARTESIAN_POINT('Origin',(127.,0.,7.60000709864557));
#1691=CARTESIAN_POINT('',(126.979225086139,10.16,15.1999858027221));
#1692=CARTESIAN_POINT('Origin',(127.,10.16,7.60000709864557));
#1693=CARTESIAN_POINT('',(126.979225086139,0.,15.1999858027221));
#1694=CARTESIAN_POINT('Ctrl Pts',(0.,0.,0.));
#1695=CARTESIAN_POINT('Ctrl Pts',(0.,10.16,0.));
#1696=CARTESIAN_POINT('Ctrl Pts',(7.14160718246061,0.,1.39261472761053));
#1697=CARTESIAN_POINT('Ctrl Pts',(7.14160718246061,10.16,1.39261472761053));
#1698=CARTESIAN_POINT('Ctrl Pts',(20.6159531102848,0.,3.95473663155402));
#1699=CARTESIAN_POINT('Ctrl Pts',(20.6159531102848,10.16,3.95473663155402));
#1700=CARTESIAN_POINT('Ctrl Pts',(38.4032465564992,0.,7.12919334381266));
#1701=CARTESIAN_POINT('Ctrl Pts',(38.4032465564992,10.16,7.12919334381266));
#1702=CARTESIAN_POINT('Ctrl Pts',(58.1104596962824,0.,10.2039991137619));
#1703=CARTESIAN_POINT('Ctrl Pts',(58.1104596962824,10.16,10.2039991137619));
#1704=CARTESIAN_POINT('Ctrl Pts',(79.5027847474144,0.,12.7286989186958));
#1705=CARTESIAN_POINT('Ctrl Pts',(79.5027847474144,10.16,12.7286989186958));
#1706=CARTESIAN_POINT('Ctrl Pts',(96.7996209583647,0.,14.0507571593106));
#1707=CARTESIAN_POINT('Ctrl Pts',(96.7996209583647,10.16,14.0507571593106));
#1708=CARTESIAN_POINT('Ctrl Pts',(111.170549275991,0.,14.7409445165113));
#1709=CARTESIAN_POINT('Ctrl Pts',(111.170549275991,10.16,14.7409445165113));
#1710=CARTESIAN_POINT('Ctrl Pts',(121.57260385931,0.,15.0689963050866));
#1711=CARTESIAN_POINT('Ctrl Pts',(121.57260385931,10.16,15.0689963050866));
#1712=CARTESIAN_POINT('Ctrl Pts',(126.979225086139,0.,15.1999858027221));
#1713=CARTESIAN_POINT('Ctrl Pts',(126.979225086139,10.16,15.1999858027221));
#1714=CARTESIAN_POINT('Ctrl Pts',(126.979225086139,0.,15.1999858027221));
#1715=CARTESIAN_POINT('Ctrl Pts',(121.57260385931,0.,15.0689963050866));
#1716=CARTESIAN_POINT('Ctrl Pts',(111.170549275991,0.,14.7409445165113));
#1717=CARTESIAN_POINT('Ctrl Pts',(96.7996209583647,0.,14.0507571593106));
#1718=CARTESIAN_POINT('Ctrl Pts',(79.5027847474144,0.,12.7286989186958));
#1719=CARTESIAN_POINT('Ctrl Pts',(58.1104596962824,0.,10.2039991137619));
#1720=CARTESIAN_POINT('Ctrl Pts',(38.4032465564992,0.,7.12919334381266));
#1721=CARTESIAN_POINT('Ctrl Pts',(20.6159531102848,0.,3.95473663155402));
#1722=CARTESIAN_POINT('Ctrl Pts',(7.14160718246061,0.,1.39261472761053));
#1723=CARTESIAN_POINT('Ctrl Pts',(0.,0.,0.));
#1724=CARTESIAN_POINT('Ctrl Pts',(0.,10.16,0.));
#1725=CARTESIAN_POINT('Ctrl Pts',(7.14160718246061,10.16,1.39261472761053));
#1726=CARTESIAN_POINT('Ctrl Pts',(20.6159531102848,10.16,3.95473663155402));
#1727=CARTESIAN_POINT('Ctrl Pts',(38.4032465564992,10.16,7.12919334381266));
#1728=CARTESIAN_POINT('Ctrl Pts',(58.1104596962824,10.16,10.2039991137619));
#1729=CARTESIAN_POINT('Ctrl Pts',(79.5027847474144,10.16,12.7286989186958));
#1730=CARTESIAN_POINT('Ctrl Pts',(96.7996209583647,10.16,14.0507571593106));
#1731=CARTESIAN_POINT('Ctrl Pts',(111.170549275991,10.16,14.7409445165113));
#1732=CARTESIAN_POINT('Ctrl Pts',(121.57260385931,10.16,15.0689963050866));
#1733=CARTESIAN_POINT('Ctrl Pts',(126.979225086139,10.16,15.1999858027221));
#1734=CARTESIAN_POINT('Origin',(59.0000008791685,10.16,9.00000013411045));
#1735=CARTESIAN_POINT('',(59.0000008791685,0.,3.00000004470348));
#1736=CARTESIAN_POINT('',(59.0000008791685,0.,9.00000013411045));
#1737=CARTESIAN_POINT('',(59.0000008791685,0.,8.30000361637801));
#1738=CARTESIAN_POINT('',(59.0000008791685,10.16,3.00000004470348));
#1739=CARTESIAN_POINT('',(59.0000008791685,10.16,3.00000004470348));
#1740=CARTESIAN_POINT('',(59.0000008791685,10.16,9.00000013411045));
#1741=CARTESIAN_POINT('',(59.0000008791685,10.16,8.30000361637801));
#1742=CARTESIAN_POINT('',(59.0000008791685,10.16,9.00000013411045));
#1743=CARTESIAN_POINT('Origin',(72.0000010728836,10.16,9.00000013411045));
#1744=CARTESIAN_POINT('',(72.0000010728836,0.,9.00000013411045));
#1745=CARTESIAN_POINT('',(69.6500023111032,0.,9.00000013411045));
#1746=CARTESIAN_POINT('',(72.0000010728836,10.16,9.00000013411045));
#1747=CARTESIAN_POINT('',(69.6500023111032,10.16,9.00000013411045));
#1748=CARTESIAN_POINT('',(72.0000010728836,10.16,9.00000013411045));
#1749=CARTESIAN_POINT('Origin',(59.0000008791685,10.16,3.00000004470348));
#1750=CARTESIAN_POINT('',(63.2963447851772,0.,4.98292800132287));
#1751=CARTESIAN_POINT('',(63.2963447851772,10.16,4.98292800132287));
#1752=CARTESIAN_POINT('Origin',(85.0000012665987,10.16,2.00000002980232));
#1753=CARTESIAN_POINT('',(85.0000012665987,0.,10.0000001490116));
#1754=CARTESIAN_POINT('',(85.0000012665987,0.,2.00000002980232));
#1755=CARTESIAN_POINT('',(85.0000012665987,0.,4.80000356422395));
#1756=CARTESIAN_POINT('',(85.0000012665987,10.16,10.0000001490116));
#1757=CARTESIAN_POINT('',(85.0000012665987,10.16,10.0000001490116));
#1758=CARTESIAN_POINT('',(85.0000012665987,10.16,2.00000002980232));
#1759=CARTESIAN_POINT('',(85.0000012665987,10.16,4.80000356422395));
#1760=CARTESIAN_POINT('',(85.0000012665987,10.16,2.00000002980232));
#1761=CARTESIAN_POINT('Origin',(76.0000011324883,10.16,2.00000002980232));
#1762=CARTESIAN_POINT('',(76.0000011324883,0.,2.00000002980232));
#1763=CARTESIAN_POINT('',(71.6500023409055,0.,2.00000002980232));
#1764=CARTESIAN_POINT('',(76.0000011324883,10.16,2.00000002980232));
#1765=CARTESIAN_POINT('',(71.6500023409055,10.16,2.00000002980232));
#1766=CARTESIAN_POINT('',(76.0000011324883,10.16,2.00000002980232));
#1767=CARTESIAN_POINT('Origin',(85.0000012665987,10.16,10.0000001490116));
#1768=CARTESIAN_POINT('',(79.4603484571997,0.,5.07586431843474));
#1769=CARTESIAN_POINT('',(79.4603484571997,10.16,5.07586431843474));
#1770=CARTESIAN_POINT('Origin',(73.0000010877848,10.16,2.00000002980232));
#1771=CARTESIAN_POINT('',(73.0000010877848,0.,8.00000011920929));
#1772=CARTESIAN_POINT('',(73.0000010877848,0.,2.00000002980232));
#1773=CARTESIAN_POINT('',(73.0000010877848,0.,4.80000356422395));
#1774=CARTESIAN_POINT('',(73.0000010877848,10.16,8.00000011920929));
#1775=CARTESIAN_POINT('',(73.0000010877848,10.16,8.00000011920929));
#1776=CARTESIAN_POINT('',(73.0000010877848,10.16,2.00000002980232));
#1777=CARTESIAN_POINT('',(73.0000010877848,10.16,4.80000356422395));
#1778=CARTESIAN_POINT('',(73.0000010877848,10.16,2.00000002980232));
#1779=CARTESIAN_POINT('Origin',(60.0000008940697,10.16,2.00000002980232));
#1780=CARTESIAN_POINT('',(60.0000008940697,0.,2.00000002980232));
#1781=CARTESIAN_POINT('',(63.6500022216962,0.,2.00000002980232));
#1782=CARTESIAN_POINT('',(60.0000008940697,10.16,2.00000002980232));
#1783=CARTESIAN_POINT('',(63.6500022216962,10.16,2.00000002980232));
#1784=CARTESIAN_POINT('',(60.0000008940697,10.16,2.00000002980232));
#1785=CARTESIAN_POINT('Origin',(73.0000010877848,10.16,8.00000011920929));
#1786=CARTESIAN_POINT('',(70.5743936741164,0.,6.88048900520849));
#1787=CARTESIAN_POINT('',(70.5743936741164,10.16,6.88048900520849));
#1788=CARTESIAN_POINT('Origin',(75.0000011175871,10.16,3.00000004470348));
#1789=CARTESIAN_POINT('',(84.0000012516975,0.,11.0000001639128));
#1790=CARTESIAN_POINT('',(75.0000011175871,0.,3.00000004470348));
#1791=CARTESIAN_POINT('',(73.9913828584644,0.,2.10345048103887));
#1792=CARTESIAN_POINT('',(84.0000012516975,10.16,11.0000001639128));
#1793=CARTESIAN_POINT('',(84.0000012516975,10.16,11.0000001639128));
#1794=CARTESIAN_POINT('',(75.0000011175871,10.16,3.00000004470348));
#1795=CARTESIAN_POINT('',(73.9913828584644,10.16,2.10345048103887));
#1796=CARTESIAN_POINT('',(75.0000011175871,10.16,3.00000004470348));
#1797=CARTESIAN_POINT('Origin',(75.0000011175871,10.16,11.0000001639128));
#1798=CARTESIAN_POINT('',(75.0000011175871,0.,11.0000001639128));
#1799=CARTESIAN_POINT('',(75.0000011175871,0.,9.30000363127917));
#1800=CARTESIAN_POINT('',(75.0000011175871,10.16,11.0000001639128));
#1801=CARTESIAN_POINT('',(75.0000011175871,10.16,9.30000363127917));
#1802=CARTESIAN_POINT('',(75.0000011175871,10.16,11.0000001639128));
#1803=CARTESIAN_POINT('Origin',(84.0000012516975,10.16,11.0000001639128));
#1804=CARTESIAN_POINT('',(75.6500024005102,0.,11.0000001639128));
#1805=CARTESIAN_POINT('',(75.6500024005102,10.16,11.0000001639128));
#1806=CARTESIAN_POINT('Origin',(104.000001549721,0.,6.00000008940697));
#1807=CARTESIAN_POINT('',(85.6500025495218,10.16,6.00000008940697));
#1808=CARTESIAN_POINT('',(85.6500025495218,0.,6.00000008940697));
#1809=CARTESIAN_POINT('Origin',(67.3000035493228,0.,7.60000709864557));
#1810=CARTESIAN_POINT('',(88.1650868544067,0.,0.979772231821491));
#1811=CARTESIAN_POINT('Origin',(109.030170159491,0.,0.979772231821491));
#1812=CARTESIAN_POINT('',(88.1650868544067,10.16,0.979772231821491));
#1813=CARTESIAN_POINT('Origin',(67.3000035493228,10.16,7.60000709864557));
#1814=UNCERTAINTY_MEASURE_WITH_UNIT(LENGTH_MEASURE(0.01),#1818,
'DISTANCE_ACCURACY_VALUE',
'Maximum model space distance between geometric entities at asserted c
onnectivities');
#1815=UNCERTAINTY_MEASURE_WITH_UNIT(LENGTH_MEASURE(0.01),#1818,
'DISTANCE_ACCURACY_VALUE',
'Maximum model space distance between geometric entities at asserted c
onnectivities');
#1816=(
GEOMETRIC_REPRESENTATION_CONTEXT(3)
GLOBAL_UNCERTAINTY_ASSIGNED_CONTEXT((#1814))
GLOBAL_UNIT_ASSIGNED_CONTEXT((#1818,#1820,#1821))
REPRESENTATION_CONTEXT('','3D')
);
#1817=(
GEOMETRIC_REPRESENTATION_CONTEXT(3)
GLOBAL_UNCERTAINTY_ASSIGNED_CONTEXT((#1815))
GLOBAL_UNIT_ASSIGNED_CONTEXT((#1818,#1820,#1821))
REPRESENTATION_CONTEXT('','3D')
);
#1818=(
LENGTH_UNIT()
NAMED_UNIT(*)
SI_UNIT(.MILLI.,.METRE.)
);
#1819=(
LENGTH_UNIT()
NAMED_UNIT(*)
SI_UNIT($,.METRE.)
);
#1820=(
NAMED_UNIT(*)
PLANE_ANGLE_UNIT()
SI_UNIT($,.RADIAN.)
);
#1821=(
NAMED_UNIT(*)
SI_UNIT($,.STERADIAN.)
SOLID_ANGLE_UNIT()
);
#1822=SHAPE_DEFINITION_REPRESENTATION(#1823,#1824);
#1823=PRODUCT_DEFINITION_SHAPE('',$,#1826);
#1824=SHAPE_REPRESENTATION('',(#1142),#1816);
#1825=PRODUCT_DEFINITION_CONTEXT('part definition',#1830,'design');
#1826=PRODUCT_DEFINITION('Wing SparR','Wing SparR v1',#1827,#1825);
#1827=PRODUCT_DEFINITION_FORMATION('',$,#1832);
#1828=PRODUCT_RELATED_PRODUCT_CATEGORY('Wing SparR v1','Wing SparR v1',
(#1832));
#1829=APPLICATION_PROTOCOL_DEFINITION('international standard',
'automotive_design',2009,#1830);
#1830=APPLICATION_CONTEXT(
'Core Data for Automotive Mechanical Design Process');
#1831=PRODUCT_CONTEXT('part definition',#1830,'mechanical');
#1832=PRODUCT('Wing SparR','Wing SparR v1',$,(#1831));
#1833=PRESENTATION_STYLE_ASSIGNMENT((#1834));
#1834=SURFACE_STYLE_USAGE(.BOTH.,#1835);
#1835=SURFACE_SIDE_STYLE('',(#1836));
#1836=SURFACE_STYLE_FILL_AREA(#1837);
#1837=FILL_AREA_STYLE('Steel - Satin',(#1838));
#1838=FILL_AREA_STYLE_COLOUR('Steel - Satin',#1839);
#1839=COLOUR_RGB('Steel - Satin',0.627450980392157,0.627450980392157,0.627450980392157);
ENDSEC;
END-ISO-10303-21;
