ISO-10303-21;
HEADER;
/* Generated by software containing ST-Developer
 * from STEP Tools, Inc. (www.steptools.com) 
 */

FILE_DESCRIPTION(
/* description */ (''),
/* implementation_level */ '2;1');

FILE_NAME(
/* name */ 'Wingending2.step',
/* time_stamp */ '2026-08-20T16:38:48-05:00',
/* author */ (''),
/* organization */ (''),
/* preprocessor_version */ 'ST-DEVELOPER v20.1',
/* originating_system */ 'Autodesk Translation Framework v15.8.0.0',
/* authorisation */ '');

FILE_SCHEMA (('AUTOMOTIVE_DESIGN { 1 0 10303 214 3 1 1 }'));
ENDSEC;

DATA;
#10=MECHANICAL_DESIGN_GEOMETRIC_PRESENTATION_REPRESENTATION('',(#13),#1772);
#11=SHAPE_REPRESENTATION_RELATIONSHIP('SRR','None',#1779,#12);
#12=ADVANCED_BREP_SHAPE_REPRESENTATION('',(#14),#1771);
#13=STYLED_ITEM('',(#1788),#14);
#14=MANIFOLD_SOLID_BREP('Body1',#1104);
#15=(
BOUNDED_SURFACE()
B_SPLINE_SURFACE(5,1,((#1602,#1603),(#1604,#1605),(#1606,#1607),(#1608,
#1609),(#1610,#1611),(#1612,#1613),(#1614,#1615),(#1616,#1617),(#1618,#1619),
(#1620,#1621)),.UNSPECIFIED.,.F.,.F.,.F.)
B_SPLINE_SURFACE_WITH_KNOTS((6,1,1,1,1,6),(2,2),(-1.,-0.8,-0.6,-0.4,-0.2,
0.),(0.,1.016),.UNSPECIFIED.)
GEOMETRIC_REPRESENTATION_ITEM()
RATIONAL_B_SPLINE_SURFACE(((1.,1.),(1.,1.),(1.,1.),(1.,1.),(1.,1.),(1.,
1.),(1.,1.),(1.,1.),(1.,1.),(1.,1.)))
REPRESENTATION_ITEM('')
SURFACE()
);
#16=CYLINDRICAL_SURFACE('',#1137,7.60000709864557);
#17=CYLINDRICAL_SURFACE('',#1139,3.81);
#18=CYLINDRICAL_SURFACE('',#1141,6.35);
#19=CYLINDRICAL_SURFACE('',#1176,3.00000004470348);
#20=FACE_BOUND('',#379,.T.);
#21=FACE_BOUND('',#380,.T.);
#22=FACE_BOUND('',#381,.T.);
#23=FACE_BOUND('',#382,.T.);
#24=FACE_BOUND('',#383,.T.);
#25=FACE_BOUND('',#384,.T.);
#26=FACE_BOUND('',#385,.T.);
#27=FACE_BOUND('',#386,.T.);
#28=FACE_BOUND('',#387,.T.);
#29=FACE_BOUND('',#388,.T.);
#30=FACE_BOUND('',#389,.T.);
#31=FACE_BOUND('',#390,.T.);
#32=FACE_BOUND('',#391,.T.);
#33=FACE_BOUND('',#392,.T.);
#34=FACE_BOUND('',#442,.T.);
#35=FACE_BOUND('',#443,.T.);
#36=FACE_BOUND('',#444,.T.);
#37=FACE_BOUND('',#445,.T.);
#38=FACE_BOUND('',#446,.T.);
#39=FACE_BOUND('',#447,.T.);
#40=FACE_BOUND('',#448,.T.);
#41=FACE_BOUND('',#449,.T.);
#42=FACE_BOUND('',#450,.T.);
#43=FACE_BOUND('',#451,.T.);
#44=FACE_BOUND('',#452,.T.);
#45=FACE_BOUND('',#453,.T.);
#46=FACE_BOUND('',#454,.T.);
#47=FACE_BOUND('',#455,.T.);
#48=FACE_BOUND('',#456,.T.);
#49=LINE('',#1452,#186);
#50=LINE('',#1456,#187);
#51=LINE('',#1458,#188);
#52=LINE('',#1460,#189);
#53=LINE('',#1461,#190);
#54=LINE('',#1464,#191);
#55=LINE('',#1466,#192);
#56=LINE('',#1468,#193);
#57=LINE('',#1469,#194);
#58=LINE('',#1472,#195);
#59=LINE('',#1474,#196);
#60=LINE('',#1476,#197);
#61=LINE('',#1477,#198);
#62=LINE('',#1480,#199);
#63=LINE('',#1482,#200);
#64=LINE('',#1483,#201);
#65=LINE('',#1490,#202);
#66=LINE('',#1492,#203);
#67=LINE('',#1493,#204);
#68=LINE('',#1496,#205);
#69=LINE('',#1498,#206);
#70=LINE('',#1499,#207);
#71=LINE('',#1502,#208);
#72=LINE('',#1504,#209);
#73=LINE('',#1505,#210);
#74=LINE('',#1508,#211);
#75=LINE('',#1510,#212);
#76=LINE('',#1511,#213);
#77=LINE('',#1514,#214);
#78=LINE('',#1516,#215);
#79=LINE('',#1518,#216);
#80=LINE('',#1519,#217);
#81=LINE('',#1522,#218);
#82=LINE('',#1524,#219);
#83=LINE('',#1526,#220);
#84=LINE('',#1527,#221);
#85=LINE('',#1530,#222);
#86=LINE('',#1532,#223);
#87=LINE('',#1534,#224);
#88=LINE('',#1535,#225);
#89=LINE('',#1538,#226);
#90=LINE('',#1540,#227);
#91=LINE('',#1542,#228);
#92=LINE('',#1543,#229);
#93=LINE('',#1546,#230);
#94=LINE('',#1548,#231);
#95=LINE('',#1549,#232);
#96=LINE('',#1552,#233);
#97=LINE('',#1553,#234);
#98=LINE('',#1555,#235);
#99=LINE('',#1558,#236);
#100=LINE('',#1560,#237);
#101=LINE('',#1561,#238);
#102=LINE('',#1564,#239);
#103=LINE('',#1565,#240);
#104=LINE('',#1567,#241);
#105=LINE('',#1570,#242);
#106=LINE('',#1572,#243);
#107=LINE('',#1573,#244);
#108=LINE('',#1576,#245);
#109=LINE('',#1577,#246);
#110=LINE('',#1579,#247);
#111=LINE('',#1582,#248);
#112=LINE('',#1584,#249);
#113=LINE('',#1585,#250);
#114=LINE('',#1588,#251);
#115=LINE('',#1589,#252);
#116=LINE('',#1591,#253);
#117=LINE('',#1594,#254);
#118=LINE('',#1596,#255);
#119=LINE('',#1597,#256);
#120=LINE('',#1601,#257);
#121=LINE('',#1635,#258);
#122=LINE('',#1639,#259);
#123=LINE('',#1642,#260);
#124=LINE('',#1644,#261);
#125=LINE('',#1645,#262);
#126=LINE('',#1648,#263);
#127=LINE('',#1649,#264);
#128=LINE('',#1651,#265);
#129=LINE('',#1654,#266);
#130=LINE('',#1656,#267);
#131=LINE('',#1657,#268);
#132=LINE('',#1660,#269);
#133=LINE('',#1661,#270);
#134=LINE('',#1664,#271);
#135=LINE('',#1665,#272);
#136=LINE('',#1667,#273);
#137=LINE('',#1670,#274);
#138=LINE('',#1672,#275);
#139=LINE('',#1673,#276);
#140=LINE('',#1676,#277);
#141=LINE('',#1677,#278);
#142=LINE('',#1680,#279);
#143=LINE('',#1681,#280);
#144=LINE('',#1683,#281);
#145=LINE('',#1686,#282);
#146=LINE('',#1688,#283);
#147=LINE('',#1689,#284);
#148=LINE('',#1692,#285);
#149=LINE('',#1693,#286);
#150=LINE('',#1696,#287);
#151=LINE('',#1697,#288);
#152=LINE('',#1699,#289);
#153=LINE('',#1703,#290);
#154=LINE('',#1704,#291);
#155=LINE('',#1705,#292);
#156=LINE('',#1708,#293);
#157=LINE('',#1709,#294);
#158=LINE('',#1712,#295);
#159=LINE('',#1713,#296);
#160=LINE('',#1715,#297);
#161=LINE('',#1719,#298);
#162=LINE('',#1720,#299);
#163=LINE('',#1721,#300);
#164=LINE('',#1724,#301);
#165=LINE('',#1725,#302);
#166=LINE('',#1728,#303);
#167=LINE('',#1729,#304);
#168=LINE('',#1731,#305);
#169=LINE('',#1735,#306);
#170=LINE('',#1736,#307);
#171=LINE('',#1737,#308);
#172=LINE('',#1740,#309);
#173=LINE('',#1741,#310);
#174=LINE('',#1744,#311);
#175=LINE('',#1745,#312);
#176=LINE('',#1747,#313);
#177=LINE('',#1751,#314);
#178=LINE('',#1752,#315);
#179=LINE('',#1753,#316);
#180=LINE('',#1756,#317);
#181=LINE('',#1757,#318);
#182=LINE('',#1760,#319);
#183=LINE('',#1761,#320);
#184=LINE('',#1763,#321);
#185=LINE('',#1768,#322);
#186=VECTOR('',#1185,10.);
#187=VECTOR('',#1188,10.);
#188=VECTOR('',#1189,10.);
#189=VECTOR('',#1190,10.);
#190=VECTOR('',#1191,10.);
#191=VECTOR('',#1192,10.);
#192=VECTOR('',#1193,10.);
#193=VECTOR('',#1194,10.);
#194=VECTOR('',#1195,10.);
#195=VECTOR('',#1196,10.);
#196=VECTOR('',#1197,10.);
#197=VECTOR('',#1198,10.);
#198=VECTOR('',#1199,10.);
#199=VECTOR('',#1200,10.);
#200=VECTOR('',#1201,10.);
#201=VECTOR('',#1202,10.);
#202=VECTOR('',#1207,10.);
#203=VECTOR('',#1208,10.);
#204=VECTOR('',#1209,10.);
#205=VECTOR('',#1210,10.);
#206=VECTOR('',#1211,10.);
#207=VECTOR('',#1212,10.);
#208=VECTOR('',#1213,10.);
#209=VECTOR('',#1214,10.);
#210=VECTOR('',#1215,10.);
#211=VECTOR('',#1216,10.);
#212=VECTOR('',#1217,10.);
#213=VECTOR('',#1218,10.);
#214=VECTOR('',#1219,10.);
#215=VECTOR('',#1220,10.);
#216=VECTOR('',#1221,10.);
#217=VECTOR('',#1222,10.);
#218=VECTOR('',#1223,10.);
#219=VECTOR('',#1224,10.);
#220=VECTOR('',#1225,10.);
#221=VECTOR('',#1226,10.);
#222=VECTOR('',#1227,10.);
#223=VECTOR('',#1228,10.);
#224=VECTOR('',#1229,10.);
#225=VECTOR('',#1230,10.);
#226=VECTOR('',#1231,10.);
#227=VECTOR('',#1232,10.);
#228=VECTOR('',#1233,10.);
#229=VECTOR('',#1234,10.);
#230=VECTOR('',#1237,10.);
#231=VECTOR('',#1238,10.);
#232=VECTOR('',#1239,10.);
#233=VECTOR('',#1242,10.);
#234=VECTOR('',#1243,10.);
#235=VECTOR('',#1246,10.);
#236=VECTOR('',#1249,10.);
#237=VECTOR('',#1250,10.);
#238=VECTOR('',#1251,10.);
#239=VECTOR('',#1254,10.);
#240=VECTOR('',#1255,10.);
#241=VECTOR('',#1258,10.);
#242=VECTOR('',#1261,10.);
#243=VECTOR('',#1262,10.);
#244=VECTOR('',#1263,10.);
#245=VECTOR('',#1266,10.);
#246=VECTOR('',#1267,10.);
#247=VECTOR('',#1270,10.);
#248=VECTOR('',#1273,10.);
#249=VECTOR('',#1274,10.);
#250=VECTOR('',#1275,10.);
#251=VECTOR('',#1278,10.);
#252=VECTOR('',#1279,10.);
#253=VECTOR('',#1282,10.);
#254=VECTOR('',#1285,10.);
#255=VECTOR('',#1286,10.);
#256=VECTOR('',#1287,10.);
#257=VECTOR('',#1292,10.);
#258=VECTOR('',#1297,3.81);
#259=VECTOR('',#1302,6.35);
#260=VECTOR('',#1305,10.);
#261=VECTOR('',#1306,10.);
#262=VECTOR('',#1307,10.);
#263=VECTOR('',#1310,10.);
#264=VECTOR('',#1311,10.);
#265=VECTOR('',#1314,10.);
#266=VECTOR('',#1317,10.);
#267=VECTOR('',#1318,10.);
#268=VECTOR('',#1319,10.);
#269=VECTOR('',#1322,10.);
#270=VECTOR('',#1323,10.);
#271=VECTOR('',#1326,10.);
#272=VECTOR('',#1327,10.);
#273=VECTOR('',#1330,10.);
#274=VECTOR('',#1333,10.);
#275=VECTOR('',#1334,10.);
#276=VECTOR('',#1335,10.);
#277=VECTOR('',#1338,10.);
#278=VECTOR('',#1339,10.);
#279=VECTOR('',#1342,10.);
#280=VECTOR('',#1343,10.);
#281=VECTOR('',#1346,10.);
#282=VECTOR('',#1349,10.);
#283=VECTOR('',#1350,10.);
#284=VECTOR('',#1351,10.);
#285=VECTOR('',#1354,10.);
#286=VECTOR('',#1355,10.);
#287=VECTOR('',#1358,10.);
#288=VECTOR('',#1359,10.);
#289=VECTOR('',#1362,10.);
#290=VECTOR('',#1365,10.);
#291=VECTOR('',#1366,10.);
#292=VECTOR('',#1367,10.);
#293=VECTOR('',#1370,10.);
#294=VECTOR('',#1371,10.);
#295=VECTOR('',#1374,10.);
#296=VECTOR('',#1375,10.);
#297=VECTOR('',#1378,10.);
#298=VECTOR('',#1381,10.);
#299=VECTOR('',#1382,10.);
#300=VECTOR('',#1383,10.);
#301=VECTOR('',#1386,10.);
#302=VECTOR('',#1387,10.);
#303=VECTOR('',#1390,10.);
#304=VECTOR('',#1391,10.);
#305=VECTOR('',#1394,10.);
#306=VECTOR('',#1397,10.);
#307=VECTOR('',#1398,10.);
#308=VECTOR('',#1399,10.);
#309=VECTOR('',#1402,10.);
#310=VECTOR('',#1403,10.);
#311=VECTOR('',#1406,10.);
#312=VECTOR('',#1407,10.);
#313=VECTOR('',#1410,10.);
#314=VECTOR('',#1413,10.);
#315=VECTOR('',#1414,10.);
#316=VECTOR('',#1415,10.);
#317=VECTOR('',#1418,10.);
#318=VECTOR('',#1419,10.);
#319=VECTOR('',#1422,10.);
#320=VECTOR('',#1423,10.);
#321=VECTOR('',#1426,10.);
#322=VECTOR('',#1433,3.00000004470348);
#323=(
BOUNDED_CURVE()
B_SPLINE_CURVE(5,(#1441,#1442,#1443,#1444,#1445,#1446,#1447,#1448,#1449,
#1450),.UNSPECIFIED.,.F.,.F.)
B_SPLINE_CURVE_WITH_KNOTS((6,1,1,1,1,6),(0.,0.2,0.4,0.6,0.8,1.),
 .UNSPECIFIED.)
CURVE()
GEOMETRIC_REPRESENTATION_ITEM()
RATIONAL_B_SPLINE_CURVE((1.,1.,1.,1.,1.,1.,1.,1.,1.,1.))
REPRESENTATION_ITEM('')
);
#324=(
BOUNDED_CURVE()
B_SPLINE_CURVE(5,(#1622,#1623,#1624,#1625,#1626,#1627,#1628,#1629,#1630,
#1631),.UNSPECIFIED.,.F.,.F.)
B_SPLINE_CURVE_WITH_KNOTS((6,1,1,1,1,6),(-1.,-0.8,-0.6,-0.4,-0.2,0.),
 .UNSPECIFIED.)
CURVE()
GEOMETRIC_REPRESENTATION_ITEM()
RATIONAL_B_SPLINE_CURVE((1.,1.,1.,1.,1.,1.,1.,1.,1.,1.))
REPRESENTATION_ITEM('')
);
#325=FACE_OUTER_BOUND('',#377,.T.);
#326=FACE_OUTER_BOUND('',#378,.T.);
#327=FACE_OUTER_BOUND('',#393,.T.);
#328=FACE_OUTER_BOUND('',#394,.T.);
#329=FACE_OUTER_BOUND('',#395,.T.);
#330=FACE_OUTER_BOUND('',#396,.T.);
#331=FACE_OUTER_BOUND('',#397,.T.);
#332=FACE_OUTER_BOUND('',#398,.T.);
#333=FACE_OUTER_BOUND('',#399,.T.);
#334=FACE_OUTER_BOUND('',#400,.T.);
#335=FACE_OUTER_BOUND('',#401,.T.);
#336=FACE_OUTER_BOUND('',#402,.T.);
#337=FACE_OUTER_BOUND('',#403,.T.);
#338=FACE_OUTER_BOUND('',#404,.T.);
#339=FACE_OUTER_BOUND('',#405,.T.);
#340=FACE_OUTER_BOUND('',#406,.T.);
#341=FACE_OUTER_BOUND('',#407,.T.);
#342=FACE_OUTER_BOUND('',#408,.T.);
#343=FACE_OUTER_BOUND('',#409,.T.);
#344=FACE_OUTER_BOUND('',#410,.T.);
#345=FACE_OUTER_BOUND('',#411,.T.);
#346=FACE_OUTER_BOUND('',#412,.T.);
#347=FACE_OUTER_BOUND('',#413,.T.);
#348=FACE_OUTER_BOUND('',#414,.T.);
#349=FACE_OUTER_BOUND('',#415,.T.);
#350=FACE_OUTER_BOUND('',#416,.T.);
#351=FACE_OUTER_BOUND('',#417,.T.);
#352=FACE_OUTER_BOUND('',#418,.T.);
#353=FACE_OUTER_BOUND('',#419,.T.);
#354=FACE_OUTER_BOUND('',#420,.T.);
#355=FACE_OUTER_BOUND('',#421,.T.);
#356=FACE_OUTER_BOUND('',#422,.T.);
#357=FACE_OUTER_BOUND('',#423,.T.);
#358=FACE_OUTER_BOUND('',#424,.T.);
#359=FACE_OUTER_BOUND('',#425,.T.);
#360=FACE_OUTER_BOUND('',#426,.T.);
#361=FACE_OUTER_BOUND('',#427,.T.);
#362=FACE_OUTER_BOUND('',#428,.T.);
#363=FACE_OUTER_BOUND('',#429,.T.);
#364=FACE_OUTER_BOUND('',#430,.T.);
#365=FACE_OUTER_BOUND('',#431,.T.);
#366=FACE_OUTER_BOUND('',#432,.T.);
#367=FACE_OUTER_BOUND('',#433,.T.);
#368=FACE_OUTER_BOUND('',#434,.T.);
#369=FACE_OUTER_BOUND('',#435,.T.);
#370=FACE_OUTER_BOUND('',#436,.T.);
#371=FACE_OUTER_BOUND('',#437,.T.);
#372=FACE_OUTER_BOUND('',#438,.T.);
#373=FACE_OUTER_BOUND('',#439,.T.);
#374=FACE_OUTER_BOUND('',#440,.T.);
#375=FACE_OUTER_BOUND('',#441,.T.);
#376=FACE_OUTER_BOUND('',#457,.T.);
#377=EDGE_LOOP('',(#711));
#378=EDGE_LOOP('',(#712,#713,#714));
#379=EDGE_LOOP('',(#715,#716,#717,#718));
#380=EDGE_LOOP('',(#719,#720,#721,#722));
#381=EDGE_LOOP('',(#723,#724,#725,#726));
#382=EDGE_LOOP('',(#727,#728,#729));
#383=EDGE_LOOP('',(#730));
#384=EDGE_LOOP('',(#731));
#385=EDGE_LOOP('',(#732,#733,#734));
#386=EDGE_LOOP('',(#735,#736,#737));
#387=EDGE_LOOP('',(#738,#739,#740));
#388=EDGE_LOOP('',(#741,#742,#743));
#389=EDGE_LOOP('',(#744,#745,#746,#747));
#390=EDGE_LOOP('',(#748,#749,#750,#751));
#391=EDGE_LOOP('',(#752,#753,#754,#755));
#392=EDGE_LOOP('',(#756,#757,#758,#759));
#393=EDGE_LOOP('',(#760,#761,#762,#763));
#394=EDGE_LOOP('',(#764,#765,#766,#767));
#395=EDGE_LOOP('',(#768,#769,#770,#771));
#396=EDGE_LOOP('',(#772,#773,#774,#775));
#397=EDGE_LOOP('',(#776,#777,#778,#779));
#398=EDGE_LOOP('',(#780,#781,#782,#783));
#399=EDGE_LOOP('',(#784,#785,#786,#787));
#400=EDGE_LOOP('',(#788,#789,#790,#791));
#401=EDGE_LOOP('',(#792,#793,#794,#795));
#402=EDGE_LOOP('',(#796,#797,#798,#799));
#403=EDGE_LOOP('',(#800,#801,#802,#803));
#404=EDGE_LOOP('',(#804,#805,#806,#807));
#405=EDGE_LOOP('',(#808,#809,#810,#811));
#406=EDGE_LOOP('',(#812,#813,#814,#815));
#407=EDGE_LOOP('',(#816,#817,#818,#819));
#408=EDGE_LOOP('',(#820,#821,#822,#823));
#409=EDGE_LOOP('',(#824,#825,#826,#827));
#410=EDGE_LOOP('',(#828,#829,#830,#831));
#411=EDGE_LOOP('',(#832,#833,#834,#835));
#412=EDGE_LOOP('',(#836,#837,#838,#839));
#413=EDGE_LOOP('',(#840,#841,#842,#843));
#414=EDGE_LOOP('',(#844,#845,#846,#847));
#415=EDGE_LOOP('',(#848,#849,#850,#851));
#416=EDGE_LOOP('',(#852,#853,#854,#855));
#417=EDGE_LOOP('',(#856,#857,#858,#859));
#418=EDGE_LOOP('',(#860,#861,#862,#863));
#419=EDGE_LOOP('',(#864,#865,#866,#867));
#420=EDGE_LOOP('',(#868,#869,#870,#871));
#421=EDGE_LOOP('',(#872,#873,#874,#875));
#422=EDGE_LOOP('',(#876,#877,#878,#879));
#423=EDGE_LOOP('',(#880,#881,#882,#883));
#424=EDGE_LOOP('',(#884,#885,#886,#887));
#425=EDGE_LOOP('',(#888,#889,#890,#891));
#426=EDGE_LOOP('',(#892,#893,#894,#895));
#427=EDGE_LOOP('',(#896,#897,#898,#899));
#428=EDGE_LOOP('',(#900,#901,#902,#903));
#429=EDGE_LOOP('',(#904,#905,#906,#907));
#430=EDGE_LOOP('',(#908,#909,#910,#911));
#431=EDGE_LOOP('',(#912,#913,#914,#915));
#432=EDGE_LOOP('',(#916,#917,#918,#919));
#433=EDGE_LOOP('',(#920,#921,#922,#923));
#434=EDGE_LOOP('',(#924,#925,#926,#927));
#435=EDGE_LOOP('',(#928,#929,#930,#931));
#436=EDGE_LOOP('',(#932,#933,#934,#935));
#437=EDGE_LOOP('',(#936,#937,#938,#939));
#438=EDGE_LOOP('',(#940,#941,#942,#943));
#439=EDGE_LOOP('',(#944,#945,#946,#947));
#440=EDGE_LOOP('',(#948,#949,#950,#951));
#441=EDGE_LOOP('',(#952,#953,#954));
#442=EDGE_LOOP('',(#955,#956,#957,#958));
#443=EDGE_LOOP('',(#959,#960,#961,#962));
#444=EDGE_LOOP('',(#963,#964,#965,#966));
#445=EDGE_LOOP('',(#967,#968,#969,#970));
#446=EDGE_LOOP('',(#971,#972,#973,#974));
#447=EDGE_LOOP('',(#975,#976,#977,#978));
#448=EDGE_LOOP('',(#979,#980,#981,#982));
#449=EDGE_LOOP('',(#983,#984,#985));
#450=EDGE_LOOP('',(#986));
#451=EDGE_LOOP('',(#987));
#452=EDGE_LOOP('',(#988,#989,#990));
#453=EDGE_LOOP('',(#991,#992,#993));
#454=EDGE_LOOP('',(#994,#995,#996));
#455=EDGE_LOOP('',(#997,#998,#999));
#456=EDGE_LOOP('',(#1000));
#457=EDGE_LOOP('',(#1001,#1002,#1003,#1004));
#458=CIRCLE('',#1119,3.00000004470348);
#459=CIRCLE('',#1121,7.60000709864557);
#460=CIRCLE('',#1122,6.35);
#461=CIRCLE('',#1123,3.81);
#462=CIRCLE('',#1138,7.60000709864557);
#463=CIRCLE('',#1140,3.81);
#464=CIRCLE('',#1142,6.35);
#465=CIRCLE('',#1175,3.00000004470348);
#466=VERTEX_POINT('',#1436);
#467=VERTEX_POINT('',#1439);
#468=VERTEX_POINT('',#1440);
#469=VERTEX_POINT('',#1451);
#470=VERTEX_POINT('',#1454);
#471=VERTEX_POINT('',#1455);
#472=VERTEX_POINT('',#1457);
#473=VERTEX_POINT('',#1459);
#474=VERTEX_POINT('',#1462);
#475=VERTEX_POINT('',#1463);
#476=VERTEX_POINT('',#1465);
#477=VERTEX_POINT('',#1467);
#478=VERTEX_POINT('',#1470);
#479=VERTEX_POINT('',#1471);
#480=VERTEX_POINT('',#1473);
#481=VERTEX_POINT('',#1475);
#482=VERTEX_POINT('',#1478);
#483=VERTEX_POINT('',#1479);
#484=VERTEX_POINT('',#1481);
#485=VERTEX_POINT('',#1484);
#486=VERTEX_POINT('',#1486);
#487=VERTEX_POINT('',#1488);
#488=VERTEX_POINT('',#1489);
#489=VERTEX_POINT('',#1491);
#490=VERTEX_POINT('',#1494);
#491=VERTEX_POINT('',#1495);
#492=VERTEX_POINT('',#1497);
#493=VERTEX_POINT('',#1500);
#494=VERTEX_POINT('',#1501);
#495=VERTEX_POINT('',#1503);
#496=VERTEX_POINT('',#1506);
#497=VERTEX_POINT('',#1507);
#498=VERTEX_POINT('',#1509);
#499=VERTEX_POINT('',#1512);
#500=VERTEX_POINT('',#1513);
#501=VERTEX_POINT('',#1515);
#502=VERTEX_POINT('',#1517);
#503=VERTEX_POINT('',#1520);
#504=VERTEX_POINT('',#1521);
#505=VERTEX_POINT('',#1523);
#506=VERTEX_POINT('',#1525);
#507=VERTEX_POINT('',#1528);
#508=VERTEX_POINT('',#1529);
#509=VERTEX_POINT('',#1531);
#510=VERTEX_POINT('',#1533);
#511=VERTEX_POINT('',#1536);
#512=VERTEX_POINT('',#1537);
#513=VERTEX_POINT('',#1539);
#514=VERTEX_POINT('',#1541);
#515=VERTEX_POINT('',#1545);
#516=VERTEX_POINT('',#1547);
#517=VERTEX_POINT('',#1551);
#518=VERTEX_POINT('',#1557);
#519=VERTEX_POINT('',#1559);
#520=VERTEX_POINT('',#1563);
#521=VERTEX_POINT('',#1569);
#522=VERTEX_POINT('',#1571);
#523=VERTEX_POINT('',#1575);
#524=VERTEX_POINT('',#1581);
#525=VERTEX_POINT('',#1583);
#526=VERTEX_POINT('',#1587);
#527=VERTEX_POINT('',#1593);
#528=VERTEX_POINT('',#1595);
#529=VERTEX_POINT('',#1599);
#530=VERTEX_POINT('',#1633);
#531=VERTEX_POINT('',#1637);
#532=VERTEX_POINT('',#1641);
#533=VERTEX_POINT('',#1643);
#534=VERTEX_POINT('',#1647);
#535=VERTEX_POINT('',#1653);
#536=VERTEX_POINT('',#1655);
#537=VERTEX_POINT('',#1659);
#538=VERTEX_POINT('',#1663);
#539=VERTEX_POINT('',#1669);
#540=VERTEX_POINT('',#1671);
#541=VERTEX_POINT('',#1675);
#542=VERTEX_POINT('',#1679);
#543=VERTEX_POINT('',#1685);
#544=VERTEX_POINT('',#1687);
#545=VERTEX_POINT('',#1691);
#546=VERTEX_POINT('',#1695);
#547=VERTEX_POINT('',#1701);
#548=VERTEX_POINT('',#1702);
#549=VERTEX_POINT('',#1707);
#550=VERTEX_POINT('',#1711);
#551=VERTEX_POINT('',#1717);
#552=VERTEX_POINT('',#1718);
#553=VERTEX_POINT('',#1723);
#554=VERTEX_POINT('',#1727);
#555=VERTEX_POINT('',#1733);
#556=VERTEX_POINT('',#1734);
#557=VERTEX_POINT('',#1739);
#558=VERTEX_POINT('',#1743);
#559=VERTEX_POINT('',#1749);
#560=VERTEX_POINT('',#1750);
#561=VERTEX_POINT('',#1755);
#562=VERTEX_POINT('',#1759);
#563=VERTEX_POINT('',#1765);
#564=EDGE_CURVE('',#466,#466,#458,.T.);
#565=EDGE_CURVE('',#467,#468,#323,.T.);
#566=EDGE_CURVE('',#468,#469,#49,.T.);
#567=EDGE_CURVE('',#467,#469,#459,.T.);
#568=EDGE_CURVE('',#470,#471,#50,.T.);
#569=EDGE_CURVE('',#471,#472,#51,.T.);
#570=EDGE_CURVE('',#472,#473,#52,.T.);
#571=EDGE_CURVE('',#473,#470,#53,.T.);
#572=EDGE_CURVE('',#474,#475,#54,.T.);
#573=EDGE_CURVE('',#475,#476,#55,.T.);
#574=EDGE_CURVE('',#476,#477,#56,.T.);
#575=EDGE_CURVE('',#477,#474,#57,.T.);
#576=EDGE_CURVE('',#478,#479,#58,.T.);
#577=EDGE_CURVE('',#479,#480,#59,.T.);
#578=EDGE_CURVE('',#480,#481,#60,.T.);
#579=EDGE_CURVE('',#481,#478,#61,.T.);
#580=EDGE_CURVE('',#482,#483,#62,.T.);
#581=EDGE_CURVE('',#483,#484,#63,.T.);
#582=EDGE_CURVE('',#484,#482,#64,.T.);
#583=EDGE_CURVE('',#485,#485,#460,.T.);
#584=EDGE_CURVE('',#486,#486,#461,.T.);
#585=EDGE_CURVE('',#487,#488,#65,.T.);
#586=EDGE_CURVE('',#488,#489,#66,.T.);
#587=EDGE_CURVE('',#489,#487,#67,.T.);
#588=EDGE_CURVE('',#490,#491,#68,.T.);
#589=EDGE_CURVE('',#491,#492,#69,.T.);
#590=EDGE_CURVE('',#492,#490,#70,.T.);
#591=EDGE_CURVE('',#493,#494,#71,.T.);
#592=EDGE_CURVE('',#494,#495,#72,.T.);
#593=EDGE_CURVE('',#495,#493,#73,.T.);
#594=EDGE_CURVE('',#496,#497,#74,.T.);
#595=EDGE_CURVE('',#497,#498,#75,.T.);
#596=EDGE_CURVE('',#498,#496,#76,.T.);
#597=EDGE_CURVE('',#499,#500,#77,.T.);
#598=EDGE_CURVE('',#500,#501,#78,.T.);
#599=EDGE_CURVE('',#501,#502,#79,.T.);
#600=EDGE_CURVE('',#502,#499,#80,.T.);
#601=EDGE_CURVE('',#503,#504,#81,.T.);
#602=EDGE_CURVE('',#504,#505,#82,.T.);
#603=EDGE_CURVE('',#505,#506,#83,.T.);
#604=EDGE_CURVE('',#506,#503,#84,.T.);
#605=EDGE_CURVE('',#507,#508,#85,.T.);
#606=EDGE_CURVE('',#508,#509,#86,.T.);
#607=EDGE_CURVE('',#509,#510,#87,.T.);
#608=EDGE_CURVE('',#510,#507,#88,.T.);
#609=EDGE_CURVE('',#511,#512,#89,.T.);
#610=EDGE_CURVE('',#512,#513,#90,.T.);
#611=EDGE_CURVE('',#513,#514,#91,.T.);
#612=EDGE_CURVE('',#514,#511,#92,.T.);
#613=EDGE_CURVE('',#515,#497,#93,.T.);
#614=EDGE_CURVE('',#516,#515,#94,.T.);
#615=EDGE_CURVE('',#516,#498,#95,.T.);
#616=EDGE_CURVE('',#517,#516,#96,.T.);
#617=EDGE_CURVE('',#517,#496,#97,.T.);
#618=EDGE_CURVE('',#515,#517,#98,.T.);
#619=EDGE_CURVE('',#518,#494,#99,.T.);
#620=EDGE_CURVE('',#519,#518,#100,.T.);
#621=EDGE_CURVE('',#519,#495,#101,.T.);
#622=EDGE_CURVE('',#520,#519,#102,.T.);
#623=EDGE_CURVE('',#520,#493,#103,.T.);
#624=EDGE_CURVE('',#518,#520,#104,.T.);
#625=EDGE_CURVE('',#521,#491,#105,.T.);
#626=EDGE_CURVE('',#522,#521,#106,.T.);
#627=EDGE_CURVE('',#522,#492,#107,.T.);
#628=EDGE_CURVE('',#523,#522,#108,.T.);
#629=EDGE_CURVE('',#523,#490,#109,.T.);
#630=EDGE_CURVE('',#521,#523,#110,.T.);
#631=EDGE_CURVE('',#524,#488,#111,.T.);
#632=EDGE_CURVE('',#525,#524,#112,.T.);
#633=EDGE_CURVE('',#525,#489,#113,.T.);
#634=EDGE_CURVE('',#526,#525,#114,.T.);
#635=EDGE_CURVE('',#526,#487,#115,.T.);
#636=EDGE_CURVE('',#524,#526,#116,.T.);
#637=EDGE_CURVE('',#468,#527,#117,.T.);
#638=EDGE_CURVE('',#528,#527,#118,.T.);
#639=EDGE_CURVE('',#469,#528,#119,.T.);
#640=EDGE_CURVE('',#529,#528,#462,.T.);
#641=EDGE_CURVE('',#467,#529,#120,.T.);
#642=EDGE_CURVE('',#527,#529,#324,.T.);
#643=EDGE_CURVE('',#530,#530,#463,.T.);
#644=EDGE_CURVE('',#530,#486,#121,.T.);
#645=EDGE_CURVE('',#531,#531,#464,.T.);
#646=EDGE_CURVE('',#531,#485,#122,.T.);
#647=EDGE_CURVE('',#532,#483,#123,.T.);
#648=EDGE_CURVE('',#533,#532,#124,.T.);
#649=EDGE_CURVE('',#533,#484,#125,.T.);
#650=EDGE_CURVE('',#534,#533,#126,.T.);
#651=EDGE_CURVE('',#534,#482,#127,.T.);
#652=EDGE_CURVE('',#532,#534,#128,.T.);
#653=EDGE_CURVE('',#535,#479,#129,.T.);
#654=EDGE_CURVE('',#536,#535,#130,.T.);
#655=EDGE_CURVE('',#536,#480,#131,.T.);
#656=EDGE_CURVE('',#537,#536,#132,.T.);
#657=EDGE_CURVE('',#537,#481,#133,.T.);
#658=EDGE_CURVE('',#538,#537,#134,.T.);
#659=EDGE_CURVE('',#538,#478,#135,.T.);
#660=EDGE_CURVE('',#535,#538,#136,.T.);
#661=EDGE_CURVE('',#539,#475,#137,.T.);
#662=EDGE_CURVE('',#540,#539,#138,.T.);
#663=EDGE_CURVE('',#540,#476,#139,.T.);
#664=EDGE_CURVE('',#541,#540,#140,.T.);
#665=EDGE_CURVE('',#541,#477,#141,.T.);
#666=EDGE_CURVE('',#542,#541,#142,.T.);
#667=EDGE_CURVE('',#542,#474,#143,.T.);
#668=EDGE_CURVE('',#539,#542,#144,.T.);
#669=EDGE_CURVE('',#543,#471,#145,.T.);
#670=EDGE_CURVE('',#544,#543,#146,.T.);
#671=EDGE_CURVE('',#544,#472,#147,.T.);
#672=EDGE_CURVE('',#545,#544,#148,.T.);
#673=EDGE_CURVE('',#545,#473,#149,.T.);
#674=EDGE_CURVE('',#546,#545,#150,.T.);
#675=EDGE_CURVE('',#546,#470,#151,.T.);
#676=EDGE_CURVE('',#543,#546,#152,.T.);
#677=EDGE_CURVE('',#547,#548,#153,.T.);
#678=EDGE_CURVE('',#501,#547,#154,.T.);
#679=EDGE_CURVE('',#500,#548,#155,.T.);
#680=EDGE_CURVE('',#549,#547,#156,.T.);
#681=EDGE_CURVE('',#502,#549,#157,.T.);
#682=EDGE_CURVE('',#550,#549,#158,.T.);
#683=EDGE_CURVE('',#499,#550,#159,.T.);
#684=EDGE_CURVE('',#548,#550,#160,.T.);
#685=EDGE_CURVE('',#551,#552,#161,.T.);
#686=EDGE_CURVE('',#505,#551,#162,.T.);
#687=EDGE_CURVE('',#504,#552,#163,.T.);
#688=EDGE_CURVE('',#553,#551,#164,.T.);
#689=EDGE_CURVE('',#506,#553,#165,.T.);
#690=EDGE_CURVE('',#554,#553,#166,.T.);
#691=EDGE_CURVE('',#503,#554,#167,.T.);
#692=EDGE_CURVE('',#552,#554,#168,.T.);
#693=EDGE_CURVE('',#555,#556,#169,.T.);
#694=EDGE_CURVE('',#509,#555,#170,.T.);
#695=EDGE_CURVE('',#508,#556,#171,.T.);
#696=EDGE_CURVE('',#557,#555,#172,.T.);
#697=EDGE_CURVE('',#510,#557,#173,.T.);
#698=EDGE_CURVE('',#558,#557,#174,.T.);
#699=EDGE_CURVE('',#507,#558,#175,.T.);
#700=EDGE_CURVE('',#556,#558,#176,.T.);
#701=EDGE_CURVE('',#559,#560,#177,.T.);
#702=EDGE_CURVE('',#513,#559,#178,.T.);
#703=EDGE_CURVE('',#512,#560,#179,.T.);
#704=EDGE_CURVE('',#561,#559,#180,.T.);
#705=EDGE_CURVE('',#514,#561,#181,.T.);
#706=EDGE_CURVE('',#562,#561,#182,.T.);
#707=EDGE_CURVE('',#511,#562,#183,.T.);
#708=EDGE_CURVE('',#560,#562,#184,.T.);
#709=EDGE_CURVE('',#563,#563,#465,.T.);
#710=EDGE_CURVE('',#563,#466,#185,.T.);
#711=ORIENTED_EDGE('',*,*,#564,.F.);
#712=ORIENTED_EDGE('',*,*,#565,.T.);
#713=ORIENTED_EDGE('',*,*,#566,.T.);
#714=ORIENTED_EDGE('',*,*,#567,.F.);
#715=ORIENTED_EDGE('',*,*,#568,.T.);
#716=ORIENTED_EDGE('',*,*,#569,.T.);
#717=ORIENTED_EDGE('',*,*,#570,.T.);
#718=ORIENTED_EDGE('',*,*,#571,.T.);
#719=ORIENTED_EDGE('',*,*,#572,.T.);
#720=ORIENTED_EDGE('',*,*,#573,.T.);
#721=ORIENTED_EDGE('',*,*,#574,.T.);
#722=ORIENTED_EDGE('',*,*,#575,.T.);
#723=ORIENTED_EDGE('',*,*,#576,.T.);
#724=ORIENTED_EDGE('',*,*,#577,.T.);
#725=ORIENTED_EDGE('',*,*,#578,.T.);
#726=ORIENTED_EDGE('',*,*,#579,.T.);
#727=ORIENTED_EDGE('',*,*,#580,.T.);
#728=ORIENTED_EDGE('',*,*,#581,.T.);
#729=ORIENTED_EDGE('',*,*,#582,.T.);
#730=ORIENTED_EDGE('',*,*,#583,.T.);
#731=ORIENTED_EDGE('',*,*,#584,.T.);
#732=ORIENTED_EDGE('',*,*,#585,.T.);
#733=ORIENTED_EDGE('',*,*,#586,.T.);
#734=ORIENTED_EDGE('',*,*,#587,.T.);
#735=ORIENTED_EDGE('',*,*,#588,.T.);
#736=ORIENTED_EDGE('',*,*,#589,.T.);
#737=ORIENTED_EDGE('',*,*,#590,.T.);
#738=ORIENTED_EDGE('',*,*,#591,.T.);
#739=ORIENTED_EDGE('',*,*,#592,.T.);
#740=ORIENTED_EDGE('',*,*,#593,.T.);
#741=ORIENTED_EDGE('',*,*,#594,.T.);
#742=ORIENTED_EDGE('',*,*,#595,.T.);
#743=ORIENTED_EDGE('',*,*,#596,.T.);
#744=ORIENTED_EDGE('',*,*,#597,.T.);
#745=ORIENTED_EDGE('',*,*,#598,.T.);
#746=ORIENTED_EDGE('',*,*,#599,.T.);
#747=ORIENTED_EDGE('',*,*,#600,.T.);
#748=ORIENTED_EDGE('',*,*,#601,.T.);
#749=ORIENTED_EDGE('',*,*,#602,.T.);
#750=ORIENTED_EDGE('',*,*,#603,.T.);
#751=ORIENTED_EDGE('',*,*,#604,.T.);
#752=ORIENTED_EDGE('',*,*,#605,.T.);
#753=ORIENTED_EDGE('',*,*,#606,.T.);
#754=ORIENTED_EDGE('',*,*,#607,.T.);
#755=ORIENTED_EDGE('',*,*,#608,.T.);
#756=ORIENTED_EDGE('',*,*,#609,.T.);
#757=ORIENTED_EDGE('',*,*,#610,.T.);
#758=ORIENTED_EDGE('',*,*,#611,.T.);
#759=ORIENTED_EDGE('',*,*,#612,.T.);
#760=ORIENTED_EDGE('',*,*,#595,.F.);
#761=ORIENTED_EDGE('',*,*,#613,.F.);
#762=ORIENTED_EDGE('',*,*,#614,.F.);
#763=ORIENTED_EDGE('',*,*,#615,.T.);
#764=ORIENTED_EDGE('',*,*,#596,.F.);
#765=ORIENTED_EDGE('',*,*,#615,.F.);
#766=ORIENTED_EDGE('',*,*,#616,.F.);
#767=ORIENTED_EDGE('',*,*,#617,.T.);
#768=ORIENTED_EDGE('',*,*,#594,.F.);
#769=ORIENTED_EDGE('',*,*,#617,.F.);
#770=ORIENTED_EDGE('',*,*,#618,.F.);
#771=ORIENTED_EDGE('',*,*,#613,.T.);
#772=ORIENTED_EDGE('',*,*,#592,.F.);
#773=ORIENTED_EDGE('',*,*,#619,.F.);
#774=ORIENTED_EDGE('',*,*,#620,.F.);
#775=ORIENTED_EDGE('',*,*,#621,.T.);
#776=ORIENTED_EDGE('',*,*,#593,.F.);
#777=ORIENTED_EDGE('',*,*,#621,.F.);
#778=ORIENTED_EDGE('',*,*,#622,.F.);
#779=ORIENTED_EDGE('',*,*,#623,.T.);
#780=ORIENTED_EDGE('',*,*,#591,.F.);
#781=ORIENTED_EDGE('',*,*,#623,.F.);
#782=ORIENTED_EDGE('',*,*,#624,.F.);
#783=ORIENTED_EDGE('',*,*,#619,.T.);
#784=ORIENTED_EDGE('',*,*,#589,.F.);
#785=ORIENTED_EDGE('',*,*,#625,.F.);
#786=ORIENTED_EDGE('',*,*,#626,.F.);
#787=ORIENTED_EDGE('',*,*,#627,.T.);
#788=ORIENTED_EDGE('',*,*,#590,.F.);
#789=ORIENTED_EDGE('',*,*,#627,.F.);
#790=ORIENTED_EDGE('',*,*,#628,.F.);
#791=ORIENTED_EDGE('',*,*,#629,.T.);
#792=ORIENTED_EDGE('',*,*,#588,.F.);
#793=ORIENTED_EDGE('',*,*,#629,.F.);
#794=ORIENTED_EDGE('',*,*,#630,.F.);
#795=ORIENTED_EDGE('',*,*,#625,.T.);
#796=ORIENTED_EDGE('',*,*,#586,.F.);
#797=ORIENTED_EDGE('',*,*,#631,.F.);
#798=ORIENTED_EDGE('',*,*,#632,.F.);
#799=ORIENTED_EDGE('',*,*,#633,.T.);
#800=ORIENTED_EDGE('',*,*,#587,.F.);
#801=ORIENTED_EDGE('',*,*,#633,.F.);
#802=ORIENTED_EDGE('',*,*,#634,.F.);
#803=ORIENTED_EDGE('',*,*,#635,.T.);
#804=ORIENTED_EDGE('',*,*,#585,.F.);
#805=ORIENTED_EDGE('',*,*,#635,.F.);
#806=ORIENTED_EDGE('',*,*,#636,.F.);
#807=ORIENTED_EDGE('',*,*,#631,.T.);
#808=ORIENTED_EDGE('',*,*,#566,.F.);
#809=ORIENTED_EDGE('',*,*,#637,.T.);
#810=ORIENTED_EDGE('',*,*,#638,.F.);
#811=ORIENTED_EDGE('',*,*,#639,.F.);
#812=ORIENTED_EDGE('',*,*,#567,.T.);
#813=ORIENTED_EDGE('',*,*,#639,.T.);
#814=ORIENTED_EDGE('',*,*,#640,.F.);
#815=ORIENTED_EDGE('',*,*,#641,.F.);
#816=ORIENTED_EDGE('',*,*,#565,.F.);
#817=ORIENTED_EDGE('',*,*,#641,.T.);
#818=ORIENTED_EDGE('',*,*,#642,.F.);
#819=ORIENTED_EDGE('',*,*,#637,.F.);
#820=ORIENTED_EDGE('',*,*,#643,.F.);
#821=ORIENTED_EDGE('',*,*,#644,.T.);
#822=ORIENTED_EDGE('',*,*,#584,.F.);
#823=ORIENTED_EDGE('',*,*,#644,.F.);
#824=ORIENTED_EDGE('',*,*,#645,.F.);
#825=ORIENTED_EDGE('',*,*,#646,.T.);
#826=ORIENTED_EDGE('',*,*,#583,.F.);
#827=ORIENTED_EDGE('',*,*,#646,.F.);
#828=ORIENTED_EDGE('',*,*,#581,.F.);
#829=ORIENTED_EDGE('',*,*,#647,.F.);
#830=ORIENTED_EDGE('',*,*,#648,.F.);
#831=ORIENTED_EDGE('',*,*,#649,.T.);
#832=ORIENTED_EDGE('',*,*,#582,.F.);
#833=ORIENTED_EDGE('',*,*,#649,.F.);
#834=ORIENTED_EDGE('',*,*,#650,.F.);
#835=ORIENTED_EDGE('',*,*,#651,.T.);
#836=ORIENTED_EDGE('',*,*,#580,.F.);
#837=ORIENTED_EDGE('',*,*,#651,.F.);
#838=ORIENTED_EDGE('',*,*,#652,.F.);
#839=ORIENTED_EDGE('',*,*,#647,.T.);
#840=ORIENTED_EDGE('',*,*,#577,.F.);
#841=ORIENTED_EDGE('',*,*,#653,.F.);
#842=ORIENTED_EDGE('',*,*,#654,.F.);
#843=ORIENTED_EDGE('',*,*,#655,.T.);
#844=ORIENTED_EDGE('',*,*,#578,.F.);
#845=ORIENTED_EDGE('',*,*,#655,.F.);
#846=ORIENTED_EDGE('',*,*,#656,.F.);
#847=ORIENTED_EDGE('',*,*,#657,.T.);
#848=ORIENTED_EDGE('',*,*,#579,.F.);
#849=ORIENTED_EDGE('',*,*,#657,.F.);
#850=ORIENTED_EDGE('',*,*,#658,.F.);
#851=ORIENTED_EDGE('',*,*,#659,.T.);
#852=ORIENTED_EDGE('',*,*,#576,.F.);
#853=ORIENTED_EDGE('',*,*,#659,.F.);
#854=ORIENTED_EDGE('',*,*,#660,.F.);
#855=ORIENTED_EDGE('',*,*,#653,.T.);
#856=ORIENTED_EDGE('',*,*,#573,.F.);
#857=ORIENTED_EDGE('',*,*,#661,.F.);
#858=ORIENTED_EDGE('',*,*,#662,.F.);
#859=ORIENTED_EDGE('',*,*,#663,.T.);
#860=ORIENTED_EDGE('',*,*,#574,.F.);
#861=ORIENTED_EDGE('',*,*,#663,.F.);
#862=ORIENTED_EDGE('',*,*,#664,.F.);
#863=ORIENTED_EDGE('',*,*,#665,.T.);
#864=ORIENTED_EDGE('',*,*,#575,.F.);
#865=ORIENTED_EDGE('',*,*,#665,.F.);
#866=ORIENTED_EDGE('',*,*,#666,.F.);
#867=ORIENTED_EDGE('',*,*,#667,.T.);
#868=ORIENTED_EDGE('',*,*,#572,.F.);
#869=ORIENTED_EDGE('',*,*,#667,.F.);
#870=ORIENTED_EDGE('',*,*,#668,.F.);
#871=ORIENTED_EDGE('',*,*,#661,.T.);
#872=ORIENTED_EDGE('',*,*,#569,.F.);
#873=ORIENTED_EDGE('',*,*,#669,.F.);
#874=ORIENTED_EDGE('',*,*,#670,.F.);
#875=ORIENTED_EDGE('',*,*,#671,.T.);
#876=ORIENTED_EDGE('',*,*,#570,.F.);
#877=ORIENTED_EDGE('',*,*,#671,.F.);
#878=ORIENTED_EDGE('',*,*,#672,.F.);
#879=ORIENTED_EDGE('',*,*,#673,.T.);
#880=ORIENTED_EDGE('',*,*,#571,.F.);
#881=ORIENTED_EDGE('',*,*,#673,.F.);
#882=ORIENTED_EDGE('',*,*,#674,.F.);
#883=ORIENTED_EDGE('',*,*,#675,.T.);
#884=ORIENTED_EDGE('',*,*,#568,.F.);
#885=ORIENTED_EDGE('',*,*,#675,.F.);
#886=ORIENTED_EDGE('',*,*,#676,.F.);
#887=ORIENTED_EDGE('',*,*,#669,.T.);
#888=ORIENTED_EDGE('',*,*,#677,.F.);
#889=ORIENTED_EDGE('',*,*,#678,.F.);
#890=ORIENTED_EDGE('',*,*,#598,.F.);
#891=ORIENTED_EDGE('',*,*,#679,.T.);
#892=ORIENTED_EDGE('',*,*,#680,.F.);
#893=ORIENTED_EDGE('',*,*,#681,.F.);
#894=ORIENTED_EDGE('',*,*,#599,.F.);
#895=ORIENTED_EDGE('',*,*,#678,.T.);
#896=ORIENTED_EDGE('',*,*,#682,.F.);
#897=ORIENTED_EDGE('',*,*,#683,.F.);
#898=ORIENTED_EDGE('',*,*,#600,.F.);
#899=ORIENTED_EDGE('',*,*,#681,.T.);
#900=ORIENTED_EDGE('',*,*,#684,.F.);
#901=ORIENTED_EDGE('',*,*,#679,.F.);
#902=ORIENTED_EDGE('',*,*,#597,.F.);
#903=ORIENTED_EDGE('',*,*,#683,.T.);
#904=ORIENTED_EDGE('',*,*,#685,.F.);
#905=ORIENTED_EDGE('',*,*,#686,.F.);
#906=ORIENTED_EDGE('',*,*,#602,.F.);
#907=ORIENTED_EDGE('',*,*,#687,.T.);
#908=ORIENTED_EDGE('',*,*,#688,.F.);
#909=ORIENTED_EDGE('',*,*,#689,.F.);
#910=ORIENTED_EDGE('',*,*,#603,.F.);
#911=ORIENTED_EDGE('',*,*,#686,.T.);
#912=ORIENTED_EDGE('',*,*,#690,.F.);
#913=ORIENTED_EDGE('',*,*,#691,.F.);
#914=ORIENTED_EDGE('',*,*,#604,.F.);
#915=ORIENTED_EDGE('',*,*,#689,.T.);
#916=ORIENTED_EDGE('',*,*,#692,.F.);
#917=ORIENTED_EDGE('',*,*,#687,.F.);
#918=ORIENTED_EDGE('',*,*,#601,.F.);
#919=ORIENTED_EDGE('',*,*,#691,.T.);
#920=ORIENTED_EDGE('',*,*,#693,.F.);
#921=ORIENTED_EDGE('',*,*,#694,.F.);
#922=ORIENTED_EDGE('',*,*,#606,.F.);
#923=ORIENTED_EDGE('',*,*,#695,.T.);
#924=ORIENTED_EDGE('',*,*,#696,.F.);
#925=ORIENTED_EDGE('',*,*,#697,.F.);
#926=ORIENTED_EDGE('',*,*,#607,.F.);
#927=ORIENTED_EDGE('',*,*,#694,.T.);
#928=ORIENTED_EDGE('',*,*,#698,.F.);
#929=ORIENTED_EDGE('',*,*,#699,.F.);
#930=ORIENTED_EDGE('',*,*,#608,.F.);
#931=ORIENTED_EDGE('',*,*,#697,.T.);
#932=ORIENTED_EDGE('',*,*,#700,.F.);
#933=ORIENTED_EDGE('',*,*,#695,.F.);
#934=ORIENTED_EDGE('',*,*,#605,.F.);
#935=ORIENTED_EDGE('',*,*,#699,.T.);
#936=ORIENTED_EDGE('',*,*,#701,.F.);
#937=ORIENTED_EDGE('',*,*,#702,.F.);
#938=ORIENTED_EDGE('',*,*,#610,.F.);
#939=ORIENTED_EDGE('',*,*,#703,.T.);
#940=ORIENTED_EDGE('',*,*,#704,.F.);
#941=ORIENTED_EDGE('',*,*,#705,.F.);
#942=ORIENTED_EDGE('',*,*,#611,.F.);
#943=ORIENTED_EDGE('',*,*,#702,.T.);
#944=ORIENTED_EDGE('',*,*,#706,.F.);
#945=ORIENTED_EDGE('',*,*,#707,.F.);
#946=ORIENTED_EDGE('',*,*,#612,.F.);
#947=ORIENTED_EDGE('',*,*,#705,.T.);
#948=ORIENTED_EDGE('',*,*,#708,.F.);
#949=ORIENTED_EDGE('',*,*,#703,.F.);
#950=ORIENTED_EDGE('',*,*,#609,.F.);
#951=ORIENTED_EDGE('',*,*,#707,.T.);
#952=ORIENTED_EDGE('',*,*,#642,.T.);
#953=ORIENTED_EDGE('',*,*,#640,.T.);
#954=ORIENTED_EDGE('',*,*,#638,.T.);
#955=ORIENTED_EDGE('',*,*,#708,.T.);
#956=ORIENTED_EDGE('',*,*,#706,.T.);
#957=ORIENTED_EDGE('',*,*,#704,.T.);
#958=ORIENTED_EDGE('',*,*,#701,.T.);
#959=ORIENTED_EDGE('',*,*,#700,.T.);
#960=ORIENTED_EDGE('',*,*,#698,.T.);
#961=ORIENTED_EDGE('',*,*,#696,.T.);
#962=ORIENTED_EDGE('',*,*,#693,.T.);
#963=ORIENTED_EDGE('',*,*,#692,.T.);
#964=ORIENTED_EDGE('',*,*,#690,.T.);
#965=ORIENTED_EDGE('',*,*,#688,.T.);
#966=ORIENTED_EDGE('',*,*,#685,.T.);
#967=ORIENTED_EDGE('',*,*,#684,.T.);
#968=ORIENTED_EDGE('',*,*,#682,.T.);
#969=ORIENTED_EDGE('',*,*,#680,.T.);
#970=ORIENTED_EDGE('',*,*,#677,.T.);
#971=ORIENTED_EDGE('',*,*,#676,.T.);
#972=ORIENTED_EDGE('',*,*,#674,.T.);
#973=ORIENTED_EDGE('',*,*,#672,.T.);
#974=ORIENTED_EDGE('',*,*,#670,.T.);
#975=ORIENTED_EDGE('',*,*,#668,.T.);
#976=ORIENTED_EDGE('',*,*,#666,.T.);
#977=ORIENTED_EDGE('',*,*,#664,.T.);
#978=ORIENTED_EDGE('',*,*,#662,.T.);
#979=ORIENTED_EDGE('',*,*,#660,.T.);
#980=ORIENTED_EDGE('',*,*,#658,.T.);
#981=ORIENTED_EDGE('',*,*,#656,.T.);
#982=ORIENTED_EDGE('',*,*,#654,.T.);
#983=ORIENTED_EDGE('',*,*,#652,.T.);
#984=ORIENTED_EDGE('',*,*,#650,.T.);
#985=ORIENTED_EDGE('',*,*,#648,.T.);
#986=ORIENTED_EDGE('',*,*,#645,.T.);
#987=ORIENTED_EDGE('',*,*,#643,.T.);
#988=ORIENTED_EDGE('',*,*,#636,.T.);
#989=ORIENTED_EDGE('',*,*,#634,.T.);
#990=ORIENTED_EDGE('',*,*,#632,.T.);
#991=ORIENTED_EDGE('',*,*,#630,.T.);
#992=ORIENTED_EDGE('',*,*,#628,.T.);
#993=ORIENTED_EDGE('',*,*,#626,.T.);
#994=ORIENTED_EDGE('',*,*,#624,.T.);
#995=ORIENTED_EDGE('',*,*,#622,.T.);
#996=ORIENTED_EDGE('',*,*,#620,.T.);
#997=ORIENTED_EDGE('',*,*,#618,.T.);
#998=ORIENTED_EDGE('',*,*,#616,.T.);
#999=ORIENTED_EDGE('',*,*,#614,.T.);
#1000=ORIENTED_EDGE('',*,*,#709,.T.);
#1001=ORIENTED_EDGE('',*,*,#709,.F.);
#1002=ORIENTED_EDGE('',*,*,#710,.T.);
#1003=ORIENTED_EDGE('',*,*,#564,.T.);
#1004=ORIENTED_EDGE('',*,*,#710,.F.);
#1005=PLANE('',#1118);
#1006=PLANE('',#1120);
#1007=PLANE('',#1124);
#1008=PLANE('',#1125);
#1009=PLANE('',#1126);
#1010=PLANE('',#1127);
#1011=PLANE('',#1128);
#1012=PLANE('',#1129);
#1013=PLANE('',#1130);
#1014=PLANE('',#1131);
#1015=PLANE('',#1132);
#1016=PLANE('',#1133);
#1017=PLANE('',#1134);
#1018=PLANE('',#1135);
#1019=PLANE('',#1136);
#1020=PLANE('',#1143);
#1021=PLANE('',#1144);
#1022=PLANE('',#1145);
#1023=PLANE('',#1146);
#1024=PLANE('',#1147);
#1025=PLANE('',#1148);
#1026=PLANE('',#1149);
#1027=PLANE('',#1150);
#1028=PLANE('',#1151);
#1029=PLANE('',#1152);
#1030=PLANE('',#1153);
#1031=PLANE('',#1154);
#1032=PLANE('',#1155);
#1033=PLANE('',#1156);
#1034=PLANE('',#1157);
#1035=PLANE('',#1158);
#1036=PLANE('',#1159);
#1037=PLANE('',#1160);
#1038=PLANE('',#1161);
#1039=PLANE('',#1162);
#1040=PLANE('',#1163);
#1041=PLANE('',#1164);
#1042=PLANE('',#1165);
#1043=PLANE('',#1166);
#1044=PLANE('',#1167);
#1045=PLANE('',#1168);
#1046=PLANE('',#1169);
#1047=PLANE('',#1170);
#1048=PLANE('',#1171);
#1049=PLANE('',#1172);
#1050=PLANE('',#1173);
#1051=PLANE('',#1174);
#1052=ADVANCED_FACE('',(#325),#1005,.F.);
#1053=ADVANCED_FACE('',(#326,#20,#21,#22,#23,#24,#25,#26,#27,#28,#29,#30,
#31,#32,#33),#1006,.F.);
#1054=ADVANCED_FACE('',(#327),#1007,.F.);
#1055=ADVANCED_FACE('',(#328),#1008,.F.);
#1056=ADVANCED_FACE('',(#329),#1009,.F.);
#1057=ADVANCED_FACE('',(#330),#1010,.F.);
#1058=ADVANCED_FACE('',(#331),#1011,.F.);
#1059=ADVANCED_FACE('',(#332),#1012,.F.);
#1060=ADVANCED_FACE('',(#333),#1013,.F.);
#1061=ADVANCED_FACE('',(#334),#1014,.F.);
#1062=ADVANCED_FACE('',(#335),#1015,.F.);
#1063=ADVANCED_FACE('',(#336),#1016,.F.);
#1064=ADVANCED_FACE('',(#337),#1017,.F.);
#1065=ADVANCED_FACE('',(#338),#1018,.F.);
#1066=ADVANCED_FACE('',(#339),#1019,.T.);
#1067=ADVANCED_FACE('',(#340),#16,.T.);
#1068=ADVANCED_FACE('',(#341),#15,.T.);
#1069=ADVANCED_FACE('',(#342),#17,.F.);
#1070=ADVANCED_FACE('',(#343),#18,.F.);
#1071=ADVANCED_FACE('',(#344),#1020,.F.);
#1072=ADVANCED_FACE('',(#345),#1021,.F.);
#1073=ADVANCED_FACE('',(#346),#1022,.F.);
#1074=ADVANCED_FACE('',(#347),#1023,.F.);
#1075=ADVANCED_FACE('',(#348),#1024,.F.);
#1076=ADVANCED_FACE('',(#349),#1025,.F.);
#1077=ADVANCED_FACE('',(#350),#1026,.F.);
#1078=ADVANCED_FACE('',(#351),#1027,.F.);
#1079=ADVANCED_FACE('',(#352),#1028,.F.);
#1080=ADVANCED_FACE('',(#353),#1029,.F.);
#1081=ADVANCED_FACE('',(#354),#1030,.F.);
#1082=ADVANCED_FACE('',(#355),#1031,.F.);
#1083=ADVANCED_FACE('',(#356),#1032,.F.);
#1084=ADVANCED_FACE('',(#357),#1033,.F.);
#1085=ADVANCED_FACE('',(#358),#1034,.F.);
#1086=ADVANCED_FACE('',(#359),#1035,.F.);
#1087=ADVANCED_FACE('',(#360),#1036,.F.);
#1088=ADVANCED_FACE('',(#361),#1037,.F.);
#1089=ADVANCED_FACE('',(#362),#1038,.F.);
#1090=ADVANCED_FACE('',(#363),#1039,.F.);
#1091=ADVANCED_FACE('',(#364),#1040,.F.);
#1092=ADVANCED_FACE('',(#365),#1041,.F.);
#1093=ADVANCED_FACE('',(#366),#1042,.F.);
#1094=ADVANCED_FACE('',(#367),#1043,.F.);
#1095=ADVANCED_FACE('',(#368),#1044,.F.);
#1096=ADVANCED_FACE('',(#369),#1045,.F.);
#1097=ADVANCED_FACE('',(#370),#1046,.F.);
#1098=ADVANCED_FACE('',(#371),#1047,.F.);
#1099=ADVANCED_FACE('',(#372),#1048,.F.);
#1100=ADVANCED_FACE('',(#373),#1049,.F.);
#1101=ADVANCED_FACE('',(#374),#1050,.F.);
#1102=ADVANCED_FACE('',(#375,#34,#35,#36,#37,#38,#39,#40,#41,#42,#43,#44,
#45,#46,#47,#48),#1051,.T.);
#1103=ADVANCED_FACE('',(#376),#19,.F.);
#1104=CLOSED_SHELL('',(#1052,#1053,#1054,#1055,#1056,#1057,#1058,#1059,
#1060,#1061,#1062,#1063,#1064,#1065,#1066,#1067,#1068,#1069,#1070,#1071,
#1072,#1073,#1074,#1075,#1076,#1077,#1078,#1079,#1080,#1081,#1082,#1083,
#1084,#1085,#1086,#1087,#1088,#1089,#1090,#1091,#1092,#1093,#1094,#1095,
#1096,#1097,#1098,#1099,#1100,#1101,#1102,#1103));
#1105=DERIVED_UNIT_ELEMENT(#1107,1.);
#1106=DERIVED_UNIT_ELEMENT(#1774,-3.);
#1107=(
MASS_UNIT()
NAMED_UNIT(*)
SI_UNIT(.KILO.,.GRAM.)
);
#1108=DERIVED_UNIT((#1105,#1106));
#1109=MEASURE_REPRESENTATION_ITEM('density measure',
POSITIVE_RATIO_MEASURE(7850.),#1108);
#1110=PROPERTY_DEFINITION_REPRESENTATION(#1115,#1112);
#1111=PROPERTY_DEFINITION_REPRESENTATION(#1116,#1113);
#1112=REPRESENTATION('material name',(#1114),#1771);
#1113=REPRESENTATION('density',(#1109),#1771);
#1114=DESCRIPTIVE_REPRESENTATION_ITEM('Steel','Steel');
#1115=PROPERTY_DEFINITION('material property','material name',#1781);
#1116=PROPERTY_DEFINITION('material property','density of part',#1781);
#1117=AXIS2_PLACEMENT_3D('',#1434,#1177,#1178);
#1118=AXIS2_PLACEMENT_3D('',#1435,#1179,#1180);
#1119=AXIS2_PLACEMENT_3D('',#1437,#1181,#1182);
#1120=AXIS2_PLACEMENT_3D('',#1438,#1183,#1184);
#1121=AXIS2_PLACEMENT_3D('',#1453,#1186,#1187);
#1122=AXIS2_PLACEMENT_3D('',#1485,#1203,#1204);
#1123=AXIS2_PLACEMENT_3D('',#1487,#1205,#1206);
#1124=AXIS2_PLACEMENT_3D('',#1544,#1235,#1236);
#1125=AXIS2_PLACEMENT_3D('',#1550,#1240,#1241);
#1126=AXIS2_PLACEMENT_3D('',#1554,#1244,#1245);
#1127=AXIS2_PLACEMENT_3D('',#1556,#1247,#1248);
#1128=AXIS2_PLACEMENT_3D('',#1562,#1252,#1253);
#1129=AXIS2_PLACEMENT_3D('',#1566,#1256,#1257);
#1130=AXIS2_PLACEMENT_3D('',#1568,#1259,#1260);
#1131=AXIS2_PLACEMENT_3D('',#1574,#1264,#1265);
#1132=AXIS2_PLACEMENT_3D('',#1578,#1268,#1269);
#1133=AXIS2_PLACEMENT_3D('',#1580,#1271,#1272);
#1134=AXIS2_PLACEMENT_3D('',#1586,#1276,#1277);
#1135=AXIS2_PLACEMENT_3D('',#1590,#1280,#1281);
#1136=AXIS2_PLACEMENT_3D('',#1592,#1283,#1284);
#1137=AXIS2_PLACEMENT_3D('',#1598,#1288,#1289);
#1138=AXIS2_PLACEMENT_3D('',#1600,#1290,#1291);
#1139=AXIS2_PLACEMENT_3D('',#1632,#1293,#1294);
#1140=AXIS2_PLACEMENT_3D('',#1634,#1295,#1296);
#1141=AXIS2_PLACEMENT_3D('',#1636,#1298,#1299);
#1142=AXIS2_PLACEMENT_3D('',#1638,#1300,#1301);
#1143=AXIS2_PLACEMENT_3D('',#1640,#1303,#1304);
#1144=AXIS2_PLACEMENT_3D('',#1646,#1308,#1309);
#1145=AXIS2_PLACEMENT_3D('',#1650,#1312,#1313);
#1146=AXIS2_PLACEMENT_3D('',#1652,#1315,#1316);
#1147=AXIS2_PLACEMENT_3D('',#1658,#1320,#1321);
#1148=AXIS2_PLACEMENT_3D('',#1662,#1324,#1325);
#1149=AXIS2_PLACEMENT_3D('',#1666,#1328,#1329);
#1150=AXIS2_PLACEMENT_3D('',#1668,#1331,#1332);
#1151=AXIS2_PLACEMENT_3D('',#1674,#1336,#1337);
#1152=AXIS2_PLACEMENT_3D('',#1678,#1340,#1341);
#1153=AXIS2_PLACEMENT_3D('',#1682,#1344,#1345);
#1154=AXIS2_PLACEMENT_3D('',#1684,#1347,#1348);
#1155=AXIS2_PLACEMENT_3D('',#1690,#1352,#1353);
#1156=AXIS2_PLACEMENT_3D('',#1694,#1356,#1357);
#1157=AXIS2_PLACEMENT_3D('',#1698,#1360,#1361);
#1158=AXIS2_PLACEMENT_3D('',#1700,#1363,#1364);
#1159=AXIS2_PLACEMENT_3D('',#1706,#1368,#1369);
#1160=AXIS2_PLACEMENT_3D('',#1710,#1372,#1373);
#1161=AXIS2_PLACEMENT_3D('',#1714,#1376,#1377);
#1162=AXIS2_PLACEMENT_3D('',#1716,#1379,#1380);
#1163=AXIS2_PLACEMENT_3D('',#1722,#1384,#1385);
#1164=AXIS2_PLACEMENT_3D('',#1726,#1388,#1389);
#1165=AXIS2_PLACEMENT_3D('',#1730,#1392,#1393);
#1166=AXIS2_PLACEMENT_3D('',#1732,#1395,#1396);
#1167=AXIS2_PLACEMENT_3D('',#1738,#1400,#1401);
#1168=AXIS2_PLACEMENT_3D('',#1742,#1404,#1405);
#1169=AXIS2_PLACEMENT_3D('',#1746,#1408,#1409);
#1170=AXIS2_PLACEMENT_3D('',#1748,#1411,#1412);
#1171=AXIS2_PLACEMENT_3D('',#1754,#1416,#1417);
#1172=AXIS2_PLACEMENT_3D('',#1758,#1420,#1421);
#1173=AXIS2_PLACEMENT_3D('',#1762,#1424,#1425);
#1174=AXIS2_PLACEMENT_3D('',#1764,#1427,#1428);
#1175=AXIS2_PLACEMENT_3D('',#1766,#1429,#1430);
#1176=AXIS2_PLACEMENT_3D('',#1767,#1431,#1432);
#1177=DIRECTION('axis',(0.,0.,1.));
#1178=DIRECTION('refdir',(1.,0.,0.));
#1179=DIRECTION('center_axis',(0.,-1.,0.));
#1180=DIRECTION('ref_axis',(1.,0.,0.));
#1181=DIRECTION('center_axis',(0.,-1.,0.));
#1182=DIRECTION('ref_axis',(-1.,0.,0.));
#1183=DIRECTION('center_axis',(0.,1.,0.));
#1184=DIRECTION('ref_axis',(1.,0.,0.));
#1185=DIRECTION('',(1.,0.,0.));
#1186=DIRECTION('center_axis',(0.,1.,0.));
#1187=DIRECTION('ref_axis',(-0.00273353874426739,0.,0.999996263875987));
#1188=DIRECTION('',(-1.,0.,-9.10191630206557E-18));
#1189=DIRECTION('',(-0.237787736652786,0.,0.971317143006107));
#1190=DIRECTION('',(0.971317143006107,0.,0.237787736652784));
#1191=DIRECTION('',(0.237787736652784,0.,-0.971317143006107));
#1192=DIRECTION('',(-1.,0.,-9.10191630206557E-18));
#1193=DIRECTION('',(-0.237787736652784,0.,0.971317143006107));
#1194=DIRECTION('',(0.971317143006107,0.,0.237787736652784));
#1195=DIRECTION('',(0.237787736652785,0.,-0.971317143006107));
#1196=DIRECTION('',(-1.,0.,-9.10191630206557E-18));
#1197=DIRECTION('',(-0.237787736652785,0.,0.971317143006107));
#1198=DIRECTION('',(0.971317143006107,0.,0.237787736652784));
#1199=DIRECTION('',(0.237787736652785,0.,-0.971317143006107));
#1200=DIRECTION('',(-1.,0.,-9.10191630206557E-18));
#1201=DIRECTION('',(0.971317143006107,0.,0.237787736652784));
#1202=DIRECTION('',(0.237787736652785,0.,-0.971317143006107));
#1203=DIRECTION('center_axis',(0.,1.,0.));
#1204=DIRECTION('ref_axis',(-1.,0.,0.));
#1205=DIRECTION('center_axis',(0.,1.,0.));
#1206=DIRECTION('ref_axis',(-1.,0.,0.));
#1207=DIRECTION('',(-0.907959384500452,0.,-0.419058177461747));
#1208=DIRECTION('',(0.,0.,1.));
#1209=DIRECTION('',(1.,0.,0.));
#1210=DIRECTION('',(0.74740931868366,0.,0.66436383882992));
#1211=DIRECTION('',(0.,0.,-1.));
#1212=DIRECTION('',(-1.,0.,0.));
#1213=DIRECTION('',(0.907959384500452,0.,0.419058177461747));
#1214=DIRECTION('',(0.,0.,-1.));
#1215=DIRECTION('',(-1.,0.,0.));
#1216=DIRECTION('',(1.,0.,0.));
#1217=DIRECTION('',(-0.74740931868366,0.,-0.66436383882992));
#1218=DIRECTION('',(0.,0.,1.));
#1219=DIRECTION('',(0.,0.,1.));
#1220=DIRECTION('',(1.,0.,0.));
#1221=DIRECTION('',(0.,0.,-1.));
#1222=DIRECTION('',(-1.,0.,0.));
#1223=DIRECTION('',(0.,0.,1.));
#1224=DIRECTION('',(1.,0.,0.));
#1225=DIRECTION('',(0.,0.,-1.));
#1226=DIRECTION('',(-1.,0.,0.));
#1227=DIRECTION('',(-1.,0.,0.));
#1228=DIRECTION('',(0.,0.,1.));
#1229=DIRECTION('',(1.,0.,0.));
#1230=DIRECTION('',(0.,0.,-1.));
#1231=DIRECTION('',(0.,0.,1.));
#1232=DIRECTION('',(1.,0.,0.));
#1233=DIRECTION('',(0.,0.,-1.));
#1234=DIRECTION('',(-1.,0.,0.));
#1235=DIRECTION('center_axis',(0.66436383882992,0.,-0.74740931868366));
#1236=DIRECTION('ref_axis',(0.74740931868366,0.,0.66436383882992));
#1237=DIRECTION('',(0.,-1.,0.));
#1238=DIRECTION('',(0.74740931868366,0.,0.66436383882992));
#1239=DIRECTION('',(0.,-1.,0.));
#1240=DIRECTION('center_axis',(-1.,0.,0.));
#1241=DIRECTION('ref_axis',(0.,0.,-1.));
#1242=DIRECTION('',(0.,0.,-1.));
#1243=DIRECTION('',(0.,-1.,0.));
#1244=DIRECTION('center_axis',(0.,0.,1.));
#1245=DIRECTION('ref_axis',(-1.,0.,0.));
#1246=DIRECTION('',(-1.,0.,0.));
#1247=DIRECTION('center_axis',(1.,0.,0.));
#1248=DIRECTION('ref_axis',(0.,0.,1.));
#1249=DIRECTION('',(0.,-1.,0.));
#1250=DIRECTION('',(0.,0.,1.));
#1251=DIRECTION('',(0.,-1.,0.));
#1252=DIRECTION('center_axis',(0.,0.,-1.));
#1253=DIRECTION('ref_axis',(1.,0.,0.));
#1254=DIRECTION('',(1.,0.,0.));
#1255=DIRECTION('',(0.,-1.,0.));
#1256=DIRECTION('center_axis',(-0.419058177461747,0.,0.907959384500452));
#1257=DIRECTION('ref_axis',(-0.907959384500452,0.,-0.419058177461747));
#1258=DIRECTION('',(-0.907959384500452,0.,-0.419058177461747));
#1259=DIRECTION('center_axis',(1.,0.,0.));
#1260=DIRECTION('ref_axis',(0.,0.,1.));
#1261=DIRECTION('',(0.,-1.,0.));
#1262=DIRECTION('',(0.,0.,1.));
#1263=DIRECTION('',(0.,-1.,0.));
#1264=DIRECTION('center_axis',(0.,0.,-1.));
#1265=DIRECTION('ref_axis',(1.,0.,0.));
#1266=DIRECTION('',(1.,0.,0.));
#1267=DIRECTION('',(0.,-1.,0.));
#1268=DIRECTION('center_axis',(-0.66436383882992,0.,0.74740931868366));
#1269=DIRECTION('ref_axis',(-0.74740931868366,0.,-0.66436383882992));
#1270=DIRECTION('',(-0.74740931868366,0.,-0.66436383882992));
#1271=DIRECTION('center_axis',(-1.,0.,0.));
#1272=DIRECTION('ref_axis',(0.,0.,-1.));
#1273=DIRECTION('',(0.,-1.,0.));
#1274=DIRECTION('',(0.,0.,-1.));
#1275=DIRECTION('',(0.,-1.,0.));
#1276=DIRECTION('center_axis',(0.,0.,1.));
#1277=DIRECTION('ref_axis',(-1.,0.,0.));
#1278=DIRECTION('',(-1.,0.,0.));
#1279=DIRECTION('',(0.,-1.,0.));
#1280=DIRECTION('center_axis',(0.419058177461747,0.,-0.907959384500452));
#1281=DIRECTION('ref_axis',(0.907959384500452,0.,0.419058177461747));
#1282=DIRECTION('',(0.907959384500452,0.,0.419058177461747));
#1283=DIRECTION('center_axis',(0.,0.,-1.));
#1284=DIRECTION('ref_axis',(-1.,0.,0.));
#1285=DIRECTION('',(0.,1.,0.));
#1286=DIRECTION('',(-1.,0.,0.));
#1287=DIRECTION('',(0.,1.,0.));
#1288=DIRECTION('center_axis',(0.,1.,0.));
#1289=DIRECTION('ref_axis',(0.999999065968561,0.,0.00136677064872298));
#1290=DIRECTION('center_axis',(0.,1.,0.));
#1291=DIRECTION('ref_axis',(-0.00273353874426739,0.,0.999996263875987));
#1292=DIRECTION('',(0.,1.,0.));
#1293=DIRECTION('center_axis',(0.,-1.,0.));
#1294=DIRECTION('ref_axis',(-1.,0.,0.));
#1295=DIRECTION('center_axis',(0.,-1.,0.));
#1296=DIRECTION('ref_axis',(-1.,0.,0.));
#1297=DIRECTION('',(0.,-1.,0.));
#1298=DIRECTION('center_axis',(0.,-1.,0.));
#1299=DIRECTION('ref_axis',(-1.,0.,0.));
#1300=DIRECTION('center_axis',(0.,-1.,0.));
#1301=DIRECTION('ref_axis',(-1.,0.,0.));
#1302=DIRECTION('',(0.,-1.,0.));
#1303=DIRECTION('center_axis',(-0.237787736652784,0.,0.971317143006107));
#1304=DIRECTION('ref_axis',(-0.971317143006107,0.,-0.237787736652784));
#1305=DIRECTION('',(0.,-1.,0.));
#1306=DIRECTION('',(-0.971317143006107,0.,-0.237787736652784));
#1307=DIRECTION('',(0.,-1.,0.));
#1308=DIRECTION('center_axis',(0.971317143006107,0.,0.237787736652785));
#1309=DIRECTION('ref_axis',(-0.237787736652785,0.,0.971317143006107));
#1310=DIRECTION('',(-0.237787736652785,0.,0.971317143006107));
#1311=DIRECTION('',(0.,-1.,0.));
#1312=DIRECTION('center_axis',(9.10191630206557E-18,0.,-1.));
#1313=DIRECTION('ref_axis',(1.,0.,9.10191630206557E-18));
#1314=DIRECTION('',(1.,0.,9.10191630206557E-18));
#1315=DIRECTION('center_axis',(-0.971317143006107,0.,-0.237787736652785));
#1316=DIRECTION('ref_axis',(0.237787736652785,0.,-0.971317143006107));
#1317=DIRECTION('',(0.,-1.,0.));
#1318=DIRECTION('',(0.237787736652785,0.,-0.971317143006107));
#1319=DIRECTION('',(0.,-1.,0.));
#1320=DIRECTION('center_axis',(-0.237787736652784,0.,0.971317143006107));
#1321=DIRECTION('ref_axis',(-0.971317143006107,0.,-0.237787736652784));
#1322=DIRECTION('',(-0.971317143006107,0.,-0.237787736652784));
#1323=DIRECTION('',(0.,-1.,0.));
#1324=DIRECTION('center_axis',(0.971317143006107,0.,0.237787736652785));
#1325=DIRECTION('ref_axis',(-0.237787736652785,0.,0.971317143006107));
#1326=DIRECTION('',(-0.237787736652785,0.,0.971317143006107));
#1327=DIRECTION('',(0.,-1.,0.));
#1328=DIRECTION('center_axis',(9.10191630206557E-18,0.,-1.));
#1329=DIRECTION('ref_axis',(1.,0.,9.10191630206557E-18));
#1330=DIRECTION('',(1.,0.,9.10191630206557E-18));
#1331=DIRECTION('center_axis',(-0.971317143006107,0.,-0.237787736652784));
#1332=DIRECTION('ref_axis',(0.237787736652784,0.,-0.971317143006107));
#1333=DIRECTION('',(0.,-1.,0.));
#1334=DIRECTION('',(0.237787736652784,0.,-0.971317143006107));
#1335=DIRECTION('',(0.,-1.,0.));
#1336=DIRECTION('center_axis',(-0.237787736652784,0.,0.971317143006107));
#1337=DIRECTION('ref_axis',(-0.971317143006107,0.,-0.237787736652784));
#1338=DIRECTION('',(-0.971317143006107,0.,-0.237787736652784));
#1339=DIRECTION('',(0.,-1.,0.));
#1340=DIRECTION('center_axis',(0.971317143006107,0.,0.237787736652785));
#1341=DIRECTION('ref_axis',(-0.237787736652785,0.,0.971317143006107));
#1342=DIRECTION('',(-0.237787736652785,0.,0.971317143006107));
#1343=DIRECTION('',(0.,-1.,0.));
#1344=DIRECTION('center_axis',(9.10191630206557E-18,0.,-1.));
#1345=DIRECTION('ref_axis',(1.,0.,9.10191630206557E-18));
#1346=DIRECTION('',(1.,0.,9.10191630206557E-18));
#1347=DIRECTION('center_axis',(-0.971317143006107,0.,-0.237787736652786));
#1348=DIRECTION('ref_axis',(0.237787736652786,0.,-0.971317143006107));
#1349=DIRECTION('',(0.,-1.,0.));
#1350=DIRECTION('',(0.237787736652786,0.,-0.971317143006107));
#1351=DIRECTION('',(0.,-1.,0.));
#1352=DIRECTION('center_axis',(-0.237787736652784,0.,0.971317143006107));
#1353=DIRECTION('ref_axis',(-0.971317143006107,0.,-0.237787736652784));
#1354=DIRECTION('',(-0.971317143006107,0.,-0.237787736652784));
#1355=DIRECTION('',(0.,-1.,0.));
#1356=DIRECTION('center_axis',(0.971317143006107,0.,0.237787736652784));
#1357=DIRECTION('ref_axis',(-0.237787736652784,0.,0.971317143006107));
#1358=DIRECTION('',(-0.237787736652784,0.,0.971317143006107));
#1359=DIRECTION('',(0.,-1.,0.));
#1360=DIRECTION('center_axis',(9.10191630206557E-18,0.,-1.));
#1361=DIRECTION('ref_axis',(1.,0.,9.10191630206557E-18));
#1362=DIRECTION('',(1.,0.,9.10191630206557E-18));
#1363=DIRECTION('center_axis',(0.,0.,1.));
#1364=DIRECTION('ref_axis',(1.,0.,0.));
#1365=DIRECTION('',(-1.,0.,0.));
#1366=DIRECTION('',(0.,1.,0.));
#1367=DIRECTION('',(0.,1.,0.));
#1368=DIRECTION('center_axis',(1.,0.,0.));
#1369=DIRECTION('ref_axis',(0.,0.,-1.));
#1370=DIRECTION('',(0.,0.,1.));
#1371=DIRECTION('',(0.,1.,0.));
#1372=DIRECTION('center_axis',(0.,0.,-1.));
#1373=DIRECTION('ref_axis',(-1.,0.,0.));
#1374=DIRECTION('',(1.,0.,0.));
#1375=DIRECTION('',(0.,1.,0.));
#1376=DIRECTION('center_axis',(-1.,0.,0.));
#1377=DIRECTION('ref_axis',(0.,0.,1.));
#1378=DIRECTION('',(0.,0.,-1.));
#1379=DIRECTION('center_axis',(0.,0.,1.));
#1380=DIRECTION('ref_axis',(1.,0.,0.));
#1381=DIRECTION('',(-1.,0.,0.));
#1382=DIRECTION('',(0.,1.,0.));
#1383=DIRECTION('',(0.,1.,0.));
#1384=DIRECTION('center_axis',(1.,0.,0.));
#1385=DIRECTION('ref_axis',(0.,0.,-1.));
#1386=DIRECTION('',(0.,0.,1.));
#1387=DIRECTION('',(0.,1.,0.));
#1388=DIRECTION('center_axis',(0.,0.,-1.));
#1389=DIRECTION('ref_axis',(-1.,0.,0.));
#1390=DIRECTION('',(1.,0.,0.));
#1391=DIRECTION('',(0.,1.,0.));
#1392=DIRECTION('center_axis',(-1.,0.,0.));
#1393=DIRECTION('ref_axis',(0.,0.,1.));
#1394=DIRECTION('',(0.,0.,-1.));
#1395=DIRECTION('center_axis',(-1.,0.,0.));
#1396=DIRECTION('ref_axis',(0.,0.,1.));
#1397=DIRECTION('',(0.,0.,-1.));
#1398=DIRECTION('',(0.,1.,0.));
#1399=DIRECTION('',(0.,1.,0.));
#1400=DIRECTION('center_axis',(0.,0.,1.));
#1401=DIRECTION('ref_axis',(1.,0.,0.));
#1402=DIRECTION('',(-1.,0.,0.));
#1403=DIRECTION('',(0.,1.,0.));
#1404=DIRECTION('center_axis',(1.,0.,0.));
#1405=DIRECTION('ref_axis',(0.,0.,-1.));
#1406=DIRECTION('',(0.,0.,1.));
#1407=DIRECTION('',(0.,1.,0.));
#1408=DIRECTION('center_axis',(0.,0.,-1.));
#1409=DIRECTION('ref_axis',(-1.,0.,0.));
#1410=DIRECTION('',(1.,0.,0.));
#1411=DIRECTION('center_axis',(0.,0.,1.));
#1412=DIRECTION('ref_axis',(1.,0.,0.));
#1413=DIRECTION('',(-1.,0.,0.));
#1414=DIRECTION('',(0.,1.,0.));
#1415=DIRECTION('',(0.,1.,0.));
#1416=DIRECTION('center_axis',(1.,0.,0.));
#1417=DIRECTION('ref_axis',(0.,0.,-1.));
#1418=DIRECTION('',(0.,0.,1.));
#1419=DIRECTION('',(0.,1.,0.));
#1420=DIRECTION('center_axis',(0.,0.,-1.));
#1421=DIRECTION('ref_axis',(-1.,0.,0.));
#1422=DIRECTION('',(1.,0.,0.));
#1423=DIRECTION('',(0.,1.,0.));
#1424=DIRECTION('center_axis',(-1.,0.,0.));
#1425=DIRECTION('ref_axis',(0.,0.,1.));
#1426=DIRECTION('',(0.,0.,-1.));
#1427=DIRECTION('center_axis',(0.,1.,0.));
#1428=DIRECTION('ref_axis',(1.,0.,0.));
#1429=DIRECTION('center_axis',(0.,-1.,0.));
#1430=DIRECTION('ref_axis',(1.,0.,0.));
#1431=DIRECTION('center_axis',(0.,-1.,0.));
#1432=DIRECTION('ref_axis',(-1.,0.,0.));
#1433=DIRECTION('',(0.,-1.,0.));
#1434=CARTESIAN_POINT('',(0.,0.,0.));
#1435=CARTESIAN_POINT('Origin',(110.000001639128,5.08,10.0000001490116));
#1436=CARTESIAN_POINT('',(113.000001683831,5.08,10.0000001490116));
#1437=CARTESIAN_POINT('Origin',(110.000001639128,5.08,10.0000001490116));
#1438=CARTESIAN_POINT('Origin',(67.3000035493228,0.,7.60000709864557));
#1439=CARTESIAN_POINT('',(126.979225086139,0.,15.1999858027221));
#1440=CARTESIAN_POINT('',(0.,0.,0.));
#1441=CARTESIAN_POINT('Ctrl Pts',(126.979225086139,0.,15.1999858027221));
#1442=CARTESIAN_POINT('Ctrl Pts',(121.57260385931,0.,15.0689963050866));
#1443=CARTESIAN_POINT('Ctrl Pts',(111.170549275991,0.,14.7409445165113));
#1444=CARTESIAN_POINT('Ctrl Pts',(96.7996209583647,0.,14.0507571593106));
#1445=CARTESIAN_POINT('Ctrl Pts',(79.5027847474144,0.,12.7286989186958));
#1446=CARTESIAN_POINT('Ctrl Pts',(58.1104596962824,0.,10.2039991137619));
#1447=CARTESIAN_POINT('Ctrl Pts',(38.4032465564992,0.,7.12919334381266));
#1448=CARTESIAN_POINT('Ctrl Pts',(20.6159531102848,0.,3.95473663155402));
#1449=CARTESIAN_POINT('Ctrl Pts',(7.14160718246061,0.,1.39261472761053));
#1450=CARTESIAN_POINT('Ctrl Pts',(0.,0.,0.));
#1451=CARTESIAN_POINT('',(127.,0.,-1.33339926556772E-16));
#1452=CARTESIAN_POINT('',(0.,0.,0.));
#1453=CARTESIAN_POINT('Origin',(127.,0.,7.60000709864557));
#1454=CARTESIAN_POINT('',(46.5734851188155,0.,2.00000002980232));
#1455=CARTESIAN_POINT('',(42.8411910874857,0.,2.00000002980232));
#1456=CARTESIAN_POINT('',(55.0705973184042,0.,2.00000002980232));
#1457=CARTESIAN_POINT('',(42.0871673954839,0.,5.08004170303433));
#1458=CARTESIAN_POINT('',(42.5089573818393,1.11022302462516E-15,3.3571107804294));
#1459=CARTESIAN_POINT('',(45.6084262966524,0.,5.94207959694605));
#1460=CARTESIAN_POINT('',(56.0324249366322,0.,8.49397427040072));
#1461=CARTESIAN_POINT('',(46.5127456940894,0.,2.24810889076927));
#1462=CARTESIAN_POINT('',(41.744772406568,0.,2.00000002980232));
#1463=CARTESIAN_POINT('',(38.0396375099165,0.,2.00000002980232));
#1464=CARTESIAN_POINT('',(52.6698205296196,0.,2.00000002980232));
#1465=CARTESIAN_POINT('',(37.5571080988349,0.,3.97103981337419));
#1466=CARTESIAN_POINT('',(37.9788980851903,0.,2.24810889076927));
#1467=CARTESIAN_POINT('',(41.0527435244865,0.,4.82680483514293));
#1468=CARTESIAN_POINT('',(53.7545835505492,0.,7.93633688949916));
#1469=CARTESIAN_POINT('',(41.8205479518827,0.,1.69047150986771));
#1470=CARTESIAN_POINT('',(53.9837549121187,0.,2.00000002980232));
#1471=CARTESIAN_POINT('',(47.5963815836697,0.,2.00000002980232));
#1472=CARTESIAN_POINT('',(57.4481925664962,0.,2.00000002980232));
#1473=CARTESIAN_POINT('',(46.5734851188155,0.,6.17833523673508));
#1474=CARTESIAN_POINT('',(46.9952751051709,1.11022302462516E-15,4.45540431413017));
#1475=CARTESIAN_POINT('',(52.5996971479556,0.,7.65360964048354));
#1476=CARTESIAN_POINT('',(59.5280603622838,0.,9.34973929216947));
#1477=CARTESIAN_POINT('',(53.7135160163925,0.,3.10387391253802));
#1478=CARTESIAN_POINT('',(36.987949150999,0.,2.00000002980232));
#1479=CARTESIAN_POINT('',(29.5057899010174,0.,2.00000002980232));
#1480=CARTESIAN_POINT('',(48.4028967251701,0.,2.00000002980232));
#1481=CARTESIAN_POINT('',(36.5648853628963,0.,3.72813418740729));
#1482=CARTESIAN_POINT('',(51.5106544697542,0.,7.38700156563134));
#1483=CARTESIAN_POINT('',(37.1982072433031,0.,1.14113618599988));
#1484=CARTESIAN_POINT('',(133.35,0.,7.60000709864557));
#1485=CARTESIAN_POINT('Origin',(127.,0.,7.60000709864557));
#1486=CARTESIAN_POINT('',(99.1605529057265,0.,7.60000709864557));
#1487=CARTESIAN_POINT('Origin',(95.3505529057265,0.,7.60000709864557));
#1488=CARTESIAN_POINT('',(72.0000010728836,0.,9.00000013411045));
#1489=CARTESIAN_POINT('',(59.0000008791685,0.,3.00000004470348));
#1490=CARTESIAN_POINT('',(63.2963447851772,0.,4.98292800132287));
#1491=CARTESIAN_POINT('',(59.0000008791685,0.,9.00000013411045));
#1492=CARTESIAN_POINT('',(59.0000008791685,0.,8.30000361637801));
#1493=CARTESIAN_POINT('',(69.6500023111032,0.,9.00000013411045));
#1494=CARTESIAN_POINT('',(76.0000011324883,0.,2.00000002980232));
#1495=CARTESIAN_POINT('',(85.0000012665987,0.,10.0000001490116));
#1496=CARTESIAN_POINT('',(79.4603484571997,0.,5.07586431843474));
#1497=CARTESIAN_POINT('',(85.0000012665987,0.,2.00000002980232));
#1498=CARTESIAN_POINT('',(85.0000012665987,0.,4.80000356422395));
#1499=CARTESIAN_POINT('',(71.6500023409055,0.,2.00000002980232));
#1500=CARTESIAN_POINT('',(60.0000008940697,0.,2.00000002980232));
#1501=CARTESIAN_POINT('',(73.0000010877848,0.,8.00000011920929));
#1502=CARTESIAN_POINT('',(70.5743936741164,0.,6.88048900520849));
#1503=CARTESIAN_POINT('',(73.0000010877848,0.,2.00000002980232));
#1504=CARTESIAN_POINT('',(73.0000010877848,0.,4.80000356422395));
#1505=CARTESIAN_POINT('',(63.6500022216962,0.,2.00000002980232));
#1506=CARTESIAN_POINT('',(75.0000011175871,0.,11.0000001639128));
#1507=CARTESIAN_POINT('',(84.0000012516975,0.,11.0000001639128));
#1508=CARTESIAN_POINT('',(75.6500024005102,0.,11.0000001639128));
#1509=CARTESIAN_POINT('',(75.0000011175871,0.,3.00000004470348));
#1510=CARTESIAN_POINT('',(73.9913828584644,0.,2.10345048103887));
#1511=CARTESIAN_POINT('',(75.0000011175871,0.,9.30000363127917));
#1512=CARTESIAN_POINT('',(116.000001728535,0.,0.979772231821491));
#1513=CARTESIAN_POINT('',(116.000001728535,0.,6.00000008940697));
#1514=CARTESIAN_POINT('',(116.000001728535,0.,4.28988966523353));
#1515=CARTESIAN_POINT('',(119.563840421187,0.,6.00000008940697));
#1516=CARTESIAN_POINT('',(91.6500026389288,0.,6.00000008940697));
#1517=CARTESIAN_POINT('',(119.563840421187,0.,0.979772231821491));
#1518=CARTESIAN_POINT('',(119.563840421187,0.,6.80000359402627));
#1519=CARTESIAN_POINT('',(93.4319219852547,0.,0.979772231821491));
#1520=CARTESIAN_POINT('',(101.000001505017,0.,0.979772231821491));
#1521=CARTESIAN_POINT('',(101.000001505017,0.,6.00000008940697));
#1522=CARTESIAN_POINT('',(101.000001505017,0.,4.28988966523353));
#1523=CARTESIAN_POINT('',(103.00000153482,0.,6.00000008940697));
#1524=CARTESIAN_POINT('',(84.15000252717,0.,6.00000008940697));
#1525=CARTESIAN_POINT('',(103.00000153482,0.,0.979772231821491));
#1526=CARTESIAN_POINT('',(103.00000153482,0.,6.80000359402627));
#1527=CARTESIAN_POINT('',(85.1500025420712,0.,0.979772231821491));
#1528=CARTESIAN_POINT('',(115.000001713634,0.,0.979772231821491));
#1529=CARTESIAN_POINT('',(110.000001639128,0.,0.979772231821491));
#1530=CARTESIAN_POINT('',(91.1500026314782,0.,0.979772231821491));
#1531=CARTESIAN_POINT('',(110.000001639128,0.,6.00000008940697));
#1532=CARTESIAN_POINT('',(110.000001639128,0.,4.28988966523353));
#1533=CARTESIAN_POINT('',(115.000001713634,0.,6.00000008940697));
#1534=CARTESIAN_POINT('',(88.6500025942253,0.,6.00000008940697));
#1535=CARTESIAN_POINT('',(115.000001713634,0.,6.80000359402627));
#1536=CARTESIAN_POINT('',(104.000001549721,0.,0.979772231821491));
#1537=CARTESIAN_POINT('',(104.000001549721,0.,6.00000008940697));
#1538=CARTESIAN_POINT('',(104.000001549721,0.,4.28988966523353));
#1539=CARTESIAN_POINT('',(109.030170159491,0.,6.00000008940697));
#1540=CARTESIAN_POINT('',(85.6500025495218,0.,6.00000008940697));
#1541=CARTESIAN_POINT('',(109.030170159491,0.,0.979772231821491));
#1542=CARTESIAN_POINT('',(109.030170159491,0.,6.80000359402627));
#1543=CARTESIAN_POINT('',(88.1650868544067,0.,0.979772231821491));
#1544=CARTESIAN_POINT('Origin',(75.0000011175871,10.16,3.00000004470348));
#1545=CARTESIAN_POINT('',(84.0000012516975,10.16,11.0000001639128));
#1546=CARTESIAN_POINT('',(84.0000012516975,10.16,11.0000001639128));
#1547=CARTESIAN_POINT('',(75.0000011175871,10.16,3.00000004470348));
#1548=CARTESIAN_POINT('',(73.9913828584644,10.16,2.10345048103887));
#1549=CARTESIAN_POINT('',(75.0000011175871,10.16,3.00000004470348));
#1550=CARTESIAN_POINT('Origin',(75.0000011175871,10.16,11.0000001639128));
#1551=CARTESIAN_POINT('',(75.0000011175871,10.16,11.0000001639128));
#1552=CARTESIAN_POINT('',(75.0000011175871,10.16,9.30000363127917));
#1553=CARTESIAN_POINT('',(75.0000011175871,10.16,11.0000001639128));
#1554=CARTESIAN_POINT('Origin',(84.0000012516975,10.16,11.0000001639128));
#1555=CARTESIAN_POINT('',(75.6500024005102,10.16,11.0000001639128));
#1556=CARTESIAN_POINT('Origin',(73.0000010877848,10.16,2.00000002980232));
#1557=CARTESIAN_POINT('',(73.0000010877848,10.16,8.00000011920929));
#1558=CARTESIAN_POINT('',(73.0000010877848,10.16,8.00000011920929));
#1559=CARTESIAN_POINT('',(73.0000010877848,10.16,2.00000002980232));
#1560=CARTESIAN_POINT('',(73.0000010877848,10.16,4.80000356422395));
#1561=CARTESIAN_POINT('',(73.0000010877848,10.16,2.00000002980232));
#1562=CARTESIAN_POINT('Origin',(60.0000008940697,10.16,2.00000002980232));
#1563=CARTESIAN_POINT('',(60.0000008940697,10.16,2.00000002980232));
#1564=CARTESIAN_POINT('',(63.6500022216962,10.16,2.00000002980232));
#1565=CARTESIAN_POINT('',(60.0000008940697,10.16,2.00000002980232));
#1566=CARTESIAN_POINT('Origin',(73.0000010877848,10.16,8.00000011920929));
#1567=CARTESIAN_POINT('',(70.5743936741164,10.16,6.88048900520849));
#1568=CARTESIAN_POINT('Origin',(85.0000012665987,10.16,2.00000002980232));
#1569=CARTESIAN_POINT('',(85.0000012665987,10.16,10.0000001490116));
#1570=CARTESIAN_POINT('',(85.0000012665987,10.16,10.0000001490116));
#1571=CARTESIAN_POINT('',(85.0000012665987,10.16,2.00000002980232));
#1572=CARTESIAN_POINT('',(85.0000012665987,10.16,4.80000356422395));
#1573=CARTESIAN_POINT('',(85.0000012665987,10.16,2.00000002980232));
#1574=CARTESIAN_POINT('Origin',(76.0000011324883,10.16,2.00000002980232));
#1575=CARTESIAN_POINT('',(76.0000011324883,10.16,2.00000002980232));
#1576=CARTESIAN_POINT('',(71.6500023409055,10.16,2.00000002980232));
#1577=CARTESIAN_POINT('',(76.0000011324883,10.16,2.00000002980232));
#1578=CARTESIAN_POINT('Origin',(85.0000012665987,10.16,10.0000001490116));
#1579=CARTESIAN_POINT('',(79.4603484571997,10.16,5.07586431843474));
#1580=CARTESIAN_POINT('Origin',(59.0000008791685,10.16,9.00000013411045));
#1581=CARTESIAN_POINT('',(59.0000008791685,10.16,3.00000004470348));
#1582=CARTESIAN_POINT('',(59.0000008791685,10.16,3.00000004470348));
#1583=CARTESIAN_POINT('',(59.0000008791685,10.16,9.00000013411045));
#1584=CARTESIAN_POINT('',(59.0000008791685,10.16,8.30000361637801));
#1585=CARTESIAN_POINT('',(59.0000008791685,10.16,9.00000013411045));
#1586=CARTESIAN_POINT('Origin',(72.0000010728836,10.16,9.00000013411045));
#1587=CARTESIAN_POINT('',(72.0000010728836,10.16,9.00000013411045));
#1588=CARTESIAN_POINT('',(69.6500023111032,10.16,9.00000013411045));
#1589=CARTESIAN_POINT('',(72.0000010728836,10.16,9.00000013411045));
#1590=CARTESIAN_POINT('Origin',(59.0000008791685,10.16,3.00000004470348));
#1591=CARTESIAN_POINT('',(63.2963447851772,10.16,4.98292800132287));
#1592=CARTESIAN_POINT('Origin',(127.,0.,0.));
#1593=CARTESIAN_POINT('',(0.,10.16,0.));
#1594=CARTESIAN_POINT('',(0.,0.,0.));
#1595=CARTESIAN_POINT('',(127.,10.16,0.));
#1596=CARTESIAN_POINT('',(0.,10.16,0.));
#1597=CARTESIAN_POINT('',(127.,0.,-1.33339926556772E-16));
#1598=CARTESIAN_POINT('Origin',(127.,0.,7.60000709864557));
#1599=CARTESIAN_POINT('',(126.979225086139,10.16,15.1999858027221));
#1600=CARTESIAN_POINT('Origin',(127.,10.16,7.60000709864557));
#1601=CARTESIAN_POINT('',(126.979225086139,0.,15.1999858027221));
#1602=CARTESIAN_POINT('Ctrl Pts',(0.,0.,0.));
#1603=CARTESIAN_POINT('Ctrl Pts',(0.,10.16,0.));
#1604=CARTESIAN_POINT('Ctrl Pts',(7.14160718246061,0.,1.39261472761053));
#1605=CARTESIAN_POINT('Ctrl Pts',(7.14160718246061,10.16,1.39261472761053));
#1606=CARTESIAN_POINT('Ctrl Pts',(20.6159531102848,0.,3.95473663155402));
#1607=CARTESIAN_POINT('Ctrl Pts',(20.6159531102848,10.16,3.95473663155402));
#1608=CARTESIAN_POINT('Ctrl Pts',(38.4032465564992,0.,7.12919334381266));
#1609=CARTESIAN_POINT('Ctrl Pts',(38.4032465564992,10.16,7.12919334381266));
#1610=CARTESIAN_POINT('Ctrl Pts',(58.1104596962824,0.,10.2039991137619));
#1611=CARTESIAN_POINT('Ctrl Pts',(58.1104596962824,10.16,10.2039991137619));
#1612=CARTESIAN_POINT('Ctrl Pts',(79.5027847474144,0.,12.7286989186958));
#1613=CARTESIAN_POINT('Ctrl Pts',(79.5027847474144,10.16,12.7286989186958));
#1614=CARTESIAN_POINT('Ctrl Pts',(96.7996209583647,0.,14.0507571593106));
#1615=CARTESIAN_POINT('Ctrl Pts',(96.7996209583647,10.16,14.0507571593106));
#1616=CARTESIAN_POINT('Ctrl Pts',(111.170549275991,0.,14.7409445165113));
#1617=CARTESIAN_POINT('Ctrl Pts',(111.170549275991,10.16,14.7409445165113));
#1618=CARTESIAN_POINT('Ctrl Pts',(121.57260385931,0.,15.0689963050866));
#1619=CARTESIAN_POINT('Ctrl Pts',(121.57260385931,10.16,15.0689963050866));
#1620=CARTESIAN_POINT('Ctrl Pts',(126.979225086139,0.,15.1999858027221));
#1621=CARTESIAN_POINT('Ctrl Pts',(126.979225086139,10.16,15.1999858027221));
#1622=CARTESIAN_POINT('Ctrl Pts',(0.,10.16,0.));
#1623=CARTESIAN_POINT('Ctrl Pts',(7.14160718246061,10.16,1.39261472761053));
#1624=CARTESIAN_POINT('Ctrl Pts',(20.6159531102848,10.16,3.95473663155402));
#1625=CARTESIAN_POINT('Ctrl Pts',(38.4032465564992,10.16,7.12919334381266));
#1626=CARTESIAN_POINT('Ctrl Pts',(58.1104596962824,10.16,10.2039991137619));
#1627=CARTESIAN_POINT('Ctrl Pts',(79.5027847474144,10.16,12.7286989186958));
#1628=CARTESIAN_POINT('Ctrl Pts',(96.7996209583647,10.16,14.0507571593106));
#1629=CARTESIAN_POINT('Ctrl Pts',(111.170549275991,10.16,14.7409445165113));
#1630=CARTESIAN_POINT('Ctrl Pts',(121.57260385931,10.16,15.0689963050866));
#1631=CARTESIAN_POINT('Ctrl Pts',(126.979225086139,10.16,15.1999858027221));
#1632=CARTESIAN_POINT('Origin',(95.3505529057265,10.16,7.60000709864557));
#1633=CARTESIAN_POINT('',(99.1605529057265,10.16,7.60000709864557));
#1634=CARTESIAN_POINT('Origin',(95.3505529057265,10.16,7.60000709864557));
#1635=CARTESIAN_POINT('',(99.1605529057265,10.16,7.60000709864557));
#1636=CARTESIAN_POINT('Origin',(127.,10.16,7.60000709864557));
#1637=CARTESIAN_POINT('',(133.35,10.16,7.60000709864557));
#1638=CARTESIAN_POINT('Origin',(127.,10.16,7.60000709864557));
#1639=CARTESIAN_POINT('',(133.35,10.16,7.60000709864557));
#1640=CARTESIAN_POINT('Origin',(36.5648853628963,10.16,3.72813418740729));
#1641=CARTESIAN_POINT('',(29.5057899010174,10.16,2.00000002980232));
#1642=CARTESIAN_POINT('',(29.5057899010174,10.16,2.00000002980232));
#1643=CARTESIAN_POINT('',(36.5648853628963,10.16,3.72813418740729));
#1644=CARTESIAN_POINT('',(51.5106544697542,10.16,7.38700156563134));
#1645=CARTESIAN_POINT('',(36.5648853628963,10.16,3.72813418740729));
#1646=CARTESIAN_POINT('Origin',(36.987949150999,10.16,2.00000002980232));
#1647=CARTESIAN_POINT('',(36.987949150999,10.16,2.00000002980232));
#1648=CARTESIAN_POINT('',(37.1982072433031,10.16,1.14113618599988));
#1649=CARTESIAN_POINT('',(36.987949150999,10.16,2.00000002980232));
#1650=CARTESIAN_POINT('Origin',(29.5057899010174,10.16,2.00000002980232));
#1651=CARTESIAN_POINT('',(48.4028967251701,10.16,2.00000002980232));
#1652=CARTESIAN_POINT('Origin',(46.5734851188155,10.16,6.17833523673508));
#1653=CARTESIAN_POINT('',(47.5963815836697,10.16,2.00000002980232));
#1654=CARTESIAN_POINT('',(47.5963815836697,10.16,2.00000002980232));
#1655=CARTESIAN_POINT('',(46.5734851188155,10.16,6.17833523673508));
#1656=CARTESIAN_POINT('',(46.9952751051709,10.16,4.45540431413017));
#1657=CARTESIAN_POINT('',(46.5734851188155,10.16,6.17833523673508));
#1658=CARTESIAN_POINT('Origin',(52.5996971479556,10.16,7.65360964048354));
#1659=CARTESIAN_POINT('',(52.5996971479556,10.16,7.65360964048354));
#1660=CARTESIAN_POINT('',(59.5280603622838,10.16,9.34973929216947));
#1661=CARTESIAN_POINT('',(52.5996971479556,10.16,7.65360964048354));
#1662=CARTESIAN_POINT('Origin',(53.9837549121187,10.16,2.00000002980232));
#1663=CARTESIAN_POINT('',(53.9837549121187,10.16,2.00000002980232));
#1664=CARTESIAN_POINT('',(53.7135160163925,10.16,3.10387391253802));
#1665=CARTESIAN_POINT('',(53.9837549121187,10.16,2.00000002980232));
#1666=CARTESIAN_POINT('Origin',(47.5963815836697,10.16,2.00000002980232));
#1667=CARTESIAN_POINT('',(57.4481925664962,10.16,2.00000002980232));
#1668=CARTESIAN_POINT('Origin',(37.5571080988349,10.16,3.97103981337419));
#1669=CARTESIAN_POINT('',(38.0396375099165,10.16,2.00000002980232));
#1670=CARTESIAN_POINT('',(38.0396375099165,10.16,2.00000002980232));
#1671=CARTESIAN_POINT('',(37.5571080988349,10.16,3.97103981337419));
#1672=CARTESIAN_POINT('',(37.9788980851903,10.16,2.24810889076927));
#1673=CARTESIAN_POINT('',(37.5571080988349,10.16,3.97103981337419));
#1674=CARTESIAN_POINT('Origin',(41.0527435244865,10.16,4.82680483514293));
#1675=CARTESIAN_POINT('',(41.0527435244865,10.16,4.82680483514293));
#1676=CARTESIAN_POINT('',(53.7545835505492,10.16,7.93633688949916));
#1677=CARTESIAN_POINT('',(41.0527435244865,10.16,4.82680483514293));
#1678=CARTESIAN_POINT('Origin',(41.744772406568,10.16,2.00000002980232));
#1679=CARTESIAN_POINT('',(41.744772406568,10.16,2.00000002980232));
#1680=CARTESIAN_POINT('',(41.8205479518827,10.16,1.69047150986771));
#1681=CARTESIAN_POINT('',(41.744772406568,10.16,2.00000002980232));
#1682=CARTESIAN_POINT('Origin',(38.0396375099165,10.16,2.00000002980232));
#1683=CARTESIAN_POINT('',(52.6698205296196,10.16,2.00000002980232));
#1684=CARTESIAN_POINT('Origin',(42.0871673954839,10.16,5.08004170303433));
#1685=CARTESIAN_POINT('',(42.8411910874857,10.16,2.00000002980232));
#1686=CARTESIAN_POINT('',(42.8411910874857,10.16,2.00000002980232));
#1687=CARTESIAN_POINT('',(42.0871673954839,10.16,5.08004170303433));
#1688=CARTESIAN_POINT('',(42.5089573818393,10.16,3.3571107804294));
#1689=CARTESIAN_POINT('',(42.0871673954839,10.16,5.08004170303433));
#1690=CARTESIAN_POINT('Origin',(45.6084262966524,10.16,5.94207959694605));
#1691=CARTESIAN_POINT('',(45.6084262966524,10.16,5.94207959694605));
#1692=CARTESIAN_POINT('',(56.0324249366322,10.16,8.49397427040072));
#1693=CARTESIAN_POINT('',(45.6084262966524,10.16,5.94207959694605));
#1694=CARTESIAN_POINT('Origin',(46.5734851188155,10.16,2.00000002980232));
#1695=CARTESIAN_POINT('',(46.5734851188155,10.16,2.00000002980232));
#1696=CARTESIAN_POINT('',(46.5127456940894,10.16,2.24810889076927));
#1697=CARTESIAN_POINT('',(46.5734851188155,10.16,2.00000002980232));
#1698=CARTESIAN_POINT('Origin',(42.8411910874857,10.16,2.00000002980232));
#1699=CARTESIAN_POINT('',(55.0705973184042,10.16,2.00000002980232));
#1700=CARTESIAN_POINT('Origin',(116.000001728535,0.,6.00000008940697));
#1701=CARTESIAN_POINT('',(119.563840421187,10.16,6.00000008940697));
#1702=CARTESIAN_POINT('',(116.000001728535,10.16,6.00000008940697));
#1703=CARTESIAN_POINT('',(91.6500026389288,10.16,6.00000008940697));
#1704=CARTESIAN_POINT('',(119.563840421187,0.,6.00000008940697));
#1705=CARTESIAN_POINT('',(116.000001728535,0.,6.00000008940697));
#1706=CARTESIAN_POINT('Origin',(119.563840421187,0.,6.00000008940697));
#1707=CARTESIAN_POINT('',(119.563840421187,10.16,0.979772231821491));
#1708=CARTESIAN_POINT('',(119.563840421187,10.16,6.80000359402627));
#1709=CARTESIAN_POINT('',(119.563840421187,0.,0.979772231821491));
#1710=CARTESIAN_POINT('Origin',(119.563840421187,0.,0.979772231821491));
#1711=CARTESIAN_POINT('',(116.000001728535,10.16,0.979772231821491));
#1712=CARTESIAN_POINT('',(93.4319219852547,10.16,0.979772231821491));
#1713=CARTESIAN_POINT('',(116.000001728535,0.,0.979772231821491));
#1714=CARTESIAN_POINT('Origin',(116.000001728535,0.,0.979772231821491));
#1715=CARTESIAN_POINT('',(116.000001728535,10.16,4.28988966523353));
#1716=CARTESIAN_POINT('Origin',(101.000001505017,0.,6.00000008940697));
#1717=CARTESIAN_POINT('',(103.00000153482,10.16,6.00000008940697));
#1718=CARTESIAN_POINT('',(101.000001505017,10.16,6.00000008940697));
#1719=CARTESIAN_POINT('',(84.15000252717,10.16,6.00000008940697));
#1720=CARTESIAN_POINT('',(103.00000153482,0.,6.00000008940697));
#1721=CARTESIAN_POINT('',(101.000001505017,0.,6.00000008940697));
#1722=CARTESIAN_POINT('Origin',(103.00000153482,0.,6.00000008940697));
#1723=CARTESIAN_POINT('',(103.00000153482,10.16,0.979772231821491));
#1724=CARTESIAN_POINT('',(103.00000153482,10.16,6.80000359402627));
#1725=CARTESIAN_POINT('',(103.00000153482,0.,0.979772231821491));
#1726=CARTESIAN_POINT('Origin',(103.00000153482,0.,0.979772231821491));
#1727=CARTESIAN_POINT('',(101.000001505017,10.16,0.979772231821491));
#1728=CARTESIAN_POINT('',(85.1500025420712,10.16,0.979772231821491));
#1729=CARTESIAN_POINT('',(101.000001505017,0.,0.979772231821491));
#1730=CARTESIAN_POINT('Origin',(101.000001505017,0.,0.979772231821491));
#1731=CARTESIAN_POINT('',(101.000001505017,10.16,4.28988966523353));
#1732=CARTESIAN_POINT('Origin',(110.000001639128,0.,0.979772231821491));
#1733=CARTESIAN_POINT('',(110.000001639128,10.16,6.00000008940697));
#1734=CARTESIAN_POINT('',(110.000001639128,10.16,0.979772231821491));
#1735=CARTESIAN_POINT('',(110.000001639128,10.16,4.28988966523353));
#1736=CARTESIAN_POINT('',(110.000001639128,0.,6.00000008940697));
#1737=CARTESIAN_POINT('',(110.000001639128,0.,0.979772231821491));
#1738=CARTESIAN_POINT('Origin',(110.000001639128,0.,6.00000008940697));
#1739=CARTESIAN_POINT('',(115.000001713634,10.16,6.00000008940697));
#1740=CARTESIAN_POINT('',(88.6500025942253,10.16,6.00000008940697));
#1741=CARTESIAN_POINT('',(115.000001713634,0.,6.00000008940697));
#1742=CARTESIAN_POINT('Origin',(115.000001713634,0.,6.00000008940697));
#1743=CARTESIAN_POINT('',(115.000001713634,10.16,0.979772231821491));
#1744=CARTESIAN_POINT('',(115.000001713634,10.16,6.80000359402627));
#1745=CARTESIAN_POINT('',(115.000001713634,0.,0.979772231821491));
#1746=CARTESIAN_POINT('Origin',(115.000001713634,0.,0.979772231821491));
#1747=CARTESIAN_POINT('',(91.1500026314782,10.16,0.979772231821491));
#1748=CARTESIAN_POINT('Origin',(104.000001549721,0.,6.00000008940697));
#1749=CARTESIAN_POINT('',(109.030170159491,10.16,6.00000008940697));
#1750=CARTESIAN_POINT('',(104.000001549721,10.16,6.00000008940697));
#1751=CARTESIAN_POINT('',(85.6500025495218,10.16,6.00000008940697));
#1752=CARTESIAN_POINT('',(109.030170159491,0.,6.00000008940697));
#1753=CARTESIAN_POINT('',(104.000001549721,0.,6.00000008940697));
#1754=CARTESIAN_POINT('Origin',(109.030170159491,0.,6.00000008940697));
#1755=CARTESIAN_POINT('',(109.030170159491,10.16,0.979772231821491));
#1756=CARTESIAN_POINT('',(109.030170159491,10.16,6.80000359402627));
#1757=CARTESIAN_POINT('',(109.030170159491,0.,0.979772231821491));
#1758=CARTESIAN_POINT('Origin',(109.030170159491,0.,0.979772231821491));
#1759=CARTESIAN_POINT('',(104.000001549721,10.16,0.979772231821491));
#1760=CARTESIAN_POINT('',(88.1650868544067,10.16,0.979772231821491));
#1761=CARTESIAN_POINT('',(104.000001549721,0.,0.979772231821491));
#1762=CARTESIAN_POINT('Origin',(104.000001549721,0.,0.979772231821491));
#1763=CARTESIAN_POINT('',(104.000001549721,10.16,4.28988966523353));
#1764=CARTESIAN_POINT('Origin',(67.3000035493228,10.16,7.60000709864557));
#1765=CARTESIAN_POINT('',(113.000001683831,10.16,10.0000001490116));
#1766=CARTESIAN_POINT('Origin',(110.000001639128,10.16,10.0000001490116));
#1767=CARTESIAN_POINT('Origin',(110.000001639128,27.94,10.0000001490116));
#1768=CARTESIAN_POINT('',(113.000001683831,27.94,10.0000001490116));
#1769=UNCERTAINTY_MEASURE_WITH_UNIT(LENGTH_MEASURE(0.01),#1773,
'DISTANCE_ACCURACY_VALUE',
'Maximum model space distance between geometric entities at asserted c
onnectivities');
#1770=UNCERTAINTY_MEASURE_WITH_UNIT(LENGTH_MEASURE(0.01),#1773,
'DISTANCE_ACCURACY_VALUE',
'Maximum model space distance between geometric entities at asserted c
onnectivities');
#1771=(
GEOMETRIC_REPRESENTATION_CONTEXT(3)
GLOBAL_UNCERTAINTY_ASSIGNED_CONTEXT((#1769))
GLOBAL_UNIT_ASSIGNED_CONTEXT((#1773,#1775,#1776))
REPRESENTATION_CONTEXT('','3D')
);
#1772=(
GEOMETRIC_REPRESENTATION_CONTEXT(3)
GLOBAL_UNCERTAINTY_ASSIGNED_CONTEXT((#1770))
GLOBAL_UNIT_ASSIGNED_CONTEXT((#1773,#1775,#1776))
REPRESENTATION_CONTEXT('','3D')
);
#1773=(
LENGTH_UNIT()
NAMED_UNIT(*)
SI_UNIT(.MILLI.,.METRE.)
);
#1774=(
LENGTH_UNIT()
NAMED_UNIT(*)
SI_UNIT($,.METRE.)
);
#1775=(
NAMED_UNIT(*)
PLANE_ANGLE_UNIT()
SI_UNIT($,.RADIAN.)
);
#1776=(
NAMED_UNIT(*)
SI_UNIT($,.STERADIAN.)
SOLID_ANGLE_UNIT()
);
#1777=SHAPE_DEFINITION_REPRESENTATION(#1778,#1779);
#1778=PRODUCT_DEFINITION_SHAPE('',$,#1781);
#1779=SHAPE_REPRESENTATION('',(#1117),#1771);
#1780=PRODUCT_DEFINITION_CONTEXT('part definition',#1785,'design');
#1781=PRODUCT_DEFINITION('Wingending2','Wingending2 v1',#1782,#1780);
#1782=PRODUCT_DEFINITION_FORMATION('',$,#1787);
#1783=PRODUCT_RELATED_PRODUCT_CATEGORY('Wingending2 v1',
'Wingending2 v1',(#1787));
#1784=APPLICATION_PROTOCOL_DEFINITION('international standard',
'automotive_design',2009,#1785);
#1785=APPLICATION_CONTEXT(
'Core Data for Automotive Mechanical Design Process');
#1786=PRODUCT_CONTEXT('part definition',#1785,'mechanical');
#1787=PRODUCT('Wingending2','Wingending2 v1',$,(#1786));
#1788=PRESENTATION_STYLE_ASSIGNMENT((#1789));
#1789=SURFACE_STYLE_USAGE(.BOTH.,#1790);
#1790=SURFACE_SIDE_STYLE('',(#1791));
#1791=SURFACE_STYLE_FILL_AREA(#1792);
#1792=FILL_AREA_STYLE('Steel - Satin',(#1793));
#1793=FILL_AREA_STYLE_COLOUR('Steel - Satin',#1794);
#1794=COLOUR_RGB('Steel - Satin',0.627450980392157,0.627450980392157,0.627450980392157);
ENDSEC;
END-ISO-10303-21;
